<?xml version="1.0" standalone="no"?><!DOCTYPE svg PUBLIC "-//W3C//DTD SVG 1.1//EN" "http://www.w3.org/Graphics/SVG/1.1/DTD/svg11.dtd"><svg t="1730821127802" class="icon" viewBox="0 0 1024 1024" version="1.1" xmlns="http://www.w3.org/2000/svg" p-id="7332" xmlns:xlink="http://www.w3.org/1999/xlink" width="32" height="32"><path d="M488.765284 78.636247m-78.636246 0a78.636247 78.636247 0 1 0 157.272493 0 78.636247 78.636247 0 1 0-157.272493 0Z" p-id="7333"></path><path d="M818.296844 157.272493c-25.326617 0-47.192131 14.78756-57.445647 36.194478H381.003861c-29.696259 0.674915-49.926402 12.901259-57.835021 27.87918L161.310386 494.297339l0.415332 261.711259L36.909713 963.622825c-14.562588 48.680405 52.842381 71.566945 73.643606 52.842381l141.048576-233.832078V597.066123c0-11.231277 17.755455-24.270981 28.709844-12.061942L457.649974 765.163213l69.810435 244.648024c14.839477 27.048515 84.73644 14.078034 83.628887-27.463848l-71.151613-269.619877-174.586658-179.293757c-6.022318-6.178068-7.242357-15.592266-3.011159-23.102859l50.930122-90.481869a19.477354 19.477354 0 0 1 16.976707-9.924711h68.953813c10.989 16.267181 29.601078 26.961988 50.713803 26.961987 33.780359 0 61.166332-27.385973 61.166332-61.166332s-27.385973-61.166332-61.166332-61.166332c-23.898912 0-44.587652 13.714618-54.650807 33.702485h-25.17952c-5.546417 0-9.024825-5.99636-6.273248-10.815945l47.399797-82.902056h252.997933c11.23993 18.040996 31.245102 30.059674 54.06242 30.059675 35.156148 0 63.658326-28.502178 63.658326-63.658326S853.452992 157.272493 818.296844 157.272493z" p-id="7334"></path></svg>