<svg width="73" height="91" viewBox="0 0 73 91" fill="none" xmlns="http://www.w3.org/2000/svg">
<g filter="url(#filter0_d_114_172)">
<path d="M14.0908 7H52.8181C53.674 7 54.4949 7.34002 55.1001 7.94525C55.7053 8.55048 56.0453 9.37135 56.0453 10.2273V29.5909H10.8635V10.2273C10.8635 9.37135 11.2035 8.55048 11.8088 7.94525C12.414 7.34002 13.2349 7 14.0908 7Z" fill="#F4F4F3"/>
<path d="M14.0908 7H25.3863V29.5909H10.8635V10.2273C10.8635 9.37135 11.2035 8.55048 11.8088 7.94525C12.414 7.34002 13.2349 7 14.0908 7ZM41.5226 7H52.8181C53.674 7 54.4949 7.34002 55.1001 7.94525C55.7053 8.55048 56.0453 9.37135 56.0453 10.2273V29.5909H41.5226V7Z" fill="#3AAB21"/>
<path d="M8.92714 29.5908H57.9817C58.3241 29.5908 58.6524 29.7268 58.8945 29.9689C59.1366 30.211 59.2726 30.5394 59.2726 30.8817V31.5272C59.2726 31.8696 59.1366 32.1979 58.8945 32.44C58.6524 32.6821 58.3241 32.8181 57.9817 32.8181H8.92714C8.58477 32.8181 8.25642 32.6821 8.01433 32.44C7.77224 32.1979 7.63623 31.8696 7.63623 31.5272V30.8817C7.63623 30.5394 7.77224 30.211 8.01433 29.9689C8.25642 29.7268 8.58477 29.5908 8.92714 29.5908Z" fill="#C2681B"/>
<path d="M20.5454 29.5908H46.3636V39.2726H20.5454V29.5908Z" fill="#C2681B"/>
<path d="M10.8635 55.4093C10.8635 61.4008 13.2436 67.1468 17.4802 71.3835C21.7169 75.6201 27.463 78.0002 33.4544 78.0002C39.4459 78.0002 45.192 75.6201 49.4286 71.3835C53.6652 67.1468 56.0453 61.4008 56.0453 55.4093C56.0453 49.4178 53.6652 43.6717 49.4286 39.4351C45.192 35.1985 39.4459 32.8184 33.4544 32.8184C27.463 32.8184 21.7169 35.1985 17.4802 39.4351C13.2436 43.6717 10.8635 49.4178 10.8635 55.4093Z" fill="#E19449"/>
<path d="M14.0908 55.409C14.0908 60.5446 16.1309 65.4698 19.7623 69.1012C23.3937 72.7326 28.3189 74.7727 33.4545 74.7727C38.59 74.7727 43.5152 72.7326 47.1466 69.1012C50.778 65.4698 52.8181 60.5446 52.8181 55.409C52.8181 50.2735 50.778 45.3483 47.1466 41.7169C43.5152 38.0855 38.59 36.0454 33.4545 36.0454C28.3189 36.0454 23.3937 38.0855 19.7623 41.7169C16.1309 45.3483 14.0908 50.2735 14.0908 55.409Z" fill="#C2681B"/>
<path d="M33.4543 73.1592C31.1232 73.1593 28.815 72.7003 26.6613 71.8084C24.5076 70.9164 22.5508 69.609 20.9024 67.9607C19.254 66.3125 17.9465 64.3557 17.0544 62.2021C16.1623 60.0485 15.7031 57.7402 15.7031 55.4092C15.7031 53.0781 16.1623 50.7699 17.0544 48.6163C17.9465 46.4627 19.254 44.5059 20.9024 42.8576C22.5508 41.2094 24.5076 39.9019 26.6613 39.01C28.815 38.118 31.1232 37.659 33.4543 37.6592C35.7853 37.659 38.0936 38.118 40.2473 39.01C42.4009 39.9019 44.3578 41.2094 46.0062 42.8576C47.6545 44.5059 48.9621 46.4627 49.8542 48.6163C50.7463 50.7699 51.2054 53.0781 51.2054 55.4092C51.2054 57.7402 50.7463 60.0485 49.8542 62.2021C48.9621 64.3557 47.6545 66.3125 46.0062 67.9607C44.3578 69.609 42.4009 70.9164 40.2473 71.8084C38.0936 72.7003 35.7853 73.1593 33.4543 73.1592Z" fill="#E19449"/>
<path d="M33.4543 61.8636L25.867 65.8525L27.316 57.4035L21.1777 51.4202L29.659 50.1874L33.4543 42.5L37.2496 50.1874L45.7308 51.4202L39.5926 57.4035L41.0416 65.8525L33.4543 61.8636Z" fill="#FFDCA6"/>
</g>
<defs>
<filter id="filter0_d_114_172" x="0.63623" y="0" width="71.6365" height="91" filterUnits="userSpaceOnUse" color-interpolation-filters="sRGB">
<feFlood flood-opacity="0" result="BackgroundImageFix"/>
<feColorMatrix in="SourceAlpha" type="matrix" values="0 0 0 0 0 0 0 0 0 0 0 0 0 0 0 0 0 0 127 0" result="hardAlpha"/>
<feOffset dx="3" dy="3"/>
<feGaussianBlur stdDeviation="5"/>
<feComposite in2="hardAlpha" operator="out"/>
<feColorMatrix type="matrix" values="0 0 0 0 0 0 0 0 0 0 0 0 0 0 0 0 0 0 0.15 0"/>
<feBlend mode="normal" in2="BackgroundImageFix" result="effect1_dropShadow_114_172"/>
<feBlend mode="normal" in="SourceGraphic" in2="effect1_dropShadow_114_172" result="shape"/>
</filter>
</defs>
</svg>
