<?xml version="1.0" standalone="no"?><!DOCTYPE svg PUBLIC "-//W3C//DTD SVG 1.1//EN" "http://www.w3.org/Graphics/SVG/1.1/DTD/svg11.dtd"><svg t="1730819832075" class="icon" viewBox="0 0 1033 1024" version="1.1" xmlns="http://www.w3.org/2000/svg" p-id="2652" xmlns:xlink="http://www.w3.org/1999/xlink" width="32.28125" height="32"><path d="M554.60447 774.850479l-4.158267-338.969874-57.291684 15.993336-130.016937 0.693045-7.659031-278.106345L467.112037 0l135.64126 1.563793 4.531445 371.63182 33.26614 4.913508-8.432043 56.989588-24.123282-3.554075 4.193809 342.6128zM413.561016 190.57837l5.606553 204.057199 65.945856-0.355408 64.613078-17.992503-3.891712-317.778703-47.438012-0.568652z" fill="#2c2c2c" p-id="2653"></path><path d="M459.959461 163.674025l57.611551-0.675274 3.012078 255.955574-57.61155 0.675274z" fill="#2c2c2c" p-id="2654"></path><path d="M408.940719 668.432598a98.563376 98.563376 0 1 1 88.95849-55.807858 97.870332 97.870332 0 0 1-88.95849 55.807858m0.186589-151.048175a52.929057 52.929057 0 0 0-17.38831 2.976538 52.147161 52.147161 0 1 0 17.38831-2.976538" fill="#2c2c2c" p-id="2655"></path><path d="M47.10926 910.260725l-18.738859-13.416632a332.394835 332.394835 0 0 1 94.360683-81.583785c57.407191-34.430099 153.71373-70.939331 286.449535-49.330557l-3.705123 22.728308c-125.334444-20.435929-215.990004 13.656532-269.949743 45.820908a316.152714 316.152714 0 0 0-88.416493 75.790643m758.537276-0.284326a404.036096 404.036096 0 0 1-127.386922-21.146745l7.223657-21.866444c113.499375 37.522144 226.296821 21.866445 335.300291-46.513953l12.252673 19.547411c-74.324587 46.62946-150.417326 70.015271-227.389699 70.015272" fill="#2c2c2c" p-id="2656"></path><path d="M18.756629 1023.902263L0 1010.574483a350.867139 350.867139 0 0 1 140.554769-105.680411c85.591004-36.855755 229.34444-60.41927 427.946133 36.429265 2.84326 1.377204 6.281827 3.180897 10.333473 5.331113 53.31112 27.641816 215.456893 111.784534 413.587671-12.545884l12.252673 19.547411c-209.308344 131.331945-380.285992 42.648896-436.431487 13.469943-3.856171-1.972511-7.108149-3.687352-9.844787-5.00236-150.470637-73.418298-291.434125-86.044148-407.607941-36.482577a335.042621 335.042621 0 0 0-132.033875 98.296821" fill="#2c2c2c" p-id="2657"></path></svg>