<svg width="72" height="91" viewBox="0 0 72 91" fill="none" xmlns="http://www.w3.org/2000/svg">
<g filter="url(#filter0_d_114_170)">
<path d="M13.4547 7H52.1819C53.0379 7 53.8587 7.34002 54.464 7.94525C55.0692 8.55048 55.4092 9.37135 55.4092 10.2273V29.5909H10.2274V10.2273C10.2274 9.37135 10.5674 8.55048 11.1727 7.94525C11.7779 7.34002 12.5988 7 13.4547 7Z" fill="#F4F4F3"/>
<path d="M13.4547 7H24.7501V29.5909H10.2274V10.2273C10.2274 9.37135 10.5674 8.55048 11.1727 7.94525C11.7779 7.34002 12.5988 7 13.4547 7ZM40.8865 7H52.1819C53.0379 7 53.8587 7.34002 54.464 7.94525C55.0692 8.55048 55.4092 9.37135 55.4092 10.2273V29.5909H40.8865V7Z" fill="#D0021B"/>
<path d="M8.29091 29.5908H57.3454C57.6878 29.5908 58.0162 29.7268 58.2582 29.9689C58.5003 30.211 58.6363 30.5394 58.6363 30.8817V31.5272C58.6363 31.8696 58.5003 32.1979 58.2582 32.44C58.0162 32.6821 57.6878 32.8181 57.3454 32.8181H8.29091C7.94854 32.8181 7.62019 32.6821 7.3781 32.44C7.13601 32.1979 7 31.8696 7 31.5272V30.8817C7 30.5394 7.13601 30.211 7.3781 29.9689C7.62019 29.7268 7.94854 29.5908 8.29091 29.5908Z" fill="#E3A815"/>
<path d="M19.9092 29.5908H45.7274V39.2726H19.9092V29.5908Z" fill="#E3A815"/>
<path d="M10.2274 55.4093C10.2274 61.4007 12.6075 67.1468 16.8441 71.3834C21.0808 75.6201 26.8268 78.0002 32.8183 78.0002C38.8098 78.0002 44.5559 75.6201 48.7925 71.3834C53.0291 67.1468 55.4092 61.4007 55.4092 55.4093C55.4092 49.4178 53.0291 43.6717 48.7925 39.4351C44.5559 35.1985 38.8098 32.8184 32.8183 32.8184C26.8268 32.8184 21.0808 35.1985 16.8441 39.4351C12.6075 43.6717 10.2274 49.4178 10.2274 55.4093Z" fill="#F5CF41"/>
<path d="M13.4545 55.409C13.4545 60.5446 15.4946 65.4698 19.1259 69.1012C22.7573 72.7326 27.6825 74.7727 32.8181 74.7727C37.9537 74.7727 42.8789 72.7326 46.5103 69.1012C50.1416 65.4698 52.1817 60.5446 52.1817 55.409C52.1817 50.2735 50.1416 45.3483 46.5103 41.7169C42.8789 38.0855 37.9537 36.0454 32.8181 36.0454C27.6825 36.0454 22.7573 38.0855 19.1259 41.7169C15.4946 45.3483 13.4545 50.2735 13.4545 55.409Z" fill="#E3A815"/>
<path d="M32.8182 73.1592C30.4871 73.1593 28.1788 72.7003 26.0252 71.8084C23.8715 70.9164 21.9146 69.609 20.2663 67.9607C18.6179 66.3125 17.3104 64.3557 16.4183 62.2021C15.5262 60.0485 15.067 57.7402 15.067 55.4092C15.067 53.0781 15.5262 50.7699 16.4183 48.6163C17.3104 46.4627 18.6179 44.5059 20.2663 42.8576C21.9146 41.2094 23.8715 39.9019 26.0252 39.01C28.1788 38.118 30.4871 37.659 32.8182 37.6592C35.1492 37.659 37.4575 38.118 39.6112 39.01C41.7648 39.9019 43.7217 41.2094 45.3701 42.8576C47.0184 44.5059 48.326 46.4627 49.2181 48.6163C50.1102 50.7699 50.5693 53.0781 50.5693 55.4092C50.5693 57.7402 50.1102 60.0485 49.2181 62.2021C48.326 64.3557 47.0184 66.3125 45.3701 67.9607C43.7217 69.609 41.7648 70.9164 39.6112 71.8084C37.4575 72.7003 35.1492 73.1593 32.8182 73.1592Z" fill="#F5CF41"/>
<path d="M32.8183 61.8636L25.231 65.8525L26.68 57.4035L20.5417 51.4202L29.023 50.1874L32.8183 42.5L36.6136 50.1874L45.0948 51.4202L38.9566 57.4035L40.4056 65.8525L32.8183 61.8636Z" fill="#FFF2A0"/>
</g>
<defs>
<filter id="filter0_d_114_170" x="0" y="0" width="71.6364" height="91" filterUnits="userSpaceOnUse" color-interpolation-filters="sRGB">
<feFlood flood-opacity="0" result="BackgroundImageFix"/>
<feColorMatrix in="SourceAlpha" type="matrix" values="0 0 0 0 0 0 0 0 0 0 0 0 0 0 0 0 0 0 127 0" result="hardAlpha"/>
<feOffset dx="3" dy="3"/>
<feGaussianBlur stdDeviation="5"/>
<feComposite in2="hardAlpha" operator="out"/>
<feColorMatrix type="matrix" values="0 0 0 0 0 0 0 0 0 0 0 0 0 0 0 0 0 0 0.15 0"/>
<feBlend mode="normal" in2="BackgroundImageFix" result="effect1_dropShadow_114_170"/>
<feBlend mode="normal" in="SourceGraphic" in2="effect1_dropShadow_114_170" result="shape"/>
</filter>
</defs>
</svg>
