<?xml version="1.0" standalone="no"?><!DOCTYPE svg PUBLIC "-//W3C//DTD SVG 1.1//EN" "http://www.w3.org/Graphics/SVG/1.1/DTD/svg11.dtd"><svg t="1731167675282" class="icon" viewBox="0 0 1024 1024" version="1.1" xmlns="http://www.w3.org/2000/svg" p-id="3540" xmlns:xlink="http://www.w3.org/1999/xlink" width="32" height="32"><path d="M761.3 690.1m-94.2 0a94.2 94.2 0 1 0 188.4 0 94.2 94.2 0 1 0-188.4 0Z" fill="#ffffff" p-id="3541"></path><path d="M513.8 321.5c-6.4 30.8-47.2 175.9-23.5 259.5 8 28.1 18.7 45.1 21.4 49.3 24.6 37.8 58.1 52.8 75 58.8 31.9-68.2 63.7-136.4 95.6-204.6-14.2-14.6-46.1-51.6-58.1-111.2-5.5-27.5-5.2-51.6-3.6-69.2 11.3-28 22.6-56 33.9-83.9-53.4 45.4-87.1 55.8-140.7 101.3zM419.5 398.5H52.7c-22.3 0-40.4-18.1-40.4-40.4s18.1-40.4 40.4-40.4h366.8c22.3 0 40.4 18.1 40.4 40.4s-18.1 40.4-40.4 40.4z" fill="#ffffff" p-id="3542"></path><path d="M607.6 1023.8c-22.3 0-40.4-18.1-40.4-40.4V616.5c0-22.3 18.1-40.4 40.4-40.4 22.3 0 40.4 18.1 40.4 40.4v366.8c0.1 22.4-18 40.5-40.4 40.5z" fill="#ffffff" p-id="3543"></path><path d="M626.8 636.3c-10.3 0-20.7-3.9-28.6-11.8-15.8-15.8-15.8-41.4 0-57.2l259.4-259.4c15.8-15.8 41.4-15.8 57.2 0 15.8 15.8 15.8 41.4 0 57.2L655.4 624.4c-7.9 7.9-18.3 11.9-28.6 11.9zM552.5 382.5c-12.6 0-25-5.9-32.9-16.9-13-18.2-8.8-43.4 9.4-56.4L951.6 7.6c18.1-13 43.4-8.8 56.4 9.4 13 18.2 8.8 43.4-9.4 56.4L575.9 375c-7.1 5.1-15.3 7.5-23.4 7.5z" fill="#ffffff" p-id="3544"></path></svg>