<svg width="72" height="91" viewBox="0 0 72 91" fill="none" xmlns="http://www.w3.org/2000/svg">
<g filter="url(#filter0_d_114_171)">
<path d="M13.4546 7H52.1818C53.0378 7 53.8586 7.34002 54.4638 7.94525C55.0691 8.55048 55.4091 9.37135 55.4091 10.2273V29.5909H10.2273V10.2273C10.2273 9.37135 10.5673 8.55048 11.1725 7.94525C11.7778 7.34002 12.5986 7 13.4546 7Z" fill="#F4F4F3"/>
<path d="M13.4546 7H24.75V29.5909H10.2273V10.2273C10.2273 9.37135 10.5673 8.55048 11.1725 7.94525C11.7778 7.34002 12.5986 7 13.4546 7ZM40.8864 7H52.1818C53.0378 7 53.8586 7.34002 54.4638 7.94525C55.0691 8.55048 55.4091 9.37135 55.4091 10.2273V29.5909H40.8864V7Z" fill="#1723CA"/>
<path d="M8.29091 29.5908H57.3454C57.6878 29.5908 58.0162 29.7268 58.2582 29.9689C58.5003 30.211 58.6363 30.5394 58.6363 30.8817V31.5272C58.6363 31.8696 58.5003 32.1979 58.2582 32.44C58.0162 32.6821 57.6878 32.8181 57.3454 32.8181H8.29091C7.94854 32.8181 7.62019 32.6821 7.3781 32.44C7.13601 32.1979 7 31.8696 7 31.5272V30.8817C7 30.5394 7.13601 30.211 7.3781 29.9689C7.62019 29.7268 7.94854 29.5908 8.29091 29.5908Z" fill="#B8B8B8"/>
<path d="M19.9091 29.5908H45.7272V39.2726H19.9091V29.5908Z" fill="#B8B8B8"/>
<path d="M10.2273 55.4093C10.2273 61.4007 12.6074 67.1468 16.844 71.3834C21.0806 75.6201 26.8267 78.0002 32.8182 78.0002C38.8097 78.0002 44.5558 75.6201 48.7924 71.3834C53.029 67.1468 55.4091 61.4007 55.4091 55.4093C55.4091 49.4178 53.029 43.6717 48.7924 39.4351C44.5558 35.1985 38.8097 32.8184 32.8182 32.8184C26.8267 32.8184 21.0806 35.1985 16.844 39.4351C12.6074 43.6717 10.2273 49.4178 10.2273 55.4093Z" fill="#D3D3D3"/>
<path d="M13.4546 55.409C13.4546 60.5446 15.4947 65.4698 19.1261 69.1012C22.7574 72.7326 27.6827 74.7727 32.8182 74.7727C37.9538 74.7727 42.879 72.7326 46.5104 69.1012C50.1418 65.4698 52.1818 60.5446 52.1818 55.409C52.1818 50.2735 50.1418 45.3483 46.5104 41.7169C42.879 38.0855 37.9538 36.0454 32.8182 36.0454C27.6827 36.0454 22.7574 38.0855 19.1261 41.7169C15.4947 45.3483 13.4546 50.2735 13.4546 55.409Z" fill="#B8B8B8"/>
<path d="M32.8183 73.1592C30.4872 73.1593 28.179 72.7003 26.0253 71.8084C23.8716 70.9164 21.9148 69.609 20.2664 67.9607C18.618 66.3125 17.3105 64.3557 16.4184 62.2021C15.5263 60.0485 15.0671 57.7402 15.0671 55.4092C15.0671 53.0781 15.5263 50.7699 16.4184 48.6163C17.3105 46.4627 18.618 44.5059 20.2664 42.8576C21.9148 41.2094 23.8716 39.9019 26.0253 39.01C28.179 38.118 30.4872 37.659 32.8183 37.6592C35.1494 37.659 37.4576 38.118 39.6113 39.01C41.7649 39.9019 43.7218 41.2094 45.3702 42.8576C47.0185 44.5059 48.3261 46.4627 49.2182 48.6163C50.1103 50.7699 50.5694 53.0781 50.5694 55.4092C50.5694 57.7402 50.1103 60.0485 49.2182 62.2021C48.3261 64.3557 47.0185 66.3125 45.3702 67.9607C43.7218 69.609 41.7649 70.9164 39.6113 71.8084C37.4576 72.7003 35.1494 73.1593 32.8183 73.1592Z" fill="#D3D3D3"/>
<path d="M32.8183 61.8636L25.231 65.8525L26.68 57.4035L20.5417 51.4202L29.023 50.1874L32.8183 42.5L36.6136 50.1874L45.0948 51.4202L38.9566 57.4035L40.4056 65.8525L32.8183 61.8636Z" fill="#F0F0F0"/>
</g>
<defs>
<filter id="filter0_d_114_171" x="0" y="0" width="71.6364" height="91" filterUnits="userSpaceOnUse" color-interpolation-filters="sRGB">
<feFlood flood-opacity="0" result="BackgroundImageFix"/>
<feColorMatrix in="SourceAlpha" type="matrix" values="0 0 0 0 0 0 0 0 0 0 0 0 0 0 0 0 0 0 127 0" result="hardAlpha"/>
<feOffset dx="3" dy="3"/>
<feGaussianBlur stdDeviation="5"/>
<feComposite in2="hardAlpha" operator="out"/>
<feColorMatrix type="matrix" values="0 0 0 0 0 0 0 0 0 0 0 0 0 0 0 0 0 0 0.15 0"/>
<feBlend mode="normal" in2="BackgroundImageFix" result="effect1_dropShadow_114_171"/>
<feBlend mode="normal" in="SourceGraphic" in2="effect1_dropShadow_114_171" result="shape"/>
</filter>
</defs>
</svg>
