<?xml version="1.0" standalone="no"?><!DOCTYPE svg PUBLIC "-//W3C//DTD SVG 1.1//EN" "http://www.w3.org/Graphics/SVG/1.1/DTD/svg11.dtd"><svg t="1730821012642" class="icon" viewBox="0 0 1024 1024" version="1.1" xmlns="http://www.w3.org/2000/svg" p-id="6017" xmlns:xlink="http://www.w3.org/1999/xlink" width="32" height="32"><path d="M1008.4119 833.5l-114.4-95.4 39.2-148.1c0.4-1.9 0.8-3.8 1.1-5.7l0.5-2.2c0.1-0.7 0.1-1.5 0-2.2 2.4-23.1-5.7-46.1-22.1-62.6l-134.5-138.5c-27.9-27.7-72.1-30.3-102.9-5.9-1.8 1.2-3.4 2.5-4.9 4-0.7 0.7-1.6 1.2-2.2 1.9-0.4 0.4-0.6 0.8-1 1.2l-56.6 53.3c-2.8 3-5 6.5-6.5 10.3l-0.2 0.3-39 97.7-97.9 39.2c-17.1 6.8-25.5 26.3-18.6 43.4 6.8 17.1 26.3 25.5 43.4 18.6l111.3-44.5c8.5-3.4 15.2-10.1 18.6-18.6l46.8-69.2 78.3 78.3-106.8 89c-6.9 5.7-11.8 13.4-14.3 22l-44.7 155.7c-6.8 23.6 6.9 48.3 30.6 55 4 1.1 8.2 1.6 12.3 1.6 19.9 0 37.3-13.2 42.8-32.3l40.8-142.6 105.7-74-10.7 86.8c-2.2 15.3 3.7 30.6 15.6 40.5l133.5 111.3c19.1 15.5 47.1 12.5 62.6-6.6 15-18.7 12.6-46.1-5.8-61.7z" fill="#2c2c2c" p-id="6018"></path><path d="M556.6119 472.7c-3-18.2-20.2-30.5-38.4-27.4l-107.9 18-52.6-120.7c-2.9-6.6-7.9-12.2-14.2-15.7 0 0-38.6-23.7-50.1-29.5-38.5-19.3-85.3-3.7-104.5 34.7 0 0 0 0.1-0.1 0.1l-91 184.2c-5.4 13-8.2 27-8.2 41.1l22.4 160.5-101 121.2c-16.2 18.5-14.3 46.6 4.2 62.8s46.6 14.3 62.8-4.2c0.5-0.5 0.9-1.1 1.4-1.6l111.3-133.5c6.6-8 10.3-18 10.3-28.4V637l116.7 100 40.8 142.9c5.4 19.2 22.9 32.4 42.8 32.4 4.1 0 8.3-0.6 12.3-1.7 23.6-6.8 37.3-31.4 30.6-55l-44.5-155.8c-2.4-8.4-7.2-15.9-13.8-21.6l-118.9-124 51-102.1 0.6 0.9 41.1 60.8c6.1 14 21 22.1 36.1 19.6l133.5-22.3c18.1-3 30.4-20.2 27.3-38.4zM345.7119 111c43 0 77.9 34.9 77.9 77.9s-34.9 77.9-77.9 77.9-77.9-34.9-77.9-77.9 34.8-77.9 77.9-77.9M590.5119 222.3c43 0 77.9 34.9 77.9 77.9s-34.9 77.9-77.9 77.9-77.9-34.9-77.9-77.9 34.9-77.9 77.9-77.9" fill="#2c2c2c" p-id="6019"></path><path d="M385.7119 678.1l-118.9-124 51.1-102 0.6 0.9 47.3-92.5-8-18c-2.9-6.6-7.9-12.2-14.2-15.7 0 0-38.6-23.7-50.1-29.5-38.5-19.3-85.3-3.7-104.5 34.7 0 0 0 0.1-0.1 0.1l-91 184.2c-5.4 13-8.2 27-8.2 41.1l21.4 154.6h89.9v-75l116.7 100 68-58.9z" fill="#2c2c2c" p-id="6020"></path><path d="M894.0119 738.1l39.3-148.1c0.4-1.9 0.8-3.8 1.1-5.7l0.5-2.2c0.1-0.7 0.1-1.5 0-2.2 2.4-23.1-5.7-46.1-22.1-62.6l-134.6-138.5c-27.9-27.7-72.1-30.3-102.9-5.9-1.8 1.2-3.4 2.5-4.9 4-0.7 0.7-1.6 1.2-2.2 1.9-0.4 0.4-0.6 0.8-1 1.2l-56.5 53.3c-2.8 3-5.1 6.5-6.7 10.3v0.3l49.7 50.3c1.3 2 2.7 3.9 4.3 5.7l88.8 88.9-106.8 89 67.5 59.6 105.8-74.1-10.7 86.8 91.4-12z" fill="#2c2c2c" p-id="6021"></path><path d="M668.4119 511.6l22.3-44.5 89 89-33.4 32-77.9-76.5zM868.7119 622.9l-55.7 40.3-10.7 86.9 44.9-5.9 21.5-121.3z" fill="#2c2c2c" p-id="6022"></path><path d="M156.5119 600.6l44.5 36.4v74.9h-44.5V600.6zM317.8119 451.8l-27.8-41.3-54.7 112.2 31.5 31.4 51-102.3z" fill="#2c2c2c" p-id="6023"></path></svg>