<svg width="395" height="182" viewBox="0 0 395 182" fill="none" xmlns="http://www.w3.org/2000/svg">
<g filter="url(#filter0_d_753_1256)">
<rect x="25" y="57" width="335" height="90" rx="45" fill="white"/>
</g>
<path d="M119 112.84H146.92V117.72H119V112.84ZM119 99.12H147.12V103.96H119V99.12ZM116.28 85.68H149.8V120.16H144.8V90.32H121.04V120.16H116.28V85.68ZM130.24 87.88H135.12V115.36H130.24V87.88ZM168.52 85H186.48V88.96H168.52V85ZM185.28 85H186.12L186.96 84.84L189.92 86.08C186.44 96.2 178.4 101.36 168.44 103.96C168 102.84 166.96 101.08 166.12 100.16C175.08 98.24 182.6 93.52 185.28 85.68V85ZM174.76 88.76C177.88 94.24 184.32 98.24 192.4 99.84C191.36 100.8 190.08 102.68 189.44 103.88C180.96 101.72 174.56 97 170.76 90.12L174.76 88.76ZM166.44 115.24H191.64V119.44H166.44V115.24ZM177 102.64H181.68V117.24H177V102.64ZM168.8 106.88H189.6V110.96H168.8V106.88ZM163.8 91.52L168.08 93.24C165.12 98.16 160.4 103.36 156.2 106.6C155.76 105.56 154.44 103.08 153.68 102.04C157.36 99.48 161.4 95.48 163.8 91.52ZM162.56 83.08L167.12 84.92C164.4 88.64 160.28 92.64 156.44 95.08C155.96 94 154.8 92.04 154.08 91.04C157.24 89.08 160.84 85.76 162.56 83.08ZM159.72 100.8L164.16 96.36L164.4 96.48V120.6H159.72V100.8ZM200 84.6H231.04V89.08H200V84.6ZM196.84 84.6H201.76V98.84C201.76 105.28 201.28 114.68 198.2 120.6C197.28 119.8 195.08 118.44 193.88 117.96C196.64 112.56 196.84 104.72 196.84 98.84V84.6ZM203.32 96.68H226.92V101.2H203.32V96.68ZM224.88 96.68H229.72C229.72 96.68 229.68 98.12 229.6 98.72C229.04 111.12 228.44 116 226.96 117.72C225.92 119.04 224.84 119.44 223.24 119.64C221.84 119.8 219.52 119.8 217.16 119.72C217.08 118.28 216.44 116.24 215.56 114.92C217.84 115.12 220.12 115.16 221.12 115.16C221.88 115.16 222.32 115.04 222.8 114.56C223.88 113.56 224.4 108.84 224.88 97.48V96.68ZM212.36 90.96H217.4C216.96 102.96 216.12 114.08 204.72 120.36C204.12 119.2 202.72 117.64 201.6 116.8C211.96 111.4 212.04 101.6 212.36 90.96ZM250.56 83.24H255.52V101.08C255.52 109.76 252.72 117.32 237.12 120.72C236.56 119.64 235.24 117.52 234.2 116.44C248.96 113.84 250.56 108.12 250.56 101.04V83.24ZM242.04 93.44V99.04H263.88V93.44H242.04ZM237.36 88.8H268.84V103.64H237.36V88.8ZM243.4 104.08C248.64 113.64 257.4 115.04 272.2 115.24C271.28 116.4 270.28 118.56 270 120.24C254.64 119.52 244.68 117.16 238.96 105.68L243.4 104.08Z" fill="#004793"/>
<path d="M224.577 10.0412C220.882 5.74161 212.898 -1.3177 208.295 0.213548C206.548 0.793172 206.755 0.723964 207.067 6.66728C207.266 10.5084 206.755 12.1953 201.227 15.2665C197.317 17.4379 193.545 15.8807 192.118 13.3286C190.5 10.4392 185.56 7.89573 183.717 8.8214C181.875 9.74707 181.875 22.6459 180.032 30.9423C178.189 39.2387 173.89 44.7668 169.391 49.5162C164.893 54.2657 159.131 55.8748 156.112 58.3663C151.89 61.8614 154.849 70.8672 157.617 72.4071C160.385 73.947 165.299 73.947 170.827 73.947C175.594 73.947 186.719 72.3984 190.794 69.6474C193.874 67.5711 207.992 54.2224 213.529 47.8379C219.066 41.4534 231.022 26.0198 231.333 24.1598C231.636 22.2998 228.262 14.3408 224.577 10.0412ZM203.053 45.4762L186.615 45.5627H186.607C185.56 45.5627 184.712 44.7149 184.704 43.6681C184.695 42.6213 185.543 41.7562 186.598 41.7562L203.035 41.6697H203.044C204.091 41.6697 204.938 42.5175 204.947 43.5643C204.956 44.611 204.108 45.4675 203.053 45.4762ZM211.012 35.6139L194.574 35.7004H194.566C193.519 35.7004 192.671 34.8526 192.663 33.8058C192.654 32.7504 193.502 31.8939 194.557 31.8939L210.994 31.8074H211.003C212.05 31.8074 212.898 32.6552 212.906 33.702C212.915 34.7488 212.067 35.6052 211.012 35.6139ZM229.603 69.3532H229.594L210.562 69.4397C209.506 69.4484 208.658 70.2962 208.667 71.3516C208.676 72.3984 209.524 73.2462 210.57 73.2462H210.579L229.611 73.1597C230.667 73.1511 231.515 72.3033 231.506 71.2478C231.497 70.201 230.65 69.3532 229.603 69.3532ZM219.221 60.6156H219.239L229.62 60.5291C230.676 60.5204 231.515 59.664 231.506 58.6085C231.497 57.5618 230.65 56.7226 229.603 56.7226H229.586L219.204 56.8091C218.149 56.8178 217.31 57.6742 217.318 58.7297C217.327 59.7678 218.175 60.6156 219.221 60.6156Z" fill="#004793"/>
<defs>
<filter id="filter0_d_753_1256" x="0" y="32" width="395" height="150" filterUnits="userSpaceOnUse" color-interpolation-filters="sRGB">
<feFlood flood-opacity="0" result="BackgroundImageFix"/>
<feColorMatrix in="SourceAlpha" type="matrix" values="0 0 0 0 0 0 0 0 0 0 0 0 0 0 0 0 0 0 127 0" result="hardAlpha"/>
<feOffset dx="5" dy="5"/>
<feGaussianBlur stdDeviation="15"/>
<feComposite in2="hardAlpha" operator="out"/>
<feColorMatrix type="matrix" values="0 0 0 0 0 0 0 0 0 0 0 0 0 0 0 0 0 0 0.25 0"/>
<feBlend mode="normal" in2="BackgroundImageFix" result="effect1_dropShadow_753_1256"/>
<feBlend mode="normal" in="SourceGraphic" in2="effect1_dropShadow_753_1256" result="shape"/>
</filter>
</defs>
</svg>
