<svg width="971" height="768" viewBox="0 0 971 768" fill="none" xmlns="http://www.w3.org/2000/svg">
<rect x="4.90039" width="965.283" height="767.654" rx="59" fill="white"/>
<path d="M4.90039 59C4.90039 26.4152 31.3156 0 63.9004 0H911.184C943.769 0 970.184 26.4152 970.184 59V182.93H4.90039V59Z" fill="#FFF6BF"/>
<path d="M482.985 85.3285H489.041V94.4123H482.985V85.3285ZM480.563 94.4123H491.463C491.796 94.4123 492.069 94.6848 492.069 95.0179V97.4402H479.957V95.0179C479.957 94.6848 480.23 94.4123 480.563 94.4123Z" fill="#F5CF41"/>
<path d="M476.928 97.4402H495.096C495.899 97.4402 496.669 97.7592 497.237 98.327C497.805 98.8949 498.124 99.6651 498.124 100.468V103.496H473.9V100.468C473.9 99.6651 474.219 98.8949 474.787 98.327C475.355 97.7592 476.125 97.4402 476.928 97.4402Z" fill="#E3A815"/>
<path d="M464.817 55.0493V61.1051C464.817 61.9082 465.136 62.6784 465.704 63.2462C466.272 63.8141 467.042 64.1331 467.845 64.1331C468.648 64.1331 469.418 63.8141 469.986 63.2462C470.554 62.6784 470.873 61.9082 470.873 61.1051V55.0493H464.817ZM461.789 52.0214H473.901V61.1051C473.901 61.9004 473.744 62.6879 473.44 63.4226C473.135 64.1573 472.689 64.8249 472.127 65.3873C471.565 65.9496 470.897 66.3957 470.162 66.7C469.428 67.0044 468.64 67.161 467.845 67.161C467.05 67.161 466.262 67.0044 465.527 66.7C464.793 66.3957 464.125 65.9496 463.563 65.3873C463 64.8249 462.554 64.1573 462.25 63.4226C461.946 62.6879 461.789 61.9004 461.789 61.1051V52.0214ZM501.152 55.0493V61.1051C501.152 61.9082 501.471 62.6784 502.039 63.2462C502.607 63.8141 503.377 64.1331 504.18 64.1331C504.983 64.1331 505.753 63.8141 506.321 63.2462C506.889 62.6784 507.208 61.9082 507.208 61.1051V55.0493H501.152ZM498.124 52.0214H510.236V61.1051C510.236 61.9004 510.079 62.6879 509.775 63.4226C509.471 64.1573 509.024 64.8249 508.462 65.3873C507.9 65.9496 507.232 66.3957 506.497 66.7C505.763 67.0044 504.975 67.161 504.18 67.161C503.385 67.161 502.597 67.0044 501.863 66.7C501.128 66.3957 500.46 65.9496 499.898 65.3873C499.336 64.8249 498.889 64.1573 498.585 63.4226C498.281 62.6879 498.124 61.9004 498.124 61.1051V52.0214Z" fill="#F5CF41"/>
<path d="M470.874 42.9376H501.153C501.956 42.9376 502.726 43.2566 503.294 43.8245C503.862 44.3923 504.181 45.1625 504.181 45.9655V70.189C504.181 75.0073 502.267 79.6283 498.86 83.0354C495.453 86.4424 490.832 88.3565 486.013 88.3565C481.195 88.3565 476.574 86.4424 473.167 83.0354C469.76 79.6283 467.846 75.0073 467.846 70.189V45.9655C467.846 45.1625 468.165 44.3923 468.733 43.8245C469.3 43.2566 470.071 42.9376 470.874 42.9376Z" fill="#F5CF41"/>
<path d="M486.012 70.1889L478.894 73.9314L480.253 66.0043L474.494 60.3905L482.452 59.2339L486.012 52.0214L489.573 59.2339L497.531 60.3905L491.771 66.0043L493.131 73.9314L486.012 70.1889Z" fill="#FFF2A0"/>
<path d="M439.074 47.6822L434.458 50.0436L441.822 52.08L444.383 50.9698L439.074 47.6822Z" fill="#FF6464"/>
<path d="M454.784 40.7149L445.652 32.5239L441.002 32.8478L450.984 40.9796L454.784 40.7149Z" fill="#FFE100"/>
<path d="M462.48 28.9009L465.947 26.1674L470.126 33.4407L468.223 34.861L462.48 28.9009Z" fill="#65D556"/>
<path d="M459.295 36.4264L456.705 35.2261V36.4249L457.768 36.8955L459.295 36.4264Z" fill="#FF6464"/>
<path d="M457.677 92.7954L452.534 92.1295L458.779 87.7282L461.564 87.9081L457.677 92.7954Z" fill="#FFE100"/>
<path d="M447.843 78.8834L438.242 84.2021L441.828 85.3471L451.489 80.0475L447.843 78.8834Z" fill="#65D556"/>
<path d="M446.625 66.2334L449.215 65.0345V66.2334L448.152 66.7039L446.625 66.2334Z" fill="#00C4FF"/>
<path d="M437.399 68.5409L438.027 68.863L436.821 69.2856L436.102 68.914L437.399 68.5409Z" fill="#FF6464"/>
<path d="M468.751 82.6887H469.69L468.751 83.6705H467.377L468.751 82.6887Z" fill="#00C4FF"/>
<path d="M512.592 90.5574L516.014 87.7364L509.763 82.0848L507.963 83.6491L512.592 90.5574Z" fill="#FF6464"/>
<path d="M528.016 71.5452L538.228 75.7014L534.789 77.2728L524.52 73.1427L528.016 71.5452Z" fill="#00C4FF"/>
<path d="M530.414 61.4906L537.76 59.8592L539.257 55.6801L532.117 58.5249L530.414 61.4906Z" fill="#FFE100"/>
<path d="M522.691 70.8239L522.059 71.1474L523.271 71.572L523.993 71.1987L522.691 70.8239Z" fill="#65D556"/>
<path d="M525.378 82.4704L526.189 83.4585L525.006 83.8646L522.533 81.0349L524.072 81.1502L525.378 82.4718L525.378 82.4704ZM519.83 46.3477L528.205 37.2994L527.813 42.5311L519.58 49.6896L519.83 46.3492L519.83 46.3477Z" fill="#FFE100"/>
<path d="M500.297 36.838L507.739 27.0141L512.388 26.4454L504.097 36.3711L500.297 36.838Z" fill="#65D556"/>
<path d="M512.98 41.6721L512.098 42.5941L513.246 43.0887L515.924 40.4531H514.381L512.98 41.6721Z" fill="#FF6464"/>
<path d="M528.289 49.2474H527.344L528.289 50.2338H529.668L528.289 49.2474Z" fill="#65D556"/>
<line x1="165.779" y1="138.281" x2="396.075" y2="138.281" stroke="#FF6A00" stroke-width="6"/>
<line x1="580.641" y1="138.281" x2="809.303" y2="138.281" stroke="#FF6A00" stroke-width="6"/>
<path d="M428.08 144.8H463.88V149H428.08V144.8ZM443.52 142.44H448.56C447.56 151.48 445.08 157.08 429.72 159.52C429.4 158.32 428.32 156.48 427.48 155.52C441.28 153.64 442.72 149.56 443.52 142.44ZM448.84 148.12C451.32 152.52 456.68 154.56 464.92 155.08C463.88 156.08 462.64 158.08 462.04 159.36C453.04 158.28 447.8 155.32 444.56 149.04L448.84 148.12ZM428.04 125.92L431.6 124.04C433 125.76 434.6 128.2 435.16 129.84L431.36 132C430.84 130.36 429.36 127.8 428.04 125.92ZM436.08 122.04H440.76V142.48H436.08V122.04ZM427.28 136.24C429.76 135.12 433.44 133.16 437.04 131.24L438.32 135C435.28 136.88 432 138.84 429.24 140.4L427.28 136.24ZM446.08 132.6L449.52 130.52C451.24 131.96 453.36 134.12 454.4 135.6L450.76 137.88C449.84 136.4 447.8 134.16 446.08 132.6ZM448.4 125.36H460.68V129.36H448.4V125.36ZM449.36 121.88L453.88 123.44C451.56 127.16 447.76 130.88 443.92 133.08C443.24 132.08 441.92 130.44 441.04 129.6C444.48 127.8 447.84 124.68 449.36 121.88ZM460 125.36H460.96L461.76 125.24L464.64 126.56C461.52 136.44 453.64 140.64 443.6 142.4C443.2 141.28 441.92 139.32 441.08 138.4C450.68 137.16 457.64 133.92 460 126.08V125.36ZM482.2 147.68H504.48V151.72H482.2V147.68ZM494.72 142.64H499.24V159.64H494.72V142.64ZM491.12 121.96L496.44 122.88C495.28 124.92 494 126.96 493.08 128.32L489.24 127.32C489.96 125.72 490.76 123.56 491.12 121.96ZM491.44 127.92H495.48V134.68C495.48 139.36 494.2 145.04 486.32 148.28C485.64 147.52 484.16 146.24 483.28 145.64C490.44 142.8 491.44 138.16 491.44 134.56V127.92ZM471.44 132.56H482.84V136.64H471.44V132.56ZM476.12 122.08H480.28V135H476.12V122.08ZM471.68 141.24H481.12V159.64H476.88V145.28H471.68V141.24ZM469.44 123.08H473.56V138.04C473.56 144.32 473.12 153.48 470.88 159.72C469.96 159.24 468.04 158.6 466.88 158.28C469.12 152.48 469.44 143.64 469.44 138.04V123.08ZM487.8 135.44V138.2H499.08V135.44H487.8ZM487.8 129.36V132.08H499.08V129.36H487.8ZM483.56 125.76H503.48V141.76H483.56V125.76ZM522 125.56H543.8V129.36H522V125.56ZM530.32 122.04H534.96V127.4H530.32V122.04ZM530.32 137.88H534.96V142.92H530.32V137.88ZM521.92 141.24H543.84V145.16H521.92V141.24ZM525.2 129.6L529.24 128.76C529.8 130.16 530.32 132 530.52 133.12L526.28 134.12C526.12 132.92 525.68 131 525.2 129.6ZM536.08 128.36L540.84 129.08C540.08 131 539.36 132.88 538.8 134.16L534.76 133.48C535.28 132 535.84 129.88 536.08 128.36ZM521.52 133.24H544.24V139.96H539.8V136.96H525.72V140H521.52V133.24ZM528.52 147.4H538.96V151.28H528.52V147.4ZM537.36 147.4H541.96C541.96 147.4 541.92 148.48 541.88 149.04C541.48 154.6 541.04 157.16 540.04 158.2C539.24 159.08 538.36 159.4 537.2 159.48C536.2 159.6 534.44 159.64 532.56 159.6C532.48 158.36 532 156.64 531.36 155.6C532.84 155.72 534.28 155.76 534.88 155.76C535.48 155.76 535.8 155.68 536.16 155.36C536.68 154.8 537.08 152.84 537.36 148V147.4ZM507.76 130.32H521V134.76H507.76V130.32ZM512.64 122.04H517V159.6H512.64V122.04ZM512.56 133.36L515.24 134.28C514.08 140.6 511.8 148.32 508.96 152.44C508.56 151.16 507.52 149.32 506.84 148.2C509.4 144.72 511.64 138.44 512.56 133.36ZM516.8 136.4C517.72 137.6 521.12 142.84 521.8 144.04L519.32 147.48C518.36 145.04 515.92 140.36 514.8 138.36L516.8 136.4ZM527.88 142.84H532.44C532 150.8 530.68 156.52 522.72 159.72C522.24 158.6 521.04 156.96 520.08 156.12C526.76 153.64 527.52 149.24 527.88 142.84Z" fill="#FF6A00"/>
<line y1="181.43" x2="971" y2="181.43" stroke="url(#paint0_linear_753_1320)" stroke-width="3"/>
<g clip-path="url(#clip0_753_1320)">
<path d="M40.0156 300.528H934.25V676.821C934.25 704.435 911.865 726.821 884.25 726.821H90.0156C62.4014 726.821 40.0156 704.435 40.0156 676.821V300.528Z" fill="white"/>
<mask id="path-31-inside-1_753_1320" fill="white">
<path d="M40.0156 300.528H934.25V371.577H40.0156V300.528Z"/>
</mask>
<path d="M40.0156 300.528H934.25V371.577H40.0156V300.528Z" fill="white"/>
<path d="M934.25 369.577H40.0156V373.577H934.25V369.577Z" fill="#3686FF" mask="url(#path-31-inside-1_753_1320)"/>
<mask id="path-33-inside-2_753_1320" fill="white">
<path d="M40.0156 371.577H934.25V442.626H40.0156V371.577Z"/>
</mask>
<path d="M40.0156 371.577H934.25V442.626H40.0156V371.577Z" fill="#96DBFF" fill-opacity="0.43"/>
<path d="M934.25 440.626H40.0156V444.626H934.25V440.626Z" fill="#3686FF" mask="url(#path-33-inside-2_753_1320)"/>
<path d="M858.954 410.278C857.787 410.278 856.737 410.046 855.802 409.582C854.867 409.118 854.118 408.482 853.555 407.673C852.991 406.865 852.683 405.943 852.63 404.909H855.017C855.109 405.83 855.527 406.593 856.269 407.196C857.018 407.793 857.913 408.091 858.954 408.091C859.789 408.091 860.532 407.895 861.181 407.504C861.838 407.113 862.351 406.576 862.722 405.893C863.1 405.204 863.289 404.425 863.289 403.557C863.289 402.669 863.094 401.876 862.703 401.18C862.318 400.478 861.788 399.924 861.112 399.52C860.436 399.116 859.663 398.91 858.795 398.903C858.172 398.897 857.532 398.993 856.876 399.192C856.22 399.384 855.679 399.633 855.255 399.938L852.948 399.659L854.181 389.636H864.761V391.824H856.249L855.534 397.83H855.653C856.07 397.498 856.594 397.223 857.224 397.004C857.854 396.786 858.51 396.676 859.193 396.676C860.439 396.676 861.549 396.974 862.524 397.571C863.505 398.161 864.274 398.97 864.83 399.997C865.394 401.025 865.676 402.198 865.676 403.517C865.676 404.816 865.384 405.976 864.801 406.997C864.224 408.011 863.428 408.813 862.414 409.403C861.4 409.987 860.247 410.278 858.954 410.278Z" fill="black"/>
<path d="M708.131 417V415.21L714.853 407.852C715.642 406.991 716.291 406.241 716.802 405.605C717.312 404.962 717.69 404.359 717.935 403.795C718.187 403.225 718.313 402.629 718.313 402.006C718.313 401.29 718.141 400.67 717.796 400.146C717.458 399.623 716.994 399.218 716.404 398.933C715.814 398.648 715.151 398.506 714.415 398.506C713.633 398.506 712.951 398.668 712.367 398.993C711.79 399.311 711.343 399.759 711.025 400.335C710.713 400.912 710.558 401.588 710.558 402.364H708.211C708.211 401.17 708.486 400.123 709.036 399.222C709.586 398.32 710.335 397.617 711.283 397.114C712.238 396.61 713.308 396.358 714.495 396.358C715.688 396.358 716.746 396.61 717.667 397.114C718.588 397.617 719.311 398.297 719.835 399.152C720.358 400.007 720.62 400.958 720.62 402.006C720.62 402.755 720.484 403.487 720.212 404.203C719.947 404.912 719.483 405.705 718.82 406.58C718.164 407.448 717.253 408.509 716.086 409.761L711.512 414.653V414.812H720.978V417H708.131Z" fill="black"/>
<mask id="path-37-inside-3_753_1320" fill="white">
<path d="M40.0156 513.675H934.25V584.723H40.0156V513.675Z"/>
</mask>
<path d="M40.0156 513.675H934.25V584.723H40.0156V513.675Z" fill="#96DBFF" fill-opacity="0.43"/>
<path d="M934.25 582.723H40.0156V586.723H934.25V582.723Z" fill="#3686FF" mask="url(#path-37-inside-3_753_1320)"/>
<path d="M859.075 559.278C857.762 559.278 856.592 559.053 855.565 558.602C854.544 558.152 853.732 557.525 853.129 556.723C852.532 555.914 852.207 554.976 852.154 553.909H854.66C854.713 554.565 854.938 555.132 855.336 555.609C855.734 556.08 856.254 556.445 856.897 556.703C857.54 556.962 858.253 557.091 859.035 557.091C859.91 557.091 860.685 556.938 861.362 556.634C862.038 556.329 862.568 555.904 862.952 555.361C863.337 554.817 863.529 554.188 863.529 553.472C863.529 552.723 863.344 552.063 862.972 551.493C862.601 550.916 862.058 550.465 861.342 550.141C860.626 549.816 859.751 549.653 858.717 549.653H857.086V547.466H858.717C859.525 547.466 860.235 547.32 860.844 547.028C861.461 546.737 861.942 546.326 862.286 545.795C862.638 545.265 862.813 544.642 862.813 543.926C862.813 543.237 862.661 542.637 862.356 542.126C862.051 541.616 861.62 541.218 861.063 540.933C860.513 540.648 859.863 540.506 859.114 540.506C858.412 540.506 857.749 540.635 857.126 540.893C856.509 541.145 856.005 541.513 855.614 541.997C855.223 542.474 855.011 543.051 854.978 543.727H852.592C852.631 542.66 852.953 541.725 853.556 540.923C854.159 540.115 854.948 539.485 855.923 539.034C856.904 538.583 857.981 538.358 859.154 538.358C860.414 538.358 861.494 538.613 862.396 539.124C863.297 539.627 863.99 540.294 864.474 541.122C864.958 541.951 865.2 542.846 865.2 543.807C865.2 544.954 864.898 545.931 864.295 546.74C863.698 547.549 862.886 548.109 861.859 548.42V548.58C863.145 548.792 864.149 549.339 864.871 550.22C865.594 551.095 865.955 552.179 865.955 553.472C865.955 554.579 865.654 555.573 865.05 556.455C864.454 557.33 863.638 558.019 862.604 558.523C861.57 559.027 860.394 559.278 859.075 559.278Z" fill="black"/>
<path d="M718.759 538.636V559H716.293V541.222H716.174L711.202 544.523V542.017L716.293 538.636H718.759Z" fill="black"/>
<path d="M568.131 559V557.21L574.853 549.852C575.642 548.991 576.291 548.241 576.802 547.605C577.312 546.962 577.69 546.359 577.935 545.795C578.187 545.225 578.313 544.629 578.313 544.006C578.313 543.29 578.141 542.67 577.796 542.146C577.458 541.623 576.994 541.218 576.404 540.933C575.814 540.648 575.151 540.506 574.415 540.506C573.633 540.506 572.951 540.668 572.367 540.993C571.79 541.311 571.343 541.759 571.025 542.335C570.713 542.912 570.558 543.588 570.558 544.364H568.211C568.211 543.17 568.486 542.123 569.036 541.222C569.586 540.32 570.335 539.617 571.283 539.114C572.238 538.61 573.308 538.358 574.495 538.358C575.688 538.358 576.746 538.61 577.667 539.114C578.588 539.617 579.311 540.297 579.835 541.152C580.358 542.007 580.62 542.958 580.62 544.006C580.62 544.755 580.484 545.487 580.212 546.203C579.947 546.912 579.483 547.705 578.82 548.58C578.164 549.448 577.253 550.509 576.086 551.761L571.512 556.653V556.812H580.978V559H568.131Z" fill="black"/>
<mask id="path-42-inside-4_753_1320" fill="white">
<path d="M40.0156 655.772H934.25V726.821H40.0156V655.772Z"/>
</mask>
<path d="M40.0156 655.772H934.25V726.821H40.0156V655.772Z" fill="#96DBFF" fill-opacity="0.43"/>
<path d="M934.25 724.821H40.0156V728.821H934.25V724.821Z" fill="#3686FF" mask="url(#path-42-inside-4_753_1320)"/>
<mask id="path-44-inside-5_753_1320" fill="white">
<path d="M40.0156 442.626H934.25V513.675H40.0156V442.626Z"/>
</mask>
<path d="M40.0156 442.626H934.25V513.675H40.0156V442.626Z" fill="white"/>
<path d="M934.25 511.675H40.0156V515.675H934.25V511.675Z" fill="#3686FF" mask="url(#path-44-inside-5_753_1320)"/>
<mask id="path-46-inside-6_753_1320" fill="white">
<path d="M40.0156 584.723H934.25V655.772H40.0156V584.723Z"/>
</mask>
<path d="M40.0156 584.723H934.25V655.772H40.0156V584.723Z" fill="white"/>
<path d="M934.25 653.772H40.0156V657.772H934.25V653.772Z" fill="#3686FF" mask="url(#path-46-inside-6_753_1320)"/>
<path d="M568.131 630V628.21L574.853 620.852C575.642 619.991 576.291 619.241 576.802 618.605C577.312 617.962 577.69 617.359 577.935 616.795C578.187 616.225 578.313 615.629 578.313 615.006C578.313 614.29 578.141 613.67 577.796 613.146C577.458 612.623 576.994 612.218 576.404 611.933C575.814 611.648 575.151 611.506 574.415 611.506C573.633 611.506 572.951 611.668 572.367 611.993C571.79 612.311 571.343 612.759 571.025 613.335C570.713 613.912 570.558 614.588 570.558 615.364H568.211C568.211 614.17 568.486 613.123 569.036 612.222C569.586 611.32 570.335 610.617 571.283 610.114C572.238 609.61 573.308 609.358 574.495 609.358C575.688 609.358 576.746 609.61 577.667 610.114C578.588 610.617 579.311 611.297 579.835 612.152C580.358 613.007 580.62 613.958 580.62 615.006C580.62 615.755 580.484 616.487 580.212 617.203C579.947 617.912 579.483 618.705 578.82 619.58C578.164 620.448 577.253 621.509 576.086 622.761L571.512 627.653V627.812H580.978V630H568.131Z" fill="black"/>
<path d="M568.131 701V699.21L574.853 691.852C575.642 690.991 576.291 690.241 576.802 689.605C577.312 688.962 577.69 688.359 577.935 687.795C578.187 687.225 578.313 686.629 578.313 686.006C578.313 685.29 578.141 684.67 577.796 684.146C577.458 683.623 576.994 683.218 576.404 682.933C575.814 682.648 575.151 682.506 574.415 682.506C573.633 682.506 572.951 682.668 572.367 682.993C571.79 683.311 571.343 683.759 571.025 684.335C570.713 684.912 570.558 685.588 570.558 686.364H568.211C568.211 685.17 568.486 684.123 569.036 683.222C569.586 682.32 570.335 681.617 571.283 681.114C572.238 680.61 573.308 680.358 574.495 680.358C575.688 680.358 576.746 680.61 577.667 681.114C578.588 681.617 579.311 682.297 579.835 683.152C580.358 684.007 580.62 684.958 580.62 686.006C580.62 686.755 580.484 687.487 580.212 688.203C579.947 688.912 579.483 689.705 578.82 690.58C578.164 691.448 577.253 692.509 576.086 693.761L571.512 698.653V698.812H580.978V701H568.131Z" fill="black"/>
<line x1="214.963" y1="300.528" x2="214.963" y2="726.821" stroke="#3686FF" stroke-width="2"/>
<line x1="504.875" y1="300.528" x2="504.875" y2="726.821" stroke="#3686FF" stroke-width="2"/>
<line x1="645.338" y1="300.528" x2="645.338" y2="726.821" stroke="#3686FF" stroke-width="2"/>
<line x1="787.436" y1="300.528" x2="787.436" y2="726.821" stroke="#3686FF" stroke-width="2"/>
<path d="M129.759 325.636V346H127.293V328.222H127.174L122.202 331.523V329.017L127.293 325.636H129.759Z" fill="black"/>
<path d="M333.716 326.4H356.256V328.304H333.716V326.4ZM335.116 330.572H355.024V332.392H335.116V330.572ZM332.596 334.772H357.376V336.676H332.596V334.772ZM332.4 339.252H357.656V341.128H332.4V339.252ZM343.852 327.464H346.008V336.144H343.852V327.464ZM337.3 323.208L339.12 322.452C340.156 323.488 341.136 324.944 341.584 325.98L339.624 326.876C339.26 325.812 338.308 324.272 337.3 323.208ZM350.46 322.452L352.616 323.124C351.72 324.412 350.656 325.756 349.844 326.68L347.996 326.036C348.836 325.084 349.872 323.516 350.46 322.452ZM343.74 336.312H345.952C345.196 342.864 343.152 346.616 333.1 348.24C332.932 347.708 332.428 346.84 332.036 346.392C341.5 345.02 343.124 341.912 343.74 336.312ZM346.568 339.812C348.164 343.844 351.944 345.776 358.076 346.364C357.6 346.812 357.04 347.708 356.788 348.296C350.32 347.456 346.512 345.104 344.636 340.204L346.568 339.812ZM365.776 328.108H380.14V329.984H365.776V328.108ZM366.56 333.96H379.468V335.808H366.56V333.96ZM365.356 340.54H380.756V342.332H365.356V340.54ZM371.852 328.696H373.812V341.492H371.852V328.696ZM375.576 337.04L376.92 336.284C377.984 337.208 379.216 338.496 379.776 339.364L378.348 340.232C377.788 339.364 376.584 337.992 375.576 337.04ZM361.38 323.768H384.592V348.268H382.352V325.7H363.508V348.268H361.38V323.768ZM362.528 344.908H383.388V346.84H362.528V344.908Z" fill="black"/>
<path d="M567.777 325.636V346H565.311V328.222H565.192L560.22 331.523V329.017L565.311 325.636H567.777ZM573.156 341.824V339.795L582.105 325.636H583.577V328.778H582.582L575.821 339.477V339.636H587.872V341.824H573.156ZM582.741 346V341.207V340.263V325.636H585.088V346H582.741Z" fill="black"/>
<path d="M711.251 325.636V346H708.786V328.222H708.666L703.695 331.523V329.017L708.786 325.636H711.251ZM724.267 325.636V346H721.801V328.222H721.682L716.71 331.523V329.017L721.801 325.636H724.267Z" fill="black"/>
<path d="M857.855 325.358C858.69 325.365 859.525 325.524 860.36 325.835C861.195 326.147 861.958 326.664 862.647 327.386C863.337 328.102 863.89 329.08 864.308 330.32C864.725 331.559 864.934 333.114 864.934 334.983C864.934 336.793 864.762 338.4 864.417 339.805C864.079 341.204 863.588 342.384 862.945 343.345C862.309 344.306 861.534 345.036 860.619 345.533C859.711 346.03 858.683 346.278 857.536 346.278C856.396 346.278 855.379 346.053 854.484 345.602C853.596 345.145 852.866 344.512 852.296 343.703C851.733 342.888 851.372 341.943 851.213 340.869H853.639C853.857 341.804 854.292 342.576 854.941 343.186C855.597 343.789 856.463 344.091 857.536 344.091C859.107 344.091 860.347 343.405 861.255 342.033C862.17 340.661 862.627 338.722 862.627 336.216H862.468C862.097 336.773 861.656 337.253 861.146 337.658C860.635 338.062 860.069 338.374 859.445 338.592C858.822 338.811 858.16 338.92 857.457 338.92C856.29 338.92 855.22 338.632 854.245 338.055C853.277 337.472 852.502 336.673 851.919 335.659C851.342 334.638 851.053 333.472 851.053 332.159C851.053 330.913 851.332 329.773 851.889 328.739C852.452 327.698 853.241 326.869 854.255 326.253C855.276 325.636 856.476 325.338 857.855 325.358ZM857.855 327.545C857.019 327.545 856.267 327.754 855.597 328.172C854.935 328.583 854.408 329.14 854.017 329.842C853.632 330.538 853.44 331.311 853.44 332.159C853.44 333.008 853.625 333.78 853.997 334.476C854.374 335.165 854.888 335.715 855.538 336.126C856.194 336.531 856.94 336.733 857.775 336.733C858.405 336.733 858.991 336.61 859.535 336.365C860.079 336.113 860.552 335.772 860.957 335.341C861.368 334.903 861.689 334.41 861.921 333.859C862.153 333.303 862.269 332.723 862.269 332.119C862.269 331.324 862.077 330.578 861.693 329.882C861.315 329.186 860.791 328.623 860.122 328.192C859.459 327.761 858.703 327.545 857.855 327.545Z" fill="black"/>
<path d="M329.992 393.48H332.12V402.076H329.992V393.48ZM323.104 395.216H325.176V401.88H323.104V395.216ZM322.264 404.568H338.504V406.304H324.364V419.212H322.264V404.568ZM337.608 404.568H339.736V416.832C339.736 418.036 339.456 418.652 338.56 418.932C337.636 419.268 336.18 419.268 333.828 419.268C333.716 418.736 333.408 417.868 333.1 417.336C334.78 417.42 336.516 417.392 336.992 417.392C337.468 417.364 337.608 417.224 337.608 416.832V404.568ZM323.244 408.544H338.784V410.168H323.244V408.544ZM331 396.224H340.464V397.988H331V396.224ZM318.848 400.788H343.096V402.608H318.848V400.788ZM323.244 412.52H338.784V414.228H323.244V412.52ZM349.76 394.88H351.86V402.552C351.86 407.424 351.44 414.508 348.444 419.24C348.052 418.904 347.128 418.4 346.596 418.176C349.508 413.612 349.76 407.172 349.76 402.524V394.88ZM351.076 394.88H369.08V402.804H351.076V400.844H366.952V396.812H351.076V394.88ZM354.8 404.148H356.9V414.676C356.9 415.852 357.292 416.076 359.336 416.076C360.316 416.076 365.188 416.076 366.476 416.076C368.296 416.076 368.576 415.46 368.772 412.072C369.276 412.436 370.172 412.772 370.788 412.912C370.424 416.972 369.696 418.064 366.56 418.064C365.776 418.064 360.036 418.064 359.28 418.064C355.78 418.064 354.8 417.392 354.8 414.676V404.148ZM367.568 405.772L368.94 407.564C365.412 409.02 360.68 410.784 356.424 412.212C356.312 411.736 355.976 411.036 355.724 410.588C359.896 409.16 364.628 407.172 367.568 405.772ZM374.232 415.572H399.712V417.616H374.232V415.572ZM382.296 396.112H384.536V416.86H382.296V396.112ZM389.044 396.112H391.284V416.944H389.044V396.112ZM396.408 401.264L398.452 401.964C397.192 405.128 395.456 408.768 394.056 411.232L392.18 410.532C393.608 408.068 395.428 404.176 396.408 401.264ZM375.324 401.908L377.144 401.236C378.628 404.232 380.308 408.18 381.092 410.56L379.076 411.372C378.404 408.992 376.752 404.96 375.324 401.908ZM375.016 395.16H399.068V397.26H375.016V395.16Z" fill="black"/>
<path d="M333.94 485.732H341.556V487.776H333.94V485.732ZM318.484 469.8H329.236V471.844H318.484V469.8ZM332.988 467.98H342.564V489.624H340.436V469.996H335.032V489.82H332.988V467.98ZM328.676 469.8H330.72C330.72 469.8 330.72 470.584 330.72 470.864C330.496 483.324 330.3 487.412 329.404 488.644C328.9 489.372 328.396 489.624 327.556 489.708C326.772 489.82 325.484 489.82 324.224 489.736C324.196 489.12 323.972 488.196 323.608 487.608C324.924 487.72 326.128 487.72 326.66 487.72C327.08 487.748 327.332 487.664 327.584 487.3C328.228 486.432 328.48 482.288 328.676 470.304V469.8ZM322.46 464.872H324.504C324.476 475.204 324.336 484.92 319.408 490.268C319.044 489.792 318.316 489.148 317.784 488.84C322.46 483.912 322.432 474.672 322.46 464.872ZM348.248 481.448H369.836V482.988H348.248V481.448ZM346.288 484.584H371.712V486.152H346.288V484.584ZM357.936 478.704H360.036V488.14C360.036 489.26 359.728 489.708 358.86 489.988C357.992 490.268 356.592 490.268 354.296 490.268C354.212 489.764 353.876 489.092 353.624 488.588C355.276 488.644 356.9 488.644 357.348 488.616C357.796 488.588 357.936 488.476 357.936 488.112V478.704ZM367.008 477.5L368.492 478.76C363.592 479.628 355.724 479.992 349.2 480.048C349.172 479.656 348.976 479.012 348.78 478.648C355.164 478.592 362.948 478.228 367.008 477.5ZM358.832 466.076C356.256 468.204 351.636 470.444 347.072 471.76C346.848 471.284 346.4 470.528 346.036 470.108C350.684 468.904 355.332 466.748 357.74 464.536H359.672C362.892 467.028 367.68 468.904 371.936 469.828C371.516 470.276 371.04 471.032 370.788 471.564C366.756 470.556 361.744 468.372 358.832 466.076ZM352.7 469.408H365.412V470.808H352.7V469.408ZM352.504 473.552V475.652H365.3V473.552H352.504ZM350.544 472.152H367.372V477.024H350.544V472.152ZM374.736 472.544H399.348V474.672H374.736V472.544ZM388.372 473.384C390.192 480.16 394 485.816 399.824 488.224C399.292 488.7 398.592 489.596 398.228 490.184C392.18 487.328 388.372 481.42 386.272 473.888L388.372 473.384ZM385.908 464.508H388.176C388.064 471.844 388.008 484.612 375.772 490.212C375.436 489.652 374.764 488.896 374.176 488.476C386.076 483.296 385.852 471.228 385.908 464.508Z" fill="black"/>
<path d="M340.828 543.516H357.6V545.476H340.828V543.516ZM352.784 544.44H354.856V558.58C354.856 559.84 354.548 560.456 353.596 560.764C352.644 561.072 351.104 561.1 348.64 561.1C348.528 560.54 348.192 559.7 347.912 559.112C349.816 559.196 351.608 559.196 352.112 559.168C352.616 559.14 352.784 559 352.784 558.58V544.44ZM338.308 542.172L340.324 542.816C338.616 546.456 335.872 550.012 333.128 552.28C332.876 551.832 332.176 550.88 331.756 550.432C334.36 548.444 336.852 545.392 338.308 542.172ZM342.144 548.108H350.068V556.032H342.144V554.268H348.136V549.872H342.144V548.108ZM341.136 548.108H343.124V557.712H341.136V548.108ZM332.736 537.72H357.404V539.652H332.736V537.72ZM339.064 535.48H341.136V542.228H339.064V535.48ZM348.808 535.48H350.88V542.228H348.808V535.48ZM335.928 547.8L337.972 545.756V545.784V561.24H335.928V547.8ZM364.908 536.46L366.644 535.592C367.96 537.076 369.416 539.12 370.032 540.436L368.184 541.444C367.596 540.128 366.196 538 364.908 536.46ZM379.02 535.48L381.176 536.18C379.916 538.42 378.236 541.052 376.864 542.704L375.1 542.088C376.416 540.352 378.096 537.496 379.02 535.48ZM363.144 549.536H382.408V551.608H363.144V549.536ZM360.54 557.74H385.348V559.84H360.54V557.74ZM361.632 541.808H384.368V543.88H361.632V541.808Z" fill="black"/>
<path d="M321.228 628.432H341.052V630.392H321.228V628.432ZM319.856 614.404H342.256V632.044H340.128V616.364H321.9V632.128H319.856V614.404ZM332.736 615.3H334.78V621.236C334.78 621.852 334.892 621.936 335.592 621.936C335.9 621.936 337.44 621.936 337.832 621.936C338.448 621.936 338.588 621.684 338.644 619.808C339.036 620.116 339.876 620.424 340.436 620.564C340.212 623.168 339.652 623.812 338.084 623.812C337.636 623.812 335.732 623.812 335.312 623.812C333.24 623.812 332.736 623.252 332.736 621.236V615.3ZM318.652 608.328H343.264V610.372H318.652V608.328ZM326.576 609.7H328.62V615.524H326.576V609.7ZM332.764 609.7H334.864V615.524H332.764V609.7ZM326.66 614.964H328.62V617.708C328.62 620.34 327.696 623.448 323.608 625.492C323.328 625.072 322.544 624.372 322.124 624.092C325.96 622.244 326.66 619.78 326.66 617.652V614.964ZM354.996 609.672H356.788V622.44H354.996V609.672ZM362.108 608.16H371.348V610.092H362.108V608.16ZM360.204 629.328H371.936V631.288H360.204V629.328ZM362.332 618.436H371.18V620.34H362.332V618.436ZM365.636 608.916H367.624V630.364H365.636V608.916ZM359.532 606.48H361.464V618.464C361.464 624.12 360.736 628.964 355.36 632.268C355.108 631.82 354.464 631.12 354.044 630.756C358.916 627.788 359.532 623.476 359.532 618.436V606.48ZM346.176 608.3H354.464V610.232H346.176V608.3ZM346.456 617.316H353.96V619.22H346.456V617.316ZM345.756 627.732C348.08 627.172 351.44 626.164 354.772 625.212L355.024 627.088C351.916 628.012 348.696 628.964 346.204 629.72L345.756 627.732ZM349.312 609.14H351.272V627.228L349.312 627.648V609.14ZM378.348 617.596H399.488V619.64H378.348V617.596ZM376.388 607.964H397.948V610.008H376.388V607.964ZM389.24 608.776H391.368V629.524C391.368 630.896 391.032 631.512 390.136 631.876C389.212 632.212 387.7 632.268 385.264 632.268C385.18 631.68 384.788 630.728 384.48 630.14C386.328 630.196 388.036 630.196 388.54 630.168C389.044 630.14 389.24 630 389.24 629.496V608.776ZM388.12 618.352L389.996 619.192C386.608 623.896 380.812 628.32 375.688 630.56C375.352 630.028 374.68 629.188 374.176 628.74C379.3 626.78 385.096 622.552 388.12 618.352ZM378.992 611.52L381.064 611.744C380.364 614.768 379.328 618.632 378.572 621.012L376.528 620.76C377.34 618.38 378.348 614.432 378.992 611.52Z" fill="black"/>
<path d="M340.352 678.684H347.352V680.476H340.352V678.684ZM340.212 685.292H349.788V687.112H340.212V685.292ZM339.876 692.096H349.844V693.916H339.876V692.096ZM350.572 678.684H356.424V680.448H352.308V703.212H350.572V678.684ZM355.892 678.684H356.172L356.424 678.572L357.712 679.272C357.096 681.68 356.34 684.508 355.472 687.476C357.096 690.304 357.852 692.544 357.852 694.42C357.852 696.044 357.516 697.584 356.788 698.2C356.452 698.48 355.976 698.648 355.444 698.704C354.996 698.76 354.296 698.788 353.708 698.76C353.68 698.256 353.512 697.528 353.232 697.024C353.82 697.08 354.408 697.08 354.8 697.052C355.108 697.052 355.388 696.968 355.584 696.828C355.976 696.492 356.088 695.4 356.088 694.392C356.088 692.628 355.416 690.556 353.82 687.672C354.716 684.368 355.416 681.288 355.892 678.852V678.684ZM346.848 678.684H348.64C348.64 678.684 348.64 679.468 348.612 679.748C348.472 695.764 348.416 700.776 347.66 702.064C347.24 702.82 346.764 703.044 346.064 703.156C345.392 703.268 344.496 703.24 343.516 703.212C343.516 702.624 343.32 701.784 343.04 701.224C343.992 701.28 344.804 701.308 345.252 701.308C345.588 701.308 345.812 701.224 346.036 700.776C346.568 699.796 346.736 694.728 346.848 679.216V678.684ZM342.592 679.44H344.3C344.244 689.548 344.076 698.34 340.184 703.324C339.876 702.932 339.232 702.4 338.756 702.148C342.48 697.528 342.564 689.072 342.592 679.44ZM331.756 691.956C333.884 691.34 337.104 690.36 340.268 689.352L340.548 691.284C337.664 692.236 334.64 693.244 332.288 694L331.756 691.956ZM332.148 683.136H340.072V685.096H332.148V683.136ZM335.592 677.508H337.496V700.86C337.496 701.98 337.244 702.54 336.544 702.876C335.9 703.212 334.808 703.268 333.072 703.268C332.988 702.764 332.736 701.896 332.456 701.336C333.688 701.364 334.752 701.364 335.088 701.364C335.424 701.364 335.592 701.252 335.592 700.86V677.508ZM376.332 677.536H378.488C378.376 690.78 380.28 701.224 383.276 701.224C383.948 701.224 384.256 699.768 384.396 696.184C384.844 696.66 385.572 697.108 386.132 697.332C385.768 701.952 385.068 703.324 383.08 703.324C377.984 703.296 376.444 691.228 376.332 677.536ZM366.504 696.52L367.484 695.092C369.892 696.268 372.944 698.116 374.4 699.488L373.42 701.14C371.964 699.74 368.968 697.78 366.504 696.52ZM365.524 685.684H375.576V687.364H365.524V685.684ZM365.048 690.108H376.108V691.816H365.048V690.108ZM368.968 686.86L370.816 687.14C369.752 690.584 368.212 695.008 367.064 697.836L365.496 696.968C366.588 694.392 368.044 690.024 368.968 686.86ZM382.576 686.104L384.592 686.44C382.912 694.252 379.748 699.796 374.316 703.268C374.036 702.876 373.252 702.092 372.832 701.728C378.152 698.676 381.148 693.384 382.576 686.104ZM379.664 678.6L380.84 677.424C382.24 678.124 383.976 679.244 384.844 680.084L383.612 681.428C382.772 680.588 381.064 679.384 379.664 678.6ZM363.368 681.568H385.544V683.5H363.368V681.568ZM362.248 681.568H364.208V689.576C364.208 693.608 363.816 699.404 361.464 703.24C361.128 702.876 360.288 702.232 359.84 702.008C362.024 698.368 362.248 693.328 362.248 689.576V681.568ZM372.748 690.948H374.54C373.868 696.268 372.216 700.916 365.692 703.212C365.468 702.764 364.964 702.092 364.572 701.756C370.76 699.768 372.16 695.54 372.748 690.948Z" fill="black"/>
<path d="M574.075 488.278C572.762 488.278 571.592 488.053 570.565 487.602C569.544 487.152 568.732 486.525 568.129 485.723C567.532 484.914 567.207 483.976 567.154 482.909H569.66C569.713 483.565 569.938 484.132 570.336 484.609C570.734 485.08 571.254 485.445 571.897 485.703C572.54 485.962 573.253 486.091 574.035 486.091C574.91 486.091 575.685 485.938 576.362 485.634C577.038 485.329 577.568 484.904 577.952 484.361C578.337 483.817 578.529 483.188 578.529 482.472C578.529 481.723 578.344 481.063 577.972 480.493C577.601 479.916 577.058 479.465 576.342 479.141C575.626 478.816 574.751 478.653 573.717 478.653H572.086V476.466H573.717C574.525 476.466 575.235 476.32 575.844 476.028C576.461 475.737 576.942 475.326 577.286 474.795C577.638 474.265 577.813 473.642 577.813 472.926C577.813 472.237 577.661 471.637 577.356 471.126C577.051 470.616 576.62 470.218 576.063 469.933C575.513 469.648 574.863 469.506 574.114 469.506C573.412 469.506 572.749 469.635 572.126 469.893C571.509 470.145 571.005 470.513 570.614 470.997C570.223 471.474 570.011 472.051 569.978 472.727H567.592C567.631 471.66 567.953 470.725 568.556 469.923C569.159 469.115 569.948 468.485 570.923 468.034C571.904 467.583 572.981 467.358 574.154 467.358C575.414 467.358 576.494 467.613 577.396 468.124C578.297 468.627 578.99 469.294 579.474 470.122C579.958 470.951 580.2 471.846 580.2 472.807C580.2 473.954 579.898 474.931 579.295 475.74C578.698 476.549 577.886 477.109 576.859 477.42V477.58C578.145 477.792 579.149 478.339 579.871 479.22C580.594 480.095 580.955 481.179 580.955 482.472C580.955 483.579 580.654 484.573 580.05 485.455C579.454 486.33 578.638 487.019 577.604 487.523C576.57 488.027 575.394 488.278 574.075 488.278Z" fill="black"/>
<path d="M120.631 417V415.21L127.353 407.852C128.142 406.991 128.791 406.241 129.302 405.605C129.812 404.962 130.19 404.359 130.435 403.795C130.687 403.225 130.813 402.629 130.813 402.006C130.813 401.29 130.641 400.67 130.296 400.146C129.958 399.623 129.494 399.218 128.904 398.933C128.314 398.648 127.651 398.506 126.915 398.506C126.133 398.506 125.451 398.668 124.867 398.993C124.29 399.311 123.843 399.759 123.525 400.335C123.213 400.912 123.058 401.588 123.058 402.364H120.711C120.711 401.17 120.986 400.123 121.536 399.222C122.086 398.32 122.835 397.617 123.783 397.114C124.738 396.61 125.808 396.358 126.995 396.358C128.188 396.358 129.246 396.61 130.167 397.114C131.088 397.617 131.811 398.297 132.335 399.152C132.858 400.007 133.12 400.958 133.12 402.006C133.12 402.755 132.984 403.487 132.712 404.203C132.447 404.912 131.983 405.705 131.32 406.58C130.664 407.448 129.753 408.509 128.586 409.761L124.012 414.653V414.812H133.478V417H120.631Z" fill="black"/>
<path d="M127.075 488.278C125.762 488.278 124.592 488.053 123.565 487.602C122.544 487.152 121.732 486.525 121.129 485.723C120.532 484.914 120.207 483.976 120.154 482.909H122.66C122.713 483.565 122.938 484.132 123.336 484.609C123.734 485.08 124.254 485.445 124.897 485.703C125.54 485.962 126.253 486.091 127.035 486.091C127.91 486.091 128.685 485.938 129.362 485.634C130.038 485.329 130.568 484.904 130.952 484.361C131.337 483.817 131.529 483.188 131.529 482.472C131.529 481.723 131.344 481.063 130.972 480.493C130.601 479.916 130.058 479.465 129.342 479.141C128.626 478.816 127.751 478.653 126.717 478.653H125.086V476.466H126.717C127.525 476.466 128.235 476.32 128.844 476.028C129.461 475.737 129.942 475.326 130.286 474.795C130.638 474.265 130.813 473.642 130.813 472.926C130.813 472.237 130.661 471.637 130.356 471.126C130.051 470.616 129.62 470.218 129.063 469.933C128.513 469.648 127.863 469.506 127.114 469.506C126.412 469.506 125.749 469.635 125.126 469.893C124.509 470.145 124.005 470.513 123.614 470.997C123.223 471.474 123.011 472.051 122.978 472.727H120.592C120.631 471.66 120.953 470.725 121.556 469.923C122.159 469.115 122.948 468.485 123.923 468.034C124.904 467.583 125.981 467.358 127.154 467.358C128.414 467.358 129.494 467.613 130.396 468.124C131.297 468.627 131.99 469.294 132.474 470.122C132.958 470.951 133.2 471.846 133.2 472.807C133.2 473.954 132.898 474.931 132.295 475.74C131.698 476.549 130.886 477.109 129.859 477.42V477.58C131.145 477.792 132.149 478.339 132.871 479.22C133.594 480.095 133.955 481.179 133.955 482.472C133.955 483.579 133.654 484.573 133.05 485.455C132.454 486.33 131.638 487.019 130.604 487.523C129.57 488.027 128.394 488.278 127.075 488.278Z" fill="black"/>
<path d="M119.648 554.824V552.795L128.597 538.636H130.069V541.778H129.074L122.313 552.477V552.636H134.364V554.824H119.648ZM129.233 559V554.207V553.263V538.636H131.58V559H129.233Z" fill="black"/>
<path d="M126.954 630.278C125.787 630.278 124.737 630.046 123.802 629.582C122.867 629.118 122.118 628.482 121.555 627.673C120.991 626.865 120.683 625.943 120.63 624.909H123.017C123.109 625.83 123.527 626.593 124.269 627.196C125.018 627.793 125.913 628.091 126.954 628.091C127.789 628.091 128.532 627.895 129.181 627.504C129.838 627.113 130.351 626.576 130.722 625.893C131.1 625.204 131.289 624.425 131.289 623.557C131.289 622.669 131.094 621.876 130.703 621.18C130.318 620.478 129.788 619.924 129.112 619.52C128.436 619.116 127.663 618.91 126.795 618.903C126.172 618.897 125.532 618.993 124.876 619.192C124.22 619.384 123.679 619.633 123.255 619.938L120.948 619.659L122.181 609.636H132.761V611.824H124.249L123.534 617.83H123.653C124.07 617.498 124.594 617.223 125.224 617.004C125.854 616.786 126.51 616.676 127.193 616.676C128.439 616.676 129.549 616.974 130.524 617.571C131.505 618.161 132.274 618.97 132.83 619.997C133.394 621.025 133.676 622.198 133.676 623.517C133.676 624.816 133.384 625.976 132.801 626.997C132.224 628.011 131.428 628.813 130.414 629.403C129.4 629.987 128.247 630.278 126.954 630.278Z" fill="black"/>
<path d="M127.133 701.278C126.298 701.265 125.463 701.106 124.627 700.801C123.792 700.496 123.03 699.982 122.34 699.26C121.651 698.531 121.097 697.546 120.68 696.307C120.262 695.061 120.053 693.496 120.053 691.614C120.053 689.811 120.222 688.213 120.561 686.821C120.899 685.422 121.389 684.246 122.032 683.291C122.675 682.33 123.451 681.601 124.359 681.104C125.274 680.607 126.304 680.358 127.451 680.358C128.591 680.358 129.606 680.587 130.494 681.044C131.389 681.495 132.118 682.125 132.681 682.933C133.245 683.742 133.609 684.673 133.775 685.727H131.349C131.124 684.812 130.686 684.054 130.036 683.45C129.387 682.847 128.525 682.545 127.451 682.545C125.874 682.545 124.631 683.232 123.722 684.604C122.821 685.976 122.367 687.902 122.36 690.381H122.519C122.891 689.817 123.331 689.337 123.842 688.939C124.359 688.535 124.929 688.223 125.552 688.004C126.175 687.786 126.835 687.676 127.531 687.676C128.697 687.676 129.765 687.968 130.732 688.551C131.7 689.128 132.476 689.927 133.059 690.947C133.642 691.962 133.934 693.125 133.934 694.438C133.934 695.697 133.652 696.85 133.089 697.898C132.526 698.938 131.733 699.767 130.713 700.384C129.698 700.993 128.505 701.292 127.133 701.278ZM127.133 699.091C127.968 699.091 128.717 698.882 129.38 698.464C130.05 698.047 130.577 697.487 130.961 696.784C131.352 696.081 131.548 695.299 131.548 694.438C131.548 693.596 131.359 692.83 130.981 692.141C130.61 691.445 130.096 690.891 129.44 690.48C128.79 690.069 128.048 689.864 127.213 689.864C126.583 689.864 125.996 689.99 125.453 690.241C124.909 690.487 124.432 690.825 124.021 691.256C123.616 691.687 123.298 692.18 123.066 692.737C122.834 693.287 122.718 693.867 122.718 694.477C122.718 695.286 122.907 696.042 123.285 696.744C123.669 697.447 124.193 698.014 124.856 698.445C125.526 698.875 126.285 699.091 127.133 699.091Z" fill="black"/>
<path d="M566.648 412.824V410.795L575.597 396.636H577.069V399.778H576.074L569.313 410.477V410.636H581.364V412.824H566.648ZM576.233 417V412.207V411.263V396.636H578.58V417H576.233Z" fill="black"/>
<path d="M718.759 467.636V488H716.293V470.222H716.174L711.202 473.523V471.017L716.293 467.636H718.759Z" fill="black"/>
<path d="M720.759 609.636V630H718.293V612.222H718.174L713.202 615.523V613.017L718.293 609.636H720.759Z" fill="black"/>
<path d="M720.759 680.636V701H718.293V683.222H718.174L713.202 686.523V684.017L718.293 680.636H720.759Z" fill="black"/>
<path d="M860.759 467.636V488H858.293V470.222H858.174L853.202 473.523V471.017L858.293 467.636H860.759Z" fill="black"/>
<path d="M861.759 609.636V630H859.293V612.222H859.174L854.202 615.523V613.017L859.293 609.636H861.759Z" fill="black"/>
<path d="M859 701.278C857.502 701.278 856.226 700.871 855.172 700.055C854.118 699.233 853.313 698.044 852.756 696.486C852.199 694.921 851.92 693.032 851.92 690.818C851.92 688.617 852.199 686.738 852.756 685.18C853.319 683.616 854.128 682.423 855.182 681.601C856.242 680.772 857.515 680.358 859 680.358C860.485 680.358 861.754 680.772 862.808 681.601C863.869 682.423 864.678 683.616 865.234 685.18C865.798 686.738 866.08 688.617 866.08 690.818C866.08 693.032 865.801 694.921 865.244 696.486C864.688 698.044 863.882 699.233 862.828 700.055C861.774 700.871 860.498 701.278 859 701.278ZM859 699.091C860.485 699.091 861.638 698.375 862.46 696.943C863.282 695.511 863.693 693.47 863.693 690.818C863.693 689.055 863.504 687.554 863.126 686.314C862.755 685.074 862.218 684.13 861.516 683.48C860.82 682.83 859.981 682.506 859 682.506C857.528 682.506 856.378 683.232 855.55 684.683C854.721 686.128 854.307 688.173 854.307 690.818C854.307 692.581 854.492 694.08 854.864 695.312C855.235 696.545 855.768 697.483 856.464 698.126C857.167 698.769 858.012 699.091 859 699.091Z" fill="black"/>
</g>
<path d="M41.0156 301.528H933.25V676.821C933.25 703.883 911.312 725.821 884.25 725.821H90.0156C62.9537 725.821 41.0156 703.883 41.0156 676.821V301.528Z" stroke="#3686FF" stroke-width="2"/>
<path d="M40.0156 263.963C40.0156 236.349 62.4014 213.963 90.0156 213.963H884.25C911.865 213.963 934.25 236.349 934.25 263.963V300.528H40.0156V263.963Z" fill="#3686FF"/>
<path d="M110.692 268.144H125.028V271.632H110.692V268.144ZM109.092 245.968H120.42V249.36H109.092V245.968ZM109.924 242.64L114.244 243.504C111.524 248.176 107.684 252.464 101.924 255.92C101.38 254.96 100.1 253.552 99.236 252.88C104.516 250.096 108.068 246.192 109.924 242.64ZM119.204 245.968H119.94L120.58 245.776L123.236 247.184C119.492 257.136 110.948 263.664 101.412 266.864C100.932 265.808 99.972 264.24 99.172 263.44C108.004 260.88 116.26 254.672 119.204 246.608V245.968ZM104.9 253.008L107.748 250.512C109.956 252.08 112.868 254.352 114.276 256.016L111.172 258.8C109.956 257.136 107.108 254.672 104.9 253.008ZM123.236 258.384H127.236V272.912H123.236V258.384ZM112.324 258.384H125.156V261.872H112.324V272.848H108.484V261.232L111.396 258.384H112.324ZM144.1 242.96L148.1 243.664C146.852 249.36 144.676 254.704 142.052 258.096C141.252 257.488 139.428 256.464 138.404 256.016C141.156 253.04 143.108 248.048 144.1 242.96ZM150.02 251.952H152.004V255.472C152.004 258.96 153.924 265.936 161.828 269.392C161.092 270.32 159.94 271.92 159.332 272.88C153.604 270.256 150.596 264.592 149.988 261.712C149.22 264.592 145.956 270.064 139.46 272.88C139.012 271.984 137.796 270.352 137.124 269.648C145.796 266.192 147.94 259.12 147.94 255.472V251.952H150.02ZM131.364 265.072C133.156 263.344 136.036 260.4 138.692 257.488L140.868 260.784C138.66 263.376 136.036 266.192 133.828 268.368L131.364 265.072ZM132.292 247.632L135.012 244.816C136.932 246.064 139.524 247.984 140.772 249.36L137.86 252.528C136.74 251.12 134.244 249.04 132.292 247.632ZM145.476 248.368H158.596V252.176H143.588L145.476 248.368ZM157.316 248.368H157.892L158.628 248.144L161.476 249.808C160.548 253.04 159.012 256.368 157.764 258.64C156.964 258.224 155.428 257.424 154.5 257.072C155.524 255.12 156.836 251.728 157.316 249.2V248.368Z" fill="white"/>
<path d="M573.838 246.48C571.182 250.224 566.286 254.416 561.038 257.2C560.558 256.304 559.47 254.896 558.638 254.096C564.142 251.408 569.294 246.608 571.662 242.736H575.662C579.118 247.6 584.27 251.632 589.358 253.712C588.43 254.672 587.534 255.984 586.83 257.168C581.934 254.576 576.59 250.256 573.838 246.48ZM565.806 252.432H581.934V255.792H565.806V252.432ZM561.998 258.96H585.71V262.256H561.998V258.96ZM560.366 268.688H587.566V271.984H560.366V268.688ZM571.726 253.776H575.822V270.32H571.726V253.776ZM563.982 263.472L567.086 262.192C568.302 263.824 569.582 266.032 570.062 267.536L566.734 268.976C566.318 267.504 565.134 265.168 563.982 263.472ZM580.27 262.224L583.918 263.6C582.606 265.552 581.198 267.632 580.078 268.976L577.198 267.792C578.222 266.288 579.566 263.952 580.27 262.224Z" fill="white"/>
<path d="M716.702 244.112H729.086V258.832H716.702V255.536H725.598V247.408H716.702V244.112ZM716.67 249.904H727.038V253.008H716.67V249.904ZM722.91 256.912C724.094 262.576 726.654 267.312 731.166 269.456C730.366 270.192 729.278 271.728 728.734 272.752C723.87 269.936 721.374 264.464 719.998 257.488L722.91 256.912ZM728.318 259.184L730.686 261.904C728.99 263.28 726.942 264.816 725.374 265.744L723.486 263.376C724.926 262.384 727.102 260.56 728.318 259.184ZM714.974 272.976L714.654 269.648L716.19 268.432L723.07 266.928C723.038 268.016 723.102 269.584 723.23 270.416C716.958 272.016 715.742 272.464 714.974 272.976ZM714.974 272.976C714.718 272.112 713.886 270.608 713.342 269.968C714.014 269.552 714.814 268.656 714.814 267.184V244.112H718.59V269.488C718.59 269.488 714.974 271.6 714.974 272.976ZM705.438 242.896L708.83 243.92C707.486 247.664 705.214 251.536 702.654 253.968C702.366 253.136 701.438 251.12 700.862 250.224C702.782 248.432 704.478 245.744 705.438 242.896ZM705.566 245.936H713.022V249.584H704.83L705.566 245.936ZM703.806 251.92H712.798V255.344H703.806V251.92ZM701.886 258.48H713.47V261.904H701.886V258.48ZM705.726 272.88L705.15 269.616L706.302 268.4L713.15 265.328C713.214 266.32 713.438 267.856 713.662 268.656C707.518 271.664 706.398 272.272 705.726 272.88ZM705.726 272.88C705.534 272.016 704.798 270.48 704.254 269.744C704.926 269.392 705.79 268.624 705.79 267.28V252.88H709.438V269.776C709.438 269.776 705.726 271.632 705.726 272.88Z" fill="white"/>
<path d="M854.854 244.048H868.422V247.504H858.022V272.88H854.854V244.048ZM867.814 244.048H871.014V268.88C871.014 270.608 870.726 271.632 869.702 272.24C868.646 272.784 867.11 272.88 864.902 272.88C864.838 271.952 864.358 270.32 863.91 269.392C865.286 269.488 866.758 269.456 867.238 269.456C867.654 269.456 867.814 269.296 867.814 268.848V244.048ZM859.302 249.872H866.534V253.008H859.302V249.872ZM859.558 255.408H861.83V267.024H859.558V255.408ZM860.998 255.408H866.31V265.36H860.998V262.448H863.942V258.352H860.998V255.408ZM846.15 242.896L849.51 243.92C848.198 247.664 845.958 251.536 843.43 253.968C843.174 253.136 842.246 251.12 841.638 250.192C843.558 248.432 845.222 245.744 846.15 242.896ZM845.99 245.744H854.054V249.264H845.35L845.99 245.744ZM846.342 272.88L845.638 269.52L846.63 268.304L853.286 264.496C853.414 265.52 853.83 267.056 854.118 267.824C848.07 271.504 846.95 272.208 846.342 272.88ZM844.262 251.92H853.734V255.344H844.262V251.92ZM842.406 258.48H853.862V261.904H842.406V258.48ZM846.342 272.88C846.054 272.112 845.222 270.736 844.646 270.16C845.35 269.68 846.374 268.592 846.374 267.024V252.592H849.926V269.2C849.926 269.2 846.342 271.6 846.342 272.88Z" fill="white"/>
<path d="M296.202 249.328H311.978V252.688H296.202V249.328ZM297.034 255.728H311.306V258.96H297.034V255.728ZM295.85 262.768H312.522V265.904H295.85V262.768ZM302.282 250.384H305.834V264.432H302.282V250.384ZM306.858 259.984L309.29 258.704C310.25 259.632 311.402 260.976 311.946 261.84L309.386 263.28C308.874 262.384 307.786 260.976 306.858 259.984ZM290.698 244.08H317.738V272.848H313.61V247.6H294.602V272.848H290.698V244.08ZM292.81 267.728H315.498V271.248H292.81V267.728ZM334.25 242.864H338.186V247.44H334.25V242.864ZM322.698 245.36H349.93V252.592H346.026V248.848H326.442V252.592H322.698V245.36ZM327.562 250.896H344.842V254.16H327.562V250.896ZM330.698 256.592L333.642 254.864C341.194 260.112 341.13 269.136 337.706 271.6C336.49 272.656 335.466 272.944 333.77 272.944C332.97 272.976 332.01 272.944 331.05 272.88C330.986 271.824 330.634 270.288 329.962 269.2C331.146 269.328 332.202 269.36 333.034 269.36C333.834 269.36 334.442 269.264 334.986 268.688C336.81 267.28 336.81 260.944 330.698 256.592ZM335.754 251.728L338.922 253.04C335.53 256.496 329.706 258.96 324.362 260.368C324.01 259.632 323.018 258.096 322.41 257.392C327.498 256.368 332.97 254.384 335.754 251.728ZM333.258 258.096L335.722 259.824C333.066 261.872 328.362 264.24 324.778 265.488C324.362 264.656 323.562 263.344 322.858 262.576C326.346 261.744 330.986 259.824 333.258 258.096ZM335.85 261.136L338.474 263.088C335.05 266.352 328.81 269.744 323.722 271.44C323.274 270.48 322.442 269.104 321.706 268.272C326.762 267.024 332.874 264.016 335.85 261.136ZM340.714 252.272C342.25 258.992 345.546 264.72 351.21 267.248C350.346 268.016 349.13 269.552 348.554 270.608C342.506 267.376 339.306 260.976 337.482 252.912L340.714 252.272ZM346.954 254.352L349.962 256.944C347.754 258.608 344.97 260.4 342.89 261.456L340.426 259.152C342.442 258 345.29 255.952 346.954 254.352ZM364.334 245.636L356.834 273.5H352.663L360.163 245.636H364.334ZM384.478 242.832H388.094V265.424H384.478V242.832ZM375.006 255.696L391.582 248.656L392.99 251.92L376.446 259.088L375.006 255.696ZM378.174 245.936H381.822V266.672C381.822 268.56 382.11 268.816 384.094 268.816C385.054 268.816 389.31 268.816 390.302 268.816C392.062 268.816 392.382 268.112 392.638 264.816C393.47 265.392 394.974 266 395.998 266.192C395.518 270.736 394.366 272.24 390.622 272.24C389.566 272.24 384.766 272.24 383.774 272.24C379.39 272.24 378.174 271.088 378.174 266.64V245.936ZM390.846 249.072H390.622L391.294 248.592L391.966 248.112L394.654 249.072L394.494 249.712C394.494 255.824 394.43 259.696 394.302 261.008C394.174 262.48 393.63 263.248 392.638 263.664C391.71 264.112 390.334 264.112 389.31 264.112C389.182 263.152 388.894 261.712 388.478 260.912C389.022 260.944 389.758 260.944 390.046 260.944C390.43 260.944 390.622 260.848 390.718 260.272C390.846 259.632 390.846 256.144 390.846 249.072ZM365.822 250.256H376.382V253.872H365.822V250.256ZM369.534 243.28H373.118V264.496H369.534V243.28ZM365.374 264.528C368.03 263.568 372.19 261.84 376.094 260.176L376.958 263.568C373.566 265.296 369.886 267.024 366.91 268.368L365.374 264.528ZM418.558 248.656L422.366 249.936C418.782 257.008 413.182 263.184 407.294 267.024C406.654 266.224 405.15 264.72 404.286 264.016C410.238 260.688 415.486 255.024 418.558 248.656ZM405.47 253.104L408.158 250.64C413.662 254.064 420.51 259.248 423.71 263.216L420.67 266.128C417.726 262.224 411.102 256.72 405.47 253.104ZM399.294 244.528H426.686V248.208H403.134V272.912H399.294V244.528ZM401.662 267.696H427.486V271.376H401.662V267.696Z" fill="white"/>
<line x1="214.963" y1="213.963" x2="214.963" y2="300.528" stroke="white" stroke-width="2"/>
<line x1="504.875" y1="213.963" x2="504.875" y2="300.528" stroke="white" stroke-width="2"/>
<line x1="645.338" y1="213.963" x2="645.338" y2="300.528" stroke="white" stroke-width="2"/>
<line x1="787.436" y1="213.963" x2="787.436" y2="300.528" stroke="white" stroke-width="2"/>
<defs>
<linearGradient id="paint0_linear_753_1320" x1="0" y1="183.43" x2="971" y2="183.43" gradientUnits="userSpaceOnUse">
<stop stop-color="#FF6A00" stop-opacity="0"/>
<stop offset="0.51" stop-color="#FF6A00"/>
<stop offset="1" stop-color="#FF6A00" stop-opacity="0"/>
</linearGradient>
<clipPath id="clip0_753_1320">
<path d="M40.0156 300.528H934.25V676.821C934.25 704.435 911.865 726.821 884.25 726.821H90.0156C62.4014 726.821 40.0156 704.435 40.0156 676.821V300.528Z" fill="white"/>
</clipPath>
</defs>
</svg>
