<svg width="91" height="124" viewBox="0 0 91 124" fill="none" xmlns="http://www.w3.org/2000/svg">
<path d="M71.2552 8.59617L68.9846 0.805054L63.4641 4.80822L63.4856 4.88355C63.2274 4.76518 62.9368 4.70061 62.6355 4.70061C61.4841 4.70061 60.5586 5.62608 60.5586 6.77753C60.5586 7.92898 61.4841 8.85444 62.6355 8.85444C63.3673 8.85444 64.0129 8.4778 64.3788 7.90745L64.4434 8.1442L71.2552 8.59617Z" fill="#004793"/>
<path d="M23.5396 28.9779C23.5396 31.1955 24.4205 33.3223 25.9886 34.8904C27.5566 36.4584 29.6834 37.3394 31.901 37.3394C34.1186 37.3394 36.2454 36.4584 37.8135 34.8904C39.3815 33.3223 40.2625 31.1955 40.2625 28.9779C40.2625 26.7603 39.3815 24.6335 37.8135 23.0655C36.2454 21.4974 34.1186 20.6165 31.901 20.6165C29.6834 20.6165 27.5566 21.4974 25.9886 23.0655C24.4205 24.6335 23.5396 26.7603 23.5396 28.9779Z" fill="#004793"/>
<path d="M9.42104 13.5571C4.49241 13.5571 0.5 17.9907 0.5 23.4574C0.5 28.9241 4.49241 33.3578 9.42104 33.3578C14.3497 33.3578 18.3421 28.9241 18.3421 23.4574C18.3313 17.98 14.3389 13.5571 9.42104 13.5571ZM9.42104 31.2701C5.93441 31.2701 3.10421 27.9341 3.10421 23.8126C3.10421 19.691 5.93441 16.355 9.42104 16.355C12.9077 16.355 15.7379 19.691 15.7379 23.8126C15.7379 27.9341 12.9077 31.2701 9.42104 31.2701Z" fill="#004793"/>
<path d="M8.1081 33.3469V50.8984C4.61071 52.7278 6.19261 56.0208 8.1081 57L26.8434 62.0578C27.8226 62.3268 28.8665 61.961 29.4799 61.1539L36.5392 51.7378C36.9159 51.232 37.6907 51.2751 38.0135 51.8347L49.6356 72.2164V94.2446L37.2387 116.768C35.0219 120.222 41.1665 125.861 44.6424 121.61L59.2239 97.3008C59.4714 96.8811 59.6113 96.4076 59.6113 95.9126V76.2519C59.6113 74.8421 62.1294 74.2395 62.8827 75.7461L74.0205 94.6966L80.9723 120.599C82.5864 124.785 91.755 121.632 90.2915 116.994L83.0492 90.6826L53.5204 39.8359C52.8317 38.6522 53.2299 37.1349 54.4136 36.4461L80.5418 21.219C82.3605 19.1421 79.089 14.73 76.4633 15.6985L35.2694 39.5884L26.9833 53.9439C26.6927 54.4389 26.1116 54.6864 25.5628 54.5573L10.8522 51.0814V33.3469H8.1081Z" fill="#004793"/>
</svg>
