<svg width="112" height="107" viewBox="0 0 112 107" fill="none" xmlns="http://www.w3.org/2000/svg">
<path d="M96.4551 20.6783C96.4551 21.4126 96.7468 22.1169 97.266 22.6361C97.7853 23.1553 98.4895 23.447 99.2238 23.447C99.9581 23.447 100.662 23.1553 101.182 22.6361C101.701 22.1169 101.992 21.4126 101.992 20.6783C101.992 19.944 101.701 19.2398 101.182 18.7205C100.662 18.2013 99.9581 17.9096 99.2238 17.9096C98.4895 17.9096 97.7853 18.2013 97.266 18.7205C96.7468 19.2398 96.4551 19.944 96.4551 20.6783Z" fill="#004793"/>
<path d="M35.9512 9.20423C35.9512 11.4141 36.829 13.5334 38.3916 15.096C39.9542 16.6585 42.0735 17.5364 44.2833 17.5364C46.4932 17.5364 48.6125 16.6585 50.1751 15.096C51.7376 13.5334 52.6155 11.4141 52.6155 9.20423C52.6155 6.99441 51.7376 4.87509 50.1751 3.3125C48.6125 1.74992 46.4932 0.87207 44.2833 0.87207C42.0735 0.87207 39.9542 1.74992 38.3916 3.3125C36.829 4.87509 35.9512 6.99441 35.9512 9.20423Z" fill="#004793"/>
<path d="M67.6221 53.2258V58.1383C67.6221 59.1624 68.4466 59.987 69.4708 59.987H111.956V51.3771H69.4794C68.4553 51.3684 67.6221 52.2016 67.6221 53.2258Z" fill="#004793"/>
<path d="M77.9581 31.5933C78.6031 32.2102 79.3752 32.6816 80.2304 32.9805C81.0856 33.2794 82.0071 33.3999 82.9423 33.3352C83.8775 33.2705 84.8081 33.0218 85.6809 32.6033C86.5537 32.1848 87.3517 31.6048 88.0292 30.8963C88.7068 30.1878 89.2506 29.3647 89.6297 28.4741C90.0087 27.5834 90.2156 26.6427 90.2385 25.7055C90.2614 24.7683 90.0998 23.8531 89.763 23.0121C89.4263 22.1711 88.9208 21.4208 88.2757 20.8041C87.6307 20.1871 86.8586 19.7157 86.0034 19.4168C85.1482 19.118 84.2267 18.9974 83.2915 19.0622C82.3563 19.1269 81.4257 19.3756 80.5529 19.7941C79.68 20.2125 78.8821 20.7926 78.2046 21.5011C77.527 22.2096 76.9832 23.0326 76.6041 23.9233C76.2251 24.8139 76.0182 25.7547 75.9953 26.6919C75.9724 27.629 76.134 28.5442 76.4708 29.3852C76.8075 30.2262 77.3129 30.9765 77.9581 31.5933Z" fill="#004793"/>
<path d="M78.1936 31.8052L75.3555 36.0928L78.1936 37.4467L81.3355 33.2633L78.1936 31.8052Z" fill="#004793"/>
<path d="M18.5319 19.576H41.1936C43.728 19.576 46.6095 20.7998 48.1458 22.6745L60.2274 34.626H77.2215C82.759 35.5807 81.3356 41.7257 77.2215 41.6302H58.1096L49.2914 33.5584C48.6492 32.9682 47.6163 33.2807 47.3993 34.1226L42.0182 54.8228C41.7491 55.873 42.0442 56.9926 42.7993 57.7651L58.2659 73.6309C58.7172 74.0909 59.0383 74.6637 59.2119 75.2887L66.0512 100.172C66.5807 106.552 58.1964 107.532 56.6862 103.045L51.0707 80.3921C50.8884 79.637 50.4979 78.9513 49.9511 78.4045L34.2415 62.5561C32.9049 61.4711 31.1429 62.478 31.1429 63.3893V83.9333C31.1429 84.7057 30.8392 85.4522 30.2924 85.999L11.1978 105.38C6.74533 108.322 1.83282 102.325 4.24568 99.1829L21.1617 82.4838C21.7953 81.8589 22.1425 81.017 22.1425 80.1317V54.7013C22.1425 54.4496 22.1772 54.2065 22.2379 53.9635L29.4071 27.5263C29.5893 26.8579 29.0859 26.1983 28.3916 26.1983H17.1519C16.2492 26.1983 15.3813 25.8338 14.7477 25.1915L0.400732 11.1136C-1.24834 9.03059 2.96114 5.19432 5.05286 6.60905L18.5319 19.576Z" fill="#004793"/>
</svg>
