<svg width="107" height="119" viewBox="0 0 107 119" fill="none" xmlns="http://www.w3.org/2000/svg">
<path d="M106.902 74.9936C106.337 71.9456 103.391 69.9204 100.327 70.5014C96.5916 71.2501 92.8317 71.8474 89.0513 72.2933C93.3063 65.1417 95.7488 56.7914 95.7488 47.8846C95.7488 21.4753 74.2612 0 47.8642 0C42.7909 0 37.9018 0.793713 33.3073 2.26249C32.5995 0.916452 31.188 0 29.5638 0C27.2317 0 25.3374 1.89427 25.3374 4.22632V5.64191C10.2733 13.714 0 29.6251 0 47.8805C0 68.1816 12.7035 85.5778 30.5784 92.5289L18.0222 109.266C17.2817 110.248 16.8889 111.427 16.8889 112.65C16.8889 115.768 19.4173 118.288 22.5267 118.288C24.3064 118.3 25.9675 117.457 27.0435 116.033L42.4595 95.4542C44.2352 95.6547 46.0394 95.757 47.8683 95.757C59.6921 95.757 70.5218 91.4529 78.8844 84.3299C86.7888 84.0272 94.6564 83.1026 102.405 81.5601C105.457 81.0037 107.479 78.058 106.902 74.9936ZM90.115 47.8805C90.115 57.2619 87.0425 65.9395 81.8506 72.9561C79.9113 73.0871 77.968 73.1771 76.0205 73.2262C72.7843 73.2671 69.9858 73.1116 67.5761 72.8252V72.8211C65.7022 72.6043 63.8489 72.2688 62.0323 71.7983C62.0364 71.3687 62.0119 70.9391 61.9628 70.5095V70.4032C61.6273 67.5515 60.2076 64.9372 57.9779 63.1247C54.6271 60.3426 52.9415 56.0304 53.5183 51.7223C53.5183 50.7649 53.5429 49.9221 53.5511 49.0752C53.6165 45.2866 53.6615 42.7419 52.025 40.9089L52.0168 40.9008C51.9514 40.8312 51.8859 40.7576 51.8164 40.688L51.5586 40.4425C51.4522 40.3443 51.3418 40.2502 51.2313 40.1561C51.2231 40.1521 51.2149 40.1439 51.2108 40.1398C51.0963 40.0457 50.9817 39.9557 50.8672 39.8698L50.6831 39.7347C50.6299 39.6979 50.5767 39.657 50.5235 39.6243C50.3967 39.5384 50.2658 39.4524 50.1348 39.3747L49.7707 39.0556L33.9742 25.3456L33.8023 25.1942V8.0435C38.2046 6.48472 42.9423 5.63373 47.8723 5.63373C71.1723 5.63782 90.115 24.5806 90.115 47.8805ZM25.3456 12.1553V26.753C25.3456 27.0026 25.3661 27.2522 25.4111 27.4977C25.542 28.2341 25.8693 28.9296 26.3603 29.5024L37.104 42.0463C35.5943 44.1738 34.5715 46.5877 34.0887 49.1161L20.3297 57.5851L20.3338 57.5933L9.04587 64.5403C6.84475 59.4262 5.62554 53.7966 5.62554 47.8846C5.62554 32.8573 13.5013 19.6464 25.3456 12.1553ZM13.1985 71.9988L35.1034 60.3263C36.6704 65.5672 39.4606 70.4032 43.286 74.4085V74.4331L35.443 86.1465C35.2589 86.3306 35.0829 86.5393 34.9234 86.7479L34.1092 87.8321C25.5747 84.8782 18.2718 79.2731 13.1985 71.9988ZM47.3896 90.1232L55.2244 82.2884C58.8411 83.2171 63.4643 84.0026 69.2576 84.3054C62.9815 88.0039 55.6704 90.1273 47.8723 90.1273C47.7087 90.1273 47.5491 90.1273 47.3896 90.1232Z" fill="#004793"/>
<path d="M45.0615 23.9342C45.0615 29.3756 49.476 33.7901 54.9175 33.7901C60.3589 33.7901 64.7734 29.3756 64.7734 23.9342C64.7734 18.4928 60.3589 14.0782 54.9175 14.0782C49.476 14.0823 45.0615 18.4928 45.0615 23.9342Z" fill="#004793"/>
</svg>
