<svg width="110" height="102" viewBox="0 0 110 102" fill="none" xmlns="http://www.w3.org/2000/svg">
<path d="M57.2008 8.73806C57.2008 10.8263 58.0304 12.829 59.507 14.3056C60.9836 15.7822 62.9863 16.6117 65.0745 16.6117C67.1627 16.6117 69.1654 15.7822 70.642 14.3056C72.1186 12.829 72.9482 10.8263 72.9482 8.73806C72.9482 6.64983 72.1186 4.64713 70.642 3.17053C69.1654 1.69393 67.1627 0.86438 65.0745 0.86438C62.9863 0.86438 60.9836 1.69393 59.507 3.17053C58.0304 4.64713 57.2008 6.64983 57.2008 8.73806Z" fill="#004793"/>
<path d="M39.2495 44.7324L43.5157 30.1494C43.6149 29.8104 43.8025 29.5039 44.0594 29.2615C44.3162 29.019 44.633 28.8493 44.9772 28.7698L49.7947 27.6578C50.1355 27.5788 50.4373 27.8911 50.3469 28.2291L44.2184 51.2941C44.2269 53.6381 44.642 55.6765 46.1873 56.8714L42.0629 73.2985L19.7538 73.4623C15.6294 74.3525 16.0626 81.4769 19.7538 82.0395H45.4846C47.6059 81.7016 49.1397 80.1325 49.9842 77.1183L53.4992 64.4642L64.888 75.2436L71.6373 99.3807C74.3869 102.162 80.0736 100.787 79.7928 96.475L73.231 71.3534L59.3269 57.6311C59.1364 57.4432 58.9991 57.2082 58.9287 56.9501C58.8583 56.6919 58.8574 56.4197 58.9261 56.1611L62.4497 42.8577L79.7909 42.6702C82.4624 42.9044 83.7743 37.5613 79.7909 36.5769L64.231 36.6702C65.4497 31.7022 67.4291 26.958 66.4808 23.9219C65.1879 21.3912 63.2761 19.4804 60.2133 18.7197C59.4907 18.5398 58.7328 18.5521 58.013 18.7435L40.0521 23.5277C39.7085 23.6194 39.395 23.7996 39.1429 24.0504C38.8908 24.3011 38.7089 24.6137 38.6154 24.9568L33.6732 43.1386C32.6411 46.1853 37.9375 48.1075 39.2495 44.7324Z" fill="#004793"/>
<path d="M0.86438 59.8713H41.4991L40.1404 63.6206H0.86438V59.8713ZM0.86438 79.0871H13.1909L14.3629 82.3213H0.86438V79.0871ZM53.6695 79.1024H61.5117L62.8561 82.2899H52.2947L53.6695 79.1024ZM67.9325 59.8713L71.261 63.6206H109.833V59.8713H67.9325ZM79.2594 79.1024L80.3848 82.2899H109.912V79.1024H79.2594ZM83.3057 97.9744H109.912V101.396H82.0404L83.3057 97.9744ZM0.86438 97.9278H66.6206L68.1677 101.021H0.86438V97.9278Z" fill="#004793"/>
</svg>
