<svg width="97" height="113" viewBox="0 0 97 113" fill="none" xmlns="http://www.w3.org/2000/svg">
<path d="M15.0333 8.9446C15.0332 9.99229 15.2395 11.0298 15.6403 11.9977C16.0412 12.9657 16.6288 13.8453 17.3695 14.5861C18.1103 15.327 18.9898 15.9147 19.9577 16.3157C20.9257 16.7166 21.9631 16.923 23.0108 16.923C24.0585 16.923 25.0959 16.7166 26.0639 16.3157C27.0318 15.9147 27.9113 15.327 28.6521 14.5861C29.3928 13.8453 29.9804 12.9657 30.3813 11.9977C30.7822 11.0298 30.9884 9.99229 30.9883 8.9446C30.9884 7.8969 30.7822 6.85944 30.3813 5.89146C29.9804 4.92348 29.3928 4.04394 28.6521 3.30307C27.9113 2.56219 27.0318 1.97449 26.0639 1.57353C25.0959 1.17256 24.0585 0.966187 23.0108 0.966187C21.9631 0.966187 20.9257 1.17256 19.9577 1.57353C18.9898 1.97449 18.1103 2.56219 17.3695 3.30307C16.6288 4.04394 16.0412 4.92348 15.6403 5.89146C15.2395 6.85944 15.0332 7.8969 15.0333 8.9446Z" fill="#004793"/>
<path d="M95.0507 17.5659H30.2698C28.8236 17.6406 28.2171 18.4243 27.9186 19.46L4.06077 19.2361C-0.763041 20.1131 0.720491 26.4858 4.06077 26.6071H13.9137C14.5295 26.6071 15.0333 27.1109 15.0333 27.7267V58.349L1.70951 107.371C1.20567 111.915 7.42904 114.397 9.91092 109.993L22.6656 64.619C23.3467 62.6597 26.7709 61.7733 28.3571 64.619L40.2813 108.976C42.8099 114.807 50.7127 112.68 49.4344 106.587L36.2226 58.6289L36.6518 32.6438C36.6611 32.1213 37.2769 31.8507 37.6688 32.1866L47.6057 40.8079C48.2308 41.3491 49.1638 41.3211 49.761 40.7519L64.3537 26.6164C64.9135 25.9073 64.7922 24.545 64.3537 23.696L71.1929 23.6213C72.2565 23.5467 72.807 22.2778 72.6391 20.0945L95.0413 19.8705C96.1517 19.9172 96.6835 17.7992 95.0507 17.5659ZM57.3279 24.3958L49.0239 32.3266C48.7533 32.5878 48.3148 32.5878 48.0349 32.3359L39.5256 24.3958C39.311 24.1998 39.4509 23.8359 39.7495 23.8359H57.104C57.3932 23.8359 57.5332 24.1905 57.3279 24.3958Z" fill="#004793"/>
</svg>
