<svg width="134" height="67" viewBox="0 0 134 67" fill="none" xmlns="http://www.w3.org/2000/svg">
<path d="M66.1224 34.5752L100.973 0.620325C101.778 -0.160153 103.051 -0.160153 103.856 0.61211L120.937 17.0679C123.081 20.7895 117.56 24.2154 115.334 22.3587L103.503 11.1116C102.665 10.3147 101.343 10.3393 100.537 11.1691L88.592 23.3774L106.978 41.5831C104.621 43.2673 100.759 43.941 96.0435 44.0478C90.8348 44.1546 86.9406 42.1829 80.779 41.5831C75.3731 41.2545 71.3721 43.8095 66.7796 44.0478C60.6755 44.7379 57.5946 41.7392 51.4576 41.6406C45.7232 41.6242 42.0015 43.6945 36.7928 44.0478C30.8858 44.4257 26.852 41.6735 23.0318 41.7064C18.4639 41.8296 17.5602 43.5056 15.3995 42.5443C14.1261 39.0281 14.6437 36.1855 19.3676 34.9121H65.2844C65.6048 34.9121 65.9006 34.7889 66.1224 34.5752Z" fill="#004793"/>
<path d="M51.0387 22.1122C51.0387 24.5265 51.9977 26.8418 53.7049 28.5489C55.412 30.256 57.7273 31.2151 60.1415 31.2151C62.5558 31.2151 64.8711 30.256 66.5782 28.5489C68.2853 26.8418 69.2444 24.5265 69.2444 22.1122C69.2444 19.698 68.2853 17.3827 66.5782 15.6756C64.8711 13.9684 62.5558 13.0094 60.1415 13.0094C57.7273 13.0094 55.412 13.9684 53.7049 15.6756C51.9977 17.3827 51.0387 19.698 51.0387 22.1122Z" fill="#004793"/>
<path d="M133.507 48.0733C130.689 49.0017 128.232 49.0017 125.39 49.2153C119.762 49.6343 115.523 46.0851 111.398 46.0934C106.124 45.9701 100.998 48.9195 96.5776 49.2153C90.6788 49.4864 85.273 46.7588 81.8799 46.3891C75.6525 45.8469 71.7748 48.673 66.9687 49.2153C61.3739 49.6671 57.5372 46.4713 52.3614 46.0934C46.7338 46.2412 42.7903 48.7059 38.1321 49.2153C32.0772 50.004 27.2218 46.7506 22.6539 46.3891C16.862 46.0851 12.8117 49.092 7.71805 49.2153C5.26159 49.1413 1.21132 48.8209 0.118652 47.6543V53.8899C0.948424 54.4897 4.35788 55.1798 7.84128 55.2291C14.5205 55.2619 19.6635 52.5015 22.6046 52.2222C28.6513 51.8032 33.367 54.7772 38.0746 55.2291C44.0637 55.1962 49.9296 52.0168 52.4189 52.2879C57.5783 51.836 61.8997 55.722 66.8208 55.7138C72.6046 55.9274 78.7416 52.4522 82.0032 52.1647C87.22 51.9264 91.1307 55.3194 96.4708 55.4098C102.608 55.5905 107.66 52.5179 111.472 52.1647C115.235 51.8935 121.019 55.2291 125.521 55.2291C127.961 55.1633 130.557 54.9004 133.523 54.1446L133.507 48.0733ZM133.507 58.9836C130.689 59.9119 128.232 59.9119 125.39 60.1255C119.762 60.5445 115.523 56.9954 111.398 57.0036C106.124 56.8804 100.998 59.8298 96.5776 60.1255C90.6788 60.3966 85.273 57.6691 81.8799 57.2994C75.6525 56.7572 71.7748 59.5833 66.9687 60.1255C61.3739 60.5774 57.5372 57.3815 52.3614 57.0036C46.7338 57.1515 42.7903 59.6162 38.1321 60.1255C32.0854 60.906 27.23 57.6609 22.6622 57.2994C16.8702 56.9954 12.8199 60.0023 7.72626 60.1255C5.26981 60.0516 1.21954 59.7312 0.126868 58.5646V64.8002C0.95664 65.3999 4.3661 66.09 7.8495 66.1393C14.5287 66.1722 19.6717 63.4118 22.6129 63.1324C28.6595 62.7134 33.3752 65.6875 38.0828 66.1393C44.0719 66.1065 49.9378 62.927 52.4271 63.1982C57.5865 62.7463 61.9079 66.6323 66.829 66.624C72.6128 66.8377 78.7498 63.3625 82.0114 63.0749C87.2283 62.8367 91.1389 66.2297 96.479 66.3201C102.616 66.5008 107.669 63.4282 111.481 63.0749C115.243 62.8038 121.027 66.1393 125.529 66.1393C127.969 66.0736 130.565 65.8107 133.531 65.0549L133.507 58.9836Z" fill="#004793"/>
</svg>
