<svg width="395" height="181" viewBox="0 0 395 181" fill="none" xmlns="http://www.w3.org/2000/svg">
<g filter="url(#filter0_d_618_1271)">
<rect x="25" y="56" width="335" height="90" rx="45" fill="white"/>
</g>
<path d="M118.84 95.88H142.44V100.32H118.84V95.88ZM141.76 95.88H142.52L143.48 95.72L146.88 98.32C146.68 98.48 146.32 98.76 145.88 98.92C125.88 108.84 124.44 110.76 124.44 112.2C124.44 113.36 125.84 113.84 128.2 113.84H143.52C145.56 113.84 146.44 113.12 146.64 108.04C147.96 108.8 149.64 109.32 151.12 109.6C150.52 117 148.44 118.48 143.04 118.48H128.56C122.44 118.48 119.56 116.24 119.52 112.64C119.52 109.56 120.52 106.76 141.76 95.88ZM114.96 85.92H150.88V90.56H114.96V85.92ZM123.44 82.04H128.4V93.56H123.44V82.04ZM137.56 82.04H142.48V93.56H137.56V82.04ZM161.84 82.2L166.36 83.56C164 90.36 160.2 97.6 156.12 102.2C155.68 101.08 154.36 98.4 153.52 97.24C156.88 93.56 160 87.88 161.84 82.2ZM158.6 93.24L163.12 88.68L163.16 88.72V119.56H158.6V93.24ZM175.64 82.24H180.32V119.32H175.64V82.24ZM165.48 89.16H191.4V93.72H165.48V89.16ZM170.36 108.56H185.68V112.84H170.36V108.56ZM182 91.72C184.12 98.52 188.16 105.76 192.48 109.84C191.36 110.68 189.76 112.32 188.92 113.6C184.52 108.8 180.8 100.6 178.6 92.72L182 91.72ZM174.16 91.36L177.6 92.32C175.32 100.6 171.52 108.84 166.76 113.72C166 112.56 164.4 110.88 163.36 110.08C167.92 106 172.04 98.48 174.16 91.36ZM200 83.6H231.04V88.08H200V83.6ZM196.84 83.6H201.76V97.84C201.76 104.28 201.28 113.68 198.2 119.6C197.28 118.8 195.08 117.44 193.88 116.96C196.64 111.56 196.84 103.72 196.84 97.84V83.6ZM203.32 95.68H226.92V100.2H203.32V95.68ZM224.88 95.68H229.72C229.72 95.68 229.68 97.12 229.6 97.72C229.04 110.12 228.44 115 226.96 116.72C225.92 118.04 224.84 118.44 223.24 118.64C221.84 118.8 219.52 118.8 217.16 118.72C217.08 117.28 216.44 115.24 215.56 113.92C217.84 114.12 220.12 114.16 221.12 114.16C221.88 114.16 222.32 114.04 222.8 113.56C223.88 112.56 224.4 107.84 224.88 96.48V95.68ZM212.36 89.96H217.4C216.96 101.96 216.12 113.08 204.72 119.36C204.12 118.2 202.72 116.64 201.6 115.8C211.96 110.4 212.04 100.6 212.36 89.96ZM250.56 82.24H255.52V100.08C255.52 108.76 252.72 116.32 237.12 119.72C236.56 118.64 235.24 116.52 234.2 115.44C248.96 112.84 250.56 107.12 250.56 100.04V82.24ZM242.04 92.44V98.04H263.88V92.44H242.04ZM237.36 87.8H268.84V102.64H237.36V87.8ZM243.4 103.08C248.64 112.64 257.4 114.04 272.2 114.24C271.28 115.4 270.28 117.56 270 119.24C254.64 118.52 244.68 116.16 238.96 104.68L243.4 103.08Z" fill="#004793"/>
<path d="M189.031 28.2448C181.167 26.0505 178.089 19.3354 177.626 17.2304C177.348 15.9581 175.835 12.4486 176.458 11.021C180.889 7.18098 182.084 5.88887 184.914 4.2002C187.743 2.51153 192.857 2.80233 192.588 5.4824C192.433 7.10498 190.189 13.5226 190.603 14.8477C191.43 17.3791 193.045 19.2694 194.624 20.0327C200.032 22.6302 206.439 15.7598 210.01 12.3594C212.532 9.96018 217.731 7.61059 225.327 7.73286C226.621 7.75269 227.313 7.51806 226.862 5.60136C226.714 4.95696 225.141 4.9173 223.646 4.9173C218.35 4.9173 218.582 5.0594 214.233 6.50684C209.884 7.95427 203.844 14.21 200.614 16.1068C199.224 16.9165 196.411 18.4201 194.452 16.1068C194.098 15.7186 193.848 15.2468 193.726 14.7358C193.605 14.2248 193.615 13.6914 193.757 13.1855C194.389 10.3865 196.312 7.00914 195.713 3.90278C195.09 0.637796 191.235 0 189.772 0C181.253 0 172.142 11.6125 171.698 11.8736C169.898 12.9278 171.99 19.19 173.959 23.192C176.497 28.3538 180.909 30.3729 185.777 33.2777C186.833 33.9056 185.883 34.8937 184.179 35.6306C181.2 35.2506 175.389 33.1224 171.189 30.0656C167.217 27.184 163.878 24.2759 163.133 23.268C161.905 21.6024 158 20.3863 158 24.8872C158 27.032 159.056 27.1807 160.734 28.8991C164.705 32.9704 170.851 36.622 174.134 38.1983C176.41 39.1927 178.762 40.0027 181.167 40.6206C182.316 40.8784 183.54 41.0635 184.252 41.3642C184.914 42.0548 185.198 43.2346 185.456 44.2326C185.913 46.0039 185.628 48.294 183.097 50.3594C180.919 52.134 179.085 52.5339 177.51 53.6079C175.051 55.28 173.231 56.9786 170.514 59.9396C167.796 62.9005 164.153 69.87 162.514 72.1667C161.677 73.3465 161.29 75.7093 163.047 76.5388C164.232 77.0939 165.089 77.1138 165.605 76.78C167.995 75.2467 169.65 69.9857 172.81 66.0498C177.053 60.7624 180.995 57.6957 186.413 54.1036C189.921 51.7903 191.023 50.0587 191.556 46.2385C191.963 43.3238 189.924 42.1639 190.196 38.7601C190.431 35.7859 191.357 33.1422 194.101 32.012C200.128 32.0881 200.134 30.9017 200.22 29.1668C200.306 27.4318 199.74 23.9686 196.788 24.2561C193.836 24.5436 194.899 25.1252 189.037 28.2216L189.031 28.2448ZM220.419 24.1569C226.088 26.2851 217.685 36.4469 213.376 39.3946C209.301 42.2295 205.053 44.8077 200.657 47.1143C198.01 48.4725 195.948 49.4275 194.495 49.0111C192.982 48.5881 193.091 46.2749 193.052 45.7825C192.956 44.6556 195.673 43.7435 199.251 41.9821C201.7 40.776 204.278 38.8923 207.525 37.1442C215.961 32.5672 217.103 22.9144 220.419 24.1569Z" fill="#004793"/>
<defs>
<filter id="filter0_d_618_1271" x="0" y="31" width="395" height="150" filterUnits="userSpaceOnUse" color-interpolation-filters="sRGB">
<feFlood flood-opacity="0" result="BackgroundImageFix"/>
<feColorMatrix in="SourceAlpha" type="matrix" values="0 0 0 0 0 0 0 0 0 0 0 0 0 0 0 0 0 0 127 0" result="hardAlpha"/>
<feOffset dx="5" dy="5"/>
<feGaussianBlur stdDeviation="15"/>
<feComposite in2="hardAlpha" operator="out"/>
<feColorMatrix type="matrix" values="0 0 0 0 0 0 0 0 0 0 0 0 0 0 0 0 0 0 0.25 0"/>
<feBlend mode="normal" in2="BackgroundImageFix" result="effect1_dropShadow_618_1271"/>
<feBlend mode="normal" in="SourceGraphic" in2="effect1_dropShadow_618_1271" result="shape"/>
</filter>
</defs>
</svg>
