<svg width="971" height="696" viewBox="0 0 971 696" fill="none" xmlns="http://www.w3.org/2000/svg">
<rect x="5" width="965" height="696" rx="59" fill="white"/>
<path d="M4.89941 59C4.89941 26.4152 31.3146 0 63.8994 0H911.183C943.768 0 970.183 26.4152 970.183 59V182.93H4.89941V59Z" fill="#FFF6BF"/>
<path d="M482.984 85.3285H489.04V94.4123H482.984V85.3285ZM480.562 94.4123H491.462C491.795 94.4123 492.068 94.6848 492.068 95.0179V97.4402H479.956V95.0179C479.956 94.6848 480.229 94.4123 480.562 94.4123Z" fill="#F5CF41"/>
<path d="M476.928 97.4402H495.096C495.899 97.4402 496.669 97.7592 497.237 98.327C497.805 98.8949 498.124 99.6651 498.124 100.468V103.496H473.9V100.468C473.9 99.6651 474.219 98.8949 474.787 98.327C475.355 97.7592 476.125 97.4402 476.928 97.4402Z" fill="#E3A815"/>
<path d="M464.816 55.0493V61.1051C464.816 61.9082 465.135 62.6784 465.703 63.2462C466.271 63.8141 467.041 64.1331 467.844 64.1331C468.647 64.1331 469.417 63.8141 469.985 63.2462C470.553 62.6784 470.872 61.9082 470.872 61.1051V55.0493H464.816ZM461.788 52.0214H473.9V61.1051C473.9 61.9004 473.743 62.6879 473.439 63.4226C473.134 64.1573 472.688 64.8249 472.126 65.3873C471.564 65.9496 470.896 66.3957 470.161 66.7C469.427 67.0044 468.639 67.161 467.844 67.161C467.049 67.161 466.261 67.0044 465.526 66.7C464.792 66.3957 464.124 65.9496 463.562 65.3873C462.999 64.8249 462.553 64.1573 462.249 63.4226C461.945 62.6879 461.788 61.9004 461.788 61.1051V52.0214ZM501.151 55.0493V61.1051C501.151 61.9082 501.47 62.6784 502.038 63.2462C502.606 63.8141 503.376 64.1331 504.179 64.1331C504.982 64.1331 505.752 63.8141 506.32 63.2462C506.888 62.6784 507.207 61.9082 507.207 61.1051V55.0493H501.151ZM498.123 52.0214H510.235V61.1051C510.235 61.9004 510.078 62.6879 509.774 63.4226C509.47 64.1573 509.024 64.8249 508.461 65.3873C507.899 65.9496 507.231 66.3957 506.497 66.7C505.762 67.0044 504.974 67.161 504.179 67.161C503.384 67.161 502.596 67.0044 501.862 66.7C501.127 66.3957 500.459 65.9496 499.897 65.3873C499.335 64.8249 498.889 64.1573 498.584 63.4226C498.28 62.6879 498.123 61.9004 498.123 61.1051V52.0214Z" fill="#F5CF41"/>
<path d="M470.872 42.9376H501.151C501.954 42.9376 502.724 43.2566 503.292 43.8245C503.86 44.3923 504.179 45.1625 504.179 45.9655V70.189C504.179 75.0073 502.265 79.6283 498.858 83.0354C495.451 86.4424 490.83 88.3565 486.011 88.3565C481.193 88.3565 476.572 86.4424 473.165 83.0354C469.758 79.6283 467.844 75.0073 467.844 70.189V45.9655C467.844 45.1625 468.163 44.3923 468.731 43.8245C469.298 43.2566 470.069 42.9376 470.872 42.9376Z" fill="#F5CF41"/>
<path d="M486.011 70.1889L478.893 73.9314L480.252 66.0043L474.493 60.3905L482.451 59.2339L486.011 52.0214L489.572 59.2339L497.53 60.3905L491.771 66.0043L493.13 73.9314L486.011 70.1889Z" fill="#FFF2A0"/>
<path d="M439.075 47.6822L434.459 50.0436L441.823 52.08L444.384 50.9698L439.075 47.6822Z" fill="#FF6464"/>
<path d="M454.784 40.7149L445.652 32.5239L441.002 32.8478L450.984 40.9796L454.784 40.7149Z" fill="#FFE100"/>
<path d="M462.479 28.9009L465.946 26.1674L470.125 33.4407L468.222 34.861L462.479 28.9009Z" fill="#65D556"/>
<path d="M459.295 36.4264L456.705 35.2261V36.4249L457.768 36.8955L459.295 36.4264Z" fill="#FF6464"/>
<path d="M457.678 92.7954L452.535 92.1295L458.78 87.7282L461.565 87.9081L457.678 92.7954Z" fill="#FFE100"/>
<path d="M447.843 78.8834L438.242 84.2021L441.828 85.3471L451.489 80.0475L447.843 78.8834Z" fill="#65D556"/>
<path d="M446.624 66.2334L449.214 65.0345V66.2334L448.151 66.7039L446.624 66.2334Z" fill="#00C4FF"/>
<path d="M437.399 68.5409L438.027 68.863L436.821 69.2856L436.102 68.914L437.399 68.5409Z" fill="#FF6464"/>
<path d="M468.752 82.6887H469.691L468.752 83.6705H467.378L468.752 82.6887Z" fill="#00C4FF"/>
<path d="M512.593 90.5574L516.015 87.7364L509.764 82.0848L507.964 83.6491L512.593 90.5574Z" fill="#FF6464"/>
<path d="M528.017 71.5452L538.229 75.7014L534.79 77.2728L524.521 73.1427L528.017 71.5452Z" fill="#00C4FF"/>
<path d="M530.416 61.4906L537.762 59.8592L539.259 55.6801L532.119 58.5249L530.416 61.4906Z" fill="#FFE100"/>
<path d="M522.692 70.8239L522.06 71.1474L523.272 71.572L523.994 71.1987L522.692 70.8239Z" fill="#65D556"/>
<path d="M525.38 82.4704L526.191 83.4585L525.008 83.8646L522.535 81.0349L524.074 81.1502L525.38 82.4718L525.38 82.4704ZM519.832 46.3477L528.207 37.2994L527.815 42.5311L519.582 49.6896L519.832 46.3492L519.832 46.3477Z" fill="#FFE100"/>
<path d="M500.297 36.838L507.739 27.0141L512.388 26.4454L504.097 36.3711L500.297 36.838Z" fill="#65D556"/>
<path d="M512.982 41.6721L512.1 42.5941L513.248 43.0887L515.926 40.4531H514.383L512.982 41.6721Z" fill="#FF6464"/>
<path d="M528.289 49.2474H527.344L528.289 50.2338H529.668L528.289 49.2474Z" fill="#65D556"/>
<line x1="165.78" y1="138.281" x2="396.076" y2="138.281" stroke="#FF6A00" stroke-width="6"/>
<line x1="580.641" y1="138.281" x2="809.303" y2="138.281" stroke="#FF6A00" stroke-width="6"/>
<path d="M428.08 144.8H463.88V149H428.08V144.8ZM443.52 142.44H448.56C447.56 151.48 445.08 157.08 429.72 159.52C429.4 158.32 428.32 156.48 427.48 155.52C441.28 153.64 442.72 149.56 443.52 142.44ZM448.84 148.12C451.32 152.52 456.68 154.56 464.92 155.08C463.88 156.08 462.64 158.08 462.04 159.36C453.04 158.28 447.8 155.32 444.56 149.04L448.84 148.12ZM428.04 125.92L431.6 124.04C433 125.76 434.6 128.2 435.16 129.84L431.36 132C430.84 130.36 429.36 127.8 428.04 125.92ZM436.08 122.04H440.76V142.48H436.08V122.04ZM427.28 136.24C429.76 135.12 433.44 133.16 437.04 131.24L438.32 135C435.28 136.88 432 138.84 429.24 140.4L427.28 136.24ZM446.08 132.6L449.52 130.52C451.24 131.96 453.36 134.12 454.4 135.6L450.76 137.88C449.84 136.4 447.8 134.16 446.08 132.6ZM448.4 125.36H460.68V129.36H448.4V125.36ZM449.36 121.88L453.88 123.44C451.56 127.16 447.76 130.88 443.92 133.08C443.24 132.08 441.92 130.44 441.04 129.6C444.48 127.8 447.84 124.68 449.36 121.88ZM460 125.36H460.96L461.76 125.24L464.64 126.56C461.52 136.44 453.64 140.64 443.6 142.4C443.2 141.28 441.92 139.32 441.08 138.4C450.68 137.16 457.64 133.92 460 126.08V125.36ZM482.2 147.68H504.48V151.72H482.2V147.68ZM494.72 142.64H499.24V159.64H494.72V142.64ZM491.12 121.96L496.44 122.88C495.28 124.92 494 126.96 493.08 128.32L489.24 127.32C489.96 125.72 490.76 123.56 491.12 121.96ZM491.44 127.92H495.48V134.68C495.48 139.36 494.2 145.04 486.32 148.28C485.64 147.52 484.16 146.24 483.28 145.64C490.44 142.8 491.44 138.16 491.44 134.56V127.92ZM471.44 132.56H482.84V136.64H471.44V132.56ZM476.12 122.08H480.28V135H476.12V122.08ZM471.68 141.24H481.12V159.64H476.88V145.28H471.68V141.24ZM469.44 123.08H473.56V138.04C473.56 144.32 473.12 153.48 470.88 159.72C469.96 159.24 468.04 158.6 466.88 158.28C469.12 152.48 469.44 143.64 469.44 138.04V123.08ZM487.8 135.44V138.2H499.08V135.44H487.8ZM487.8 129.36V132.08H499.08V129.36H487.8ZM483.56 125.76H503.48V141.76H483.56V125.76ZM522 125.56H543.8V129.36H522V125.56ZM530.32 122.04H534.96V127.4H530.32V122.04ZM530.32 137.88H534.96V142.92H530.32V137.88ZM521.92 141.24H543.84V145.16H521.92V141.24ZM525.2 129.6L529.24 128.76C529.8 130.16 530.32 132 530.52 133.12L526.28 134.12C526.12 132.92 525.68 131 525.2 129.6ZM536.08 128.36L540.84 129.08C540.08 131 539.36 132.88 538.8 134.16L534.76 133.48C535.28 132 535.84 129.88 536.08 128.36ZM521.52 133.24H544.24V139.96H539.8V136.96H525.72V140H521.52V133.24ZM528.52 147.4H538.96V151.28H528.52V147.4ZM537.36 147.4H541.96C541.96 147.4 541.92 148.48 541.88 149.04C541.48 154.6 541.04 157.16 540.04 158.2C539.24 159.08 538.36 159.4 537.2 159.48C536.2 159.6 534.44 159.64 532.56 159.6C532.48 158.36 532 156.64 531.36 155.6C532.84 155.72 534.28 155.76 534.88 155.76C535.48 155.76 535.8 155.68 536.16 155.36C536.68 154.8 537.08 152.84 537.36 148V147.4ZM507.76 130.32H521V134.76H507.76V130.32ZM512.64 122.04H517V159.6H512.64V122.04ZM512.56 133.36L515.24 134.28C514.08 140.6 511.8 148.32 508.96 152.44C508.56 151.16 507.52 149.32 506.84 148.2C509.4 144.72 511.64 138.44 512.56 133.36ZM516.8 136.4C517.72 137.6 521.12 142.84 521.8 144.04L519.32 147.48C518.36 145.04 515.92 140.36 514.8 138.36L516.8 136.4ZM527.88 142.84H532.44C532 150.8 530.68 156.52 522.72 159.72C522.24 158.6 521.04 156.96 520.08 156.12C526.76 153.64 527.52 149.24 527.88 142.84Z" fill="#FF6A00"/>
<line y1="181.43" x2="971" y2="181.43" stroke="url(#paint0_linear_618_1340)" stroke-width="3"/>
<g clip-path="url(#clip0_618_1340)">
<path d="M40 301H934V606C934 633.614 911.614 656 884 656H90C62.3858 656 40 633.614 40 606V301Z" fill="white"/>
<mask id="path-31-inside-1_618_1340" fill="white">
<path d="M40.0166 300.528H934.251V371.577H40.0166V300.528Z"/>
</mask>
<path d="M40.0166 300.528H934.251V371.577H40.0166V300.528Z" fill="white"/>
<path d="M934.251 369.577H40.0166V373.577H934.251V369.577Z" fill="#3686FF" mask="url(#path-31-inside-1_618_1340)"/>
<mask id="path-33-inside-2_618_1340" fill="white">
<path d="M40.0166 371.577H934.251V442.626H40.0166V371.577Z"/>
</mask>
<path d="M40.0166 371.577H934.251V442.626H40.0166V371.577Z" fill="#96DBFF" fill-opacity="0.43"/>
<path d="M934.251 440.626H40.0166V444.626H934.251V440.626Z" fill="#3686FF" mask="url(#path-33-inside-2_618_1340)"/>
<path d="M859 410.278C857.502 410.278 856.226 409.871 855.172 409.055C854.118 408.233 853.313 407.044 852.756 405.486C852.199 403.921 851.92 402.032 851.92 399.818C851.92 397.617 852.199 395.738 852.756 394.18C853.319 392.616 854.128 391.423 855.182 390.601C856.242 389.772 857.515 389.358 859 389.358C860.485 389.358 861.754 389.772 862.808 390.601C863.869 391.423 864.678 392.616 865.234 394.18C865.798 395.738 866.08 397.617 866.08 399.818C866.08 402.032 865.801 403.921 865.244 405.486C864.688 407.044 863.882 408.233 862.828 409.055C861.774 409.871 860.498 410.278 859 410.278ZM859 408.091C860.485 408.091 861.638 407.375 862.46 405.943C863.282 404.511 863.693 402.47 863.693 399.818C863.693 398.055 863.504 396.554 863.126 395.314C862.755 394.074 862.218 393.13 861.516 392.48C860.82 391.83 859.981 391.506 859 391.506C857.528 391.506 856.378 392.232 855.55 393.683C854.721 395.128 854.307 397.173 854.307 399.818C854.307 401.581 854.492 403.08 854.864 404.312C855.235 405.545 855.768 406.483 856.464 407.126C857.167 407.769 858.012 408.091 859 408.091Z" fill="black"/>
<path d="M714 417.278C712.502 417.278 711.226 416.871 710.172 416.055C709.118 415.233 708.313 414.044 707.756 412.486C707.199 410.921 706.92 409.032 706.92 406.818C706.92 404.617 707.199 402.738 707.756 401.18C708.319 399.616 709.128 398.423 710.182 397.601C711.242 396.772 712.515 396.358 714 396.358C715.485 396.358 716.754 396.772 717.808 397.601C718.869 398.423 719.678 399.616 720.234 401.18C720.798 402.738 721.08 404.617 721.08 406.818C721.08 409.032 720.801 410.921 720.244 412.486C719.688 414.044 718.882 415.233 717.828 416.055C716.774 416.871 715.498 417.278 714 417.278ZM714 415.091C715.485 415.091 716.638 414.375 717.46 412.943C718.282 411.511 718.693 409.47 718.693 406.818C718.693 405.055 718.504 403.554 718.126 402.314C717.755 401.074 717.218 400.13 716.516 399.48C715.82 398.83 714.981 398.506 714 398.506C712.528 398.506 711.378 399.232 710.55 400.683C709.721 402.128 709.307 404.173 709.307 406.818C709.307 408.581 709.492 410.08 709.864 411.312C710.235 412.545 710.768 413.483 711.464 414.126C712.167 414.769 713.012 415.091 714 415.091Z" fill="black"/>
<mask id="path-37-inside-3_618_1340" fill="white">
<path d="M40.0166 513.675H934.251V584.723H40.0166V513.675Z"/>
</mask>
<path d="M40.0166 513.675H934.251V584.723H40.0166V513.675Z" fill="#96DBFF" fill-opacity="0.43"/>
<path d="M934.251 582.723H40.0166V586.723H934.251V582.723Z" fill="#3686FF" mask="url(#path-37-inside-3_618_1340)"/>
<path d="M859 559.278C857.502 559.278 856.226 558.871 855.172 558.055C854.118 557.233 853.313 556.044 852.756 554.486C852.199 552.921 851.92 551.032 851.92 548.818C851.92 546.617 852.199 544.738 852.756 543.18C853.319 541.616 854.128 540.423 855.182 539.601C856.242 538.772 857.515 538.358 859 538.358C860.485 538.358 861.754 538.772 862.808 539.601C863.869 540.423 864.678 541.616 865.234 543.18C865.798 544.738 866.08 546.617 866.08 548.818C866.08 551.032 865.801 552.921 865.244 554.486C864.688 556.044 863.882 557.233 862.828 558.055C861.774 558.871 860.498 559.278 859 559.278ZM859 557.091C860.485 557.091 861.638 556.375 862.46 554.943C863.282 553.511 863.693 551.47 863.693 548.818C863.693 547.055 863.504 545.554 863.126 544.314C862.755 543.074 862.218 542.13 861.516 541.48C860.82 540.83 859.981 540.506 859 540.506C857.528 540.506 856.378 541.232 855.55 542.683C854.721 544.128 854.307 546.173 854.307 548.818C854.307 550.581 854.492 552.08 854.864 553.312C855.235 554.545 855.768 555.483 856.464 556.126C857.167 556.769 858.012 557.091 859 557.091Z" fill="black"/>
<path d="M718.759 538.636V559H716.293V541.222H716.174L711.202 544.523V542.017L716.293 538.636H718.759Z" fill="black"/>
<path d="M574 559.278C572.502 559.278 571.226 558.871 570.172 558.055C569.118 557.233 568.313 556.044 567.756 554.486C567.199 552.921 566.92 551.032 566.92 548.818C566.92 546.617 567.199 544.738 567.756 543.18C568.319 541.616 569.128 540.423 570.182 539.601C571.242 538.772 572.515 538.358 574 538.358C575.485 538.358 576.754 538.772 577.808 539.601C578.869 540.423 579.678 541.616 580.234 543.18C580.798 544.738 581.08 546.617 581.08 548.818C581.08 551.032 580.801 552.921 580.244 554.486C579.688 556.044 578.882 557.233 577.828 558.055C576.774 558.871 575.498 559.278 574 559.278ZM574 557.091C575.485 557.091 576.638 556.375 577.46 554.943C578.282 553.511 578.693 551.47 578.693 548.818C578.693 547.055 578.504 545.554 578.126 544.314C577.755 543.074 577.218 542.13 576.516 541.48C575.82 540.83 574.981 540.506 574 540.506C572.528 540.506 571.378 541.232 570.55 542.683C569.721 544.128 569.307 546.173 569.307 548.818C569.307 550.581 569.492 552.08 569.864 553.312C570.235 554.545 570.768 555.483 571.464 556.126C572.167 556.769 573.012 557.091 574 557.091Z" fill="black"/>
<mask id="path-42-inside-4_618_1340" fill="white">
<path d="M40.0166 442.626H934.251V513.675H40.0166V442.626Z"/>
</mask>
<path d="M40.0166 442.626H934.251V513.675H40.0166V442.626Z" fill="white"/>
<path d="M934.251 511.675H40.0166V515.675H934.251V511.675Z" fill="#3686FF" mask="url(#path-42-inside-4_618_1340)"/>
<mask id="path-44-inside-5_618_1340" fill="white">
<path d="M40.0166 584.723H934.251V655.772H40.0166V584.723Z"/>
</mask>
<path d="M40.0166 584.723H934.251V655.772H40.0166V584.723Z" fill="white"/>
<path d="M934.251 653.772H40.0166V657.772H934.251V653.772Z" fill="#3686FF" mask="url(#path-44-inside-5_618_1340)"/>
<path d="M574 630.278C572.502 630.278 571.226 629.871 570.172 629.055C569.118 628.233 568.313 627.044 567.756 625.486C567.199 623.921 566.92 622.032 566.92 619.818C566.92 617.617 567.199 615.738 567.756 614.18C568.319 612.616 569.128 611.423 570.182 610.601C571.242 609.772 572.515 609.358 574 609.358C575.485 609.358 576.754 609.772 577.808 610.601C578.869 611.423 579.678 612.616 580.234 614.18C580.798 615.738 581.08 617.617 581.08 619.818C581.08 622.032 580.801 623.921 580.244 625.486C579.688 627.044 578.882 628.233 577.828 629.055C576.774 629.871 575.498 630.278 574 630.278ZM574 628.091C575.485 628.091 576.638 627.375 577.46 625.943C578.282 624.511 578.693 622.47 578.693 619.818C578.693 618.055 578.504 616.554 578.126 615.314C577.755 614.074 577.218 613.13 576.516 612.48C575.82 611.83 574.981 611.506 574 611.506C572.528 611.506 571.378 612.232 570.55 613.683C569.721 615.128 569.307 617.173 569.307 619.818C569.307 621.581 569.492 623.08 569.864 624.312C570.235 625.545 570.768 626.483 571.464 627.126C572.167 627.769 573.012 628.091 574 628.091Z" fill="black"/>
<line x1="214.963" y1="300.528" x2="214.963" y2="726.821" stroke="#3686FF" stroke-width="2"/>
<line x1="504.875" y1="300.528" x2="504.875" y2="726.821" stroke="#3686FF" stroke-width="2"/>
<line x1="645.34" y1="300.528" x2="645.34" y2="726.821" stroke="#3686FF" stroke-width="2"/>
<line x1="787.438" y1="300.528" x2="787.438" y2="726.821" stroke="#3686FF" stroke-width="2"/>
<path d="M129.759 325.636V346H127.293V328.222H127.174L122.202 331.523V329.017L127.293 325.636H129.759Z" fill="black"/>
<path d="M333.688 327.492H356.256V340.68H354.072V329.564H335.788V340.82H333.688V327.492ZM334.808 337.012H355.332V339.056H334.808V337.012ZM343.824 322.48H346.008V348.212H343.824V322.48ZM365.776 328.108H380.14V329.984H365.776V328.108ZM366.56 333.96H379.468V335.808H366.56V333.96ZM365.356 340.54H380.756V342.332H365.356V340.54ZM371.852 328.696H373.812V341.492H371.852V328.696ZM375.576 337.04L376.92 336.284C377.984 337.208 379.216 338.496 379.776 339.364L378.348 340.232C377.788 339.364 376.584 337.992 375.576 337.04ZM361.38 323.768H384.592V348.268H382.352V325.7H363.508V348.268H361.38V323.768ZM362.528 344.908H383.388V346.84H362.528V344.908Z" fill="black"/>
<path d="M576.759 325.636V346H574.293V328.222H574.174L569.202 331.523V329.017L574.293 325.636H576.759Z" fill="black"/>
<path d="M715 346.278C713.502 346.278 712.226 345.871 711.172 345.055C710.118 344.233 709.313 343.044 708.756 341.486C708.199 339.921 707.92 338.032 707.92 335.818C707.92 333.617 708.199 331.738 708.756 330.18C709.319 328.616 710.128 327.423 711.182 326.601C712.242 325.772 713.515 325.358 715 325.358C716.485 325.358 717.754 325.772 718.808 326.601C719.869 327.423 720.678 328.616 721.234 330.18C721.798 331.738 722.08 333.617 722.08 335.818C722.08 338.032 721.801 339.921 721.244 341.486C720.688 343.044 719.882 344.233 718.828 345.055C717.774 345.871 716.498 346.278 715 346.278ZM715 344.091C716.485 344.091 717.638 343.375 718.46 341.943C719.282 340.511 719.693 338.47 719.693 335.818C719.693 334.055 719.504 332.554 719.126 331.314C718.755 330.074 718.218 329.13 717.516 328.48C716.82 327.83 715.981 327.506 715 327.506C713.528 327.506 712.378 328.232 711.55 329.683C710.721 331.128 710.307 333.173 710.307 335.818C710.307 337.581 710.492 339.08 710.864 340.312C711.235 341.545 711.768 342.483 712.464 343.126C713.167 343.769 714.012 344.091 715 344.091Z" fill="black"/>
<path d="M858 346.278C856.502 346.278 855.226 345.871 854.172 345.055C853.118 344.233 852.313 343.044 851.756 341.486C851.199 339.921 850.92 338.032 850.92 335.818C850.92 333.617 851.199 331.738 851.756 330.18C852.319 328.616 853.128 327.423 854.182 326.601C855.242 325.772 856.515 325.358 858 325.358C859.485 325.358 860.754 325.772 861.808 326.601C862.869 327.423 863.678 328.616 864.234 330.18C864.798 331.738 865.08 333.617 865.08 335.818C865.08 338.032 864.801 339.921 864.244 341.486C863.688 343.044 862.882 344.233 861.828 345.055C860.774 345.871 859.498 346.278 858 346.278ZM858 344.091C859.485 344.091 860.638 343.375 861.46 341.943C862.282 340.511 862.693 338.47 862.693 335.818C862.693 334.055 862.504 332.554 862.126 331.314C861.755 330.074 861.218 329.13 860.516 328.48C859.82 327.83 858.981 327.506 858 327.506C856.528 327.506 855.378 328.232 854.55 329.683C853.721 331.128 853.307 333.173 853.307 335.818C853.307 337.581 853.492 339.08 853.864 340.312C854.235 341.545 854.768 342.483 855.464 343.126C856.167 343.769 857.012 344.091 858 344.091Z" fill="black"/>
<path d="M340.156 395.804H357.74V397.512H340.156V395.804ZM340.044 408.376H357.88V410.112H340.044V408.376ZM345.616 411.288L346.68 410.028C348.36 410.644 350.46 411.764 351.524 412.604L350.376 414.032C349.368 413.136 347.296 412.016 345.616 411.288ZM344.664 412.66H346.624V416.468C346.624 417.084 346.792 417.168 347.688 417.168C348.052 417.168 350.18 417.168 350.712 417.168C351.468 417.168 351.608 416.916 351.692 414.872C352.084 415.152 352.868 415.432 353.4 415.572C353.204 418.232 352.644 418.904 350.964 418.904C350.488 418.904 347.884 418.904 347.436 418.904C345.196 418.904 344.664 418.372 344.664 416.496V412.66ZM341.612 412.8L343.348 413.332C342.872 415.348 342.116 417.504 340.604 418.82L339.036 417.7C340.38 416.608 341.22 414.62 341.612 412.8ZM352.7 413.22L354.268 412.408C355.78 414.004 357.376 416.188 358.02 417.728L356.34 418.624C355.78 417.112 354.212 414.844 352.7 413.22ZM351.944 401.152V404.96H354.94V401.152H351.944ZM347.464 401.152V404.96H350.404V401.152H347.464ZM343.068 401.152V404.96H345.896V401.152H343.068ZM341.388 399.556H356.704V406.556H341.388V399.556ZM347.94 393.396L350.124 393.508C349.872 395.804 349.564 398.492 349.284 400.144L347.352 399.976C347.604 398.212 347.856 395.356 347.94 393.396ZM338.308 399.584L340.184 400.228C338.364 403.868 335.62 407.732 333.128 410.28C332.876 409.86 332.232 408.88 331.84 408.404C334.22 406.192 336.712 402.832 338.308 399.584ZM337.804 393.508L339.68 394.264C337.944 396.532 335.368 399.164 333.156 400.928C332.904 400.508 332.344 399.78 331.98 399.388C333.996 397.848 336.488 395.412 337.804 393.508ZM335.9 404.82L336.88 403.812L337.888 404.12V419.268H335.9V404.82ZM365.776 399.108H380.14V400.984H365.776V399.108ZM366.56 404.96H379.468V406.808H366.56V404.96ZM365.356 411.54H380.756V413.332H365.356V411.54ZM371.852 399.696H373.812V412.492H371.852V399.696ZM375.576 408.04L376.92 407.284C377.984 408.208 379.216 409.496 379.776 410.364L378.348 411.232C377.788 410.364 376.584 408.992 375.576 408.04ZM361.38 394.768H384.592V419.268H382.352V396.7H363.508V419.268H361.38V394.768ZM362.528 415.908H383.388V417.84H362.528V415.908Z" fill="black"/>
<path d="M319.716 474.112H321.844V490.268H319.716V474.112ZM311.54 478.228H329.712V480.16H311.54V478.228ZM322.432 478.984C324.112 482.344 327.388 485.732 330.44 487.412C329.992 487.804 329.32 488.56 328.956 489.064C325.904 487.104 322.656 483.324 320.808 479.6L322.432 478.984ZM319.24 478.844L320.892 479.46C319.016 483.324 315.544 487.076 312.212 489.008C311.848 488.504 311.204 487.776 310.756 487.356C314.032 485.732 317.476 482.26 319.24 478.844ZM315.628 467.7V472.824H326.072V467.7H315.628ZM313.64 465.824H328.144V474.728H313.64V465.824ZM310.728 464.564L312.716 465.18C310.812 469.912 307.872 474.616 304.82 477.724C304.596 477.248 304.008 476.156 303.616 475.652C306.416 472.992 309.104 468.82 310.728 464.564ZM307.816 471.788L309.804 469.8L309.832 469.828V490.184H307.816V471.788ZM347.94 485.732H355.556V487.776H347.94V485.732ZM332.484 469.8H343.236V471.844H332.484V469.8ZM346.988 467.98H356.564V489.624H354.436V469.996H349.032V489.82H346.988V467.98ZM342.676 469.8H344.72C344.72 469.8 344.72 470.584 344.72 470.864C344.496 483.324 344.3 487.412 343.404 488.644C342.9 489.372 342.396 489.624 341.556 489.708C340.772 489.82 339.484 489.82 338.224 489.736C338.196 489.12 337.972 488.196 337.608 487.608C338.924 487.72 340.128 487.72 340.66 487.72C341.08 487.748 341.332 487.664 341.584 487.3C342.228 486.432 342.48 482.288 342.676 470.304V469.8ZM336.46 464.872H338.504C338.476 475.204 338.336 484.92 333.408 490.268C333.044 489.792 332.316 489.148 331.784 488.84C336.46 483.912 336.432 474.672 336.46 464.872ZM360.372 472.936H373.7V474.896H360.372V472.936ZM375.576 467.812H377.62V483.296H375.576V467.812ZM366.252 466.86H368.324V490.212H366.252V466.86ZM382.464 465.012H384.536V487.44C384.536 488.896 384.172 489.54 383.276 489.876C382.352 490.24 380.784 490.296 378.208 490.268C378.096 489.68 377.76 488.756 377.424 488.14C379.44 488.196 381.176 488.196 381.708 488.168C382.24 488.168 382.464 488 382.464 487.468V465.012ZM371.824 464.648L373.392 466.272C370.144 467.56 365.076 468.484 360.82 469.044C360.736 468.54 360.428 467.812 360.176 467.364C364.32 466.776 369.192 465.824 371.824 464.648ZM366.168 473.832L367.68 474.448C366.252 478.704 363.508 483.716 360.904 486.376C360.652 485.76 360.12 484.92 359.756 484.388C362.22 482.036 364.936 477.584 366.168 473.832ZM368.044 476.716C369.108 477.472 372.72 480.608 373.616 481.392L372.384 483.156C371.236 481.868 368.184 478.928 366.896 477.836L368.044 476.716ZM388.232 486.572H413.712V488.616H388.232V486.572ZM396.296 467.112H398.536V487.86H396.296V467.112ZM403.044 467.112H405.284V487.944H403.044V467.112ZM410.408 472.264L412.452 472.964C411.192 476.128 409.456 479.768 408.056 482.232L406.18 481.532C407.608 479.068 409.428 475.176 410.408 472.264ZM389.324 472.908L391.144 472.236C392.628 475.232 394.308 479.18 395.092 481.56L393.076 482.372C392.404 479.992 390.752 475.96 389.324 472.908ZM389.016 466.16H413.068V468.26H389.016V466.16Z" fill="black"/>
<path d="M327.192 539.904L329.068 538.98C330.944 541.024 332.736 543.796 333.548 545.7L331.532 546.792C330.804 544.86 328.984 541.976 327.192 539.904ZM317.98 556.032C320.836 554.912 325.316 553.008 329.516 551.16L329.992 553.204C326.1 554.996 321.844 556.872 318.736 558.216L317.98 556.032ZM334.78 552.336L336.404 550.964C339.064 553.596 342.536 557.236 344.188 559.532L342.396 561.184C340.828 558.86 337.468 555.08 334.78 552.336ZM338.672 536.936L340.94 537.16C339.512 550.096 336.236 557.236 326.436 561.324C326.128 560.876 325.288 559.952 324.756 559.504C334.444 555.976 337.412 549.116 338.672 536.936ZM321.396 537.02L323.552 536.936L324.028 555.444L321.872 555.528L321.396 537.02ZM350.544 549.48H368.128V551.412H350.544V549.48ZM358.16 543.208H360.26V550.46H358.16V543.208ZM350.46 542.452H369.556V552.644H367.428V544.356H350.46V542.452ZM349.396 542.452H351.496V556.788C351.496 558.58 352.084 558.972 355.164 558.972C356.648 558.972 364.32 558.972 366.196 558.972C368.912 558.972 369.36 558.244 369.696 554.8C370.228 555.164 371.124 555.472 371.768 555.584C371.292 559.728 370.424 560.96 366.252 560.96C365.132 560.96 356.34 560.96 355.304 560.96C350.768 560.96 349.396 560.148 349.396 556.788V542.452ZM354.072 537.356H362.864V539.232H353.12L354.072 537.356ZM354.128 535.396L356.452 535.844C354.464 539.176 351.552 542.872 347.52 545.812C347.184 545.308 346.484 544.608 345.98 544.272C349.788 541.696 352.616 538.224 354.128 535.396ZM361.94 537.356H362.416L362.836 537.244L364.264 538.168C363.172 540.324 361.52 542.732 360.092 544.244C359.784 543.824 359.14 543.208 358.748 542.9C359.952 541.556 361.296 539.344 361.94 537.776V537.356ZM389.688 538.7H391.732V554.016H389.688V538.7ZM396.492 536.012H398.592V558.496C398.592 559.924 398.2 560.54 397.36 560.876C396.436 561.24 394.924 561.296 392.376 561.268C392.236 560.708 391.928 559.784 391.62 559.196C393.524 559.252 395.26 559.224 395.764 559.224C396.296 559.196 396.492 559.028 396.492 558.524V536.012ZM378.74 543.04H386.356V545H378.74V543.04ZM374.652 536.936H388.596V538.896H374.652V536.936ZM376.752 548.948L377.732 547.408C379.832 548.584 382.548 550.32 383.892 551.44L382.828 553.204C381.512 552.028 378.824 550.208 376.752 548.948ZM385.572 543.04H385.992L386.384 542.956L387.7 543.432C386.16 552.588 382.1 558.356 376.92 561.324C376.612 560.848 375.828 560.092 375.352 559.756C380.448 557.04 384.284 551.748 385.572 543.516V543.04ZM379.72 537.86L381.848 538.252C380.644 543.096 378.572 548.528 375.072 551.86C374.708 551.468 374.036 550.824 373.616 550.46C376.864 547.38 378.852 542.2 379.72 537.86Z" fill="black"/>
<path d="M324.196 622.804H337.916V620.9H324.196V622.804ZM324.196 619.5H337.916V617.652H324.196V619.5ZM340.016 616.196V624.232H322.18V616.196H340.016ZM337.692 610.288C337.076 611.464 336.46 612.556 335.928 613.396L334.052 612.892C334.556 612.024 335.2 610.708 335.536 609.812L337.692 610.288ZM326.408 609.84C326.996 610.792 327.556 612.052 327.752 612.864L325.764 613.396C325.568 612.5 325.064 611.24 324.504 610.288L326.408 609.84ZM332.008 606.48V609.532H329.88V606.48H332.008ZM343.096 613.088V614.796H319.016V613.088H343.096ZM341.64 608.356V610.064H320.276V608.356H341.64ZM323.888 626.304C323.104 628.32 321.872 630.392 319.8 631.624L318.176 630.504C320.108 629.412 321.424 627.508 322.152 625.632L323.888 626.304ZM338.868 625.408C340.772 626.808 342.928 628.852 343.88 630.364L342.172 631.428C341.248 629.944 339.176 627.816 337.272 626.36L338.868 625.408ZM329.46 624.204C331.028 625.016 333.044 626.248 334.08 627.144L332.848 628.404C331.84 627.508 329.88 626.192 328.284 625.324L329.46 624.204ZM327.36 629.468C327.36 630.112 327.612 630.224 329.068 630.224C329.74 630.224 333.128 630.224 334.024 630.224C335.228 630.224 335.396 629.888 335.536 627.424C335.984 627.704 336.824 627.984 337.356 628.124C337.132 631.26 336.488 632.016 334.22 632.016C333.604 632.016 329.516 632.016 328.928 632.016C326.044 632.016 325.316 631.484 325.316 629.468V625.856H327.36V629.468ZM346.736 614.544H371.348V616.672H346.736V614.544ZM360.372 615.384C362.192 622.16 366 627.816 371.824 630.224C371.292 630.7 370.592 631.596 370.228 632.184C364.18 629.328 360.372 623.42 358.272 615.888L360.372 615.384ZM357.908 606.508H360.176C360.064 613.844 360.008 626.612 347.772 632.212C347.436 631.652 346.764 630.896 346.176 630.476C358.076 625.296 357.852 613.228 357.908 606.508ZM374.372 614.936H387.7V616.896H374.372V614.936ZM389.576 609.812H391.62V625.296H389.576V609.812ZM380.252 608.86H382.324V632.212H380.252V608.86ZM396.464 607.012H398.536V629.44C398.536 630.896 398.172 631.54 397.276 631.876C396.352 632.24 394.784 632.296 392.208 632.268C392.096 631.68 391.76 630.756 391.424 630.14C393.44 630.196 395.176 630.196 395.708 630.168C396.24 630.168 396.464 630 396.464 629.468V607.012ZM385.824 606.648L387.392 608.272C384.144 609.56 379.076 610.484 374.82 611.044C374.736 610.54 374.428 609.812 374.176 609.364C378.32 608.776 383.192 607.824 385.824 606.648ZM380.168 615.832L381.68 616.448C380.252 620.704 377.508 625.716 374.904 628.376C374.652 627.76 374.12 626.92 373.756 626.388C376.22 624.036 378.936 619.584 380.168 615.832ZM382.044 618.716C383.108 619.472 386.72 622.608 387.616 623.392L386.384 625.156C385.236 623.868 382.184 620.928 380.896 619.836L382.044 618.716Z" fill="black"/>
<path d="M574 488.278C572.502 488.278 571.226 487.871 570.172 487.055C569.118 486.233 568.313 485.044 567.756 483.486C567.199 481.921 566.92 480.032 566.92 477.818C566.92 475.617 567.199 473.738 567.756 472.18C568.319 470.616 569.128 469.423 570.182 468.601C571.242 467.772 572.515 467.358 574 467.358C575.485 467.358 576.754 467.772 577.808 468.601C578.869 469.423 579.678 470.616 580.234 472.18C580.798 473.738 581.08 475.617 581.08 477.818C581.08 480.032 580.801 481.921 580.244 483.486C579.688 485.044 578.882 486.233 577.828 487.055C576.774 487.871 575.498 488.278 574 488.278ZM574 486.091C575.485 486.091 576.638 485.375 577.46 483.943C578.282 482.511 578.693 480.47 578.693 477.818C578.693 476.055 578.504 474.554 578.126 473.314C577.755 472.074 577.218 471.13 576.516 470.48C575.82 469.83 574.981 469.506 574 469.506C572.528 469.506 571.378 470.232 570.55 471.683C569.721 473.128 569.307 475.173 569.307 477.818C569.307 479.581 569.492 481.08 569.864 482.312C570.235 483.545 570.768 484.483 571.464 485.126C572.167 485.769 573.012 486.091 574 486.091Z" fill="black"/>
<path d="M129.759 396.636V417H127.293V399.222H127.174L122.202 402.523V400.017L127.293 396.636H129.759Z" fill="black"/>
<path d="M127.075 488.278C125.762 488.278 124.592 488.053 123.565 487.602C122.544 487.152 121.732 486.525 121.129 485.723C120.532 484.914 120.207 483.976 120.154 482.909H122.66C122.713 483.565 122.938 484.132 123.336 484.609C123.734 485.08 124.254 485.445 124.897 485.703C125.54 485.962 126.253 486.091 127.035 486.091C127.91 486.091 128.685 485.938 129.362 485.634C130.038 485.329 130.568 484.904 130.952 484.361C131.337 483.817 131.529 483.188 131.529 482.472C131.529 481.723 131.344 481.063 130.972 480.493C130.601 479.916 130.058 479.465 129.342 479.141C128.626 478.816 127.751 478.653 126.717 478.653H125.086V476.466H126.717C127.525 476.466 128.235 476.32 128.844 476.028C129.461 475.737 129.942 475.326 130.286 474.795C130.638 474.265 130.813 473.642 130.813 472.926C130.813 472.237 130.661 471.637 130.356 471.126C130.051 470.616 129.62 470.218 129.063 469.933C128.513 469.648 127.863 469.506 127.114 469.506C126.412 469.506 125.749 469.635 125.126 469.893C124.509 470.145 124.005 470.513 123.614 470.997C123.223 471.474 123.011 472.051 122.978 472.727H120.592C120.631 471.66 120.953 470.725 121.556 469.923C122.159 469.115 122.948 468.485 123.923 468.034C124.904 467.583 125.981 467.358 127.154 467.358C128.414 467.358 129.494 467.613 130.396 468.124C131.297 468.627 131.99 469.294 132.474 470.122C132.958 470.951 133.2 471.846 133.2 472.807C133.2 473.954 132.898 474.931 132.295 475.74C131.698 476.549 130.886 477.109 129.859 477.42V477.58C131.145 477.792 132.149 478.339 132.871 479.22C133.594 480.095 133.955 481.179 133.955 482.472C133.955 483.579 133.654 484.573 133.05 485.455C132.454 486.33 131.638 487.019 130.604 487.523C129.57 488.027 128.394 488.278 127.075 488.278Z" fill="black"/>
<path d="M127.075 559.278C125.762 559.278 124.592 559.053 123.565 558.602C122.544 558.152 121.732 557.525 121.129 556.723C120.532 555.914 120.207 554.976 120.154 553.909H122.66C122.713 554.565 122.938 555.132 123.336 555.609C123.734 556.08 124.254 556.445 124.897 556.703C125.54 556.962 126.253 557.091 127.035 557.091C127.91 557.091 128.685 556.938 129.362 556.634C130.038 556.329 130.568 555.904 130.952 555.361C131.337 554.817 131.529 554.188 131.529 553.472C131.529 552.723 131.344 552.063 130.972 551.493C130.601 550.916 130.058 550.465 129.342 550.141C128.626 549.816 127.751 549.653 126.717 549.653H125.086V547.466H126.717C127.525 547.466 128.235 547.32 128.844 547.028C129.461 546.737 129.942 546.326 130.286 545.795C130.638 545.265 130.813 544.642 130.813 543.926C130.813 543.237 130.661 542.637 130.356 542.126C130.051 541.616 129.62 541.218 129.063 540.933C128.513 540.648 127.863 540.506 127.114 540.506C126.412 540.506 125.749 540.635 125.126 540.893C124.509 541.145 124.005 541.513 123.614 541.997C123.223 542.474 123.011 543.051 122.978 543.727H120.592C120.631 542.66 120.953 541.725 121.556 540.923C122.159 540.115 122.948 539.485 123.923 539.034C124.904 538.583 125.981 538.358 127.154 538.358C128.414 538.358 129.494 538.613 130.396 539.124C131.297 539.627 131.99 540.294 132.474 541.122C132.958 541.951 133.2 542.846 133.2 543.807C133.2 544.954 132.898 545.931 132.295 546.74C131.698 547.549 130.886 548.109 129.859 548.42V548.58C131.145 548.792 132.149 549.339 132.871 550.22C133.594 551.095 133.955 552.179 133.955 553.472C133.955 554.579 133.654 555.573 133.05 556.455C132.454 557.33 131.638 558.019 130.604 558.523C129.57 559.027 128.394 559.278 127.075 559.278Z" fill="black"/>
<path d="M126.954 630.278C125.787 630.278 124.737 630.046 123.802 629.582C122.867 629.118 122.118 628.482 121.555 627.673C120.991 626.865 120.683 625.943 120.63 624.909H123.017C123.109 625.83 123.527 626.593 124.269 627.196C125.018 627.793 125.913 628.091 126.954 628.091C127.789 628.091 128.532 627.895 129.181 627.504C129.838 627.113 130.351 626.576 130.722 625.893C131.1 625.204 131.289 624.425 131.289 623.557C131.289 622.669 131.094 621.876 130.703 621.18C130.318 620.478 129.788 619.924 129.112 619.52C128.436 619.116 127.663 618.91 126.795 618.903C126.172 618.897 125.532 618.993 124.876 619.192C124.22 619.384 123.679 619.633 123.255 619.938L120.948 619.659L122.181 609.636H132.761V611.824H124.249L123.534 617.83H123.653C124.07 617.498 124.594 617.223 125.224 617.004C125.854 616.786 126.51 616.676 127.193 616.676C128.439 616.676 129.549 616.974 130.524 617.571C131.505 618.161 132.274 618.97 132.83 619.997C133.394 621.025 133.676 622.198 133.676 623.517C133.676 624.816 133.384 625.976 132.801 626.997C132.224 628.011 131.428 628.813 130.414 629.403C129.4 629.987 128.247 630.278 126.954 630.278Z" fill="black"/>
<path d="M576.759 396.636V417H574.293V399.222H574.174L569.202 402.523V400.017L574.293 396.636H576.759Z" fill="black"/>
<path d="M718.759 467.636V488H716.293V470.222H716.174L711.202 473.523V471.017L716.293 467.636H718.759Z" fill="black"/>
<path d="M718 630.278C716.502 630.278 715.226 629.871 714.172 629.055C713.118 628.233 712.313 627.044 711.756 625.486C711.199 623.921 710.92 622.032 710.92 619.818C710.92 617.617 711.199 615.738 711.756 614.18C712.319 612.616 713.128 611.423 714.182 610.601C715.242 609.772 716.515 609.358 718 609.358C719.485 609.358 720.754 609.772 721.808 610.601C722.869 611.423 723.678 612.616 724.234 614.18C724.798 615.738 725.08 617.617 725.08 619.818C725.08 622.032 724.801 623.921 724.244 625.486C723.688 627.044 722.882 628.233 721.828 629.055C720.774 629.871 719.498 630.278 718 630.278ZM718 628.091C719.485 628.091 720.638 627.375 721.46 625.943C722.282 624.511 722.693 622.47 722.693 619.818C722.693 618.055 722.504 616.554 722.126 615.314C721.755 614.074 721.218 613.13 720.516 612.48C719.82 611.83 718.981 611.506 718 611.506C716.528 611.506 715.378 612.232 714.55 613.683C713.721 615.128 713.307 617.173 713.307 619.818C713.307 621.581 713.492 623.08 713.864 624.312C714.235 625.545 714.768 626.483 715.464 627.126C716.167 627.769 717.012 628.091 718 628.091Z" fill="black"/>
<path d="M858 488.278C856.502 488.278 855.226 487.871 854.172 487.055C853.118 486.233 852.313 485.044 851.756 483.486C851.199 481.921 850.92 480.032 850.92 477.818C850.92 475.617 851.199 473.738 851.756 472.18C852.319 470.616 853.128 469.423 854.182 468.601C855.242 467.772 856.515 467.358 858 467.358C859.485 467.358 860.754 467.772 861.808 468.601C862.869 469.423 863.678 470.616 864.234 472.18C864.798 473.738 865.08 475.617 865.08 477.818C865.08 480.032 864.801 481.921 864.244 483.486C863.688 485.044 862.882 486.233 861.828 487.055C860.774 487.871 859.498 488.278 858 488.278ZM858 486.091C859.485 486.091 860.638 485.375 861.46 483.943C862.282 482.511 862.693 480.47 862.693 477.818C862.693 476.055 862.504 474.554 862.126 473.314C861.755 472.074 861.218 471.13 860.516 470.48C859.82 469.83 858.981 469.506 858 469.506C856.528 469.506 855.378 470.232 854.55 471.683C853.721 473.128 853.307 475.173 853.307 477.818C853.307 479.581 853.492 481.08 853.864 482.312C854.235 483.545 854.768 484.483 855.464 485.126C856.167 485.769 857.012 486.091 858 486.091Z" fill="black"/>
<path d="M853.131 630V628.21L859.853 620.852C860.642 619.991 861.291 619.241 861.802 618.605C862.312 617.962 862.69 617.359 862.935 616.795C863.187 616.225 863.313 615.629 863.313 615.006C863.313 614.29 863.141 613.67 862.796 613.146C862.458 612.623 861.994 612.218 861.404 611.933C860.814 611.648 860.151 611.506 859.415 611.506C858.633 611.506 857.951 611.668 857.367 611.993C856.79 612.311 856.343 612.759 856.025 613.335C855.713 613.912 855.558 614.588 855.558 615.364H853.211C853.211 614.17 853.486 613.123 854.036 612.222C854.586 611.32 855.335 610.617 856.283 610.114C857.238 609.61 858.308 609.358 859.495 609.358C860.688 609.358 861.746 609.61 862.667 610.114C863.588 610.617 864.311 611.297 864.835 612.152C865.358 613.007 865.62 613.958 865.62 615.006C865.62 615.755 865.484 616.487 865.212 617.203C864.947 617.912 864.483 618.705 863.82 619.58C863.164 620.448 862.253 621.509 861.086 622.761L856.512 627.653V627.812H865.978V630H853.131Z" fill="black"/>
</g>
<path d="M41 302H933V606C933 633.062 911.062 655 884 655H90C62.938 655 41 633.062 41 606V302Z" stroke="#3686FF" stroke-width="2"/>
<path d="M40.0166 263.963C40.0166 236.349 62.4024 213.963 90.0166 213.963H884.251C911.865 213.963 934.251 236.349 934.251 263.963V300.528H40.0166V263.963Z" fill="#3686FF"/>
<path d="M110.692 268.144H125.028V271.632H110.692V268.144ZM109.092 245.968H120.42V249.36H109.092V245.968ZM109.924 242.64L114.244 243.504C111.524 248.176 107.684 252.464 101.924 255.92C101.38 254.96 100.1 253.552 99.236 252.88C104.516 250.096 108.068 246.192 109.924 242.64ZM119.204 245.968H119.94L120.58 245.776L123.236 247.184C119.492 257.136 110.948 263.664 101.412 266.864C100.932 265.808 99.972 264.24 99.172 263.44C108.004 260.88 116.26 254.672 119.204 246.608V245.968ZM104.9 253.008L107.748 250.512C109.956 252.08 112.868 254.352 114.276 256.016L111.172 258.8C109.956 257.136 107.108 254.672 104.9 253.008ZM123.236 258.384H127.236V272.912H123.236V258.384ZM112.324 258.384H125.156V261.872H112.324V272.848H108.484V261.232L111.396 258.384H112.324ZM144.1 242.96L148.1 243.664C146.852 249.36 144.676 254.704 142.052 258.096C141.252 257.488 139.428 256.464 138.404 256.016C141.156 253.04 143.108 248.048 144.1 242.96ZM150.02 251.952H152.004V255.472C152.004 258.96 153.924 265.936 161.828 269.392C161.092 270.32 159.94 271.92 159.332 272.88C153.604 270.256 150.596 264.592 149.988 261.712C149.22 264.592 145.956 270.064 139.46 272.88C139.012 271.984 137.796 270.352 137.124 269.648C145.796 266.192 147.94 259.12 147.94 255.472V251.952H150.02ZM131.364 265.072C133.156 263.344 136.036 260.4 138.692 257.488L140.868 260.784C138.66 263.376 136.036 266.192 133.828 268.368L131.364 265.072ZM132.292 247.632L135.012 244.816C136.932 246.064 139.524 247.984 140.772 249.36L137.86 252.528C136.74 251.12 134.244 249.04 132.292 247.632ZM145.476 248.368H158.596V252.176H143.588L145.476 248.368ZM157.316 248.368H157.892L158.628 248.144L161.476 249.808C160.548 253.04 159.012 256.368 157.764 258.64C156.964 258.224 155.428 257.424 154.5 257.072C155.524 255.12 156.836 251.728 157.316 249.2V248.368Z" fill="white"/>
<path d="M573.838 246.48C571.182 250.224 566.286 254.416 561.038 257.2C560.558 256.304 559.47 254.896 558.638 254.096C564.142 251.408 569.294 246.608 571.662 242.736H575.662C579.118 247.6 584.27 251.632 589.358 253.712C588.43 254.672 587.534 255.984 586.83 257.168C581.934 254.576 576.59 250.256 573.838 246.48ZM565.806 252.432H581.934V255.792H565.806V252.432ZM561.998 258.96H585.71V262.256H561.998V258.96ZM560.366 268.688H587.566V271.984H560.366V268.688ZM571.726 253.776H575.822V270.32H571.726V253.776ZM563.982 263.472L567.086 262.192C568.302 263.824 569.582 266.032 570.062 267.536L566.734 268.976C566.318 267.504 565.134 265.168 563.982 263.472ZM580.27 262.224L583.918 263.6C582.606 265.552 581.198 267.632 580.078 268.976L577.198 267.792C578.222 266.288 579.566 263.952 580.27 262.224Z" fill="white"/>
<path d="M716.702 244.112H729.086V258.832H716.702V255.536H725.598V247.408H716.702V244.112ZM716.67 249.904H727.038V253.008H716.67V249.904ZM722.91 256.912C724.094 262.576 726.654 267.312 731.166 269.456C730.366 270.192 729.278 271.728 728.734 272.752C723.87 269.936 721.374 264.464 719.998 257.488L722.91 256.912ZM728.318 259.184L730.686 261.904C728.99 263.28 726.942 264.816 725.374 265.744L723.486 263.376C724.926 262.384 727.102 260.56 728.318 259.184ZM714.974 272.976L714.654 269.648L716.19 268.432L723.07 266.928C723.038 268.016 723.102 269.584 723.23 270.416C716.958 272.016 715.742 272.464 714.974 272.976ZM714.974 272.976C714.718 272.112 713.886 270.608 713.342 269.968C714.014 269.552 714.814 268.656 714.814 267.184V244.112H718.59V269.488C718.59 269.488 714.974 271.6 714.974 272.976ZM705.438 242.896L708.83 243.92C707.486 247.664 705.214 251.536 702.654 253.968C702.366 253.136 701.438 251.12 700.862 250.224C702.782 248.432 704.478 245.744 705.438 242.896ZM705.566 245.936H713.022V249.584H704.83L705.566 245.936ZM703.806 251.92H712.798V255.344H703.806V251.92ZM701.886 258.48H713.47V261.904H701.886V258.48ZM705.726 272.88L705.15 269.616L706.302 268.4L713.15 265.328C713.214 266.32 713.438 267.856 713.662 268.656C707.518 271.664 706.398 272.272 705.726 272.88ZM705.726 272.88C705.534 272.016 704.798 270.48 704.254 269.744C704.926 269.392 705.79 268.624 705.79 267.28V252.88H709.438V269.776C709.438 269.776 705.726 271.632 705.726 272.88Z" fill="white"/>
<path d="M854.854 244.048H868.422V247.504H858.022V272.88H854.854V244.048ZM867.814 244.048H871.014V268.88C871.014 270.608 870.726 271.632 869.702 272.24C868.646 272.784 867.11 272.88 864.902 272.88C864.838 271.952 864.358 270.32 863.91 269.392C865.286 269.488 866.758 269.456 867.238 269.456C867.654 269.456 867.814 269.296 867.814 268.848V244.048ZM859.302 249.872H866.534V253.008H859.302V249.872ZM859.558 255.408H861.83V267.024H859.558V255.408ZM860.998 255.408H866.31V265.36H860.998V262.448H863.942V258.352H860.998V255.408ZM846.15 242.896L849.51 243.92C848.198 247.664 845.958 251.536 843.43 253.968C843.174 253.136 842.246 251.12 841.638 250.192C843.558 248.432 845.222 245.744 846.15 242.896ZM845.99 245.744H854.054V249.264H845.35L845.99 245.744ZM846.342 272.88L845.638 269.52L846.63 268.304L853.286 264.496C853.414 265.52 853.83 267.056 854.118 267.824C848.07 271.504 846.95 272.208 846.342 272.88ZM844.262 251.92H853.734V255.344H844.262V251.92ZM842.406 258.48H853.862V261.904H842.406V258.48ZM846.342 272.88C846.054 272.112 845.222 270.736 844.646 270.16C845.35 269.68 846.374 268.592 846.374 267.024V252.592H849.926V269.2C849.926 269.2 846.342 271.6 846.342 272.88Z" fill="white"/>
<path d="M296.202 249.328H311.978V252.688H296.202V249.328ZM297.034 255.728H311.306V258.96H297.034V255.728ZM295.85 262.768H312.522V265.904H295.85V262.768ZM302.282 250.384H305.834V264.432H302.282V250.384ZM306.858 259.984L309.29 258.704C310.25 259.632 311.402 260.976 311.946 261.84L309.386 263.28C308.874 262.384 307.786 260.976 306.858 259.984ZM290.698 244.08H317.738V272.848H313.61V247.6H294.602V272.848H290.698V244.08ZM292.81 267.728H315.498V271.248H292.81V267.728ZM334.25 242.864H338.186V247.44H334.25V242.864ZM322.698 245.36H349.93V252.592H346.026V248.848H326.442V252.592H322.698V245.36ZM327.562 250.896H344.842V254.16H327.562V250.896ZM330.698 256.592L333.642 254.864C341.194 260.112 341.13 269.136 337.706 271.6C336.49 272.656 335.466 272.944 333.77 272.944C332.97 272.976 332.01 272.944 331.05 272.88C330.986 271.824 330.634 270.288 329.962 269.2C331.146 269.328 332.202 269.36 333.034 269.36C333.834 269.36 334.442 269.264 334.986 268.688C336.81 267.28 336.81 260.944 330.698 256.592ZM335.754 251.728L338.922 253.04C335.53 256.496 329.706 258.96 324.362 260.368C324.01 259.632 323.018 258.096 322.41 257.392C327.498 256.368 332.97 254.384 335.754 251.728ZM333.258 258.096L335.722 259.824C333.066 261.872 328.362 264.24 324.778 265.488C324.362 264.656 323.562 263.344 322.858 262.576C326.346 261.744 330.986 259.824 333.258 258.096ZM335.85 261.136L338.474 263.088C335.05 266.352 328.81 269.744 323.722 271.44C323.274 270.48 322.442 269.104 321.706 268.272C326.762 267.024 332.874 264.016 335.85 261.136ZM340.714 252.272C342.25 258.992 345.546 264.72 351.21 267.248C350.346 268.016 349.13 269.552 348.554 270.608C342.506 267.376 339.306 260.976 337.482 252.912L340.714 252.272ZM346.954 254.352L349.962 256.944C347.754 258.608 344.97 260.4 342.89 261.456L340.426 259.152C342.442 258 345.29 255.952 346.954 254.352ZM364.334 245.636L356.834 273.5H352.663L360.163 245.636H364.334ZM384.478 242.832H388.094V265.424H384.478V242.832ZM375.006 255.696L391.582 248.656L392.99 251.92L376.446 259.088L375.006 255.696ZM378.174 245.936H381.822V266.672C381.822 268.56 382.11 268.816 384.094 268.816C385.054 268.816 389.31 268.816 390.302 268.816C392.062 268.816 392.382 268.112 392.638 264.816C393.47 265.392 394.974 266 395.998 266.192C395.518 270.736 394.366 272.24 390.622 272.24C389.566 272.24 384.766 272.24 383.774 272.24C379.39 272.24 378.174 271.088 378.174 266.64V245.936ZM390.846 249.072H390.622L391.294 248.592L391.966 248.112L394.654 249.072L394.494 249.712C394.494 255.824 394.43 259.696 394.302 261.008C394.174 262.48 393.63 263.248 392.638 263.664C391.71 264.112 390.334 264.112 389.31 264.112C389.182 263.152 388.894 261.712 388.478 260.912C389.022 260.944 389.758 260.944 390.046 260.944C390.43 260.944 390.622 260.848 390.718 260.272C390.846 259.632 390.846 256.144 390.846 249.072ZM365.822 250.256H376.382V253.872H365.822V250.256ZM369.534 243.28H373.118V264.496H369.534V243.28ZM365.374 264.528C368.03 263.568 372.19 261.84 376.094 260.176L376.958 263.568C373.566 265.296 369.886 267.024 366.91 268.368L365.374 264.528ZM418.558 248.656L422.366 249.936C418.782 257.008 413.182 263.184 407.294 267.024C406.654 266.224 405.15 264.72 404.286 264.016C410.238 260.688 415.486 255.024 418.558 248.656ZM405.47 253.104L408.158 250.64C413.662 254.064 420.51 259.248 423.71 263.216L420.67 266.128C417.726 262.224 411.102 256.72 405.47 253.104ZM399.294 244.528H426.686V248.208H403.134V272.912H399.294V244.528ZM401.662 267.696H427.486V271.376H401.662V267.696Z" fill="white"/>
<line x1="214.963" y1="213.963" x2="214.963" y2="300.528" stroke="white" stroke-width="2"/>
<line x1="504.875" y1="213.963" x2="504.875" y2="300.528" stroke="white" stroke-width="2"/>
<line x1="645.34" y1="213.963" x2="645.34" y2="300.528" stroke="white" stroke-width="2"/>
<line x1="787.438" y1="213.963" x2="787.438" y2="300.528" stroke="white" stroke-width="2"/>
<defs>
<linearGradient id="paint0_linear_618_1340" x1="0" y1="183.43" x2="971" y2="183.43" gradientUnits="userSpaceOnUse">
<stop stop-color="#FF6A00" stop-opacity="0"/>
<stop offset="0.51" stop-color="#FF6A00"/>
<stop offset="1" stop-color="#FF6A00" stop-opacity="0"/>
</linearGradient>
<clipPath id="clip0_618_1340">
<path d="M40 301H934V606C934 633.614 911.614 656 884 656H90C62.3858 656 40 633.614 40 606V301Z" fill="white"/>
</clipPath>
</defs>
</svg>
