<svg width="112" height="113" viewBox="0 0 112 113" fill="none" xmlns="http://www.w3.org/2000/svg">
<path d="M58.4684 40.4651H38.6996L28.955 19.1655L19.7677 40.4651H0L16.4267 55.3199L11.6935 75.499L28.955 63.4469L47.6089 74.939L42.0412 53.3585L58.4684 40.4651Z" fill="#FFE100"/>
<path d="M84.6533 101.325L78.2163 97.2909L79.4177 88.3222L72.0518 93.4276L65.6151 89.3938L67.913 97.614L62.2275 103.261L70.3234 102.834L74.0372 110.407L76.6564 102.198L84.6533 101.325Z" fill="#FFE100"/>
<path d="M107.568 77.2629L100.216 75.351L98.6655 66.4361L93.1755 73.5201L85.8237 71.6082L90.487 78.7571L86.7625 85.8525L94.3553 83.0108L100.174 89.1164L100.204 80.5003L107.568 77.2629Z" fill="#FFE100"/>
<path d="M106.255 32.4978L99.375 35.7189L92.4908 29.8461L92.7863 38.8036L85.9067 42.0245L94.0595 44.5511L95.7214 52.3903L99.7524 45.3563L108.129 46.3422L102.652 39.6905L106.255 32.4978Z" fill="#FFE100"/>
<path d="M79.914 5.7001L74.6574 11.1843L66.1192 8.18751L69.6233 16.4364L64.3669 21.9204L72.8825 21.3387L77.2581 28.0521L78.483 20.0381L86.6518 17.9386L79.1459 13.7079L79.914 5.7001Z" fill="#FFE100"/>
</svg>
