<svg width="156" height="156" viewBox="0 0 156 156" fill="none" xmlns="http://www.w3.org/2000/svg">
<g filter="url(#filter0_d_138_530)">
<path d="M29.0342 28.8464C21.9559 35.8003 17.2651 44.8197 15.6363 54.6078C14.0075 64.3959 15.5246 74.4484 19.9695 83.3198C24.4144 92.1913 31.558 99.4247 40.3733 103.98C49.1886 108.535 59.2213 110.178 69.029 108.671L108.612 69.4172C110.203 59.6116 108.639 49.5543 104.147 40.6945C99.6543 31.8346 92.4652 24.6296 83.6153 20.1177C74.7654 15.6058 64.7116 14.0199 54.9025 15.5886C45.0935 17.1573 36.0356 21.7995 29.0342 28.8464ZM93.4702 105.709L116.842 129.574C117.171 129.905 117.562 130.167 117.992 130.347C118.423 130.526 118.885 130.618 119.352 130.618C119.818 130.618 120.28 130.526 120.711 130.347C121.142 130.167 121.533 129.905 121.862 129.574L129.103 122.332C129.434 122.003 129.697 121.612 129.876 121.181C130.055 120.751 130.148 120.289 130.148 119.822C130.148 119.356 130.055 118.894 129.876 118.463C129.697 118.032 129.434 117.641 129.103 117.312L105.65 93.7761L106.884 77.3174L76.6 107.108L93.4702 105.709Z" fill="white"/>
<path d="M119.887 36.0884C121.259 36.0884 122.618 35.818 123.886 35.2928C125.154 34.7676 126.307 33.9978 127.277 33.0273C128.248 32.0568 129.017 30.9046 129.543 29.6366C130.068 28.3686 130.338 27.0096 130.338 25.6371C130.338 24.2646 130.068 22.9055 129.543 21.6375C129.017 20.3695 128.248 19.2174 127.277 18.2469C126.307 17.2764 125.154 16.5065 123.886 15.9813C122.618 15.4561 121.259 15.1858 119.887 15.1858C118.514 15.1858 117.155 15.4561 115.887 15.9813C114.619 16.5065 113.467 17.2764 112.497 18.2469C111.526 19.2174 110.756 20.3695 110.231 21.6375C109.706 22.9055 109.436 24.2646 109.436 25.6371C109.436 27.0096 109.706 28.3686 110.231 29.6366C110.756 30.9046 111.526 32.0568 112.497 33.0273C113.467 33.9978 114.619 34.7676 115.887 35.2928C117.155 35.818 118.514 36.0884 119.887 36.0884Z" fill="white"/>
</g>
<defs>
<filter id="filter0_d_138_530" x="0" y="0" width="155.338" height="155.618" filterUnits="userSpaceOnUse" color-interpolation-filters="sRGB">
<feFlood flood-opacity="0" result="BackgroundImageFix"/>
<feColorMatrix in="SourceAlpha" type="matrix" values="0 0 0 0 0 0 0 0 0 0 0 0 0 0 0 0 0 0 127 0" result="hardAlpha"/>
<feOffset dx="5" dy="5"/>
<feGaussianBlur stdDeviation="10"/>
<feComposite in2="hardAlpha" operator="out"/>
<feColorMatrix type="matrix" values="0 0 0 0 0 0 0 0 0 0 0 0 0 0 0 0 0 0 0.25 0"/>
<feBlend mode="normal" in2="BackgroundImageFix" result="effect1_dropShadow_138_530"/>
<feBlend mode="normal" in="SourceGraphic" in2="effect1_dropShadow_138_530" result="shape"/>
</filter>
</defs>
</svg>
