<svg width="395" height="170" viewBox="0 0 395 170" fill="none" xmlns="http://www.w3.org/2000/svg">
<g filter="url(#filter0_d_759_1167)">
<rect x="25" y="45" width="335" height="90" rx="45" fill="white"/>
</g>
<path d="M115.52 74.88L118.2 71.4C120.4 72.32 123.2 73.88 124.56 75.16L121.72 78.96C120.48 77.68 117.68 75.92 115.52 74.88ZM114.08 85.6L116.72 82.04C118.96 82.88 121.8 84.36 123.16 85.56L120.4 89.44C119.08 88.2 116.32 86.56 114.08 85.6ZM114.52 105.8C115.96 102.56 117.92 97.44 119.36 92.68L123.28 95.08C122 99.44 120.4 104.16 118.88 108.12L114.52 105.8ZM139.88 75.76H151.76V80.32H139.88V75.76ZM139.28 83.32H149.16V87.48H139.28V83.32ZM137.6 92.84H151.84V97.16H137.6V92.84ZM139.72 71.08L144.28 71.88C143.4 77.16 141.68 82.36 139.52 85.64C138.64 84.96 136.56 83.8 135.44 83.28C137.64 80.4 139 75.72 139.72 71.08ZM142.56 89.48H147V103.84C147 106 146.64 107.2 145.2 107.92C143.76 108.6 141.8 108.68 139.12 108.68C139 107.4 138.4 105.56 137.88 104.28C139.52 104.36 141.32 104.36 141.88 104.36C142.4 104.36 142.56 104.24 142.56 103.76V89.48ZM147.28 83.32H148.28L149.12 83.04L151.92 85.04C150.32 87.8 148.04 90.92 146 92.96C145.4 92.08 144.12 90.76 143.4 90.12C144.88 88.56 146.52 85.88 147.28 84.12V83.32ZM123.32 76.8H137.48V81.36H123.32V76.8ZM127.8 85.76H134.6V90.12H127.8V85.76ZM128.32 71.12H132.92V80H128.32V71.12ZM132.84 85.76H137.16C137.16 85.76 137.16 87.08 137.12 87.64C136.72 100.44 136.32 105.24 135.24 106.72C134.44 107.8 133.68 108.2 132.6 108.4C131.68 108.6 130.24 108.6 128.68 108.56C128.6 107.24 128.2 105.44 127.52 104.28C128.72 104.36 129.72 104.4 130.28 104.4C130.8 104.4 131.12 104.28 131.44 103.8C132.12 102.84 132.52 98.68 132.84 86.6V85.76ZM126.24 80.16H130.64C130.4 90.96 129.8 101.84 124.04 108.52C123.32 107.48 121.96 106.12 120.8 105.4C125.88 99.6 126.08 89.72 126.24 80.16ZM170.92 74.92L173 71.28C176.92 72.12 182.6 73.84 185.48 75.24L183.28 79.32C180.56 77.92 175 76 170.92 74.92ZM164.96 86.88H172.04V91.28H164.96V86.88ZM168.48 79.24H178.12V83.8H168.48V79.24ZM170.72 86.88H171.56L172.36 86.76L175.32 87.68C174.12 95.84 171.16 102.04 166.56 105.68C165.88 104.6 164.52 102.96 163.52 102.16C167.2 99.44 169.84 93.6 170.72 87.64V86.88ZM180.72 83.4C182.68 90.92 186.52 97.84 192.24 101.24C191.12 102.16 189.56 104.04 188.76 105.4C182.96 101.08 179.48 93.12 177.4 84.2L180.72 83.4ZM187.48 83.28L191.76 86.44C188.96 89 186.04 91.92 183.68 93.8L180.76 91.36C182.92 89.24 185.84 85.88 187.48 83.28ZM176.32 79.24H180.88V103.24C180.88 105.6 180.44 106.96 178.92 107.68C177.4 108.44 175.2 108.56 172.04 108.52C171.92 107.24 171.24 105.08 170.6 103.84C172.56 103.96 174.8 103.96 175.44 103.92C176.08 103.92 176.32 103.72 176.32 103.16V79.24ZM156.32 74.76L158.84 71.16C161.4 72.24 164.88 74.04 166.6 75.4L163.92 79.4C162.32 78 158.92 76 156.32 74.76ZM153.92 85.64L156.36 81.92C158.88 82.92 162.36 84.68 164.12 85.92L161.56 90.04C159.92 88.72 156.52 86.8 153.92 85.64ZM155.24 105.04C157.16 101.96 159.84 96.92 161.96 92.24L165.68 95.12C163.84 99.4 161.64 104 159.52 107.92L155.24 105.04ZM200 72.6H231.04V77.08H200V72.6ZM196.84 72.6H201.76V86.84C201.76 93.28 201.28 102.68 198.2 108.6C197.28 107.8 195.08 106.44 193.88 105.96C196.64 100.56 196.84 92.72 196.84 86.84V72.6ZM203.32 84.68H226.92V89.2H203.32V84.68ZM224.88 84.68H229.72C229.72 84.68 229.68 86.12 229.6 86.72C229.04 99.12 228.44 104 226.96 105.72C225.92 107.04 224.84 107.44 223.24 107.64C221.84 107.8 219.52 107.8 217.16 107.72C217.08 106.28 216.44 104.24 215.56 102.92C217.84 103.12 220.12 103.16 221.12 103.16C221.88 103.16 222.32 103.04 222.8 102.56C223.88 101.56 224.4 96.84 224.88 85.48V84.68ZM212.36 78.96H217.4C216.96 90.96 216.12 102.08 204.72 108.36C204.12 107.2 202.72 105.64 201.6 104.8C211.96 99.4 212.04 89.6 212.36 78.96ZM250.56 71.24H255.52V89.08C255.52 97.76 252.72 105.32 237.12 108.72C236.56 107.64 235.24 105.52 234.2 104.44C248.96 101.84 250.56 96.12 250.56 89.04V71.24ZM242.04 81.44V87.04H263.88V81.44H242.04ZM237.36 76.8H268.84V91.64H237.36V76.8ZM243.4 92.08C248.64 101.64 257.4 103.04 272.2 103.24C271.28 104.4 270.28 106.56 270 108.24C254.64 107.52 244.68 105.16 238.96 93.68L243.4 92.08Z" fill="#004793"/>
<path d="M141.735 38.5603C145.156 48.0526 150.997 52.7946 159.253 52.7946C171.634 52.7946 181.961 42.7814 186.576 38.4817C191.19 34.1821 210.635 19.1829 216.111 16.9174C221.591 14.6518 248.521 11.1211 252.713 27.7988C255.509 38.92 253.749 43.9142 247.432 42.7814C211.641 28.7207 190.557 53.915 168.254 60.7076C153.391 65.2388 144.547 57.8549 141.735 38.5603ZM145.235 38.4817C153.168 42.8351 160.143 43.6248 166.158 40.8589C175.184 36.704 179.749 16.9628 194.219 5.82509C203.862 -1.60006 211.041 -1.92667 215.751 4.84527C218.617 10.687 202.992 21.0847 196.257 24.4624C191.77 26.7156 185.184 32.177 176.497 40.8589C171.121 45.8325 166.129 48.3213 161.523 48.3213C156.921 48.3213 151.49 45.0387 145.235 38.4817ZM138.495 42.1406C137.758 42.1406 137.385 43.9307 137.385 47.5069C137.385 52.8731 139.639 52.2943 140.082 52.8979C140.263 53.1625 140.383 53.4637 140.434 53.78C140.485 54.0964 140.466 54.42 140.377 54.728C140.289 55.0359 140.133 55.3206 139.922 55.5616C139.71 55.8027 139.448 55.9943 139.154 56.1227C137.385 57.0736 132 56.1558 132 52.2943C132 49.7228 134.166 46.341 138.495 42.1406ZM146.092 36.9562C147.584 36.9562 149.249 36.5097 151.076 35.6208C153.822 34.2896 155.069 28.0013 154.439 26.3435C153.814 24.6898 151.403 13.2875 160.384 13.2875C169.364 13.2875 171.448 27.6954 165.487 33.8555C161.51 37.9649 155.048 38.9985 146.092 36.9562ZM141.735 25.6283C145.566 24.9668 147.919 26.0252 148.793 28.8034C149.663 31.5775 148.764 33.2932 146.092 33.9382C147.31 31.6974 146.676 30.2793 144.191 29.6881C141.706 29.0969 140.885 27.745 141.735 25.6283Z" fill="#004793"/>
<defs>
<filter id="filter0_d_759_1167" x="0" y="20" width="395" height="150" filterUnits="userSpaceOnUse" color-interpolation-filters="sRGB">
<feFlood flood-opacity="0" result="BackgroundImageFix"/>
<feColorMatrix in="SourceAlpha" type="matrix" values="0 0 0 0 0 0 0 0 0 0 0 0 0 0 0 0 0 0 127 0" result="hardAlpha"/>
<feOffset dx="5" dy="5"/>
<feGaussianBlur stdDeviation="15"/>
<feComposite in2="hardAlpha" operator="out"/>
<feColorMatrix type="matrix" values="0 0 0 0 0 0 0 0 0 0 0 0 0 0 0 0 0 0 0.25 0"/>
<feBlend mode="normal" in2="BackgroundImageFix" result="effect1_dropShadow_759_1167"/>
<feBlend mode="normal" in="SourceGraphic" in2="effect1_dropShadow_759_1167" result="shape"/>
</filter>
</defs>
</svg>
