<svg width="971" height="768" viewBox="0 0 971 768" fill="none" xmlns="http://www.w3.org/2000/svg">
<rect x="4.89941" width="965.283" height="767.654" rx="59" fill="white"/>
<path d="M4.89941 59C4.89941 26.4152 31.3146 0 63.8994 0H911.183C943.768 0 970.183 26.4152 970.183 59V182.93H4.89941V59Z" fill="#FFF6BF"/>
<path d="M482.984 85.3284H489.04V94.4122H482.984V85.3284ZM480.562 94.4122H491.462C491.795 94.4122 492.068 94.6847 492.068 95.0178V97.4401H479.956V95.0178C479.956 94.6847 480.229 94.4122 480.562 94.4122Z" fill="#F5CF41"/>
<path d="M476.928 97.4401H495.096C495.899 97.4401 496.669 97.7591 497.237 98.3269C497.805 98.8948 498.124 99.6649 498.124 100.468V103.496H473.9V100.468C473.9 99.6649 474.219 98.8948 474.787 98.3269C475.355 97.7591 476.125 97.4401 476.928 97.4401Z" fill="#E3A815"/>
<path d="M464.816 55.0492V61.1051C464.816 61.9081 465.135 62.6783 465.703 63.2461C466.271 63.814 467.041 64.133 467.844 64.133C468.647 64.133 469.417 63.814 469.985 63.2461C470.553 62.6783 470.872 61.9081 470.872 61.1051V55.0492H464.816ZM461.788 52.0213H473.9V61.1051C473.9 61.9003 473.743 62.6878 473.439 63.4226C473.134 64.1573 472.688 64.8249 472.126 65.3872C471.564 65.9496 470.896 66.3956 470.161 66.7C469.427 67.0043 468.639 67.1609 467.844 67.1609C467.049 67.1609 466.261 67.0043 465.526 66.7C464.792 66.3956 464.124 65.9496 463.562 65.3872C462.999 64.8249 462.553 64.1573 462.249 63.4226C461.945 62.6878 461.788 61.9003 461.788 61.1051V52.0213ZM501.151 55.0492V61.1051C501.151 61.9081 501.47 62.6783 502.038 63.2461C502.606 63.814 503.376 64.133 504.179 64.133C504.982 64.133 505.752 63.814 506.32 63.2461C506.888 62.6783 507.207 61.9081 507.207 61.1051V55.0492H501.151ZM498.123 52.0213H510.235V61.1051C510.235 61.9003 510.078 62.6878 509.774 63.4226C509.47 64.1573 509.024 64.8249 508.461 65.3872C507.899 65.9496 507.231 66.3956 506.497 66.7C505.762 67.0043 504.974 67.1609 504.179 67.1609C503.384 67.1609 502.596 67.0043 501.862 66.7C501.127 66.3956 500.459 65.9496 499.897 65.3872C499.335 64.8249 498.889 64.1573 498.584 63.4226C498.28 62.6878 498.123 61.9003 498.123 61.1051V52.0213Z" fill="#F5CF41"/>
<path d="M470.872 42.9375H501.151C501.954 42.9375 502.724 43.2565 503.292 43.8244C503.86 44.3922 504.179 45.1624 504.179 45.9654V70.1888C504.179 75.0072 502.265 79.6282 498.858 83.0352C495.451 86.4423 490.83 88.3564 486.011 88.3564C481.193 88.3564 476.572 86.4423 473.165 83.0352C469.758 79.6282 467.844 75.0072 467.844 70.1888V45.9654C467.844 45.1624 468.163 44.3922 468.731 43.8244C469.298 43.2565 470.069 42.9375 470.872 42.9375Z" fill="#F5CF41"/>
<path d="M486.011 70.1889L478.893 73.9314L480.252 66.0043L474.493 60.3905L482.451 59.2338L486.011 52.0213L489.572 59.2338L497.53 60.3905L491.771 66.0043L493.13 73.9314L486.011 70.1889Z" fill="#FFF2A0"/>
<path d="M439.075 47.6822L434.459 50.0436L441.823 52.08L444.384 50.9698L439.075 47.6822Z" fill="#FF6464"/>
<path d="M454.784 40.7149L445.652 32.5239L441.002 32.8478L450.984 40.9796L454.784 40.7149Z" fill="#FFE100"/>
<path d="M462.479 28.9009L465.946 26.1674L470.125 33.4407L468.222 34.861L462.479 28.9009Z" fill="#65D556"/>
<path d="M459.295 36.4264L456.705 35.2261V36.4249L457.768 36.8955L459.295 36.4264Z" fill="#FF6464"/>
<path d="M457.678 92.7953L452.535 92.1294L458.78 87.7282L461.565 87.9081L457.678 92.7953Z" fill="#FFE100"/>
<path d="M447.843 78.8834L438.242 84.2021L441.828 85.3471L451.489 80.0475L447.843 78.8834Z" fill="#65D556"/>
<path d="M446.624 66.2333L449.214 65.0345V66.2333L448.151 66.7039L446.624 66.2333Z" fill="#00C4FF"/>
<path d="M437.399 68.5409L438.027 68.863L436.821 69.2856L436.102 68.914L437.399 68.5409Z" fill="#FF6464"/>
<path d="M468.752 82.6887H469.691L468.752 83.6705H467.378L468.752 82.6887Z" fill="#00C4FF"/>
<path d="M512.593 90.5574L516.015 87.7364L509.764 82.0848L507.964 83.6491L512.593 90.5574Z" fill="#FF6464"/>
<path d="M528.017 71.5451L538.229 75.7013L534.79 77.2727L524.521 73.1426L528.017 71.5451Z" fill="#00C4FF"/>
<path d="M530.416 61.4906L537.762 59.8592L539.259 55.6801L532.119 58.5249L530.416 61.4906Z" fill="#FFE100"/>
<path d="M522.692 70.8239L522.06 71.1475L523.272 71.5721L523.994 71.1987L522.692 70.8239Z" fill="#65D556"/>
<path d="M525.38 82.4704L526.191 83.4585L525.008 83.8646L522.535 81.0349L524.074 81.1502L525.38 82.4718L525.38 82.4704ZM519.832 46.3477L528.207 37.2994L527.815 42.5311L519.582 49.6896L519.832 46.3492L519.832 46.3477Z" fill="#FFE100"/>
<path d="M500.297 36.838L507.739 27.0141L512.388 26.4454L504.097 36.3711L500.297 36.838Z" fill="#65D556"/>
<path d="M512.982 41.6721L512.1 42.594L513.248 43.0887L515.926 40.4531H514.383L512.982 41.6721Z" fill="#FF6464"/>
<path d="M528.289 49.2474H527.344L528.289 50.2338H529.668L528.289 49.2474Z" fill="#65D556"/>
<line x1="165.78" y1="138.281" x2="396.076" y2="138.281" stroke="#FF6A00" stroke-width="6"/>
<line x1="580.641" y1="138.281" x2="809.303" y2="138.281" stroke="#FF6A00" stroke-width="6"/>
<path d="M428.08 144.8H463.88V149H428.08V144.8ZM443.52 142.44H448.56C447.56 151.48 445.08 157.08 429.72 159.52C429.4 158.32 428.32 156.48 427.48 155.52C441.28 153.64 442.72 149.56 443.52 142.44ZM448.84 148.12C451.32 152.52 456.68 154.56 464.92 155.08C463.88 156.08 462.64 158.08 462.04 159.36C453.04 158.28 447.8 155.32 444.56 149.04L448.84 148.12ZM428.04 125.92L431.6 124.04C433 125.76 434.6 128.2 435.16 129.84L431.36 132C430.84 130.36 429.36 127.8 428.04 125.92ZM436.08 122.04H440.76V142.48H436.08V122.04ZM427.28 136.24C429.76 135.12 433.44 133.16 437.04 131.24L438.32 135C435.28 136.88 432 138.84 429.24 140.4L427.28 136.24ZM446.08 132.6L449.52 130.52C451.24 131.96 453.36 134.12 454.4 135.6L450.76 137.88C449.84 136.4 447.8 134.16 446.08 132.6ZM448.4 125.36H460.68V129.36H448.4V125.36ZM449.36 121.88L453.88 123.44C451.56 127.16 447.76 130.88 443.92 133.08C443.24 132.08 441.92 130.44 441.04 129.6C444.48 127.8 447.84 124.68 449.36 121.88ZM460 125.36H460.96L461.76 125.24L464.64 126.56C461.52 136.44 453.64 140.64 443.6 142.4C443.2 141.28 441.92 139.32 441.08 138.4C450.68 137.16 457.64 133.92 460 126.08V125.36ZM482.2 147.68H504.48V151.72H482.2V147.68ZM494.72 142.64H499.24V159.64H494.72V142.64ZM491.12 121.96L496.44 122.88C495.28 124.92 494 126.96 493.08 128.32L489.24 127.32C489.96 125.72 490.76 123.56 491.12 121.96ZM491.44 127.92H495.48V134.68C495.48 139.36 494.2 145.04 486.32 148.28C485.64 147.52 484.16 146.24 483.28 145.64C490.44 142.8 491.44 138.16 491.44 134.56V127.92ZM471.44 132.56H482.84V136.64H471.44V132.56ZM476.12 122.08H480.28V135H476.12V122.08ZM471.68 141.24H481.12V159.64H476.88V145.28H471.68V141.24ZM469.44 123.08H473.56V138.04C473.56 144.32 473.12 153.48 470.88 159.72C469.96 159.24 468.04 158.6 466.88 158.28C469.12 152.48 469.44 143.64 469.44 138.04V123.08ZM487.8 135.44V138.2H499.08V135.44H487.8ZM487.8 129.36V132.08H499.08V129.36H487.8ZM483.56 125.76H503.48V141.76H483.56V125.76ZM522 125.56H543.8V129.36H522V125.56ZM530.32 122.04H534.96V127.4H530.32V122.04ZM530.32 137.88H534.96V142.92H530.32V137.88ZM521.92 141.24H543.84V145.16H521.92V141.24ZM525.2 129.6L529.24 128.76C529.8 130.16 530.32 132 530.52 133.12L526.28 134.12C526.12 132.92 525.68 131 525.2 129.6ZM536.08 128.36L540.84 129.08C540.08 131 539.36 132.88 538.8 134.16L534.76 133.48C535.28 132 535.84 129.88 536.08 128.36ZM521.52 133.24H544.24V139.96H539.8V136.96H525.72V140H521.52V133.24ZM528.52 147.4H538.96V151.28H528.52V147.4ZM537.36 147.4H541.96C541.96 147.4 541.92 148.48 541.88 149.04C541.48 154.6 541.04 157.16 540.04 158.2C539.24 159.08 538.36 159.4 537.2 159.48C536.2 159.6 534.44 159.64 532.56 159.6C532.48 158.36 532 156.64 531.36 155.6C532.84 155.72 534.28 155.76 534.88 155.76C535.48 155.76 535.8 155.68 536.16 155.36C536.68 154.8 537.08 152.84 537.36 148V147.4ZM507.76 130.32H521V134.76H507.76V130.32ZM512.64 122.04H517V159.6H512.64V122.04ZM512.56 133.36L515.24 134.28C514.08 140.6 511.8 148.32 508.96 152.44C508.56 151.16 507.52 149.32 506.84 148.2C509.4 144.72 511.64 138.44 512.56 133.36ZM516.8 136.4C517.72 137.6 521.12 142.84 521.8 144.04L519.32 147.48C518.36 145.04 515.92 140.36 514.8 138.36L516.8 136.4ZM527.88 142.84H532.44C532 150.8 530.68 156.52 522.72 159.72C522.24 158.6 521.04 156.96 520.08 156.12C526.76 153.64 527.52 149.24 527.88 142.84Z" fill="#FF6A00"/>
<line y1="181.43" x2="971" y2="181.43" stroke="url(#paint0_linear_739_1386)" stroke-width="3"/>
<g clip-path="url(#clip0_739_1386)">
<path d="M40.0166 300.528H934.251V676.821C934.251 704.435 911.866 726.821 884.251 726.821H90.0166C62.4024 726.821 40.0166 704.435 40.0166 676.821V300.528Z" fill="white"/>
<mask id="path-31-inside-1_739_1386" fill="white">
<path d="M40.0166 300.528H934.251V371.577H40.0166V300.528Z"/>
</mask>
<path d="M40.0166 300.528H934.251V371.577H40.0166V300.528Z" fill="white"/>
<path d="M934.251 369.577H40.0166V373.577H934.251V369.577Z" fill="#3686FF" mask="url(#path-31-inside-1_739_1386)"/>
<mask id="path-33-inside-2_739_1386" fill="white">
<path d="M40.0166 371.577H934.251V442.626H40.0166V371.577Z"/>
</mask>
<path d="M40.0166 371.577H934.251V442.626H40.0166V371.577Z" fill="#96DBFF" fill-opacity="0.43"/>
<path d="M934.251 440.626H40.0166V444.626H934.251V440.626Z" fill="#3686FF" mask="url(#path-33-inside-2_739_1386)"/>
<path d="M857.075 417.278C855.762 417.278 854.592 417.053 853.565 416.602C852.544 416.152 851.732 415.525 851.129 414.723C850.532 413.914 850.207 412.976 850.154 411.909H852.66C852.713 412.565 852.938 413.132 853.336 413.609C853.734 414.08 854.254 414.445 854.897 414.703C855.54 414.962 856.253 415.091 857.035 415.091C857.91 415.091 858.685 414.938 859.362 414.634C860.038 414.329 860.568 413.904 860.952 413.361C861.337 412.817 861.529 412.188 861.529 411.472C861.529 410.723 861.344 410.063 860.972 409.493C860.601 408.916 860.058 408.465 859.342 408.141C858.626 407.816 857.751 407.653 856.717 407.653H855.086V405.466H856.717C857.525 405.466 858.235 405.32 858.844 405.028C859.461 404.737 859.942 404.326 860.286 403.795C860.638 403.265 860.813 402.642 860.813 401.926C860.813 401.237 860.661 400.637 860.356 400.126C860.051 399.616 859.62 399.218 859.063 398.933C858.513 398.648 857.863 398.506 857.114 398.506C856.412 398.506 855.749 398.635 855.126 398.893C854.509 399.145 854.005 399.513 853.614 399.997C853.223 400.474 853.011 401.051 852.978 401.727H850.592C850.631 400.66 850.953 399.725 851.556 398.923C852.159 398.115 852.948 397.485 853.923 397.034C854.904 396.583 855.981 396.358 857.154 396.358C858.414 396.358 859.494 396.613 860.396 397.124C861.297 397.627 861.99 398.294 862.474 399.122C862.958 399.951 863.2 400.846 863.2 401.807C863.2 402.954 862.898 403.931 862.295 404.74C861.698 405.549 860.886 406.109 859.859 406.42V406.58C861.145 406.792 862.149 407.339 862.871 408.22C863.594 409.095 863.955 410.179 863.955 411.472C863.955 412.579 863.654 413.573 863.05 414.455C862.454 415.33 861.638 416.019 860.604 416.523C859.57 417.027 858.394 417.278 857.075 417.278Z" fill="black"/>
<path d="M714.004 417.278C712.638 417.278 711.432 417.036 710.384 416.553C709.344 416.062 708.532 415.389 707.948 414.534C707.365 413.672 707.077 412.691 707.083 411.591C707.077 410.729 707.246 409.934 707.59 409.205C707.935 408.469 708.406 407.856 709.002 407.365C709.606 406.868 710.278 406.553 711.021 406.42V406.301C710.046 406.049 709.271 405.502 708.694 404.661C708.117 403.812 707.832 402.848 707.839 401.767C707.832 400.733 708.094 399.808 708.624 398.993C709.155 398.178 709.884 397.535 710.812 397.064C711.747 396.593 712.811 396.358 714.004 396.358C715.184 396.358 716.238 396.593 717.166 397.064C718.094 397.535 718.823 398.178 719.353 398.993C719.89 399.808 720.162 400.733 720.169 401.767C720.162 402.848 719.867 403.812 719.284 404.661C718.707 405.502 717.941 406.049 716.987 406.301V406.42C717.722 406.553 718.385 406.868 718.975 407.365C719.565 407.856 720.036 408.469 720.387 409.205C720.739 409.934 720.918 410.729 720.924 411.591C720.918 412.691 720.619 413.672 720.029 414.534C719.446 415.389 718.634 416.062 717.593 416.553C716.559 417.036 715.363 417.278 714.004 417.278ZM714.004 415.091C714.925 415.091 715.721 414.942 716.39 414.643C717.06 414.345 717.577 413.924 717.941 413.381C718.306 412.837 718.491 412.201 718.498 411.472C718.491 410.703 718.293 410.023 717.901 409.433C717.51 408.843 716.977 408.379 716.301 408.041C715.631 407.703 714.865 407.534 714.004 407.534C713.135 407.534 712.36 407.703 711.677 408.041C711.001 408.379 710.467 408.843 710.076 409.433C709.692 410.023 709.503 410.703 709.509 411.472C709.503 412.201 709.678 412.837 710.036 413.381C710.401 413.924 710.921 414.345 711.597 414.643C712.274 414.942 713.076 415.091 714.004 415.091ZM714.004 405.426C714.733 405.426 715.379 405.28 715.943 404.989C716.513 404.697 716.96 404.289 717.285 403.766C717.61 403.242 717.776 402.629 717.782 401.926C717.776 401.237 717.613 400.637 717.295 400.126C716.977 399.609 716.536 399.212 715.972 398.933C715.409 398.648 714.753 398.506 714.004 398.506C713.241 398.506 712.575 398.648 712.005 398.933C711.435 399.212 710.994 399.609 710.683 400.126C710.371 400.637 710.219 401.237 710.225 401.926C710.219 402.629 710.374 403.242 710.693 403.766C711.017 404.289 711.465 404.697 712.035 404.989C712.605 405.28 713.261 405.426 714.004 405.426Z" fill="black"/>
<mask id="path-37-inside-3_739_1386" fill="white">
<path d="M40.0166 513.675H934.251V584.723H40.0166V513.675Z"/>
</mask>
<path d="M40.0166 513.675H934.251V584.723H40.0166V513.675Z" fill="#96DBFF" fill-opacity="0.43"/>
<path d="M934.251 582.723H40.0166V586.723H934.251V582.723Z" fill="#3686FF" mask="url(#path-37-inside-3_739_1386)"/>
<path d="M859.075 559.278C857.762 559.278 856.592 559.053 855.565 558.602C854.544 558.152 853.732 557.525 853.129 556.723C852.532 555.914 852.207 554.976 852.154 553.909H854.66C854.713 554.565 854.938 555.132 855.336 555.609C855.734 556.08 856.254 556.445 856.897 556.703C857.54 556.962 858.253 557.091 859.035 557.091C859.91 557.091 860.685 556.938 861.362 556.634C862.038 556.329 862.568 555.904 862.952 555.361C863.337 554.817 863.529 554.188 863.529 553.472C863.529 552.723 863.344 552.063 862.972 551.493C862.601 550.916 862.058 550.465 861.342 550.141C860.626 549.816 859.751 549.653 858.717 549.653H857.086V547.466H858.717C859.525 547.466 860.235 547.32 860.844 547.028C861.461 546.737 861.942 546.326 862.286 545.795C862.638 545.265 862.813 544.642 862.813 543.926C862.813 543.237 862.661 542.637 862.356 542.126C862.051 541.616 861.62 541.218 861.063 540.933C860.513 540.648 859.863 540.506 859.114 540.506C858.412 540.506 857.749 540.635 857.126 540.893C856.509 541.145 856.005 541.513 855.614 541.997C855.223 542.474 855.011 543.051 854.978 543.727H852.592C852.631 542.66 852.953 541.725 853.556 540.923C854.159 540.115 854.948 539.485 855.923 539.034C856.904 538.583 857.981 538.358 859.154 538.358C860.414 538.358 861.494 538.613 862.396 539.124C863.297 539.627 863.99 540.294 864.474 541.122C864.958 541.951 865.2 542.846 865.2 543.807C865.2 544.954 864.898 545.931 864.295 546.74C863.698 547.549 862.886 548.109 861.859 548.42V548.58C863.145 548.792 864.149 549.339 864.871 550.22C865.594 551.095 865.955 552.179 865.955 553.472C865.955 554.579 865.654 555.573 865.05 556.455C864.454 557.33 863.638 558.019 862.604 558.523C861.57 559.027 860.394 559.278 859.075 559.278Z" fill="black"/>
<path d="M710.131 559V557.21L716.853 549.852C717.642 548.991 718.291 548.241 718.802 547.605C719.312 546.962 719.69 546.359 719.935 545.795C720.187 545.225 720.313 544.629 720.313 544.006C720.313 543.29 720.141 542.67 719.796 542.146C719.458 541.623 718.994 541.218 718.404 540.933C717.814 540.648 717.151 540.506 716.415 540.506C715.633 540.506 714.951 540.668 714.367 540.993C713.79 541.311 713.343 541.759 713.025 542.335C712.713 542.912 712.558 543.588 712.558 544.364H710.211C710.211 543.17 710.486 542.123 711.036 541.222C711.586 540.32 712.335 539.617 713.283 539.114C714.238 538.61 715.308 538.358 716.495 538.358C717.688 538.358 718.746 538.61 719.667 539.114C720.588 539.617 721.311 540.297 721.835 541.152C722.358 542.007 722.62 542.958 722.62 544.006C722.62 544.755 722.484 545.487 722.212 546.203C721.947 546.912 721.483 547.705 720.82 548.58C720.164 549.448 719.253 550.509 718.086 551.761L713.512 556.653V556.812H722.978V559H710.131Z" fill="black"/>
<path d="M574.075 559.278C572.762 559.278 571.592 559.053 570.565 558.602C569.544 558.152 568.732 557.525 568.129 556.723C567.532 555.914 567.207 554.976 567.154 553.909H569.66C569.713 554.565 569.938 555.132 570.336 555.609C570.734 556.08 571.254 556.445 571.897 556.703C572.54 556.962 573.253 557.091 574.035 557.091C574.91 557.091 575.685 556.938 576.362 556.634C577.038 556.329 577.568 555.904 577.952 555.361C578.337 554.817 578.529 554.188 578.529 553.472C578.529 552.723 578.344 552.063 577.972 551.493C577.601 550.916 577.058 550.465 576.342 550.141C575.626 549.816 574.751 549.653 573.717 549.653H572.086V547.466H573.717C574.525 547.466 575.235 547.32 575.844 547.028C576.461 546.737 576.942 546.326 577.286 545.795C577.638 545.265 577.813 544.642 577.813 543.926C577.813 543.237 577.661 542.637 577.356 542.126C577.051 541.616 576.62 541.218 576.063 540.933C575.513 540.648 574.863 540.506 574.114 540.506C573.412 540.506 572.749 540.635 572.126 540.893C571.509 541.145 571.005 541.513 570.614 541.997C570.223 542.474 570.011 543.051 569.978 543.727H567.592C567.631 542.66 567.953 541.725 568.556 540.923C569.159 540.115 569.948 539.485 570.923 539.034C571.904 538.583 572.981 538.358 574.154 538.358C575.414 538.358 576.494 538.613 577.396 539.124C578.297 539.627 578.99 540.294 579.474 541.122C579.958 541.951 580.2 542.846 580.2 543.807C580.2 544.954 579.898 545.931 579.295 546.74C578.698 547.549 577.886 548.109 576.859 548.42V548.58C578.145 548.792 579.149 549.339 579.871 550.22C580.594 551.095 580.955 552.179 580.955 553.472C580.955 554.579 580.654 555.573 580.05 556.455C579.454 557.33 578.638 558.019 577.604 558.523C576.57 559.027 575.394 559.278 574.075 559.278Z" fill="black"/>
<mask id="path-42-inside-4_739_1386" fill="white">
<path d="M40.0166 655.772H934.251V726.821H40.0166V655.772Z"/>
</mask>
<path d="M40.0166 655.772H934.251V726.821H40.0166V655.772Z" fill="#96DBFF" fill-opacity="0.43"/>
<path d="M934.251 724.821H40.0166V728.821H934.251V724.821Z" fill="#3686FF" mask="url(#path-42-inside-4_739_1386)"/>
<mask id="path-44-inside-5_739_1386" fill="white">
<path d="M40.0166 442.626H934.251V513.675H40.0166V442.626Z"/>
</mask>
<path d="M40.0166 442.626H934.251V513.675H40.0166V442.626Z" fill="white"/>
<path d="M934.251 511.675H40.0166V515.675H934.251V511.675Z" fill="#3686FF" mask="url(#path-44-inside-5_739_1386)"/>
<mask id="path-46-inside-6_739_1386" fill="white">
<path d="M49 585H943.235V656.049H49V585Z"/>
</mask>
<path d="M49 585H943.235V656.049H49V585Z" fill="white"/>
<path d="M943.235 654.049H49V658.049H943.235V654.049Z" fill="#3686FF" mask="url(#path-46-inside-6_739_1386)"/>
<path d="M568.131 630V628.21L574.853 620.852C575.642 619.991 576.291 619.241 576.802 618.605C577.312 617.962 577.69 617.359 577.935 616.795C578.187 616.225 578.313 615.629 578.313 615.006C578.313 614.29 578.141 613.67 577.796 613.146C577.458 612.623 576.994 612.218 576.404 611.933C575.814 611.648 575.151 611.506 574.415 611.506C573.633 611.506 572.951 611.668 572.367 611.993C571.79 612.311 571.343 612.759 571.025 613.335C570.713 613.912 570.558 614.588 570.558 615.364H568.211C568.211 614.17 568.486 613.123 569.036 612.222C569.586 611.32 570.335 610.617 571.283 610.114C572.238 609.61 573.308 609.358 574.495 609.358C575.688 609.358 576.746 609.61 577.667 610.114C578.588 610.617 579.311 611.297 579.835 612.152C580.358 613.007 580.62 613.958 580.62 615.006C580.62 615.755 580.484 616.487 580.212 617.203C579.947 617.912 579.483 618.705 578.82 619.58C578.164 620.448 577.253 621.509 576.086 622.761L571.512 627.653V627.812H580.978V630H568.131Z" fill="black"/>
<path d="M568.131 701V699.21L574.853 691.852C575.642 690.991 576.291 690.241 576.802 689.605C577.312 688.962 577.69 688.359 577.935 687.795C578.187 687.225 578.313 686.629 578.313 686.006C578.313 685.29 578.141 684.67 577.796 684.146C577.458 683.623 576.994 683.218 576.404 682.933C575.814 682.648 575.151 682.506 574.415 682.506C573.633 682.506 572.951 682.668 572.367 682.993C571.79 683.311 571.343 683.759 571.025 684.335C570.713 684.912 570.558 685.588 570.558 686.364H568.211C568.211 685.17 568.486 684.123 569.036 683.222C569.586 682.32 570.335 681.617 571.283 681.114C572.238 680.61 573.308 680.358 574.495 680.358C575.688 680.358 576.746 680.61 577.667 681.114C578.588 681.617 579.311 682.297 579.835 683.152C580.358 684.007 580.62 684.958 580.62 686.006C580.62 686.755 580.484 687.487 580.212 688.203C579.947 688.912 579.483 689.705 578.82 690.58C578.164 691.448 577.253 692.509 576.086 693.761L571.512 698.653V698.812H580.978V701H568.131Z" fill="black"/>
<line x1="214.963" y1="300.528" x2="214.963" y2="726.821" stroke="#3686FF" stroke-width="2"/>
<line x1="504.875" y1="300.528" x2="504.875" y2="726.821" stroke="#3686FF" stroke-width="2"/>
<line x1="645.34" y1="300.528" x2="645.34" y2="726.821" stroke="#3686FF" stroke-width="2"/>
<line x1="787.438" y1="300.528" x2="787.438" y2="726.821" stroke="#3686FF" stroke-width="2"/>
<path d="M129.759 325.636V346H127.293V328.222H127.174L122.202 331.523V329.017L127.293 325.636H129.759Z" fill="black"/>
<path d="M333.716 326.4H356.256V328.304H333.716V326.4ZM335.116 330.572H355.024V332.392H335.116V330.572ZM332.596 334.772H357.376V336.676H332.596V334.772ZM332.4 339.252H357.656V341.128H332.4V339.252ZM343.852 327.464H346.008V336.144H343.852V327.464ZM337.3 323.208L339.12 322.452C340.156 323.488 341.136 324.944 341.584 325.98L339.624 326.876C339.26 325.812 338.308 324.272 337.3 323.208ZM350.46 322.452L352.616 323.124C351.72 324.412 350.656 325.756 349.844 326.68L347.996 326.036C348.836 325.084 349.872 323.516 350.46 322.452ZM343.74 336.312H345.952C345.196 342.864 343.152 346.616 333.1 348.24C332.932 347.708 332.428 346.84 332.036 346.392C341.5 345.02 343.124 341.912 343.74 336.312ZM346.568 339.812C348.164 343.844 351.944 345.776 358.076 346.364C357.6 346.812 357.04 347.708 356.788 348.296C350.32 347.456 346.512 345.104 344.636 340.204L346.568 339.812ZM365.776 328.108H380.14V329.984H365.776V328.108ZM366.56 333.96H379.468V335.808H366.56V333.96ZM365.356 340.54H380.756V342.332H365.356V340.54ZM371.852 328.696H373.812V341.492H371.852V328.696ZM375.576 337.04L376.92 336.284C377.984 337.208 379.216 338.496 379.776 339.364L378.348 340.232C377.788 339.364 376.584 337.992 375.576 337.04ZM361.38 323.768H384.592V348.268H382.352V325.7H363.508V348.268H361.38V323.768ZM362.528 344.908H383.388V346.84H362.528V344.908Z" fill="black"/>
<path d="M574.004 346.278C572.638 346.278 571.432 346.036 570.384 345.553C569.344 345.062 568.532 344.389 567.948 343.534C567.365 342.672 567.077 341.691 567.083 340.591C567.077 339.729 567.246 338.934 567.59 338.205C567.935 337.469 568.406 336.856 569.002 336.365C569.606 335.868 570.278 335.553 571.021 335.42V335.301C570.046 335.049 569.271 334.502 568.694 333.661C568.117 332.812 567.832 331.848 567.839 330.767C567.832 329.733 568.094 328.808 568.624 327.993C569.155 327.178 569.884 326.535 570.812 326.064C571.747 325.593 572.811 325.358 574.004 325.358C575.184 325.358 576.238 325.593 577.166 326.064C578.094 326.535 578.823 327.178 579.353 327.993C579.89 328.808 580.162 329.733 580.169 330.767C580.162 331.848 579.867 332.812 579.284 333.661C578.707 334.502 577.941 335.049 576.987 335.301V335.42C577.722 335.553 578.385 335.868 578.975 336.365C579.565 336.856 580.036 337.469 580.387 338.205C580.739 338.934 580.918 339.729 580.924 340.591C580.918 341.691 580.619 342.672 580.029 343.534C579.446 344.389 578.634 345.062 577.593 345.553C576.559 346.036 575.363 346.278 574.004 346.278ZM574.004 344.091C574.925 344.091 575.721 343.942 576.39 343.643C577.06 343.345 577.577 342.924 577.941 342.381C578.306 341.837 578.491 341.201 578.498 340.472C578.491 339.703 578.293 339.023 577.901 338.433C577.51 337.843 576.977 337.379 576.301 337.041C575.631 336.703 574.865 336.534 574.004 336.534C573.135 336.534 572.36 336.703 571.677 337.041C571.001 337.379 570.467 337.843 570.076 338.433C569.692 339.023 569.503 339.703 569.509 340.472C569.503 341.201 569.678 341.837 570.036 342.381C570.401 342.924 570.921 343.345 571.597 343.643C572.274 343.942 573.076 344.091 574.004 344.091ZM574.004 334.426C574.733 334.426 575.379 334.28 575.943 333.989C576.513 333.697 576.96 333.289 577.285 332.766C577.61 332.242 577.776 331.629 577.782 330.926C577.776 330.237 577.613 329.637 577.295 329.126C576.977 328.609 576.536 328.212 575.972 327.933C575.409 327.648 574.753 327.506 574.004 327.506C573.241 327.506 572.575 327.648 572.005 327.933C571.435 328.212 570.994 328.609 570.683 329.126C570.371 329.637 570.219 330.237 570.225 330.926C570.219 331.629 570.374 332.242 570.693 332.766C571.017 333.289 571.465 333.697 572.035 333.989C572.605 334.28 573.261 334.426 574.004 334.426Z" fill="black"/>
<path d="M708.845 325.636V346H706.379V328.222H706.26L701.288 331.523V329.017L706.379 325.636H708.845ZM721.582 346.278C720.27 346.278 719.1 346.053 718.072 345.602C717.052 345.152 716.24 344.525 715.636 343.723C715.04 342.914 714.715 341.976 714.662 340.909H717.168C717.221 341.565 717.446 342.132 717.844 342.609C718.241 343.08 718.762 343.445 719.405 343.703C720.048 343.962 720.76 344.091 721.543 344.091C722.418 344.091 723.193 343.938 723.869 343.634C724.545 343.329 725.076 342.904 725.46 342.361C725.845 341.817 726.037 341.188 726.037 340.472C726.037 339.723 725.851 339.063 725.48 338.493C725.109 337.916 724.565 337.465 723.849 337.141C723.134 336.816 722.259 336.653 721.224 336.653H719.594V334.466H721.224C722.033 334.466 722.742 334.32 723.352 334.028C723.969 333.737 724.449 333.326 724.794 332.795C725.145 332.265 725.321 331.642 725.321 330.926C725.321 330.237 725.169 329.637 724.864 329.126C724.559 328.616 724.128 328.218 723.571 327.933C723.021 327.648 722.371 327.506 721.622 327.506C720.92 327.506 720.257 327.635 719.634 327.893C719.017 328.145 718.513 328.513 718.122 328.997C717.731 329.474 717.519 330.051 717.486 330.727H715.099C715.139 329.66 715.461 328.725 716.064 327.923C716.667 327.115 717.456 326.485 718.43 326.034C719.411 325.583 720.489 325.358 721.662 325.358C722.921 325.358 724.002 325.613 724.903 326.124C725.805 326.627 726.498 327.294 726.982 328.122C727.465 328.951 727.707 329.846 727.707 330.807C727.707 331.954 727.406 332.931 726.803 333.74C726.206 334.549 725.394 335.109 724.366 335.42V335.58C725.652 335.792 726.657 336.339 727.379 337.22C728.102 338.095 728.463 339.179 728.463 340.472C728.463 341.579 728.161 342.573 727.558 343.455C726.962 344.33 726.146 345.019 725.112 345.523C724.078 346.027 722.902 346.278 721.582 346.278Z" fill="black"/>
<path d="M852.746 346L861.854 327.983V327.824H851.354V325.636H864.4V327.943L855.331 346H852.746Z" fill="black"/>
<path d="M331.38 395.244L332.584 393.76C334.18 394.488 336.14 395.692 337.148 396.644L335.86 398.324C334.936 397.372 333.004 396.056 331.38 395.244ZM330.036 402.86L331.212 401.32C332.892 401.964 334.936 403.084 335.944 403.98L334.74 405.66C333.732 404.764 331.716 403.56 330.036 402.86ZM330.652 417.7C331.856 415.544 333.536 411.904 334.712 408.768L336.392 409.916C335.3 412.856 333.816 416.3 332.556 418.904L330.652 417.7ZM338.24 396.252H354.396V409.972H352.436V397.96H340.144V410.112H338.24V396.252ZM345.212 393.48L347.508 393.872C346.92 395.216 346.248 396.56 345.716 397.484L343.924 397.064C344.372 396.056 344.96 394.516 345.212 393.48ZM349.608 398.38L350.616 399.5C348.32 400.116 344.736 400.508 341.796 400.676C341.74 400.368 341.544 399.892 341.376 399.556C344.232 399.332 347.732 398.912 349.608 398.38ZM341.18 403.252H351.456V404.568H341.18V403.252ZM342.132 401.18L343.252 400.732C343.728 401.376 344.204 402.272 344.428 402.86L343.252 403.42C343.056 402.776 342.58 401.852 342.132 401.18ZM349.16 400.48L350.476 401.012C349.944 401.88 349.468 402.72 349.02 403.336L347.984 402.888C348.376 402.188 348.908 401.124 349.16 400.48ZM336.756 411.232H355.572V413.052H336.756V411.232ZM345.212 409.636H347.256C346.556 414.76 344.652 417.784 337.288 419.268C337.12 418.792 336.588 417.952 336.224 417.56C343.056 416.356 344.624 413.92 345.212 409.636ZM346.892 404.568C347.676 405.044 350.392 406.808 351.12 407.312L350.252 408.544C349.412 407.816 346.976 406.024 346.024 405.408L346.892 404.568ZM345.128 403.952L346.22 404.372C345.268 406.164 343.392 408.152 341.74 409.132C341.488 408.796 341.04 408.264 340.704 407.984C342.356 407.2 344.176 405.492 345.128 403.952ZM345.408 399.584H346.948V408.992H345.408V399.584ZM347.2 411.876C348.46 414.984 351.484 416.832 356.076 417.448C355.628 417.868 355.068 418.68 354.816 419.24C349.916 418.344 346.836 416.104 345.38 412.184L347.2 411.876ZM358.736 401.544H383.348V403.672H358.736V401.544ZM372.372 402.384C374.192 409.16 378 414.816 383.824 417.224C383.292 417.7 382.592 418.596 382.228 419.184C376.18 416.328 372.372 410.42 370.272 402.888L372.372 402.384ZM369.908 393.508H372.176C372.064 400.844 372.008 413.612 359.772 419.212C359.436 418.652 358.764 417.896 358.176 417.476C370.076 412.296 369.852 400.228 369.908 393.508ZM386.372 401.936H399.7V403.896H386.372V401.936ZM401.576 396.812H403.62V412.296H401.576V396.812ZM392.252 395.86H394.324V419.212H392.252V395.86ZM408.464 394.012H410.536V416.44C410.536 417.896 410.172 418.54 409.276 418.876C408.352 419.24 406.784 419.296 404.208 419.268C404.096 418.68 403.76 417.756 403.424 417.14C405.44 417.196 407.176 417.196 407.708 417.168C408.24 417.168 408.464 417 408.464 416.468V394.012ZM397.824 393.648L399.392 395.272C396.144 396.56 391.076 397.484 386.82 398.044C386.736 397.54 386.428 396.812 386.176 396.364C390.32 395.776 395.192 394.824 397.824 393.648ZM392.168 402.832L393.68 403.448C392.252 407.704 389.508 412.716 386.904 415.376C386.652 414.76 386.12 413.92 385.756 413.388C388.22 411.036 390.936 406.584 392.168 402.832ZM394.044 405.716C395.108 406.472 398.72 409.608 399.616 410.392L398.384 412.156C397.236 410.868 394.184 407.928 392.896 406.836L394.044 405.716ZM414.232 415.572H439.712V417.616H414.232V415.572ZM422.296 396.112H424.536V416.86H422.296V396.112ZM429.044 396.112H431.284V416.944H429.044V396.112ZM436.408 401.264L438.452 401.964C437.192 405.128 435.456 408.768 434.056 411.232L432.18 410.532C433.608 408.068 435.428 404.176 436.408 401.264ZM415.324 401.908L417.144 401.236C418.628 404.232 420.308 408.18 421.092 410.56L419.076 411.372C418.404 408.992 416.752 404.96 415.324 401.908ZM415.016 395.16H439.068V397.26H415.016V395.16Z" fill="black"/>
<path d="M339.096 476.268H357.1V478.256H339.096V476.268ZM340.524 469.072H355.784V471.088H340.524V469.072ZM346.936 464.508H349.092V477.696H346.936V464.508ZM339.124 486.824C342.932 486.656 349.036 486.32 354.832 485.984V487.888C349.26 488.308 343.408 488.7 339.432 488.952L339.124 486.824ZM350.408 482.036L352.2 481.112C354.328 483.604 356.652 486.936 357.576 489.204L355.616 490.296C354.748 488.084 352.508 484.584 350.408 482.036ZM345.06 477.584L347.328 478.228C346.096 481.476 344.416 485.48 343.016 488.028L341.168 487.384C342.54 484.78 344.192 480.58 345.06 477.584ZM333.048 466.244L334.224 464.676C336.128 465.376 338.536 466.58 339.74 467.56L338.536 469.324C337.36 468.316 335.008 467 333.048 466.244ZM331.564 473.972L332.656 472.348C334.56 472.964 337.024 474.056 338.284 474.952L337.136 476.716C335.932 475.82 333.524 474.644 331.564 473.972ZM332.544 488.532C333.972 486.376 336.072 482.68 337.612 479.516L339.18 480.832C337.78 483.8 335.932 487.3 334.364 489.904L332.544 488.532ZM365.276 470.108H379.64V471.984H365.276V470.108ZM366.06 475.96H378.968V477.808H366.06V475.96ZM364.856 482.54H380.256V484.332H364.856V482.54ZM371.352 470.696H373.312V483.492H371.352V470.696ZM375.076 479.04L376.42 478.284C377.484 479.208 378.716 480.496 379.276 481.364L377.848 482.232C377.288 481.364 376.084 479.992 375.076 479.04ZM360.88 465.768H384.092V490.268H381.852V467.7H363.008V490.268H360.88V465.768ZM362.028 486.908H382.888V488.84H362.028V486.908Z" fill="black"/>
<path d="M344.94 556.732H352.556V558.776H344.94V556.732ZM329.484 540.8H340.236V542.844H329.484V540.8ZM343.988 538.98H353.564V560.624H351.436V540.996H346.032V560.82H343.988V538.98ZM339.676 540.8H341.72C341.72 540.8 341.72 541.584 341.72 541.864C341.496 554.324 341.3 558.412 340.404 559.644C339.9 560.372 339.396 560.624 338.556 560.708C337.772 560.82 336.484 560.82 335.224 560.736C335.196 560.12 334.972 559.196 334.608 558.608C335.924 558.72 337.128 558.72 337.66 558.72C338.08 558.748 338.332 558.664 338.584 558.3C339.228 557.432 339.48 553.288 339.676 541.304V540.8ZM333.46 535.872H335.504C335.476 546.204 335.336 555.92 330.408 561.268C330.044 560.792 329.316 560.148 328.784 559.84C333.46 554.912 333.432 545.672 333.46 535.872ZM359.248 552.448H380.836V553.988H359.248V552.448ZM357.288 555.584H382.712V557.152H357.288V555.584ZM368.936 549.704H371.036V559.14C371.036 560.26 370.728 560.708 369.86 560.988C368.992 561.268 367.592 561.268 365.296 561.268C365.212 560.764 364.876 560.092 364.624 559.588C366.276 559.644 367.9 559.644 368.348 559.616C368.796 559.588 368.936 559.476 368.936 559.112V549.704ZM378.008 548.5L379.492 549.76C374.592 550.628 366.724 550.992 360.2 551.048C360.172 550.656 359.976 550.012 359.78 549.648C366.164 549.592 373.948 549.228 378.008 548.5ZM369.832 537.076C367.256 539.204 362.636 541.444 358.072 542.76C357.848 542.284 357.4 541.528 357.036 541.108C361.684 539.904 366.332 537.748 368.74 535.536H370.672C373.892 538.028 378.68 539.904 382.936 540.828C382.516 541.276 382.04 542.032 381.788 542.564C377.756 541.556 372.744 539.372 369.832 537.076ZM363.7 540.408H376.412V541.808H363.7V540.408ZM363.504 544.552V546.652H376.3V544.552H363.504ZM361.544 543.152H378.372V548.024H361.544V543.152ZM385.736 543.544H410.348V545.672H385.736V543.544ZM399.372 544.384C401.192 551.16 405 556.816 410.824 559.224C410.292 559.7 409.592 560.596 409.228 561.184C403.18 558.328 399.372 552.42 397.272 544.888L399.372 544.384ZM396.908 535.508H399.176C399.064 542.844 399.008 555.612 386.772 561.212C386.436 560.652 385.764 559.896 385.176 559.476C397.076 554.296 396.852 542.228 396.908 535.508Z" fill="black"/>
<path d="M330.688 611.492H353.256V624.68H351.072V613.564H332.788V624.82H330.688V611.492ZM331.808 621.012H352.332V623.056H331.808V621.012ZM340.824 606.48H343.008V632.212H340.824V606.48ZM362.776 612.108H377.14V613.984H362.776V612.108ZM363.56 617.96H376.468V619.808H363.56V617.96ZM362.356 624.54H377.756V626.332H362.356V624.54ZM368.852 612.696H370.812V625.492H368.852V612.696ZM372.576 621.04L373.92 620.284C374.984 621.208 376.216 622.496 376.776 623.364L375.348 624.232C374.788 623.364 373.584 621.992 372.576 621.04ZM358.38 607.768H381.592V632.268H379.352V609.7H360.508V632.268H358.38V607.768ZM359.528 628.908H380.388V630.84H359.528V628.908Z" fill="black"/>
<path d="M335.196 693.804H348.916V691.9H335.196V693.804ZM335.196 690.5H348.916V688.652H335.196V690.5ZM351.016 687.196V695.232H333.18V687.196H351.016ZM348.692 681.288C348.076 682.464 347.46 683.556 346.928 684.396L345.052 683.892C345.556 683.024 346.2 681.708 346.536 680.812L348.692 681.288ZM337.408 680.84C337.996 681.792 338.556 683.052 338.752 683.864L336.764 684.396C336.568 683.5 336.064 682.24 335.504 681.288L337.408 680.84ZM343.008 677.48V680.532H340.88V677.48H343.008ZM354.096 684.088V685.796H330.016V684.088H354.096ZM352.64 679.356V681.064H331.276V679.356H352.64ZM334.888 697.304C334.104 699.32 332.872 701.392 330.8 702.624L329.176 701.504C331.108 700.412 332.424 698.508 333.152 696.632L334.888 697.304ZM349.868 696.408C351.772 697.808 353.928 699.852 354.88 701.364L353.172 702.428C352.248 700.944 350.176 698.816 348.272 697.36L349.868 696.408ZM340.46 695.204C342.028 696.016 344.044 697.248 345.08 698.144L343.848 699.404C342.84 698.508 340.88 697.192 339.284 696.324L340.46 695.204ZM338.36 700.468C338.36 701.112 338.612 701.224 340.068 701.224C340.74 701.224 344.128 701.224 345.024 701.224C346.228 701.224 346.396 700.888 346.536 698.424C346.984 698.704 347.824 698.984 348.356 699.124C348.132 702.26 347.488 703.016 345.22 703.016C344.604 703.016 340.516 703.016 339.928 703.016C337.044 703.016 336.316 702.484 336.316 700.468V696.856H338.36V700.468ZM357.736 685.544H382.348V687.672H357.736V685.544ZM371.372 686.384C373.192 693.16 377 698.816 382.824 701.224C382.292 701.7 381.592 702.596 381.228 703.184C375.18 700.328 371.372 694.42 369.272 686.888L371.372 686.384ZM368.908 677.508H371.176C371.064 684.844 371.008 697.612 358.772 703.212C358.436 702.652 357.764 701.896 357.176 701.476C369.076 696.296 368.852 684.228 368.908 677.508ZM385.372 685.936H398.7V687.896H385.372V685.936ZM400.576 680.812H402.62V696.296H400.576V680.812ZM391.252 679.86H393.324V703.212H391.252V679.86ZM407.464 678.012H409.536V700.44C409.536 701.896 409.172 702.54 408.276 702.876C407.352 703.24 405.784 703.296 403.208 703.268C403.096 702.68 402.76 701.756 402.424 701.14C404.44 701.196 406.176 701.196 406.708 701.168C407.24 701.168 407.464 701 407.464 700.468V678.012ZM396.824 677.648L398.392 679.272C395.144 680.56 390.076 681.484 385.82 682.044C385.736 681.54 385.428 680.812 385.176 680.364C389.32 679.776 394.192 678.824 396.824 677.648ZM391.168 686.832L392.68 687.448C391.252 691.704 388.508 696.716 385.904 699.376C385.652 698.76 385.12 697.92 384.756 697.388C387.22 695.036 389.936 690.584 391.168 686.832ZM393.044 689.716C394.108 690.472 397.72 693.608 398.616 694.392L397.384 696.156C396.236 694.868 393.184 691.928 391.896 690.836L393.044 689.716Z" fill="black"/>
<path d="M566.648 483.824V481.795L575.597 467.636H577.069V470.778H576.074L569.313 481.477V481.636H581.364V483.824H566.648ZM576.233 488V483.207V482.263V467.636H578.58V488H576.233Z" fill="black"/>
<path d="M120.631 417V415.21L127.353 407.852C128.142 406.991 128.791 406.241 129.302 405.605C129.812 404.962 130.19 404.359 130.435 403.795C130.687 403.225 130.813 402.629 130.813 402.006C130.813 401.29 130.641 400.67 130.296 400.146C129.958 399.623 129.494 399.218 128.904 398.933C128.314 398.648 127.651 398.506 126.915 398.506C126.133 398.506 125.451 398.668 124.867 398.993C124.29 399.311 123.843 399.759 123.525 400.335C123.213 400.912 123.058 401.588 123.058 402.364H120.711C120.711 401.17 120.986 400.123 121.536 399.222C122.086 398.32 122.835 397.617 123.783 397.114C124.738 396.61 125.808 396.358 126.995 396.358C128.188 396.358 129.246 396.61 130.167 397.114C131.088 397.617 131.811 398.297 132.335 399.152C132.858 400.007 133.12 400.958 133.12 402.006C133.12 402.755 132.984 403.487 132.712 404.203C132.447 404.912 131.983 405.705 131.32 406.58C130.664 407.448 129.753 408.509 128.586 409.761L124.012 414.653V414.812H133.478V417H120.631Z" fill="black"/>
<path d="M127.075 488.278C125.762 488.278 124.592 488.053 123.565 487.602C122.544 487.152 121.732 486.525 121.129 485.723C120.532 484.914 120.207 483.976 120.154 482.909H122.66C122.713 483.565 122.938 484.132 123.336 484.609C123.734 485.08 124.254 485.445 124.897 485.703C125.54 485.962 126.253 486.091 127.035 486.091C127.91 486.091 128.685 485.938 129.362 485.634C130.038 485.329 130.568 484.904 130.952 484.361C131.337 483.817 131.529 483.188 131.529 482.472C131.529 481.723 131.344 481.063 130.972 480.493C130.601 479.916 130.058 479.465 129.342 479.141C128.626 478.816 127.751 478.653 126.717 478.653H125.086V476.466H126.717C127.525 476.466 128.235 476.32 128.844 476.028C129.461 475.737 129.942 475.326 130.286 474.795C130.638 474.265 130.813 473.642 130.813 472.926C130.813 472.237 130.661 471.637 130.356 471.126C130.051 470.616 129.62 470.218 129.063 469.933C128.513 469.648 127.863 469.506 127.114 469.506C126.412 469.506 125.749 469.635 125.126 469.893C124.509 470.145 124.005 470.513 123.614 470.997C123.223 471.474 123.011 472.051 122.978 472.727H120.592C120.631 471.66 120.953 470.725 121.556 469.923C122.159 469.115 122.948 468.485 123.923 468.034C124.904 467.583 125.981 467.358 127.154 467.358C128.414 467.358 129.494 467.613 130.396 468.124C131.297 468.627 131.99 469.294 132.474 470.122C132.958 470.951 133.2 471.846 133.2 472.807C133.2 473.954 132.898 474.931 132.295 475.74C131.698 476.549 130.886 477.109 129.859 477.42V477.58C131.145 477.792 132.149 478.339 132.871 479.22C133.594 480.095 133.955 481.179 133.955 482.472C133.955 483.579 133.654 484.573 133.05 485.455C132.454 486.33 131.638 487.019 130.604 487.523C129.57 488.027 128.394 488.278 127.075 488.278Z" fill="black"/>
<path d="M119.648 554.824V552.795L128.597 538.636H130.069V541.778H129.074L122.313 552.477V552.636H134.364V554.824H119.648ZM129.233 559V554.207V553.263V538.636H131.58V559H129.233Z" fill="black"/>
<path d="M126.954 630.278C125.787 630.278 124.737 630.046 123.802 629.582C122.867 629.118 122.118 628.482 121.555 627.673C120.991 626.865 120.683 625.943 120.63 624.909H123.017C123.109 625.83 123.527 626.593 124.269 627.196C125.018 627.793 125.913 628.091 126.954 628.091C127.789 628.091 128.532 627.895 129.181 627.504C129.838 627.113 130.351 626.576 130.722 625.893C131.1 625.204 131.289 624.425 131.289 623.557C131.289 622.669 131.094 621.876 130.703 621.18C130.318 620.478 129.788 619.924 129.112 619.52C128.436 619.116 127.663 618.91 126.795 618.903C126.172 618.897 125.532 618.993 124.876 619.192C124.22 619.384 123.679 619.633 123.255 619.938L120.948 619.659L122.181 609.636H132.761V611.824H124.249L123.534 617.83H123.653C124.07 617.498 124.594 617.223 125.224 617.004C125.854 616.786 126.51 616.676 127.193 616.676C128.439 616.676 129.549 616.974 130.524 617.571C131.505 618.161 132.274 618.97 132.83 619.997C133.394 621.025 133.676 622.198 133.676 623.517C133.676 624.816 133.384 625.976 132.801 626.997C132.224 628.011 131.428 628.813 130.414 629.403C129.4 629.987 128.247 630.278 126.954 630.278Z" fill="black"/>
<path d="M127.133 701.278C126.298 701.265 125.463 701.106 124.627 700.801C123.792 700.496 123.03 699.982 122.34 699.26C121.651 698.531 121.097 697.546 120.68 696.307C120.262 695.061 120.053 693.496 120.053 691.614C120.053 689.811 120.222 688.213 120.561 686.821C120.899 685.422 121.389 684.246 122.032 683.291C122.675 682.33 123.451 681.601 124.359 681.104C125.274 680.607 126.304 680.358 127.451 680.358C128.591 680.358 129.606 680.587 130.494 681.044C131.389 681.495 132.118 682.125 132.681 682.933C133.245 683.742 133.609 684.673 133.775 685.727H131.349C131.124 684.812 130.686 684.054 130.036 683.45C129.387 682.847 128.525 682.545 127.451 682.545C125.874 682.545 124.631 683.232 123.722 684.604C122.821 685.976 122.367 687.902 122.36 690.381H122.519C122.891 689.817 123.331 689.337 123.842 688.939C124.359 688.535 124.929 688.223 125.552 688.004C126.175 687.786 126.835 687.676 127.531 687.676C128.697 687.676 129.765 687.968 130.732 688.551C131.7 689.128 132.476 689.927 133.059 690.947C133.642 691.962 133.934 693.125 133.934 694.438C133.934 695.697 133.652 696.85 133.089 697.898C132.526 698.938 131.733 699.767 130.713 700.384C129.698 700.993 128.505 701.292 127.133 701.278ZM127.133 699.091C127.968 699.091 128.717 698.882 129.38 698.464C130.05 698.047 130.577 697.487 130.961 696.784C131.352 696.081 131.548 695.299 131.548 694.438C131.548 693.596 131.359 692.83 130.981 692.141C130.61 691.445 130.096 690.891 129.44 690.48C128.79 690.069 128.048 689.864 127.213 689.864C126.583 689.864 125.996 689.99 125.453 690.241C124.909 690.487 124.432 690.825 124.021 691.256C123.616 691.687 123.298 692.18 123.066 692.737C122.834 693.287 122.718 693.867 122.718 694.477C122.718 695.286 122.907 696.042 123.285 696.744C123.669 697.447 124.193 698.014 124.856 698.445C125.526 698.875 126.285 699.091 127.133 699.091Z" fill="black"/>
<path d="M568.746 417L577.854 398.983V398.824H567.354V396.636H580.4V398.943L571.331 417H568.746Z" fill="black"/>
<path d="M718.759 467.636V488H716.293V470.222H716.174L711.202 473.523V471.017L716.293 467.636H718.759Z" fill="black"/>
<path d="M718.075 630.278C716.762 630.278 715.592 630.053 714.565 629.602C713.544 629.152 712.732 628.525 712.129 627.723C711.532 626.914 711.207 625.976 711.154 624.909H713.66C713.713 625.565 713.938 626.132 714.336 626.609C714.734 627.08 715.254 627.445 715.897 627.703C716.54 627.962 717.253 628.091 718.035 628.091C718.91 628.091 719.685 627.938 720.362 627.634C721.038 627.329 721.568 626.904 721.952 626.361C722.337 625.817 722.529 625.188 722.529 624.472C722.529 623.723 722.344 623.063 721.972 622.493C721.601 621.916 721.058 621.465 720.342 621.141C719.626 620.816 718.751 620.653 717.717 620.653H716.086V618.466H717.717C718.525 618.466 719.235 618.32 719.844 618.028C720.461 617.737 720.942 617.326 721.286 616.795C721.638 616.265 721.813 615.642 721.813 614.926C721.813 614.237 721.661 613.637 721.356 613.126C721.051 612.616 720.62 612.218 720.063 611.933C719.513 611.648 718.863 611.506 718.114 611.506C717.412 611.506 716.749 611.635 716.126 611.893C715.509 612.145 715.005 612.513 714.614 612.997C714.223 613.474 714.011 614.051 713.978 614.727H711.592C711.631 613.66 711.953 612.725 712.556 611.923C713.159 611.115 713.948 610.485 714.923 610.034C715.904 609.583 716.981 609.358 718.154 609.358C719.414 609.358 720.494 609.613 721.396 610.124C722.297 610.627 722.99 611.294 723.474 612.122C723.958 612.951 724.2 613.846 724.2 614.807C724.2 615.954 723.898 616.931 723.295 617.74C722.698 618.549 721.886 619.109 720.859 619.42V619.58C722.145 619.792 723.149 620.339 723.871 621.22C724.594 622.095 724.955 623.179 724.955 624.472C724.955 625.579 724.654 626.573 724.05 627.455C723.454 628.33 722.638 629.019 721.604 629.523C720.57 630.027 719.394 630.278 718.075 630.278Z" fill="black"/>
<path d="M720.759 680.636V701H718.293V683.222H718.174L713.202 686.523V684.017L718.293 680.636H720.759Z" fill="black"/>
<path d="M852.131 488V486.21L858.853 478.852C859.642 477.991 860.291 477.241 860.802 476.605C861.312 475.962 861.69 475.359 861.935 474.795C862.187 474.225 862.313 473.629 862.313 473.006C862.313 472.29 862.141 471.67 861.796 471.146C861.458 470.623 860.994 470.218 860.404 469.933C859.814 469.648 859.151 469.506 858.415 469.506C857.633 469.506 856.951 469.668 856.367 469.993C855.79 470.311 855.343 470.759 855.025 471.335C854.713 471.912 854.558 472.588 854.558 473.364H852.211C852.211 472.17 852.486 471.123 853.036 470.222C853.586 469.32 854.335 468.617 855.283 468.114C856.238 467.61 857.308 467.358 858.495 467.358C859.688 467.358 860.746 467.61 861.667 468.114C862.588 468.617 863.311 469.297 863.835 470.152C864.358 471.007 864.62 471.958 864.62 473.006C864.62 473.755 864.484 474.487 864.212 475.203C863.947 475.912 863.483 476.705 862.82 477.58C862.164 478.448 861.253 479.509 860.086 480.761L855.512 485.653V485.812H864.978V488H852.131Z" fill="black"/>
<path d="M853.746 630L862.854 611.983V611.824H852.354V609.636H865.4V611.943L856.331 630H853.746Z" fill="black"/>
<path d="M853.131 701V699.21L859.853 691.852C860.642 690.991 861.291 690.241 861.802 689.605C862.312 688.962 862.69 688.359 862.935 687.795C863.187 687.225 863.313 686.629 863.313 686.006C863.313 685.29 863.141 684.67 862.796 684.146C862.458 683.623 861.994 683.218 861.404 682.933C860.814 682.648 860.151 682.506 859.415 682.506C858.633 682.506 857.951 682.668 857.367 682.993C856.79 683.311 856.343 683.759 856.025 684.335C855.713 684.912 855.558 685.588 855.558 686.364H853.211C853.211 685.17 853.486 684.123 854.036 683.222C854.586 682.32 855.335 681.617 856.283 681.114C857.238 680.61 858.308 680.358 859.495 680.358C860.688 680.358 861.746 680.61 862.667 681.114C863.588 681.617 864.311 682.297 864.835 683.152C865.358 684.007 865.62 684.958 865.62 686.006C865.62 686.755 865.484 687.487 865.212 688.203C864.947 688.912 864.483 689.705 863.82 690.58C863.164 691.448 862.253 692.509 861.086 693.761L856.512 698.653V698.812H865.978V701H853.131Z" fill="black"/>
</g>
<path d="M41.0166 301.528H933.251V676.821C933.251 703.883 911.313 725.821 884.251 725.821H90.0166C62.9547 725.821 41.0166 703.883 41.0166 676.821V301.528Z" stroke="#3686FF" stroke-width="2"/>
<path d="M40.0166 263.963C40.0166 236.349 62.4024 213.963 90.0166 213.963H884.251C911.865 213.963 934.251 236.349 934.251 263.963V300.528H40.0166V263.963Z" fill="#3686FF"/>
<path d="M110.692 268.144H125.028V271.632H110.692V268.144ZM109.092 245.968H120.42V249.36H109.092V245.968ZM109.924 242.64L114.244 243.504C111.524 248.176 107.684 252.464 101.924 255.92C101.38 254.96 100.1 253.552 99.236 252.88C104.516 250.096 108.068 246.192 109.924 242.64ZM119.204 245.968H119.94L120.58 245.776L123.236 247.184C119.492 257.136 110.948 263.664 101.412 266.864C100.932 265.808 99.972 264.24 99.172 263.44C108.004 260.88 116.26 254.672 119.204 246.608V245.968ZM104.9 253.008L107.748 250.512C109.956 252.08 112.868 254.352 114.276 256.016L111.172 258.8C109.956 257.136 107.108 254.672 104.9 253.008ZM123.236 258.384H127.236V272.912H123.236V258.384ZM112.324 258.384H125.156V261.872H112.324V272.848H108.484V261.232L111.396 258.384H112.324ZM144.1 242.96L148.1 243.664C146.852 249.36 144.676 254.704 142.052 258.096C141.252 257.488 139.428 256.464 138.404 256.016C141.156 253.04 143.108 248.048 144.1 242.96ZM150.02 251.952H152.004V255.472C152.004 258.96 153.924 265.936 161.828 269.392C161.092 270.32 159.94 271.92 159.332 272.88C153.604 270.256 150.596 264.592 149.988 261.712C149.22 264.592 145.956 270.064 139.46 272.88C139.012 271.984 137.796 270.352 137.124 269.648C145.796 266.192 147.94 259.12 147.94 255.472V251.952H150.02ZM131.364 265.072C133.156 263.344 136.036 260.4 138.692 257.488L140.868 260.784C138.66 263.376 136.036 266.192 133.828 268.368L131.364 265.072ZM132.292 247.632L135.012 244.816C136.932 246.064 139.524 247.984 140.772 249.36L137.86 252.528C136.74 251.12 134.244 249.04 132.292 247.632ZM145.476 248.368H158.596V252.176H143.588L145.476 248.368ZM157.316 248.368H157.892L158.628 248.144L161.476 249.808C160.548 253.04 159.012 256.368 157.764 258.64C156.964 258.224 155.428 257.424 154.5 257.072C155.524 255.12 156.836 251.728 157.316 249.2V248.368Z" fill="white"/>
<path d="M573.838 246.48C571.182 250.224 566.286 254.416 561.038 257.2C560.558 256.304 559.47 254.896 558.638 254.096C564.142 251.408 569.294 246.608 571.662 242.736H575.662C579.118 247.6 584.27 251.632 589.358 253.712C588.43 254.672 587.534 255.984 586.83 257.168C581.934 254.576 576.59 250.256 573.838 246.48ZM565.806 252.432H581.934V255.792H565.806V252.432ZM561.998 258.96H585.71V262.256H561.998V258.96ZM560.366 268.688H587.566V271.984H560.366V268.688ZM571.726 253.776H575.822V270.32H571.726V253.776ZM563.982 263.472L567.086 262.192C568.302 263.824 569.582 266.032 570.062 267.536L566.734 268.976C566.318 267.504 565.134 265.168 563.982 263.472ZM580.27 262.224L583.918 263.6C582.606 265.552 581.198 267.632 580.078 268.976L577.198 267.792C578.222 266.288 579.566 263.952 580.27 262.224Z" fill="white"/>
<path d="M716.702 244.112H729.086V258.832H716.702V255.536H725.598V247.408H716.702V244.112ZM716.67 249.904H727.038V253.008H716.67V249.904ZM722.91 256.912C724.094 262.576 726.654 267.312 731.166 269.456C730.366 270.192 729.278 271.728 728.734 272.752C723.87 269.936 721.374 264.464 719.998 257.488L722.91 256.912ZM728.318 259.184L730.686 261.904C728.99 263.28 726.942 264.816 725.374 265.744L723.486 263.376C724.926 262.384 727.102 260.56 728.318 259.184ZM714.974 272.976L714.654 269.648L716.19 268.432L723.07 266.928C723.038 268.016 723.102 269.584 723.23 270.416C716.958 272.016 715.742 272.464 714.974 272.976ZM714.974 272.976C714.718 272.112 713.886 270.608 713.342 269.968C714.014 269.552 714.814 268.656 714.814 267.184V244.112H718.59V269.488C718.59 269.488 714.974 271.6 714.974 272.976ZM705.438 242.896L708.83 243.92C707.486 247.664 705.214 251.536 702.654 253.968C702.366 253.136 701.438 251.12 700.862 250.224C702.782 248.432 704.478 245.744 705.438 242.896ZM705.566 245.936H713.022V249.584H704.83L705.566 245.936ZM703.806 251.92H712.798V255.344H703.806V251.92ZM701.886 258.48H713.47V261.904H701.886V258.48ZM705.726 272.88L705.15 269.616L706.302 268.4L713.15 265.328C713.214 266.32 713.438 267.856 713.662 268.656C707.518 271.664 706.398 272.272 705.726 272.88ZM705.726 272.88C705.534 272.016 704.798 270.48 704.254 269.744C704.926 269.392 705.79 268.624 705.79 267.28V252.88H709.438V269.776C709.438 269.776 705.726 271.632 705.726 272.88Z" fill="white"/>
<path d="M854.854 244.048H868.422V247.504H858.022V272.88H854.854V244.048ZM867.814 244.048H871.014V268.88C871.014 270.608 870.726 271.632 869.702 272.24C868.646 272.784 867.11 272.88 864.902 272.88C864.838 271.952 864.358 270.32 863.91 269.392C865.286 269.488 866.758 269.456 867.238 269.456C867.654 269.456 867.814 269.296 867.814 268.848V244.048ZM859.302 249.872H866.534V253.008H859.302V249.872ZM859.558 255.408H861.83V267.024H859.558V255.408ZM860.998 255.408H866.31V265.36H860.998V262.448H863.942V258.352H860.998V255.408ZM846.15 242.896L849.51 243.92C848.198 247.664 845.958 251.536 843.43 253.968C843.174 253.136 842.246 251.12 841.638 250.192C843.558 248.432 845.222 245.744 846.15 242.896ZM845.99 245.744H854.054V249.264H845.35L845.99 245.744ZM846.342 272.88L845.638 269.52L846.63 268.304L853.286 264.496C853.414 265.52 853.83 267.056 854.118 267.824C848.07 271.504 846.95 272.208 846.342 272.88ZM844.262 251.92H853.734V255.344H844.262V251.92ZM842.406 258.48H853.862V261.904H842.406V258.48ZM846.342 272.88C846.054 272.112 845.222 270.736 844.646 270.16C845.35 269.68 846.374 268.592 846.374 267.024V252.592H849.926V269.2C849.926 269.2 846.342 271.6 846.342 272.88Z" fill="white"/>
<path d="M296.202 249.328H311.978V252.688H296.202V249.328ZM297.034 255.728H311.306V258.96H297.034V255.728ZM295.85 262.768H312.522V265.904H295.85V262.768ZM302.282 250.384H305.834V264.432H302.282V250.384ZM306.858 259.984L309.29 258.704C310.25 259.632 311.402 260.976 311.946 261.84L309.386 263.28C308.874 262.384 307.786 260.976 306.858 259.984ZM290.698 244.08H317.738V272.848H313.61V247.6H294.602V272.848H290.698V244.08ZM292.81 267.728H315.498V271.248H292.81V267.728ZM334.25 242.864H338.186V247.44H334.25V242.864ZM322.698 245.36H349.93V252.592H346.026V248.848H326.442V252.592H322.698V245.36ZM327.562 250.896H344.842V254.16H327.562V250.896ZM330.698 256.592L333.642 254.864C341.194 260.112 341.13 269.136 337.706 271.6C336.49 272.656 335.466 272.944 333.77 272.944C332.97 272.976 332.01 272.944 331.05 272.88C330.986 271.824 330.634 270.288 329.962 269.2C331.146 269.328 332.202 269.36 333.034 269.36C333.834 269.36 334.442 269.264 334.986 268.688C336.81 267.28 336.81 260.944 330.698 256.592ZM335.754 251.728L338.922 253.04C335.53 256.496 329.706 258.96 324.362 260.368C324.01 259.632 323.018 258.096 322.41 257.392C327.498 256.368 332.97 254.384 335.754 251.728ZM333.258 258.096L335.722 259.824C333.066 261.872 328.362 264.24 324.778 265.488C324.362 264.656 323.562 263.344 322.858 262.576C326.346 261.744 330.986 259.824 333.258 258.096ZM335.85 261.136L338.474 263.088C335.05 266.352 328.81 269.744 323.722 271.44C323.274 270.48 322.442 269.104 321.706 268.272C326.762 267.024 332.874 264.016 335.85 261.136ZM340.714 252.272C342.25 258.992 345.546 264.72 351.21 267.248C350.346 268.016 349.13 269.552 348.554 270.608C342.506 267.376 339.306 260.976 337.482 252.912L340.714 252.272ZM346.954 254.352L349.962 256.944C347.754 258.608 344.97 260.4 342.89 261.456L340.426 259.152C342.442 258 345.29 255.952 346.954 254.352ZM364.334 245.636L356.834 273.5H352.663L360.163 245.636H364.334ZM384.478 242.832H388.094V265.424H384.478V242.832ZM375.006 255.696L391.582 248.656L392.99 251.92L376.446 259.088L375.006 255.696ZM378.174 245.936H381.822V266.672C381.822 268.56 382.11 268.816 384.094 268.816C385.054 268.816 389.31 268.816 390.302 268.816C392.062 268.816 392.382 268.112 392.638 264.816C393.47 265.392 394.974 266 395.998 266.192C395.518 270.736 394.366 272.24 390.622 272.24C389.566 272.24 384.766 272.24 383.774 272.24C379.39 272.24 378.174 271.088 378.174 266.64V245.936ZM390.846 249.072H390.622L391.294 248.592L391.966 248.112L394.654 249.072L394.494 249.712C394.494 255.824 394.43 259.696 394.302 261.008C394.174 262.48 393.63 263.248 392.638 263.664C391.71 264.112 390.334 264.112 389.31 264.112C389.182 263.152 388.894 261.712 388.478 260.912C389.022 260.944 389.758 260.944 390.046 260.944C390.43 260.944 390.622 260.848 390.718 260.272C390.846 259.632 390.846 256.144 390.846 249.072ZM365.822 250.256H376.382V253.872H365.822V250.256ZM369.534 243.28H373.118V264.496H369.534V243.28ZM365.374 264.528C368.03 263.568 372.19 261.84 376.094 260.176L376.958 263.568C373.566 265.296 369.886 267.024 366.91 268.368L365.374 264.528ZM418.558 248.656L422.366 249.936C418.782 257.008 413.182 263.184 407.294 267.024C406.654 266.224 405.15 264.72 404.286 264.016C410.238 260.688 415.486 255.024 418.558 248.656ZM405.47 253.104L408.158 250.64C413.662 254.064 420.51 259.248 423.71 263.216L420.67 266.128C417.726 262.224 411.102 256.72 405.47 253.104ZM399.294 244.528H426.686V248.208H403.134V272.912H399.294V244.528ZM401.662 267.696H427.486V271.376H401.662V267.696Z" fill="white"/>
<line x1="214.963" y1="213.963" x2="214.963" y2="300.528" stroke="white" stroke-width="2"/>
<line x1="504.875" y1="213.963" x2="504.875" y2="300.528" stroke="white" stroke-width="2"/>
<line x1="645.34" y1="213.963" x2="645.34" y2="300.528" stroke="white" stroke-width="2"/>
<line x1="787.438" y1="213.963" x2="787.438" y2="300.528" stroke="white" stroke-width="2"/>
<defs>
<linearGradient id="paint0_linear_739_1386" x1="0" y1="183.43" x2="971" y2="183.43" gradientUnits="userSpaceOnUse">
<stop stop-color="#FF6A00" stop-opacity="0"/>
<stop offset="0.51" stop-color="#FF6A00"/>
<stop offset="1" stop-color="#FF6A00" stop-opacity="0"/>
</linearGradient>
<clipPath id="clip0_739_1386">
<path d="M40.0166 300.528H934.251V676.821C934.251 704.435 911.866 726.821 884.251 726.821H90.0166C62.4024 726.821 40.0166 704.435 40.0166 676.821V300.528Z" fill="white"/>
</clipPath>
</defs>
</svg>
