<svg width="355" height="174" viewBox="0 0 355 174" fill="none" xmlns="http://www.w3.org/2000/svg">
<rect width="355" height="174" rx="30" fill="#004793"/>
<path d="M178.256 79.892H199.496V83.888H178.256V79.892ZM198.884 79.892H199.568L200.432 79.748L203.492 82.088C203.312 82.232 202.988 82.484 202.592 82.628C184.592 91.556 183.296 93.284 183.296 94.58C183.296 95.624 184.556 96.056 186.68 96.056H200.468C202.304 96.056 203.096 95.408 203.276 90.836C204.464 91.52 205.976 91.988 207.308 92.24C206.768 98.9 204.896 100.232 200.036 100.232H187.004C181.496 100.232 178.904 98.216 178.868 94.976C178.868 92.204 179.768 89.684 198.884 79.892ZM174.764 70.928H207.092V75.104H174.764V70.928ZM182.396 67.436H186.86V77.804H182.396V67.436ZM195.104 67.436H199.532V77.804H195.104V67.436ZM230.492 79.136C233.444 84.428 239.096 90.26 244.208 93.464C243.092 94.364 241.544 96.128 240.716 97.352C235.604 93.5 230.276 86.912 226.928 80.54L230.492 79.136ZM224.192 79.244L228.08 80.648C224.696 87.704 219.224 94.04 213.068 97.64C212.276 96.488 210.8 94.724 209.756 93.824C215.732 90.872 221.348 85.076 224.192 79.244ZM211.196 76.292H242.696V80.54H211.196V76.292ZM224.696 67.472H229.484V101.276H224.696V67.472ZM230.78 70.388L233.984 67.76C235.928 69.236 238.736 71.396 240.104 72.836L236.756 75.824C235.496 74.348 232.796 72.008 230.78 70.388ZM252.956 67.58L257.024 68.804C254.9 74.924 251.48 81.44 247.808 85.58C247.412 84.572 246.224 82.16 245.468 81.116C248.492 77.804 251.3 72.692 252.956 67.58ZM250.04 77.516L254.108 73.412L254.144 73.448V101.204H250.04V77.516ZM265.376 67.616H269.588V100.988H265.376V67.616ZM256.232 73.844H279.56V77.948H256.232V73.844ZM260.624 91.304H274.412V95.156H260.624V91.304ZM271.1 76.148C273.008 82.268 276.644 88.784 280.532 92.456C279.524 93.212 278.084 94.688 277.328 95.84C273.368 91.52 270.02 84.14 268.04 77.048L271.1 76.148ZM264.044 75.824L267.14 76.688C265.088 84.14 261.668 91.556 257.384 95.948C256.7 94.904 255.26 93.392 254.324 92.672C258.428 89 262.136 82.232 264.044 75.824ZM281.864 85.832C284.564 85.148 288.632 83.852 292.52 82.592L293.168 86.408C289.676 87.668 285.896 89 282.836 90.008L281.864 85.832ZM282.332 74.276H292.88V78.236H282.332V74.276ZM285.86 67.436H289.892V96.488C289.892 98.36 289.604 99.404 288.56 100.052C287.516 100.7 286.148 100.844 284.096 100.844C283.988 99.8 283.52 98.108 283.016 96.992C284.024 97.028 285.032 97.028 285.356 97.028C285.752 97.028 285.86 96.884 285.86 96.488V67.436ZM301.016 71.792V74.132H307.532V71.792H301.016ZM297.308 68.768H311.456V77.156H297.308V68.768ZM297.272 81.332V83.996H300.26V81.332H297.272ZM294.068 78.416H303.608V86.984H294.068V78.416ZM308.36 81.332V83.996H311.456V81.332H308.36ZM305.048 78.416H314.912V86.984H305.048V78.416ZM293.6 89.144H315.488V92.636H293.6V89.144ZM302.312 86.804H306.416V101.312H302.312V86.804ZM301.88 90.872L305.228 92.132C302.672 95.948 298.244 99.152 293.564 100.736C292.988 99.728 291.764 98.18 290.9 97.388C295.364 96.2 299.684 93.752 301.88 90.872ZM307.1 91.34C308.972 93.788 312.644 96.056 316.208 97.136C315.344 97.892 314.12 99.404 313.508 100.412C309.836 98.9 306.2 95.768 304.076 92.456L307.1 91.34Z" fill="white"/>
<path d="M145.902 102.994C145.337 99.9456 142.391 97.9204 139.327 98.5013C135.592 99.2501 131.832 99.8474 128.051 100.293C132.306 93.1417 134.749 84.7914 134.749 75.8846C134.749 49.4753 113.261 28 86.8642 28C81.7909 28 76.9018 28.7937 72.3073 30.2625C71.5995 28.9165 70.188 28 68.5638 28C66.2317 28 64.3374 29.8943 64.3374 32.2263V33.6419C49.2733 41.714 39 57.6251 39 75.8805C39 96.1816 51.7035 113.578 69.5784 120.529L57.0222 137.266C56.2817 138.248 55.8889 139.427 55.8889 140.65C55.8889 143.768 58.4173 146.288 61.5267 146.288C63.3064 146.3 64.9675 145.457 66.0435 144.033L81.4595 123.454C83.2352 123.655 85.0394 123.757 86.8683 123.757C98.6921 123.757 109.522 119.453 117.884 112.33C125.789 112.027 133.656 111.103 141.405 109.56C144.457 109.004 146.479 106.058 145.902 102.994ZM129.115 75.8805C129.115 85.2619 126.042 93.9395 120.851 100.956C118.911 101.087 116.968 101.177 115.021 101.226C111.784 101.267 108.986 101.112 106.576 100.825V100.821C104.702 100.604 102.849 100.269 101.032 99.7983C101.036 99.3687 101.012 98.9391 100.963 98.5095V98.4032C100.627 95.5515 99.2076 92.9372 96.9779 91.1247C93.6271 88.3426 91.9415 84.0304 92.5183 79.7223C92.5183 78.7649 92.5429 77.9221 92.5511 77.0752C92.6165 73.2866 92.6615 70.7419 91.025 68.9089L91.0168 68.9008C90.9514 68.8312 90.8859 68.7576 90.8164 68.688L90.5586 68.4425C90.4522 68.3443 90.3418 68.2502 90.2313 68.1561C90.2231 68.1521 90.2149 68.1439 90.2108 68.1398C90.0963 68.0457 89.9817 67.9557 89.8672 67.8698L89.6831 67.7347C89.6299 67.6979 89.5767 67.657 89.5235 67.6243C89.3967 67.5384 89.2658 67.4524 89.1348 67.3747L88.7707 67.0556L72.9742 53.3456L72.8023 53.1942V36.0435C77.2046 34.4847 81.9423 33.6337 86.8723 33.6337C110.172 33.6378 129.115 52.5806 129.115 75.8805ZM64.3456 40.1553V54.753C64.3456 55.0026 64.3661 55.2522 64.4111 55.4977C64.542 56.2341 64.8693 56.9296 65.3603 57.5024L76.104 70.0463C74.5943 72.1738 73.5715 74.5877 73.0887 77.1161L59.3297 85.5851L59.3338 85.5933L48.0459 92.5403C45.8448 87.4262 44.6255 81.7966 44.6255 75.8846C44.6255 60.8573 52.5013 47.6464 64.3456 40.1553ZM52.1985 99.9988L74.1034 88.3263C75.6704 93.5672 78.4606 98.4032 82.286 102.409V102.433L74.443 114.146C74.2589 114.331 74.0829 114.539 73.9234 114.748L73.1092 115.832C64.5747 112.878 57.2718 107.273 52.1985 99.9988ZM86.3896 118.123L94.2244 110.288C97.8411 111.217 102.464 112.003 108.258 112.305C101.982 116.004 94.6704 118.127 86.8723 118.127C86.7087 118.127 86.5491 118.127 86.3896 118.123Z" fill="white"/>
<path d="M84.0615 51.9342C84.0615 57.3756 88.476 61.7901 93.9175 61.7901C99.3589 61.7901 103.773 57.3756 103.773 51.9342C103.773 46.4928 99.3589 42.0782 93.9175 42.0782C88.476 42.0823 84.0615 46.4928 84.0615 51.9342Z" fill="white"/>
</svg>
