<svg width="395" height="177" viewBox="0 0 395 177" fill="none" xmlns="http://www.w3.org/2000/svg">
<g filter="url(#filter0_d_239_919)">
<rect x="25" y="52" width="335" height="90" rx="45" fill="white"/>
</g>
<path d="M137.8 90H142.72V102.36H137.8V90ZM114.6 100.32H151.36V104.84H114.6V100.32ZM123.68 88.76H149.12V93.24H123.68V88.76ZM121.32 80.48L126.28 81.56V102.96H121.32V80.48ZM145 78.04L147.4 82.44C140.28 83.8 130.72 84.52 122.52 84.76C122.44 83.48 121.84 81.6 121.32 80.48C129.56 80.12 138.8 79.28 145 78.04ZM126.36 105.04L130.52 108.04C127.12 110.64 122.08 113.64 117.96 115.44C117.16 114.4 115.72 112.84 114.68 111.88C118.72 110.28 123.76 107.32 126.36 105.04ZM177.8 90H182.72V102.36H177.8V90ZM154.6 100.32H191.36V104.84H154.6V100.32ZM163.68 88.76H189.12V93.24H163.68V88.76ZM175.76 108.28L179.44 105.28C182.96 107.2 188.24 110.24 190.92 112.28L187 115.72C184.6 113.68 179.44 110.44 175.76 108.28ZM161.32 80.48L166.28 81.56V102.96H161.32V80.48ZM185 78.04L187.4 82.44C180.28 83.8 170.72 84.52 162.52 84.76C162.44 83.48 161.84 81.6 161.32 80.48C169.56 80.12 178.8 79.28 185 78.04ZM200 79.6H231.04V84.08H200V79.6ZM196.84 79.6H201.76V93.84C201.76 100.28 201.28 109.68 198.2 115.6C197.28 114.8 195.08 113.44 193.88 112.96C196.64 107.56 196.84 99.72 196.84 93.84V79.6ZM203.32 91.68H226.92V96.2H203.32V91.68ZM224.88 91.68H229.72C229.72 91.68 229.68 93.12 229.6 93.72C229.04 106.12 228.44 111 226.96 112.72C225.92 114.04 224.84 114.44 223.24 114.64C221.84 114.8 219.52 114.8 217.16 114.72C217.08 113.28 216.44 111.24 215.56 109.92C217.84 110.12 220.12 110.16 221.12 110.16C221.88 110.16 222.32 110.04 222.8 109.56C223.88 108.56 224.4 103.84 224.88 92.48V91.68ZM212.36 85.96H217.4C216.96 97.96 216.12 109.08 204.72 115.36C204.12 114.2 202.72 112.64 201.6 111.8C211.96 106.4 212.04 96.6 212.36 85.96ZM250.56 78.24H255.52V96.08C255.52 104.76 252.72 112.32 237.12 115.72C236.56 114.64 235.24 112.52 234.2 111.44C248.96 108.84 250.56 103.12 250.56 96.04V78.24ZM242.04 88.44V94.04H263.88V88.44H242.04ZM237.36 83.8H268.84V98.64H237.36V83.8ZM243.4 99.08C248.64 108.64 257.4 110.04 272.2 110.24C271.28 111.4 270.28 113.56 270 115.24C254.64 114.52 244.68 112.16 238.96 100.68L243.4 99.08Z" fill="#004793"/>
<path d="M166.263 8.3755C170.413 4.15122 175.796 1.3518 181.638 0.379749C187.479 -0.592301 193.478 0.313098 198.773 2.96576C204.067 5.61843 208.384 9.8817 211.103 15.1426C213.821 20.4035 214.801 26.3909 213.902 32.2441L190.476 55.8671C184.624 56.8162 178.622 55.883 173.334 53.202C168.047 50.521 163.747 46.2306 161.054 40.9491C158.362 35.6675 157.415 29.6675 158.351 23.8135C159.287 17.9595 162.058 12.5539 166.263 8.3755ZM212.134 46.8304L226.377 60.7783C226.574 60.9746 226.731 61.2079 226.838 61.465C226.945 61.7221 227 61.9978 227 62.2762C227 62.5546 226.945 62.8303 226.838 63.0874C226.731 63.3445 226.574 63.5779 226.377 63.7741L222.055 68.096C221.859 68.2935 221.625 68.4502 221.368 68.5572C221.111 68.6641 220.835 68.7192 220.557 68.7192C220.279 68.7192 220.003 68.6641 219.746 68.5572C219.489 68.4502 219.255 68.2935 219.059 68.096L205.013 54.099L195.191 54.8357L212.969 36.7624L212.134 46.8304Z" fill="#004793"/>
<path d="M170.585 62.5953C170.585 63.4144 170.424 64.2254 170.111 64.9822C169.797 65.7389 169.338 66.4265 168.759 67.0057C168.179 67.5849 167.492 68.0443 166.735 68.3578C165.978 68.6712 165.167 68.8325 164.348 68.8325C163.529 68.8325 162.718 68.6712 161.961 68.3578C161.205 68.0443 160.517 67.5849 159.938 67.0057C159.359 66.4265 158.899 65.7389 158.586 64.9822C158.272 64.2254 158.111 63.4144 158.111 62.5953C158.111 61.7762 158.272 60.9651 158.586 60.2084C158.899 59.4517 159.359 58.7641 159.938 58.1849C160.517 57.6057 161.205 57.1463 161.961 56.8328C162.718 56.5194 163.529 56.358 164.348 56.358C165.167 56.358 165.978 56.5194 166.735 56.8328C167.492 57.1463 168.179 57.6057 168.759 58.1849C169.338 58.7641 169.797 59.4517 170.111 60.2084C170.424 60.9651 170.585 61.7762 170.585 62.5953Z" fill="#004793"/>
<defs>
<filter id="filter0_d_239_919" x="0" y="27" width="395" height="150" filterUnits="userSpaceOnUse" color-interpolation-filters="sRGB">
<feFlood flood-opacity="0" result="BackgroundImageFix"/>
<feColorMatrix in="SourceAlpha" type="matrix" values="0 0 0 0 0 0 0 0 0 0 0 0 0 0 0 0 0 0 127 0" result="hardAlpha"/>
<feOffset dx="5" dy="5"/>
<feGaussianBlur stdDeviation="15"/>
<feComposite in2="hardAlpha" operator="out"/>
<feColorMatrix type="matrix" values="0 0 0 0 0 0 0 0 0 0 0 0 0 0 0 0 0 0 0.25 0"/>
<feBlend mode="normal" in2="BackgroundImageFix" result="effect1_dropShadow_239_919"/>
<feBlend mode="normal" in="SourceGraphic" in2="effect1_dropShadow_239_919" result="shape"/>
</filter>
</defs>
</svg>
