<svg width="971" height="768" viewBox="0 0 971 768" fill="none" xmlns="http://www.w3.org/2000/svg">
<rect x="4.8999" width="965.283" height="767.654" rx="59" fill="white"/>
<path d="M4.8999 59C4.8999 26.4152 31.3151 0 63.8999 0H911.183C943.768 0 970.183 26.4152 970.183 59V182.93H4.8999V59Z" fill="#FFF6BF"/>
<path d="M482.984 85.3285H489.04V94.4123H482.984V85.3285ZM480.562 94.4123H491.462C491.795 94.4123 492.068 94.6848 492.068 95.0179V97.4402H479.956V95.0179C479.956 94.6848 480.229 94.4123 480.562 94.4123Z" fill="#F5CF41"/>
<path d="M476.928 97.4402H495.095C495.898 97.4402 496.669 97.7592 497.236 98.327C497.804 98.8949 498.123 99.6651 498.123 100.468V103.496H473.9V100.468C473.9 99.6651 474.219 98.8949 474.787 98.327C475.355 97.7592 476.125 97.4402 476.928 97.4402Z" fill="#E3A815"/>
<path d="M464.816 55.0493V61.1051C464.816 61.9082 465.135 62.6784 465.703 63.2462C466.271 63.8141 467.041 64.1331 467.844 64.1331C468.647 64.1331 469.417 63.8141 469.985 63.2462C470.553 62.6784 470.872 61.9082 470.872 61.1051V55.0493H464.816ZM461.788 52.0214H473.9V61.1051C473.9 61.9004 473.743 62.6879 473.439 63.4226C473.134 64.1573 472.688 64.8249 472.126 65.3873C471.564 65.9496 470.896 66.3957 470.161 66.7C469.427 67.0044 468.639 67.161 467.844 67.161C467.049 67.161 466.261 67.0044 465.526 66.7C464.792 66.3957 464.124 65.9496 463.562 65.3873C462.999 64.8249 462.553 64.1573 462.249 63.4226C461.945 62.6879 461.788 61.9004 461.788 61.1051V52.0214ZM501.151 55.0493V61.1051C501.151 61.9082 501.47 62.6784 502.038 63.2462C502.606 63.8141 503.376 64.1331 504.179 64.1331C504.982 64.1331 505.752 63.8141 506.32 63.2462C506.888 62.6784 507.207 61.9082 507.207 61.1051V55.0493H501.151ZM498.123 52.0214H510.235V61.1051C510.235 61.9004 510.078 62.6879 509.774 63.4226C509.47 64.1573 509.024 64.8249 508.461 65.3873C507.899 65.9496 507.231 66.3957 506.497 66.7C505.762 67.0044 504.974 67.161 504.179 67.161C503.384 67.161 502.596 67.0044 501.862 66.7C501.127 66.3957 500.459 65.9496 499.897 65.3873C499.335 64.8249 498.889 64.1573 498.584 63.4226C498.28 62.6879 498.123 61.9004 498.123 61.1051V52.0214Z" fill="#F5CF41"/>
<path d="M470.872 42.9376H501.151C501.954 42.9376 502.724 43.2566 503.292 43.8245C503.86 44.3923 504.179 45.1625 504.179 45.9655V70.189C504.179 75.0073 502.265 79.6283 498.858 83.0354C495.451 86.4424 490.83 88.3565 486.011 88.3565C481.193 88.3565 476.572 86.4424 473.165 83.0354C469.758 79.6283 467.844 75.0073 467.844 70.189V45.9655C467.844 45.1625 468.163 44.3923 468.731 43.8245C469.298 43.2566 470.069 42.9376 470.872 42.9376Z" fill="#F5CF41"/>
<path d="M486.011 70.1889L478.893 73.9314L480.252 66.0043L474.493 60.3905L482.451 59.2339L486.011 52.0214L489.572 59.2339L497.53 60.3905L491.771 66.0043L493.13 73.9314L486.011 70.1889Z" fill="#FFF2A0"/>
<path d="M439.075 47.6822L434.459 50.0436L441.823 52.08L444.384 50.9698L439.075 47.6822Z" fill="#FF6464"/>
<path d="M454.784 40.715L445.652 32.524L441.001 32.8479L450.983 40.9797L454.784 40.715Z" fill="#FFE100"/>
<path d="M462.479 28.901L465.946 26.1674L470.125 33.4408L468.222 34.861L462.479 28.901Z" fill="#65D556"/>
<path d="M459.296 36.4264L456.706 35.2261V36.4249L457.769 36.8955L459.296 36.4264Z" fill="#FF6464"/>
<path d="M457.678 92.7954L452.534 92.1295L458.78 87.7282L461.565 87.9081L457.678 92.7954Z" fill="#FFE100"/>
<path d="M447.843 78.8834L438.242 84.2021L441.828 85.3471L451.488 80.0475L447.843 78.8834Z" fill="#65D556"/>
<path d="M446.624 66.2334L449.214 65.0345V66.2334L448.151 66.7039L446.624 66.2334Z" fill="#00C4FF"/>
<path d="M437.399 68.5409L438.027 68.863L436.822 69.2856L436.102 68.914L437.399 68.5409Z" fill="#FF6464"/>
<path d="M468.752 82.6887H469.691L468.752 83.6705H467.378L468.752 82.6887Z" fill="#00C4FF"/>
<path d="M512.593 90.5574L516.014 87.7364L509.763 82.0848L507.963 83.6491L512.593 90.5574Z" fill="#FF6464"/>
<path d="M528.017 71.5452L538.229 75.7014L534.79 77.2728L524.521 73.1427L528.017 71.5452Z" fill="#00C4FF"/>
<path d="M530.415 61.4906L537.762 59.8592L539.259 55.6801L532.118 58.5249L530.415 61.4906Z" fill="#FFE100"/>
<path d="M522.692 70.8239L522.06 71.1474L523.272 71.572L523.994 71.1987L522.692 70.8239Z" fill="#65D556"/>
<path d="M525.379 82.4703L526.19 83.4585L525.008 83.8645L522.534 81.0349L524.074 81.1501L525.379 82.4718L525.379 82.4703ZM519.832 46.3476L528.206 37.2994L527.815 42.5311L519.582 49.6895L519.832 46.3491L519.832 46.3476Z" fill="#FFE100"/>
<path d="M500.297 36.8379L507.739 27.014L512.388 26.4453L504.097 36.3711L500.297 36.8379Z" fill="#65D556"/>
<path d="M512.981 41.6721L512.099 42.5941L513.247 43.0887L515.925 40.4531H514.382L512.981 41.6721Z" fill="#FF6464"/>
<path d="M528.289 49.2474H527.343L528.289 50.2338H529.667L528.289 49.2474Z" fill="#65D556"/>
<line x1="165.78" y1="138.281" x2="396.076" y2="138.281" stroke="#FF6A00" stroke-width="6"/>
<line x1="580.641" y1="138.281" x2="809.303" y2="138.281" stroke="#FF6A00" stroke-width="6"/>
<path d="M428.08 144.8H463.88V149H428.08V144.8ZM443.52 142.44H448.56C447.56 151.48 445.08 157.08 429.72 159.52C429.4 158.32 428.32 156.48 427.48 155.52C441.28 153.64 442.72 149.56 443.52 142.44ZM448.84 148.12C451.32 152.52 456.68 154.56 464.92 155.08C463.88 156.08 462.64 158.08 462.04 159.36C453.04 158.28 447.8 155.32 444.56 149.04L448.84 148.12ZM428.04 125.92L431.6 124.04C433 125.76 434.6 128.2 435.16 129.84L431.36 132C430.84 130.36 429.36 127.8 428.04 125.92ZM436.08 122.04H440.76V142.48H436.08V122.04ZM427.28 136.24C429.76 135.12 433.44 133.16 437.04 131.24L438.32 135C435.28 136.88 432 138.84 429.24 140.4L427.28 136.24ZM446.08 132.6L449.52 130.52C451.24 131.96 453.36 134.12 454.4 135.6L450.76 137.88C449.84 136.4 447.8 134.16 446.08 132.6ZM448.4 125.36H460.68V129.36H448.4V125.36ZM449.36 121.88L453.88 123.44C451.56 127.16 447.76 130.88 443.92 133.08C443.24 132.08 441.92 130.44 441.04 129.6C444.48 127.8 447.84 124.68 449.36 121.88ZM460 125.36H460.96L461.76 125.24L464.64 126.56C461.52 136.44 453.64 140.64 443.6 142.4C443.2 141.28 441.92 139.32 441.08 138.4C450.68 137.16 457.64 133.92 460 126.08V125.36ZM482.2 147.68H504.48V151.72H482.2V147.68ZM494.72 142.64H499.24V159.64H494.72V142.64ZM491.12 121.96L496.44 122.88C495.28 124.92 494 126.96 493.08 128.32L489.24 127.32C489.96 125.72 490.76 123.56 491.12 121.96ZM491.44 127.92H495.48V134.68C495.48 139.36 494.2 145.04 486.32 148.28C485.64 147.52 484.16 146.24 483.28 145.64C490.44 142.8 491.44 138.16 491.44 134.56V127.92ZM471.44 132.56H482.84V136.64H471.44V132.56ZM476.12 122.08H480.28V135H476.12V122.08ZM471.68 141.24H481.12V159.64H476.88V145.28H471.68V141.24ZM469.44 123.08H473.56V138.04C473.56 144.32 473.12 153.48 470.88 159.72C469.96 159.24 468.04 158.6 466.88 158.28C469.12 152.48 469.44 143.64 469.44 138.04V123.08ZM487.8 135.44V138.2H499.08V135.44H487.8ZM487.8 129.36V132.08H499.08V129.36H487.8ZM483.56 125.76H503.48V141.76H483.56V125.76ZM522 125.56H543.8V129.36H522V125.56ZM530.32 122.04H534.96V127.4H530.32V122.04ZM530.32 137.88H534.96V142.92H530.32V137.88ZM521.92 141.24H543.84V145.16H521.92V141.24ZM525.2 129.6L529.24 128.76C529.8 130.16 530.32 132 530.52 133.12L526.28 134.12C526.12 132.92 525.68 131 525.2 129.6ZM536.08 128.36L540.84 129.08C540.08 131 539.36 132.88 538.8 134.16L534.76 133.48C535.28 132 535.84 129.88 536.08 128.36ZM521.52 133.24H544.24V139.96H539.8V136.96H525.72V140H521.52V133.24ZM528.52 147.4H538.96V151.28H528.52V147.4ZM537.36 147.4H541.96C541.96 147.4 541.92 148.48 541.88 149.04C541.48 154.6 541.04 157.16 540.04 158.2C539.24 159.08 538.36 159.4 537.2 159.48C536.2 159.6 534.44 159.64 532.56 159.6C532.48 158.36 532 156.64 531.36 155.6C532.84 155.72 534.28 155.76 534.88 155.76C535.48 155.76 535.8 155.68 536.16 155.36C536.68 154.8 537.08 152.84 537.36 148V147.4ZM507.76 130.32H521V134.76H507.76V130.32ZM512.64 122.04H517V159.6H512.64V122.04ZM512.56 133.36L515.24 134.28C514.08 140.6 511.8 148.32 508.96 152.44C508.56 151.16 507.52 149.32 506.84 148.2C509.4 144.72 511.64 138.44 512.56 133.36ZM516.8 136.4C517.72 137.6 521.12 142.84 521.8 144.04L519.32 147.48C518.36 145.04 515.92 140.36 514.8 138.36L516.8 136.4ZM527.88 142.84H532.44C532 150.8 530.68 156.52 522.72 159.72C522.24 158.6 521.04 156.96 520.08 156.12C526.76 153.64 527.52 149.24 527.88 142.84Z" fill="#FF6A00"/>
<line y1="181.43" x2="971" y2="181.43" stroke="url(#paint0_linear_54_188)" stroke-width="3"/>
<g clip-path="url(#clip0_54_188)">
<path d="M40.0161 300.528H934.251V676.821C934.251 704.435 911.865 726.821 884.251 726.821H90.0161C62.4019 726.821 40.0161 704.435 40.0161 676.821V300.528Z" fill="white"/>
<mask id="path-31-inside-1_54_188" fill="white">
<path d="M40.0161 300.528H934.251V371.577H40.0161V300.528Z"/>
</mask>
<path d="M40.0161 300.528H934.251V371.577H40.0161V300.528Z" fill="white"/>
<path d="M934.251 369.577H40.0161V373.577H934.251V369.577Z" fill="#3686FF" mask="url(#path-31-inside-1_54_188)"/>
<mask id="path-33-inside-2_54_188" fill="white">
<path d="M40.0161 371.577H934.251V442.626H40.0161V371.577Z"/>
</mask>
<path d="M40.0161 371.577H934.251V442.626H40.0161V371.577Z" fill="#96DBFF" fill-opacity="0.43"/>
<path d="M934.251 440.626H40.0161V444.626H934.251V440.626Z" fill="#3686FF" mask="url(#path-33-inside-2_54_188)"/>
<path d="M859 410.278C857.502 410.278 856.226 409.871 855.172 409.055C854.118 408.233 853.313 407.044 852.756 405.486C852.199 403.921 851.92 402.032 851.92 399.818C851.92 397.617 852.199 395.738 852.756 394.18C853.319 392.616 854.128 391.423 855.182 390.601C856.242 389.772 857.515 389.358 859 389.358C860.485 389.358 861.754 389.772 862.808 390.601C863.869 391.423 864.678 392.616 865.234 394.18C865.798 395.738 866.08 397.617 866.08 399.818C866.08 402.032 865.801 403.921 865.244 405.486C864.688 407.044 863.882 408.233 862.828 409.055C861.774 409.871 860.498 410.278 859 410.278ZM859 408.091C860.485 408.091 861.638 407.375 862.46 405.943C863.282 404.511 863.693 402.47 863.693 399.818C863.693 398.055 863.504 396.554 863.126 395.314C862.755 394.074 862.218 393.13 861.516 392.48C860.82 391.83 859.981 391.506 859 391.506C857.528 391.506 856.378 392.232 855.55 393.683C854.721 395.128 854.307 397.173 854.307 399.818C854.307 401.581 854.492 403.08 854.864 404.312C855.235 405.545 855.768 406.483 856.464 407.126C857.167 407.769 858.012 408.091 859 408.091Z" fill="black"/>
<path d="M708.131 417V415.21L714.853 407.852C715.642 406.991 716.291 406.241 716.802 405.605C717.312 404.962 717.69 404.359 717.935 403.795C718.187 403.225 718.313 402.629 718.313 402.006C718.313 401.29 718.141 400.67 717.796 400.146C717.458 399.623 716.994 399.218 716.404 398.933C715.814 398.648 715.151 398.506 714.415 398.506C713.633 398.506 712.951 398.668 712.367 398.993C711.79 399.311 711.343 399.759 711.025 400.335C710.713 400.912 710.558 401.588 710.558 402.364H708.211C708.211 401.17 708.486 400.123 709.036 399.222C709.586 398.32 710.335 397.617 711.283 397.114C712.238 396.61 713.308 396.358 714.495 396.358C715.688 396.358 716.746 396.61 717.667 397.114C718.588 397.617 719.311 398.297 719.835 399.152C720.358 400.007 720.62 400.958 720.62 402.006C720.62 402.755 720.484 403.487 720.212 404.203C719.947 404.912 719.483 405.705 718.82 406.58C718.164 407.448 717.253 408.509 716.086 409.761L711.512 414.653V414.812H720.978V417H708.131Z" fill="black"/>
<mask id="path-37-inside-3_54_188" fill="white">
<path d="M40.0161 513.675H934.251V584.723H40.0161V513.675Z"/>
</mask>
<path d="M40.0161 513.675H934.251V584.723H40.0161V513.675Z" fill="#96DBFF" fill-opacity="0.43"/>
<path d="M934.251 582.723H40.0161V586.723H934.251V582.723Z" fill="#3686FF" mask="url(#path-37-inside-3_54_188)"/>
<path d="M859 559.278C857.502 559.278 856.226 558.871 855.172 558.055C854.118 557.233 853.313 556.044 852.756 554.486C852.199 552.921 851.92 551.032 851.92 548.818C851.92 546.617 852.199 544.738 852.756 543.18C853.319 541.616 854.128 540.423 855.182 539.601C856.242 538.772 857.515 538.358 859 538.358C860.485 538.358 861.754 538.772 862.808 539.601C863.869 540.423 864.678 541.616 865.234 543.18C865.798 544.738 866.08 546.617 866.08 548.818C866.08 551.032 865.801 552.921 865.244 554.486C864.688 556.044 863.882 557.233 862.828 558.055C861.774 558.871 860.498 559.278 859 559.278ZM859 557.091C860.485 557.091 861.638 556.375 862.46 554.943C863.282 553.511 863.693 551.47 863.693 548.818C863.693 547.055 863.504 545.554 863.126 544.314C862.755 543.074 862.218 542.13 861.516 541.48C860.82 540.83 859.981 540.506 859 540.506C857.528 540.506 856.378 541.232 855.55 542.683C854.721 544.128 854.307 546.173 854.307 548.818C854.307 550.581 854.492 552.08 854.864 553.312C855.235 554.545 855.768 555.483 856.464 556.126C857.167 556.769 858.012 557.091 859 557.091Z" fill="black"/>
<path d="M718.759 538.636V559H716.293V541.222H716.174L711.202 544.523V542.017L716.293 538.636H718.759Z" fill="black"/>
<path d="M574 559.278C572.502 559.278 571.226 558.871 570.172 558.055C569.118 557.233 568.313 556.044 567.756 554.486C567.199 552.921 566.92 551.032 566.92 548.818C566.92 546.617 567.199 544.738 567.756 543.18C568.319 541.616 569.128 540.423 570.182 539.601C571.242 538.772 572.515 538.358 574 538.358C575.485 538.358 576.754 538.772 577.808 539.601C578.869 540.423 579.678 541.616 580.234 543.18C580.798 544.738 581.08 546.617 581.08 548.818C581.08 551.032 580.801 552.921 580.244 554.486C579.688 556.044 578.882 557.233 577.828 558.055C576.774 558.871 575.498 559.278 574 559.278ZM574 557.091C575.485 557.091 576.638 556.375 577.46 554.943C578.282 553.511 578.693 551.47 578.693 548.818C578.693 547.055 578.504 545.554 578.126 544.314C577.755 543.074 577.218 542.13 576.516 541.48C575.82 540.83 574.981 540.506 574 540.506C572.528 540.506 571.378 541.232 570.55 542.683C569.721 544.128 569.307 546.173 569.307 548.818C569.307 550.581 569.492 552.08 569.864 553.312C570.235 554.545 570.768 555.483 571.464 556.126C572.167 556.769 573.012 557.091 574 557.091Z" fill="black"/>
<mask id="path-42-inside-4_54_188" fill="white">
<path d="M40.0161 655.772H934.251V726.821H40.0161V655.772Z"/>
</mask>
<path d="M40.0161 655.772H934.251V726.821H40.0161V655.772Z" fill="#96DBFF" fill-opacity="0.43"/>
<path d="M934.251 724.821H40.0161V728.821H934.251V724.821Z" fill="#3686FF" mask="url(#path-42-inside-4_54_188)"/>
<mask id="path-44-inside-5_54_188" fill="white">
<path d="M40.0161 442.626H934.251V513.675H40.0161V442.626Z"/>
</mask>
<path d="M40.0161 442.626H934.251V513.675H40.0161V442.626Z" fill="white"/>
<path d="M934.251 511.675H40.0161V515.675H934.251V511.675Z" fill="#3686FF" mask="url(#path-44-inside-5_54_188)"/>
<mask id="path-46-inside-6_54_188" fill="white">
<path d="M40.0161 584.723H934.251V655.772H40.0161V584.723Z"/>
</mask>
<path d="M40.0161 584.723H934.251V655.772H40.0161V584.723Z" fill="white"/>
<path d="M934.251 653.772H40.0161V657.772H934.251V653.772Z" fill="#3686FF" mask="url(#path-46-inside-6_54_188)"/>
<path d="M574 630.278C572.502 630.278 571.226 629.871 570.172 629.055C569.118 628.233 568.313 627.044 567.756 625.486C567.199 623.921 566.92 622.032 566.92 619.818C566.92 617.617 567.199 615.738 567.756 614.18C568.319 612.616 569.128 611.423 570.182 610.601C571.242 609.772 572.515 609.358 574 609.358C575.485 609.358 576.754 609.772 577.808 610.601C578.869 611.423 579.678 612.616 580.234 614.18C580.798 615.738 581.08 617.617 581.08 619.818C581.08 622.032 580.801 623.921 580.244 625.486C579.688 627.044 578.882 628.233 577.828 629.055C576.774 629.871 575.498 630.278 574 630.278ZM574 628.091C575.485 628.091 576.638 627.375 577.46 625.943C578.282 624.511 578.693 622.47 578.693 619.818C578.693 618.055 578.504 616.554 578.126 615.314C577.755 614.074 577.218 613.13 576.516 612.48C575.82 611.83 574.981 611.506 574 611.506C572.528 611.506 571.378 612.232 570.55 613.683C569.721 615.128 569.307 617.173 569.307 619.818C569.307 621.581 569.492 623.08 569.864 624.312C570.235 625.545 570.768 626.483 571.464 627.126C572.167 627.769 573.012 628.091 574 628.091Z" fill="black"/>
<path d="M574 701.278C572.502 701.278 571.226 700.871 570.172 700.055C569.118 699.233 568.313 698.044 567.756 696.486C567.199 694.921 566.92 693.032 566.92 690.818C566.92 688.617 567.199 686.738 567.756 685.18C568.319 683.616 569.128 682.423 570.182 681.601C571.242 680.772 572.515 680.358 574 680.358C575.485 680.358 576.754 680.772 577.808 681.601C578.869 682.423 579.678 683.616 580.234 685.18C580.798 686.738 581.08 688.617 581.08 690.818C581.08 693.032 580.801 694.921 580.244 696.486C579.688 698.044 578.882 699.233 577.828 700.055C576.774 700.871 575.498 701.278 574 701.278ZM574 699.091C575.485 699.091 576.638 698.375 577.46 696.943C578.282 695.511 578.693 693.47 578.693 690.818C578.693 689.055 578.504 687.554 578.126 686.314C577.755 685.074 577.218 684.13 576.516 683.48C575.82 682.83 574.981 682.506 574 682.506C572.528 682.506 571.378 683.232 570.55 684.683C569.721 686.128 569.307 688.173 569.307 690.818C569.307 692.581 569.492 694.08 569.864 695.312C570.235 696.545 570.768 697.483 571.464 698.126C572.167 698.769 573.012 699.091 574 699.091Z" fill="black"/>
<line x1="214.963" y1="300.528" x2="214.963" y2="726.821" stroke="#3686FF" stroke-width="2"/>
<line x1="504.875" y1="300.528" x2="504.875" y2="726.821" stroke="#3686FF" stroke-width="2"/>
<line x1="645.339" y1="300.528" x2="645.339" y2="726.821" stroke="#3686FF" stroke-width="2"/>
<line x1="787.437" y1="300.528" x2="787.437" y2="726.821" stroke="#3686FF" stroke-width="2"/>
<path d="M129.759 325.636V346H127.293V328.222H127.174L122.202 331.523V329.017L127.293 325.636H129.759Z" fill="black"/>
<path d="M333.688 327.492H356.256V340.68H354.072V329.564H335.788V340.82H333.688V327.492ZM334.808 337.012H355.332V339.056H334.808V337.012ZM343.824 322.48H346.008V348.212H343.824V322.48ZM365.776 328.108H380.14V329.984H365.776V328.108ZM366.56 333.96H379.468V335.808H366.56V333.96ZM365.356 340.54H380.756V342.332H365.356V340.54ZM371.852 328.696H373.812V341.492H371.852V328.696ZM375.576 337.04L376.92 336.284C377.984 337.208 379.216 338.496 379.776 339.364L378.348 340.232C377.788 339.364 376.584 337.992 375.576 337.04ZM361.38 323.768H384.592V348.268H382.352V325.7H363.508V348.268H361.38V323.768ZM362.528 344.908H383.388V346.84H362.528V344.908Z" fill="black"/>
<path d="M573.954 346.278C572.787 346.278 571.737 346.046 570.802 345.582C569.867 345.118 569.118 344.482 568.555 343.673C567.991 342.865 567.683 341.943 567.63 340.909H570.017C570.109 341.83 570.527 342.593 571.269 343.196C572.018 343.793 572.913 344.091 573.954 344.091C574.789 344.091 575.532 343.895 576.181 343.504C576.838 343.113 577.351 342.576 577.722 341.893C578.1 341.204 578.289 340.425 578.289 339.557C578.289 338.669 578.094 337.876 577.703 337.18C577.318 336.478 576.788 335.924 576.112 335.52C575.436 335.116 574.663 334.91 573.795 334.903C573.172 334.897 572.532 334.993 571.876 335.192C571.22 335.384 570.679 335.633 570.255 335.938L567.948 335.659L569.181 325.636H579.761V327.824H571.249L570.534 333.83H570.653C571.07 333.498 571.594 333.223 572.224 333.004C572.854 332.786 573.51 332.676 574.193 332.676C575.439 332.676 576.549 332.974 577.524 333.571C578.505 334.161 579.274 334.97 579.83 335.997C580.394 337.025 580.676 338.198 580.676 339.517C580.676 340.816 580.384 341.976 579.801 342.997C579.224 344.011 578.428 344.813 577.414 345.403C576.4 345.987 575.247 346.278 573.954 346.278Z" fill="black"/>
<path d="M717.759 325.636V346H715.293V328.222H715.174L710.202 331.523V329.017L715.293 325.636H717.759Z" fill="black"/>
<path d="M858 346.278C856.502 346.278 855.226 345.871 854.172 345.055C853.118 344.233 852.313 343.044 851.756 341.486C851.199 339.921 850.92 338.032 850.92 335.818C850.92 333.617 851.199 331.738 851.756 330.18C852.319 328.616 853.128 327.423 854.182 326.601C855.242 325.772 856.515 325.358 858 325.358C859.485 325.358 860.754 325.772 861.808 326.601C862.869 327.423 863.678 328.616 864.234 330.18C864.798 331.738 865.08 333.617 865.08 335.818C865.08 338.032 864.801 339.921 864.244 341.486C863.688 343.044 862.882 344.233 861.828 345.055C860.774 345.871 859.498 346.278 858 346.278ZM858 344.091C859.485 344.091 860.638 343.375 861.46 341.943C862.282 340.511 862.693 338.47 862.693 335.818C862.693 334.055 862.504 332.554 862.126 331.314C861.755 330.074 861.218 329.13 860.516 328.48C859.82 327.83 858.981 327.506 858 327.506C856.528 327.506 855.378 328.232 854.55 329.683C853.721 331.128 853.307 333.173 853.307 335.818C853.307 337.581 853.492 339.08 853.864 340.312C854.235 341.545 854.768 342.483 855.464 343.126C856.167 343.769 857.012 344.091 858 344.091Z" fill="black"/>
<path d="M332.288 395.384H340.212V397.372H332.288V395.384ZM332.512 403.476H339.624V405.464H332.512V403.476ZM332.176 414.2C334.248 413.696 337.3 412.8 340.296 411.904L340.576 413.836C337.804 414.676 334.892 415.572 332.624 416.244L332.176 414.2ZM335.312 396.28H337.244V413.612L335.312 414.004V396.28ZM342.2 394.656H344.104V399.332H354.772V394.656H356.788V401.236H342.2V394.656ZM348.332 393.508H350.292V400.452H348.332V393.508ZM340.912 403.392H357.768V405.296H340.912V403.392ZM348.276 404.372L350.46 404.624C349.984 406.164 349.452 407.9 348.976 408.992L347.212 408.684C347.632 407.48 348.08 405.604 348.276 404.372ZM341.92 407.984H355.948V409.832H343.824V419.24H341.92V407.984ZM355.248 407.984H357.18V417.14C357.18 418.008 357.04 418.568 356.452 418.932C355.864 419.24 355.052 419.296 353.876 419.296C353.792 418.736 353.456 417.924 353.176 417.42C354.016 417.448 354.688 417.448 354.94 417.42C355.192 417.42 355.248 417.336 355.248 417.084V407.984ZM346.372 408.74H348.136V419.1H346.372V408.74ZM350.768 408.74H352.56V419.1H350.768V408.74ZM375.604 414.48L377.088 413.108C380.056 414.536 383.36 416.384 385.292 417.728L383.444 419.156C381.596 417.812 378.544 415.964 375.604 414.48ZM360.092 410.672H385.88V412.66H360.092V410.672ZM363.984 403.532H382.044V405.52H363.984V403.532ZM368.94 393.452H370.9V411.596H368.94V393.452ZM375.016 393.424H377.032V411.624H375.016V393.424ZM362.92 396.868H383.304V411.484H381.176V398.828H364.964V411.484H362.92V396.868ZM368.492 413.164L370.48 414.368C368.296 416.216 364.824 418.12 361.94 419.268C361.576 418.82 360.848 418.148 360.372 417.756C363.284 416.664 366.756 414.76 368.492 413.164Z" fill="black"/>
<path d="M335.928 466.384H354.268V489.82H352.056V468.512H338.084V489.932H335.928V466.384ZM337.356 476.1H352.98V478.172H337.356V476.1ZM337.328 486.012H353.036V488.112H337.328V486.012ZM360.792 470.388H385.236V472.516H360.792V470.388ZM366.392 482.876H379.44V485.004H366.392V482.876ZM371.852 464.508H374.064V490.24H371.852V464.508ZM371.208 471.088L373.084 471.732C370.592 477.668 366.196 483.016 361.352 485.844C361.016 485.312 360.316 484.528 359.84 484.108C364.516 481.672 368.968 476.464 371.208 471.088ZM374.764 471.172C376.976 476.492 381.372 481.588 386.216 483.912C385.684 484.36 384.956 485.2 384.62 485.788C379.664 483.044 375.352 477.696 372.888 471.816L374.764 471.172Z" fill="black"/>
<path d="M337.664 535.48H339.68V543.516H337.664V535.48ZM337.664 551.02H339.68V561.212H337.664V551.02ZM335.144 548.248V550.628H342.368V548.248H335.144ZM335.144 544.384V546.708H342.368V544.384H335.144ZM333.24 542.732H344.356V552.252H333.24V542.732ZM332.456 538.616H345.112V540.52H332.456V538.616ZM347.66 543.516H355.724V545.42H347.66V543.516ZM347.66 536.824H355.724V538.756H347.66V536.824ZM347.576 550.18H355.752V552.112H347.576V550.18ZM332.12 554.492H345.168V556.396H332.12V554.492ZM354.632 536.824H356.704V558.636C356.704 559.868 356.424 560.512 355.64 560.848C354.856 561.212 353.596 561.24 351.552 561.24C351.468 560.708 351.16 559.728 350.88 559.168C352.336 559.224 353.68 559.224 354.072 559.196C354.492 559.168 354.632 559.056 354.632 558.608V536.824ZM346.68 536.824H348.696V547.184C348.696 551.636 348.136 557.516 344.356 561.296C344.048 560.932 343.18 560.316 342.732 560.092C346.316 556.508 346.68 551.328 346.68 547.184V536.824ZM364.488 537.916H369.836V539.596H364.488V537.916ZM365.804 543.74H367.288V553.904H365.804V543.74ZM369.36 537.916H369.78L370.172 537.804L371.348 538.644C370.48 540.436 369.248 542.536 368.184 543.88C367.932 543.572 367.428 543.096 367.12 542.844C367.932 541.64 368.912 539.68 369.36 538.28V537.916ZM363.172 549.536V553.204H369.976V549.536H363.172ZM363.172 544.384V547.968H369.976V544.384H363.172ZM361.52 542.676H371.684V554.856H361.52V542.676ZM364.404 535.48L366.28 535.732C365.356 538.672 363.844 542.116 361.408 544.86C361.1 544.496 360.456 543.936 359.98 543.712C362.22 541.248 363.676 538 364.404 535.48ZM360.316 557.992C363.284 557.74 367.82 557.264 372.188 556.788L372.244 558.58C368.072 559.084 363.76 559.588 360.624 559.952L360.316 557.992ZM378.264 542.312H380.252V561.324H378.264V542.312ZM372.86 541.024H385.404V542.9H372.86V541.024ZM373.98 536.628L375.52 536.04C376.276 537.244 377.06 538.812 377.368 539.848L375.772 540.52C375.464 539.484 374.736 537.832 373.98 536.628ZM382.408 535.9L384.34 536.404C383.444 538.336 382.324 540.604 381.344 542.004L379.776 541.528C380.672 540.072 381.792 537.608 382.408 535.9ZM373.448 547.016H384.9V548.864H373.448V547.016ZM372.468 552.896H385.908V554.8H372.468V552.896Z" fill="black"/>
<path d="M339.596 618.268H357.6V620.256H339.596V618.268ZM341.024 611.072H356.284V613.088H341.024V611.072ZM347.436 606.508H349.592V619.696H347.436V606.508ZM339.624 628.824C343.432 628.656 349.536 628.32 355.332 627.984V629.888C349.76 630.308 343.908 630.7 339.932 630.952L339.624 628.824ZM350.908 624.036L352.7 623.112C354.828 625.604 357.152 628.936 358.076 631.204L356.116 632.296C355.248 630.084 353.008 626.584 350.908 624.036ZM345.56 619.584L347.828 620.228C346.596 623.476 344.916 627.48 343.516 630.028L341.668 629.384C343.04 626.78 344.692 622.58 345.56 619.584ZM333.548 608.244L334.724 606.676C336.628 607.376 339.036 608.58 340.24 609.56L339.036 611.324C337.86 610.316 335.508 609 333.548 608.244ZM332.064 615.972L333.156 614.348C335.06 614.964 337.524 616.056 338.784 616.952L337.636 618.716C336.432 617.82 334.024 616.644 332.064 615.972ZM333.044 630.532C334.472 628.376 336.572 624.68 338.112 621.516L339.68 622.832C338.28 625.8 336.432 629.3 334.864 631.904L333.044 630.532ZM365.776 612.108H380.14V613.984H365.776V612.108ZM366.56 617.96H379.468V619.808H366.56V617.96ZM365.356 624.54H380.756V626.332H365.356V624.54ZM371.852 612.696H373.812V625.492H371.852V612.696ZM375.576 621.04L376.92 620.284C377.984 621.208 379.216 622.496 379.776 623.364L378.348 624.232C377.788 623.364 376.584 621.992 375.576 621.04ZM361.38 607.768H384.592V632.268H382.352V609.7H363.508V632.268H361.38V607.768ZM362.528 628.908H383.388V630.84H362.528V628.908Z" fill="black"/>
<path d="M344.048 681.288H357.32V683.248H344.048V681.288ZM344.608 686.384H356.256V688.372H344.608V686.384ZM355.976 691.536H357.88C357.88 691.536 357.852 692.124 357.824 692.404C357.488 697.36 357.152 699.32 356.564 700.02C356.172 700.468 355.752 700.636 355.108 700.692C354.604 700.748 353.68 700.748 352.7 700.692C352.672 700.16 352.476 699.376 352.224 698.9C353.12 698.984 353.876 699.012 354.268 699.012C354.576 699.012 354.8 698.956 354.996 698.732C355.416 698.256 355.724 696.548 355.976 691.844V691.536ZM343.936 691.536H356.648V693.524H343.936V691.536ZM349.172 677.48H351.272V703.212H349.172V677.48ZM336.88 677.452H338.952V685.348H336.88V677.452ZM336.88 692.74H338.952V703.38H336.88V692.74ZM335.004 689.996V692.096H340.828V689.996H335.004ZM335.004 686.356V688.4H340.828V686.356H335.004ZM333.128 684.676H342.76V693.776H333.128V684.676ZM332.372 680.42H343.348V682.324H332.372V680.42ZM332.092 696.212H343.544V698.116H332.092V696.212ZM365.776 683.108H380.14V684.984H365.776V683.108ZM366.56 688.96H379.468V690.808H366.56V688.96ZM365.356 695.54H380.756V697.332H365.356V695.54ZM371.852 683.696H373.812V696.492H371.852V683.696ZM375.576 692.04L376.92 691.284C377.984 692.208 379.216 693.496 379.776 694.364L378.348 695.232C377.788 694.364 376.584 692.992 375.576 692.04ZM361.38 678.768H384.592V703.268H382.352V680.7H363.508V703.268H361.38V678.768ZM362.528 699.908H383.388V701.84H362.528V699.908Z" fill="black"/>
<path d="M574 488.278C572.502 488.278 571.226 487.871 570.172 487.055C569.118 486.233 568.313 485.044 567.756 483.486C567.199 481.921 566.92 480.032 566.92 477.818C566.92 475.617 567.199 473.738 567.756 472.18C568.319 470.616 569.128 469.423 570.182 468.601C571.242 467.772 572.515 467.358 574 467.358C575.485 467.358 576.754 467.772 577.808 468.601C578.869 469.423 579.678 470.616 580.234 472.18C580.798 473.738 581.08 475.617 581.08 477.818C581.08 480.032 580.801 481.921 580.244 483.486C579.688 485.044 578.882 486.233 577.828 487.055C576.774 487.871 575.498 488.278 574 488.278ZM574 486.091C575.485 486.091 576.638 485.375 577.46 483.943C578.282 482.511 578.693 480.47 578.693 477.818C578.693 476.055 578.504 474.554 578.126 473.314C577.755 472.074 577.218 471.13 576.516 470.48C575.82 469.83 574.981 469.506 574 469.506C572.528 469.506 571.378 470.232 570.55 471.683C569.721 473.128 569.307 475.173 569.307 477.818C569.307 479.581 569.492 481.08 569.864 482.312C570.235 483.545 570.768 484.483 571.464 485.126C572.167 485.769 573.012 486.091 574 486.091Z" fill="black"/>
<path d="M120.631 417V415.21L127.353 407.852C128.142 406.991 128.791 406.241 129.302 405.605C129.812 404.962 130.19 404.359 130.435 403.795C130.687 403.225 130.813 402.629 130.813 402.006C130.813 401.29 130.641 400.67 130.296 400.146C129.958 399.623 129.494 399.218 128.904 398.933C128.314 398.648 127.651 398.506 126.915 398.506C126.133 398.506 125.451 398.668 124.867 398.993C124.29 399.311 123.843 399.759 123.525 400.335C123.213 400.912 123.058 401.588 123.058 402.364H120.711C120.711 401.17 120.986 400.123 121.536 399.222C122.086 398.32 122.835 397.617 123.783 397.114C124.738 396.61 125.808 396.358 126.995 396.358C128.188 396.358 129.246 396.61 130.167 397.114C131.088 397.617 131.811 398.297 132.335 399.152C132.858 400.007 133.12 400.958 133.12 402.006C133.12 402.755 132.984 403.487 132.712 404.203C132.447 404.912 131.983 405.705 131.32 406.58C130.664 407.448 129.753 408.509 128.586 409.761L124.012 414.653V414.812H133.478V417H120.631Z" fill="black"/>
<path d="M127.075 488.278C125.762 488.278 124.592 488.053 123.565 487.602C122.544 487.152 121.732 486.525 121.129 485.723C120.532 484.914 120.207 483.976 120.154 482.909H122.66C122.713 483.565 122.938 484.132 123.336 484.609C123.734 485.08 124.254 485.445 124.897 485.703C125.54 485.962 126.253 486.091 127.035 486.091C127.91 486.091 128.685 485.938 129.362 485.634C130.038 485.329 130.568 484.904 130.952 484.361C131.337 483.817 131.529 483.188 131.529 482.472C131.529 481.723 131.344 481.063 130.972 480.493C130.601 479.916 130.058 479.465 129.342 479.141C128.626 478.816 127.751 478.653 126.717 478.653H125.086V476.466H126.717C127.525 476.466 128.235 476.32 128.844 476.028C129.461 475.737 129.942 475.326 130.286 474.795C130.638 474.265 130.813 473.642 130.813 472.926C130.813 472.237 130.661 471.637 130.356 471.126C130.051 470.616 129.62 470.218 129.063 469.933C128.513 469.648 127.863 469.506 127.114 469.506C126.412 469.506 125.749 469.635 125.126 469.893C124.509 470.145 124.005 470.513 123.614 470.997C123.223 471.474 123.011 472.051 122.978 472.727H120.592C120.631 471.66 120.953 470.725 121.556 469.923C122.159 469.115 122.948 468.485 123.923 468.034C124.904 467.583 125.981 467.358 127.154 467.358C128.414 467.358 129.494 467.613 130.396 468.124C131.297 468.627 131.99 469.294 132.474 470.122C132.958 470.951 133.2 471.846 133.2 472.807C133.2 473.954 132.898 474.931 132.295 475.74C131.698 476.549 130.886 477.109 129.859 477.42V477.58C131.145 477.792 132.149 478.339 132.871 479.22C133.594 480.095 133.955 481.179 133.955 482.472C133.955 483.579 133.654 484.573 133.05 485.455C132.454 486.33 131.638 487.019 130.604 487.523C129.57 488.027 128.394 488.278 127.075 488.278Z" fill="black"/>
<path d="M119.648 554.824V552.795L128.597 538.636H130.069V541.778H129.074L122.313 552.477V552.636H134.364V554.824H119.648ZM129.233 559V554.207V553.263V538.636H131.58V559H129.233Z" fill="black"/>
<path d="M126.954 630.278C125.787 630.278 124.737 630.046 123.802 629.582C122.867 629.118 122.118 628.482 121.555 627.673C120.991 626.865 120.683 625.943 120.63 624.909H123.017C123.109 625.83 123.527 626.593 124.269 627.196C125.018 627.793 125.913 628.091 126.954 628.091C127.789 628.091 128.532 627.895 129.181 627.504C129.838 627.113 130.351 626.576 130.722 625.893C131.1 625.204 131.289 624.425 131.289 623.557C131.289 622.669 131.094 621.876 130.703 621.18C130.318 620.478 129.788 619.924 129.112 619.52C128.436 619.116 127.663 618.91 126.795 618.903C126.172 618.897 125.532 618.993 124.876 619.192C124.22 619.384 123.679 619.633 123.255 619.938L120.948 619.659L122.181 609.636H132.761V611.824H124.249L123.534 617.83H123.653C124.07 617.498 124.594 617.223 125.224 617.004C125.854 616.786 126.51 616.676 127.193 616.676C128.439 616.676 129.549 616.974 130.524 617.571C131.505 618.161 132.274 618.97 132.83 619.997C133.394 621.025 133.676 622.198 133.676 623.517C133.676 624.816 133.384 625.976 132.801 626.997C132.224 628.011 131.428 628.813 130.414 629.403C129.4 629.987 128.247 630.278 126.954 630.278Z" fill="black"/>
<path d="M126.954 701.278C125.787 701.278 124.737 701.046 123.802 700.582C122.867 700.118 122.118 699.482 121.555 698.673C120.991 697.865 120.683 696.943 120.63 695.909H123.017C123.109 696.83 123.527 697.593 124.269 698.196C125.018 698.793 125.913 699.091 126.954 699.091C127.789 699.091 128.532 698.895 129.181 698.504C129.838 698.113 130.351 697.576 130.722 696.893C131.1 696.204 131.289 695.425 131.289 694.557C131.289 693.669 131.094 692.876 130.703 692.18C130.318 691.478 129.788 690.924 129.112 690.52C128.436 690.116 127.663 689.91 126.795 689.903C126.172 689.897 125.532 689.993 124.876 690.192C124.22 690.384 123.679 690.633 123.255 690.938L120.948 690.659L122.181 680.636H132.761V682.824H124.249L123.534 688.83H123.653C124.07 688.498 124.594 688.223 125.224 688.004C125.854 687.786 126.51 687.676 127.193 687.676C128.439 687.676 129.549 687.974 130.524 688.571C131.505 689.161 132.274 689.97 132.83 690.997C133.394 692.025 133.676 693.198 133.676 694.517C133.676 695.816 133.384 696.976 132.801 697.997C132.224 699.011 131.428 699.813 130.414 700.403C129.4 700.987 128.247 701.278 126.954 701.278Z" fill="black"/>
<path d="M574 417.278C572.502 417.278 571.226 416.871 570.172 416.055C569.118 415.233 568.313 414.044 567.756 412.486C567.199 410.921 566.92 409.032 566.92 406.818C566.92 404.617 567.199 402.738 567.756 401.18C568.319 399.616 569.128 398.423 570.182 397.601C571.242 396.772 572.515 396.358 574 396.358C575.485 396.358 576.754 396.772 577.808 397.601C578.869 398.423 579.678 399.616 580.234 401.18C580.798 402.738 581.08 404.617 581.08 406.818C581.08 409.032 580.801 410.921 580.244 412.486C579.688 414.044 578.882 415.233 577.828 416.055C576.774 416.871 575.498 417.278 574 417.278ZM574 415.091C575.485 415.091 576.638 414.375 577.46 412.943C578.282 411.511 578.693 409.47 578.693 406.818C578.693 405.055 578.504 403.554 578.126 402.314C577.755 401.074 577.218 400.13 576.516 399.48C575.82 398.83 574.981 398.506 574 398.506C572.528 398.506 571.378 399.232 570.55 400.683C569.721 402.128 569.307 404.173 569.307 406.818C569.307 408.581 569.492 410.08 569.864 411.312C570.235 412.545 570.768 413.483 571.464 414.126C572.167 414.769 573.012 415.091 574 415.091Z" fill="black"/>
<path d="M718.759 467.636V488H716.293V470.222H716.174L711.202 473.523V471.017L716.293 467.636H718.759Z" fill="black"/>
<path d="M718 630.278C716.502 630.278 715.226 629.871 714.172 629.055C713.118 628.233 712.313 627.044 711.756 625.486C711.199 623.921 710.92 622.032 710.92 619.818C710.92 617.617 711.199 615.738 711.756 614.18C712.319 612.616 713.128 611.423 714.182 610.601C715.242 609.772 716.515 609.358 718 609.358C719.485 609.358 720.754 609.772 721.808 610.601C722.869 611.423 723.678 612.616 724.234 614.18C724.798 615.738 725.08 617.617 725.08 619.818C725.08 622.032 724.801 623.921 724.244 625.486C723.688 627.044 722.882 628.233 721.828 629.055C720.774 629.871 719.498 630.278 718 630.278ZM718 628.091C719.485 628.091 720.638 627.375 721.46 625.943C722.282 624.511 722.693 622.47 722.693 619.818C722.693 618.055 722.504 616.554 722.126 615.314C721.755 614.074 721.218 613.13 720.516 612.48C719.82 611.83 718.981 611.506 718 611.506C716.528 611.506 715.378 612.232 714.55 613.683C713.721 615.128 713.307 617.173 713.307 619.818C713.307 621.581 713.492 623.08 713.864 624.312C714.235 625.545 714.768 626.483 715.464 627.126C716.167 627.769 717.012 628.091 718 628.091Z" fill="black"/>
<path d="M718 701.278C716.502 701.278 715.226 700.871 714.172 700.055C713.118 699.233 712.313 698.044 711.756 696.486C711.199 694.921 710.92 693.032 710.92 690.818C710.92 688.617 711.199 686.738 711.756 685.18C712.319 683.616 713.128 682.423 714.182 681.601C715.242 680.772 716.515 680.358 718 680.358C719.485 680.358 720.754 680.772 721.808 681.601C722.869 682.423 723.678 683.616 724.234 685.18C724.798 686.738 725.08 688.617 725.08 690.818C725.08 693.032 724.801 694.921 724.244 696.486C723.688 698.044 722.882 699.233 721.828 700.055C720.774 700.871 719.498 701.278 718 701.278ZM718 699.091C719.485 699.091 720.638 698.375 721.46 696.943C722.282 695.511 722.693 693.47 722.693 690.818C722.693 689.055 722.504 687.554 722.126 686.314C721.755 685.074 721.218 684.13 720.516 683.48C719.82 682.83 718.981 682.506 718 682.506C716.528 682.506 715.378 683.232 714.55 684.683C713.721 686.128 713.307 688.173 713.307 690.818C713.307 692.581 713.492 694.08 713.864 695.312C714.235 696.545 714.768 697.483 715.464 698.126C716.167 698.769 717.012 699.091 718 699.091Z" fill="black"/>
<path d="M860.759 467.636V488H858.293V470.222H858.174L853.202 473.523V471.017L858.293 467.636H860.759Z" fill="black"/>
<path d="M853.131 630V628.21L859.853 620.852C860.642 619.991 861.291 619.241 861.802 618.605C862.312 617.962 862.69 617.359 862.935 616.795C863.187 616.225 863.313 615.629 863.313 615.006C863.313 614.29 863.141 613.67 862.796 613.146C862.458 612.623 861.994 612.218 861.404 611.933C860.814 611.648 860.151 611.506 859.415 611.506C858.633 611.506 857.951 611.668 857.367 611.993C856.79 612.311 856.343 612.759 856.025 613.335C855.713 613.912 855.558 614.588 855.558 615.364H853.211C853.211 614.17 853.486 613.123 854.036 612.222C854.586 611.32 855.335 610.617 856.283 610.114C857.238 609.61 858.308 609.358 859.495 609.358C860.688 609.358 861.746 609.61 862.667 610.114C863.588 610.617 864.311 611.297 864.835 612.152C865.358 613.007 865.62 613.958 865.62 615.006C865.62 615.755 865.484 616.487 865.212 617.203C864.947 617.912 864.483 618.705 863.82 619.58C863.164 620.448 862.253 621.509 861.086 622.761L856.512 627.653V627.812H865.978V630H853.131Z" fill="black"/>
<path d="M853.131 701V699.21L859.853 691.852C860.642 690.991 861.291 690.241 861.802 689.605C862.312 688.962 862.69 688.359 862.935 687.795C863.187 687.225 863.313 686.629 863.313 686.006C863.313 685.29 863.141 684.67 862.796 684.146C862.458 683.623 861.994 683.218 861.404 682.933C860.814 682.648 860.151 682.506 859.415 682.506C858.633 682.506 857.951 682.668 857.367 682.993C856.79 683.311 856.343 683.759 856.025 684.335C855.713 684.912 855.558 685.588 855.558 686.364H853.211C853.211 685.17 853.486 684.123 854.036 683.222C854.586 682.32 855.335 681.617 856.283 681.114C857.238 680.61 858.308 680.358 859.495 680.358C860.688 680.358 861.746 680.61 862.667 681.114C863.588 681.617 864.311 682.297 864.835 683.152C865.358 684.007 865.62 684.958 865.62 686.006C865.62 686.755 865.484 687.487 865.212 688.203C864.947 688.912 864.483 689.705 863.82 690.58C863.164 691.448 862.253 692.509 861.086 693.761L856.512 698.653V698.812H865.978V701H853.131Z" fill="black"/>
</g>
<path d="M41.0161 301.528H933.251V676.821C933.251 703.883 911.313 725.821 884.251 725.821H90.0161C62.9542 725.821 41.0161 703.883 41.0161 676.821V301.528Z" stroke="#3686FF" stroke-width="2"/>
<path d="M40.0161 263.963C40.0161 236.349 62.4019 213.963 90.0161 213.963H884.251C911.865 213.963 934.251 236.349 934.251 263.963V300.528H40.0161V263.963Z" fill="#3686FF"/>
<path d="M110.692 268.144H125.028V271.632H110.692V268.144ZM109.092 245.968H120.42V249.36H109.092V245.968ZM109.924 242.64L114.244 243.504C111.524 248.176 107.684 252.464 101.924 255.92C101.38 254.96 100.1 253.552 99.236 252.88C104.516 250.096 108.068 246.192 109.924 242.64ZM119.204 245.968H119.94L120.58 245.776L123.236 247.184C119.492 257.136 110.948 263.664 101.412 266.864C100.932 265.808 99.972 264.24 99.172 263.44C108.004 260.88 116.26 254.672 119.204 246.608V245.968ZM104.9 253.008L107.748 250.512C109.956 252.08 112.868 254.352 114.276 256.016L111.172 258.8C109.956 257.136 107.108 254.672 104.9 253.008ZM123.236 258.384H127.236V272.912H123.236V258.384ZM112.324 258.384H125.156V261.872H112.324V272.848H108.484V261.232L111.396 258.384H112.324ZM144.1 242.96L148.1 243.664C146.852 249.36 144.676 254.704 142.052 258.096C141.252 257.488 139.428 256.464 138.404 256.016C141.156 253.04 143.108 248.048 144.1 242.96ZM150.02 251.952H152.004V255.472C152.004 258.96 153.924 265.936 161.828 269.392C161.092 270.32 159.94 271.92 159.332 272.88C153.604 270.256 150.596 264.592 149.988 261.712C149.22 264.592 145.956 270.064 139.46 272.88C139.012 271.984 137.796 270.352 137.124 269.648C145.796 266.192 147.94 259.12 147.94 255.472V251.952H150.02ZM131.364 265.072C133.156 263.344 136.036 260.4 138.692 257.488L140.868 260.784C138.66 263.376 136.036 266.192 133.828 268.368L131.364 265.072ZM132.292 247.632L135.012 244.816C136.932 246.064 139.524 247.984 140.772 249.36L137.86 252.528C136.74 251.12 134.244 249.04 132.292 247.632ZM145.476 248.368H158.596V252.176H143.588L145.476 248.368ZM157.316 248.368H157.892L158.628 248.144L161.476 249.808C160.548 253.04 159.012 256.368 157.764 258.64C156.964 258.224 155.428 257.424 154.5 257.072C155.524 255.12 156.836 251.728 157.316 249.2V248.368Z" fill="white"/>
<path d="M573.838 246.48C571.182 250.224 566.286 254.416 561.038 257.2C560.558 256.304 559.47 254.896 558.638 254.096C564.142 251.408 569.294 246.608 571.662 242.736H575.662C579.118 247.6 584.27 251.632 589.358 253.712C588.43 254.672 587.534 255.984 586.83 257.168C581.934 254.576 576.59 250.256 573.838 246.48ZM565.806 252.432H581.934V255.792H565.806V252.432ZM561.998 258.96H585.71V262.256H561.998V258.96ZM560.366 268.688H587.566V271.984H560.366V268.688ZM571.726 253.776H575.822V270.32H571.726V253.776ZM563.982 263.472L567.086 262.192C568.302 263.824 569.582 266.032 570.062 267.536L566.734 268.976C566.318 267.504 565.134 265.168 563.982 263.472ZM580.27 262.224L583.918 263.6C582.606 265.552 581.198 267.632 580.078 268.976L577.198 267.792C578.222 266.288 579.566 263.952 580.27 262.224Z" fill="white"/>
<path d="M716.702 244.112H729.086V258.832H716.702V255.536H725.598V247.408H716.702V244.112ZM716.67 249.904H727.038V253.008H716.67V249.904ZM722.91 256.912C724.094 262.576 726.654 267.312 731.166 269.456C730.366 270.192 729.278 271.728 728.734 272.752C723.87 269.936 721.374 264.464 719.998 257.488L722.91 256.912ZM728.318 259.184L730.686 261.904C728.99 263.28 726.942 264.816 725.374 265.744L723.486 263.376C724.926 262.384 727.102 260.56 728.318 259.184ZM714.974 272.976L714.654 269.648L716.19 268.432L723.07 266.928C723.038 268.016 723.102 269.584 723.23 270.416C716.958 272.016 715.742 272.464 714.974 272.976ZM714.974 272.976C714.718 272.112 713.886 270.608 713.342 269.968C714.014 269.552 714.814 268.656 714.814 267.184V244.112H718.59V269.488C718.59 269.488 714.974 271.6 714.974 272.976ZM705.438 242.896L708.83 243.92C707.486 247.664 705.214 251.536 702.654 253.968C702.366 253.136 701.438 251.12 700.862 250.224C702.782 248.432 704.478 245.744 705.438 242.896ZM705.566 245.936H713.022V249.584H704.83L705.566 245.936ZM703.806 251.92H712.798V255.344H703.806V251.92ZM701.886 258.48H713.47V261.904H701.886V258.48ZM705.726 272.88L705.15 269.616L706.302 268.4L713.15 265.328C713.214 266.32 713.438 267.856 713.662 268.656C707.518 271.664 706.398 272.272 705.726 272.88ZM705.726 272.88C705.534 272.016 704.798 270.48 704.254 269.744C704.926 269.392 705.79 268.624 705.79 267.28V252.88H709.438V269.776C709.438 269.776 705.726 271.632 705.726 272.88Z" fill="white"/>
<path d="M854.854 244.048H868.422V247.504H858.022V272.88H854.854V244.048ZM867.814 244.048H871.014V268.88C871.014 270.608 870.726 271.632 869.702 272.24C868.646 272.784 867.11 272.88 864.902 272.88C864.838 271.952 864.358 270.32 863.91 269.392C865.286 269.488 866.758 269.456 867.238 269.456C867.654 269.456 867.814 269.296 867.814 268.848V244.048ZM859.302 249.872H866.534V253.008H859.302V249.872ZM859.558 255.408H861.83V267.024H859.558V255.408ZM860.998 255.408H866.31V265.36H860.998V262.448H863.942V258.352H860.998V255.408ZM846.15 242.896L849.51 243.92C848.198 247.664 845.958 251.536 843.43 253.968C843.174 253.136 842.246 251.12 841.638 250.192C843.558 248.432 845.222 245.744 846.15 242.896ZM845.99 245.744H854.054V249.264H845.35L845.99 245.744ZM846.342 272.88L845.638 269.52L846.63 268.304L853.286 264.496C853.414 265.52 853.83 267.056 854.118 267.824C848.07 271.504 846.95 272.208 846.342 272.88ZM844.262 251.92H853.734V255.344H844.262V251.92ZM842.406 258.48H853.862V261.904H842.406V258.48ZM846.342 272.88C846.054 272.112 845.222 270.736 844.646 270.16C845.35 269.68 846.374 268.592 846.374 267.024V252.592H849.926V269.2C849.926 269.2 846.342 271.6 846.342 272.88Z" fill="white"/>
<path d="M296.202 249.328H311.978V252.688H296.202V249.328ZM297.034 255.728H311.306V258.96H297.034V255.728ZM295.85 262.768H312.522V265.904H295.85V262.768ZM302.282 250.384H305.834V264.432H302.282V250.384ZM306.858 259.984L309.29 258.704C310.25 259.632 311.402 260.976 311.946 261.84L309.386 263.28C308.874 262.384 307.786 260.976 306.858 259.984ZM290.698 244.08H317.738V272.848H313.61V247.6H294.602V272.848H290.698V244.08ZM292.81 267.728H315.498V271.248H292.81V267.728ZM334.25 242.864H338.186V247.44H334.25V242.864ZM322.698 245.36H349.93V252.592H346.026V248.848H326.442V252.592H322.698V245.36ZM327.562 250.896H344.842V254.16H327.562V250.896ZM330.698 256.592L333.642 254.864C341.194 260.112 341.13 269.136 337.706 271.6C336.49 272.656 335.466 272.944 333.77 272.944C332.97 272.976 332.01 272.944 331.05 272.88C330.986 271.824 330.634 270.288 329.962 269.2C331.146 269.328 332.202 269.36 333.034 269.36C333.834 269.36 334.442 269.264 334.986 268.688C336.81 267.28 336.81 260.944 330.698 256.592ZM335.754 251.728L338.922 253.04C335.53 256.496 329.706 258.96 324.362 260.368C324.01 259.632 323.018 258.096 322.41 257.392C327.498 256.368 332.97 254.384 335.754 251.728ZM333.258 258.096L335.722 259.824C333.066 261.872 328.362 264.24 324.778 265.488C324.362 264.656 323.562 263.344 322.858 262.576C326.346 261.744 330.986 259.824 333.258 258.096ZM335.85 261.136L338.474 263.088C335.05 266.352 328.81 269.744 323.722 271.44C323.274 270.48 322.442 269.104 321.706 268.272C326.762 267.024 332.874 264.016 335.85 261.136ZM340.714 252.272C342.25 258.992 345.546 264.72 351.21 267.248C350.346 268.016 349.13 269.552 348.554 270.608C342.506 267.376 339.306 260.976 337.482 252.912L340.714 252.272ZM346.954 254.352L349.962 256.944C347.754 258.608 344.97 260.4 342.89 261.456L340.426 259.152C342.442 258 345.29 255.952 346.954 254.352ZM364.334 245.636L356.834 273.5H352.663L360.163 245.636H364.334ZM384.478 242.832H388.094V265.424H384.478V242.832ZM375.006 255.696L391.582 248.656L392.99 251.92L376.446 259.088L375.006 255.696ZM378.174 245.936H381.822V266.672C381.822 268.56 382.11 268.816 384.094 268.816C385.054 268.816 389.31 268.816 390.302 268.816C392.062 268.816 392.382 268.112 392.638 264.816C393.47 265.392 394.974 266 395.998 266.192C395.518 270.736 394.366 272.24 390.622 272.24C389.566 272.24 384.766 272.24 383.774 272.24C379.39 272.24 378.174 271.088 378.174 266.64V245.936ZM390.846 249.072H390.622L391.294 248.592L391.966 248.112L394.654 249.072L394.494 249.712C394.494 255.824 394.43 259.696 394.302 261.008C394.174 262.48 393.63 263.248 392.638 263.664C391.71 264.112 390.334 264.112 389.31 264.112C389.182 263.152 388.894 261.712 388.478 260.912C389.022 260.944 389.758 260.944 390.046 260.944C390.43 260.944 390.622 260.848 390.718 260.272C390.846 259.632 390.846 256.144 390.846 249.072ZM365.822 250.256H376.382V253.872H365.822V250.256ZM369.534 243.28H373.118V264.496H369.534V243.28ZM365.374 264.528C368.03 263.568 372.19 261.84 376.094 260.176L376.958 263.568C373.566 265.296 369.886 267.024 366.91 268.368L365.374 264.528ZM418.558 248.656L422.366 249.936C418.782 257.008 413.182 263.184 407.294 267.024C406.654 266.224 405.15 264.72 404.286 264.016C410.238 260.688 415.486 255.024 418.558 248.656ZM405.47 253.104L408.158 250.64C413.662 254.064 420.51 259.248 423.71 263.216L420.67 266.128C417.726 262.224 411.102 256.72 405.47 253.104ZM399.294 244.528H426.686V248.208H403.134V272.912H399.294V244.528ZM401.662 267.696H427.486V271.376H401.662V267.696Z" fill="white"/>
<line x1="214.963" y1="213.963" x2="214.963" y2="300.528" stroke="white" stroke-width="2"/>
<line x1="504.875" y1="213.963" x2="504.875" y2="300.528" stroke="white" stroke-width="2"/>
<line x1="645.339" y1="213.963" x2="645.339" y2="300.528" stroke="white" stroke-width="2"/>
<line x1="787.437" y1="213.963" x2="787.437" y2="300.528" stroke="white" stroke-width="2"/>
<defs>
<linearGradient id="paint0_linear_54_188" x1="0" y1="183.43" x2="971" y2="183.43" gradientUnits="userSpaceOnUse">
<stop stop-color="#FF6A00" stop-opacity="0"/>
<stop offset="0.51" stop-color="#FF6A00"/>
<stop offset="1" stop-color="#FF6A00" stop-opacity="0"/>
</linearGradient>
<clipPath id="clip0_54_188">
<path d="M40.0161 300.528H934.251V676.821C934.251 704.435 911.865 726.821 884.251 726.821H90.0161C62.4019 726.821 40.0161 704.435 40.0161 676.821V300.528Z" fill="white"/>
</clipPath>
</defs>
</svg>
