<svg width="1440" height="1016" viewBox="0 0 1440 1016" fill="none" xmlns="http://www.w3.org/2000/svg">
<path d="M0 464C66.5347 468.761 133.069 473.521 157.666 530.535C182.149 587.548 164.693 696.701 213.886 721.298C263.078 745.894 378.919 685.933 441.94 694.548C505.074 703.162 515.276 780.238 524.683 845.186C534.204 910.134 542.932 962.84 551.66 1015.66H0V464Z" fill="#78CFFF"/>
<path d="M0 574.287C53.2731 578.14 106.433 581.994 126.042 627.56C145.764 673.125 131.709 760.516 171.041 780.125C210.485 799.847 303.203 751.901 353.643 758.816C404.082 765.616 412.243 827.277 419.724 879.303C427.318 931.216 434.346 973.495 441.373 1015.66H0V574.287Z" fill="#53BCFF"/>
<path d="M0 684.687C39.8982 687.52 79.9097 690.354 94.5314 724.585C109.267 758.816 98.8386 824.33 128.309 839.065C157.892 853.8 227.374 817.869 265.232 822.97C302.977 828.184 309.097 874.43 314.878 913.421C320.545 952.299 325.759 984.036 330.973 1015.66H0V684.687Z" fill="#33A8FF"/>
<path d="M0 794.973C26.6366 796.9 53.2731 798.827 63.0209 821.61C72.8821 844.393 65.8546 888.031 85.577 897.892C105.186 907.754 151.545 883.724 176.821 887.238C201.984 890.638 206.065 921.469 209.919 947.425C213.659 973.495 217.173 994.577 220.687 1015.66H0V794.973Z" fill="#2C92FF"/>
<path d="M0 905.373C13.2616 906.28 26.6366 907.187 31.5105 918.635C36.3844 930.083 32.984 951.846 42.7318 956.833C52.593 961.707 75.8292 949.692 88.4107 951.392C100.992 953.206 103.032 968.621 104.959 981.543C106.886 994.577 108.586 1005.12 110.287 1015.66H0V905.373Z" fill="#3686FF"/>
<rect y="885.651" width="552" height="130.349" fill="url(#paint0_linear_598_962)"/>
<path d="M1439.66 552.662C1391.19 511.064 1342.83 469.354 1297.17 442.524C1251.51 415.694 1208.79 403.631 1162.68 385.256C1116.57 366.881 1067.31 342.08 1022.9 306.795C978.479 271.511 939.023 225.742 917.83 173.547C896.637 121.353 893.818 62.6201 891 4H1439.66V552.662Z" fill="#78CFFF"/>
<path d="M1439.66 442.975C1400.88 409.606 1362.22 376.238 1325.69 354.819C1289.17 333.287 1254.9 323.705 1218.03 308.937C1181.28 294.282 1141.71 274.442 1106.2 246.259C1070.69 218.076 1039.13 181.439 1022.22 139.615C1005.2 97.9049 1002.94 50.8961 1000.69 4H1439.66V442.975Z" fill="#53BCFF"/>
<path d="M1439.66 333.175C1410.58 308.261 1381.49 283.235 1354.21 267.114C1326.82 250.994 1301.12 243.779 1273.5 232.731C1245.88 221.684 1216.23 206.803 1189.62 185.722C1162.91 164.529 1139.23 137.023 1126.5 105.683C1113.87 74.4569 1112.18 39.1721 1110.49 4H1439.66V333.175Z" fill="#33A8FF"/>
<path d="M1439.66 223.487C1420.27 206.803 1400.88 190.119 1382.62 179.409C1364.47 168.7 1347.33 163.853 1328.85 156.525C1310.47 149.085 1290.74 139.277 1272.93 125.073C1255.23 110.982 1239.34 92.7193 1230.88 71.8641C1222.43 50.8961 1221.3 27.448 1220.17 4H1439.66V223.487Z" fill="#2C92FF"/>
<path d="M1439.66 113.687C1429.97 105.458 1420.27 97.1158 1411.14 91.7047C1402.01 86.2936 1393.44 83.9263 1384.31 80.2062C1375.07 76.5988 1365.15 71.6386 1356.35 64.5365C1347.45 57.5472 1339.56 48.3033 1335.27 37.932C1331.1 27.448 1330.54 15.724 1329.97 4H1439.66V113.687Z" fill="#3686FF"/>
<rect width="549" height="179.242" transform="matrix(1 0 0 -1 904 179.242)" fill="url(#paint1_linear_598_962)"/>
<path d="M264.599 171.47C264.599 197.244 235.79 225 209.526 225C183.262 225 159.542 197.244 159.542 171.47C159.542 145.697 183.262 122 209.526 122C235.79 122 264.599 145.697 264.599 171.47Z" fill="#3686FF"/>
<path d="M1440 842.593C1440 871.343 1415.18 902 1388.46 902C1361.67 902 1332.97 871.343 1332.97 842.593C1332.97 813.843 1361.67 787 1388.46 787C1415.18 787 1440 813.843 1440 842.593Z" fill="#3686FF"/>
<path d="M76.8647 409.346C76.8647 424.585 63.0509 438 48.5623 438C34.1186 438 19 424.585 19 409.346C19 394.108 34.1186 377 48.5623 377C63.0509 377 76.8647 394.108 76.8647 409.346Z" fill="#2C92FF"/>
<path d="M1346.53 620.54C1346.53 635.254 1330.47 651 1314.6 651C1298.69 651 1282.92 635.254 1282.92 620.54C1282.92 605.778 1298.69 592 1314.6 592C1330.47 592 1346.53 605.778 1346.53 620.54Z" fill="#33A8FF"/>
<path d="M992.783 910.4C992.783 942.6 962.653 974.7 929.057 974.7C895.462 974.7 858.401 942.6 858.401 910.4C858.401 878.2 895.462 846 929.057 846C962.653 846 992.783 878.2 992.783 910.4Z" fill="#33A8FF"/>
<path d="M1227.8 468.612C1227.8 495.839 1201.86 521 1176.11 521C1150.44 521 1125.05 495.839 1125.05 468.612C1125.05 441.386 1150.44 412 1176.11 412C1201.86 412 1227.8 441.386 1227.8 468.612Z" fill="#3686FF"/>
<defs>
<linearGradient id="paint0_linear_598_962" x1="276" y1="1016" x2="276" y2="885.651" gradientUnits="userSpaceOnUse">
<stop stop-color="#87CBFF"/>
<stop offset="1" stop-color="#87CBFF" stop-opacity="0"/>
</linearGradient>
<linearGradient id="paint1_linear_598_962" x1="274.5" y1="179.242" x2="274.5" y2="-2.02399e-06" gradientUnits="userSpaceOnUse">
<stop stop-color="#87CBFF"/>
<stop offset="1" stop-color="#87CBFF" stop-opacity="0"/>
</linearGradient>
</defs>
</svg>
