<svg width="395" height="180" viewBox="0 0 395 180" fill="none" xmlns="http://www.w3.org/2000/svg">
<g filter="url(#filter0_d_732_1009)">
<rect x="25" y="55" width="335" height="90" rx="45" fill="white"/>
</g>
<path d="M120.12 91.28H128.8V94.64H120.12V91.28ZM120.12 96.84H128.8V100.2H120.12V96.84ZM122.44 81L127.96 81.6C127.08 83.72 126.12 85.64 125.36 87L120.88 86.28C121.44 84.72 122.12 82.56 122.44 81ZM117.4 85.48H129V89.12H121.68V104.56H117.4V85.48ZM127.52 85.48H131.92V113.72C131.92 115.84 131.52 117.04 130.2 117.76C128.84 118.52 127 118.6 124.28 118.6C124.12 117.4 123.44 115.44 122.84 114.36C124.48 114.44 126.2 114.4 126.76 114.4C127.32 114.36 127.52 114.2 127.52 113.64V85.48ZM114.16 103.36C117.68 103.04 122.84 102.52 127.84 101.92L128 105.8C123.36 106.48 118.52 107.08 114.76 107.56L114.16 103.36ZM129.72 96.88L134.04 98.2C130.28 106.16 123.96 112.48 116.84 116.32C116.2 115.4 114.64 113.6 113.68 112.76C120.68 109.52 126.56 103.88 129.72 96.88ZM133.04 90.56H151.8V95H133.04V90.56ZM143.16 81.28H147.92V113.12C147.92 115.6 147.4 116.88 145.88 117.64C144.36 118.44 142.16 118.64 138.88 118.6C138.68 117.32 137.8 115.16 137.12 113.92C139.32 114.04 141.48 114 142.2 114C142.92 113.96 143.16 113.76 143.16 113.08V81.28ZM134.2 99.56L138.2 97.96C139.92 100.76 141.56 104.4 142.04 106.88L137.68 108.68C137.28 106.28 135.8 102.48 134.2 99.56ZM157.84 86.6H188.4V91.36H157.84V86.6ZM154.96 95.96H191.04V100.8H154.96V95.96ZM170.68 81.08H175.76V115.16H170.68V81.08ZM182.76 103.08H187.76V118.6H182.76V103.08ZM158.28 103.16H163.4V112.08H186.24V116.76H158.28V103.16ZM200 82.6H231.04V87.08H200V82.6ZM196.84 82.6H201.76V96.84C201.76 103.28 201.28 112.68 198.2 118.6C197.28 117.8 195.08 116.44 193.88 115.96C196.64 110.56 196.84 102.72 196.84 96.84V82.6ZM203.32 94.68H226.92V99.2H203.32V94.68ZM224.88 94.68H229.72C229.72 94.68 229.68 96.12 229.6 96.72C229.04 109.12 228.44 114 226.96 115.72C225.92 117.04 224.84 117.44 223.24 117.64C221.84 117.8 219.52 117.8 217.16 117.72C217.08 116.28 216.44 114.24 215.56 112.92C217.84 113.12 220.12 113.16 221.12 113.16C221.88 113.16 222.32 113.04 222.8 112.56C223.88 111.56 224.4 106.84 224.88 95.48V94.68ZM212.36 88.96H217.4C216.96 100.96 216.12 112.08 204.72 118.36C204.12 117.2 202.72 115.64 201.6 114.8C211.96 109.4 212.04 99.6 212.36 88.96ZM250.56 81.24H255.52V99.08C255.52 107.76 252.72 115.32 237.12 118.72C236.56 117.64 235.24 115.52 234.2 114.44C248.96 111.84 250.56 106.12 250.56 99.04V81.24ZM242.04 91.44V97.04H263.88V91.44H242.04ZM237.36 86.8H268.84V101.64H237.36V86.8ZM243.4 102.08C248.64 111.64 257.4 113.04 272.2 113.24C271.28 114.4 270.28 116.56 270 118.24C254.64 117.52 244.68 115.16 238.96 103.68L243.4 102.08Z" fill="#004793"/>
<path d="M228.097 35.097H225.339C223.946 19.479 211.521 7.05424 195.903 5.66081V2.90298C195.903 1.30634 194.597 0 193 0C191.403 0 190.097 1.30634 190.097 2.90298V5.66081C174.479 7.05424 162.054 19.479 160.661 35.097H157.903C156.306 35.097 155 36.4034 155 38C155 39.5966 156.306 40.903 157.903 40.903H160.661C162.054 56.521 174.479 68.9458 190.097 70.3392V73.097C190.097 74.6937 191.403 76 193 76C194.597 76 195.903 74.6937 195.903 73.097V70.3392C211.521 68.9458 223.946 56.521 225.339 40.903H228.097C229.694 40.903 231 39.5966 231 38C231 36.4034 229.694 35.097 228.097 35.097ZM190.097 64.5042C184.065 63.8417 178.439 61.1423 174.149 56.8514C169.858 52.5606 167.158 46.9349 166.496 40.903H175.553C176.16 44.5402 177.888 47.8969 180.496 50.5044C183.103 53.1118 186.46 54.8398 190.097 55.4469V64.5042ZM190.097 49.5248C188.017 48.9976 186.117 47.9181 184.6 46.4005C183.082 44.8829 182.002 42.9834 181.475 40.903H190.097V49.5248ZM190.097 35.097H181.475C182.549 30.8587 185.859 27.5493 190.097 26.4752V35.097ZM190.097 20.5531C186.46 21.1602 183.103 22.8882 180.496 25.4956C177.888 28.1031 176.16 31.4598 175.553 35.097H166.496C167.158 29.0651 169.858 23.4394 174.149 19.1486C178.439 14.8577 184.065 12.1583 190.097 11.4958V20.5531ZM195.903 26.4752C200.141 27.5493 203.451 30.8587 204.525 35.097H195.903V26.4752ZM195.903 40.903H204.525C203.998 42.9834 202.918 44.8829 201.4 46.4005C199.883 47.9181 197.983 48.9976 195.903 49.5248V40.903ZM195.903 64.5042V55.4469C199.54 54.8398 202.897 53.1118 205.504 50.5044C208.112 47.8969 209.84 44.5402 210.447 40.903H219.504C218.842 46.9349 216.142 52.5606 211.851 56.8514C207.561 61.1423 201.935 63.8417 195.903 64.5042ZM210.447 35.097C209.84 31.4598 208.112 28.1031 205.504 25.4956C202.897 22.8882 199.54 21.1602 195.903 20.5531V11.4958C208.299 12.8312 218.169 22.7013 219.504 35.097H210.447Z" fill="#004793"/>
<defs>
<filter id="filter0_d_732_1009" x="0" y="30" width="395" height="150" filterUnits="userSpaceOnUse" color-interpolation-filters="sRGB">
<feFlood flood-opacity="0" result="BackgroundImageFix"/>
<feColorMatrix in="SourceAlpha" type="matrix" values="0 0 0 0 0 0 0 0 0 0 0 0 0 0 0 0 0 0 127 0" result="hardAlpha"/>
<feOffset dx="5" dy="5"/>
<feGaussianBlur stdDeviation="15"/>
<feComposite in2="hardAlpha" operator="out"/>
<feColorMatrix type="matrix" values="0 0 0 0 0 0 0 0 0 0 0 0 0 0 0 0 0 0 0.25 0"/>
<feBlend mode="normal" in2="BackgroundImageFix" result="effect1_dropShadow_732_1009"/>
<feBlend mode="normal" in="SourceGraphic" in2="effect1_dropShadow_732_1009" result="shape"/>
</filter>
</defs>
</svg>
