<svg width="971" height="768" viewBox="0 0 971 768" fill="none" xmlns="http://www.w3.org/2000/svg">
<rect x="4.90039" width="965.283" height="767.654" rx="59" fill="white"/>
<path d="M4.90039 59C4.90039 26.4152 31.3156 0 63.9004 0H911.184C943.769 0 970.184 26.4152 970.184 59V182.93H4.90039V59Z" fill="#FFF6BF"/>
<path d="M482.985 85.3285H489.041V94.4123H482.985V85.3285ZM480.563 94.4123H491.463C491.796 94.4123 492.069 94.6848 492.069 95.0179V97.4402H479.957V95.0179C479.957 94.6848 480.23 94.4123 480.563 94.4123Z" fill="#F5CF41"/>
<path d="M476.928 97.4402H495.096C495.899 97.4402 496.669 97.7592 497.237 98.327C497.805 98.8949 498.124 99.6651 498.124 100.468V103.496H473.9V100.468C473.9 99.6651 474.219 98.8949 474.787 98.327C475.355 97.7592 476.125 97.4402 476.928 97.4402Z" fill="#E3A815"/>
<path d="M464.817 55.0493V61.1051C464.817 61.9082 465.136 62.6784 465.704 63.2462C466.272 63.8141 467.042 64.1331 467.845 64.1331C468.648 64.1331 469.418 63.8141 469.986 63.2462C470.554 62.6784 470.873 61.9082 470.873 61.1051V55.0493H464.817ZM461.789 52.0214H473.901V61.1051C473.901 61.9004 473.744 62.6879 473.44 63.4226C473.135 64.1573 472.689 64.8249 472.127 65.3873C471.565 65.9496 470.897 66.3957 470.162 66.7C469.428 67.0044 468.64 67.161 467.845 67.161C467.05 67.161 466.262 67.0044 465.527 66.7C464.793 66.3957 464.125 65.9496 463.563 65.3873C463 64.8249 462.554 64.1573 462.25 63.4226C461.946 62.6879 461.789 61.9004 461.789 61.1051V52.0214ZM501.152 55.0493V61.1051C501.152 61.9082 501.471 62.6784 502.039 63.2462C502.607 63.8141 503.377 64.1331 504.18 64.1331C504.983 64.1331 505.753 63.8141 506.321 63.2462C506.889 62.6784 507.208 61.9082 507.208 61.1051V55.0493H501.152ZM498.124 52.0214H510.236V61.1051C510.236 61.9004 510.079 62.6879 509.775 63.4226C509.471 64.1573 509.024 64.8249 508.462 65.3873C507.9 65.9496 507.232 66.3957 506.497 66.7C505.763 67.0044 504.975 67.161 504.18 67.161C503.385 67.161 502.597 67.0044 501.863 66.7C501.128 66.3957 500.46 65.9496 499.898 65.3873C499.336 64.8249 498.889 64.1573 498.585 63.4226C498.281 62.6879 498.124 61.9004 498.124 61.1051V52.0214Z" fill="#F5CF41"/>
<path d="M470.874 42.9376H501.153C501.956 42.9376 502.726 43.2566 503.294 43.8245C503.862 44.3923 504.181 45.1625 504.181 45.9655V70.189C504.181 75.0073 502.267 79.6283 498.86 83.0354C495.453 86.4424 490.832 88.3565 486.013 88.3565C481.195 88.3565 476.574 86.4424 473.167 83.0354C469.76 79.6283 467.846 75.0073 467.846 70.189V45.9655C467.846 45.1625 468.165 44.3923 468.733 43.8245C469.3 43.2566 470.071 42.9376 470.874 42.9376Z" fill="#F5CF41"/>
<path d="M486.012 70.1889L478.894 73.9314L480.253 66.0043L474.494 60.3905L482.452 59.2339L486.012 52.0214L489.573 59.2339L497.531 60.3905L491.771 66.0043L493.131 73.9314L486.012 70.1889Z" fill="#FFF2A0"/>
<path d="M439.074 47.6822L434.458 50.0436L441.822 52.08L444.383 50.9698L439.074 47.6822Z" fill="#FF6464"/>
<path d="M454.784 40.7149L445.652 32.5239L441.002 32.8478L450.984 40.9796L454.784 40.7149Z" fill="#FFE100"/>
<path d="M462.48 28.9009L465.947 26.1674L470.126 33.4407L468.223 34.861L462.48 28.9009Z" fill="#65D556"/>
<path d="M459.295 36.4264L456.705 35.2261V36.4249L457.768 36.8955L459.295 36.4264Z" fill="#FF6464"/>
<path d="M457.677 92.7954L452.534 92.1295L458.779 87.7282L461.564 87.9081L457.677 92.7954Z" fill="#FFE100"/>
<path d="M447.843 78.8834L438.242 84.2021L441.828 85.3471L451.489 80.0475L447.843 78.8834Z" fill="#65D556"/>
<path d="M446.625 66.2334L449.215 65.0345V66.2334L448.152 66.7039L446.625 66.2334Z" fill="#00C4FF"/>
<path d="M437.399 68.5409L438.027 68.863L436.821 69.2856L436.102 68.914L437.399 68.5409Z" fill="#FF6464"/>
<path d="M468.751 82.6887H469.69L468.751 83.6705H467.377L468.751 82.6887Z" fill="#00C4FF"/>
<path d="M512.592 90.5574L516.014 87.7364L509.763 82.0848L507.963 83.6491L512.592 90.5574Z" fill="#FF6464"/>
<path d="M528.016 71.5452L538.228 75.7014L534.789 77.2728L524.52 73.1427L528.016 71.5452Z" fill="#00C4FF"/>
<path d="M530.414 61.4906L537.76 59.8592L539.257 55.6801L532.117 58.5249L530.414 61.4906Z" fill="#FFE100"/>
<path d="M522.691 70.8239L522.059 71.1474L523.271 71.572L523.993 71.1987L522.691 70.8239Z" fill="#65D556"/>
<path d="M525.378 82.4704L526.189 83.4585L525.006 83.8646L522.533 81.0349L524.072 81.1502L525.378 82.4718L525.378 82.4704ZM519.83 46.3477L528.205 37.2994L527.813 42.5311L519.58 49.6896L519.83 46.3492L519.83 46.3477Z" fill="#FFE100"/>
<path d="M500.297 36.838L507.739 27.0141L512.388 26.4454L504.097 36.3711L500.297 36.838Z" fill="#65D556"/>
<path d="M512.98 41.6721L512.098 42.5941L513.246 43.0887L515.924 40.4531H514.381L512.98 41.6721Z" fill="#FF6464"/>
<path d="M528.289 49.2474H527.344L528.289 50.2338H529.668L528.289 49.2474Z" fill="#65D556"/>
<line x1="165.779" y1="138.281" x2="396.075" y2="138.281" stroke="#FF6A00" stroke-width="6"/>
<line x1="580.641" y1="138.281" x2="809.303" y2="138.281" stroke="#FF6A00" stroke-width="6"/>
<path d="M428.08 144.8H463.88V149H428.08V144.8ZM443.52 142.44H448.56C447.56 151.48 445.08 157.08 429.72 159.52C429.4 158.32 428.32 156.48 427.48 155.52C441.28 153.64 442.72 149.56 443.52 142.44ZM448.84 148.12C451.32 152.52 456.68 154.56 464.92 155.08C463.88 156.08 462.64 158.08 462.04 159.36C453.04 158.28 447.8 155.32 444.56 149.04L448.84 148.12ZM428.04 125.92L431.6 124.04C433 125.76 434.6 128.2 435.16 129.84L431.36 132C430.84 130.36 429.36 127.8 428.04 125.92ZM436.08 122.04H440.76V142.48H436.08V122.04ZM427.28 136.24C429.76 135.12 433.44 133.16 437.04 131.24L438.32 135C435.28 136.88 432 138.84 429.24 140.4L427.28 136.24ZM446.08 132.6L449.52 130.52C451.24 131.96 453.36 134.12 454.4 135.6L450.76 137.88C449.84 136.4 447.8 134.16 446.08 132.6ZM448.4 125.36H460.68V129.36H448.4V125.36ZM449.36 121.88L453.88 123.44C451.56 127.16 447.76 130.88 443.92 133.08C443.24 132.08 441.92 130.44 441.04 129.6C444.48 127.8 447.84 124.68 449.36 121.88ZM460 125.36H460.96L461.76 125.24L464.64 126.56C461.52 136.44 453.64 140.64 443.6 142.4C443.2 141.28 441.92 139.32 441.08 138.4C450.68 137.16 457.64 133.92 460 126.08V125.36ZM482.2 147.68H504.48V151.72H482.2V147.68ZM494.72 142.64H499.24V159.64H494.72V142.64ZM491.12 121.96L496.44 122.88C495.28 124.92 494 126.96 493.08 128.32L489.24 127.32C489.96 125.72 490.76 123.56 491.12 121.96ZM491.44 127.92H495.48V134.68C495.48 139.36 494.2 145.04 486.32 148.28C485.64 147.52 484.16 146.24 483.28 145.64C490.44 142.8 491.44 138.16 491.44 134.56V127.92ZM471.44 132.56H482.84V136.64H471.44V132.56ZM476.12 122.08H480.28V135H476.12V122.08ZM471.68 141.24H481.12V159.64H476.88V145.28H471.68V141.24ZM469.44 123.08H473.56V138.04C473.56 144.32 473.12 153.48 470.88 159.72C469.96 159.24 468.04 158.6 466.88 158.28C469.12 152.48 469.44 143.64 469.44 138.04V123.08ZM487.8 135.44V138.2H499.08V135.44H487.8ZM487.8 129.36V132.08H499.08V129.36H487.8ZM483.56 125.76H503.48V141.76H483.56V125.76ZM522 125.56H543.8V129.36H522V125.56ZM530.32 122.04H534.96V127.4H530.32V122.04ZM530.32 137.88H534.96V142.92H530.32V137.88ZM521.92 141.24H543.84V145.16H521.92V141.24ZM525.2 129.6L529.24 128.76C529.8 130.16 530.32 132 530.52 133.12L526.28 134.12C526.12 132.92 525.68 131 525.2 129.6ZM536.08 128.36L540.84 129.08C540.08 131 539.36 132.88 538.8 134.16L534.76 133.48C535.28 132 535.84 129.88 536.08 128.36ZM521.52 133.24H544.24V139.96H539.8V136.96H525.72V140H521.52V133.24ZM528.52 147.4H538.96V151.28H528.52V147.4ZM537.36 147.4H541.96C541.96 147.4 541.92 148.48 541.88 149.04C541.48 154.6 541.04 157.16 540.04 158.2C539.24 159.08 538.36 159.4 537.2 159.48C536.2 159.6 534.44 159.64 532.56 159.6C532.48 158.36 532 156.64 531.36 155.6C532.84 155.72 534.28 155.76 534.88 155.76C535.48 155.76 535.8 155.68 536.16 155.36C536.68 154.8 537.08 152.84 537.36 148V147.4ZM507.76 130.32H521V134.76H507.76V130.32ZM512.64 122.04H517V159.6H512.64V122.04ZM512.56 133.36L515.24 134.28C514.08 140.6 511.8 148.32 508.96 152.44C508.56 151.16 507.52 149.32 506.84 148.2C509.4 144.72 511.64 138.44 512.56 133.36ZM516.8 136.4C517.72 137.6 521.12 142.84 521.8 144.04L519.32 147.48C518.36 145.04 515.92 140.36 514.8 138.36L516.8 136.4ZM527.88 142.84H532.44C532 150.8 530.68 156.52 522.72 159.72C522.24 158.6 521.04 156.96 520.08 156.12C526.76 153.64 527.52 149.24 527.88 142.84Z" fill="#FF6A00"/>
<line y1="181.43" x2="971" y2="181.43" stroke="url(#paint0_linear_732_1078)" stroke-width="3"/>
<g clip-path="url(#clip0_732_1078)">
<path d="M40.0156 300.528H934.25V676.821C934.25 704.435 911.865 726.821 884.25 726.821H90.0156C62.4014 726.821 40.0156 704.435 40.0156 676.821V300.528Z" fill="white"/>
<mask id="path-31-inside-1_732_1078" fill="white">
<path d="M40.0156 300.528H934.25V371.577H40.0156V300.528Z"/>
</mask>
<path d="M40.0156 300.528H934.25V371.577H40.0156V300.528Z" fill="white"/>
<path d="M934.25 369.577H40.0156V373.577H934.25V369.577Z" fill="#3686FF" mask="url(#path-31-inside-1_732_1078)"/>
<mask id="path-33-inside-2_732_1078" fill="white">
<path d="M40.0156 371.577H934.25V442.626H40.0156V371.577Z"/>
</mask>
<path d="M40.0156 371.577H934.25V442.626H40.0156V371.577Z" fill="#96DBFF" fill-opacity="0.43"/>
<path d="M934.25 440.626H40.0156V444.626H934.25V440.626Z" fill="#3686FF" mask="url(#path-33-inside-2_732_1078)"/>
<path d="M859 410.278C857.502 410.278 856.226 409.871 855.172 409.055C854.118 408.233 853.313 407.044 852.756 405.486C852.199 403.921 851.92 402.032 851.92 399.818C851.92 397.617 852.199 395.738 852.756 394.18C853.319 392.616 854.128 391.423 855.182 390.601C856.242 389.772 857.515 389.358 859 389.358C860.485 389.358 861.754 389.772 862.808 390.601C863.869 391.423 864.678 392.616 865.234 394.18C865.798 395.738 866.08 397.617 866.08 399.818C866.08 402.032 865.801 403.921 865.244 405.486C864.688 407.044 863.882 408.233 862.828 409.055C861.774 409.871 860.498 410.278 859 410.278ZM859 408.091C860.485 408.091 861.638 407.375 862.46 405.943C863.282 404.511 863.693 402.47 863.693 399.818C863.693 398.055 863.504 396.554 863.126 395.314C862.755 394.074 862.218 393.13 861.516 392.48C860.82 391.83 859.981 391.506 859 391.506C857.528 391.506 856.378 392.232 855.55 393.683C854.721 395.128 854.307 397.173 854.307 399.818C854.307 401.581 854.492 403.08 854.864 404.312C855.235 405.545 855.768 406.483 856.464 407.126C857.167 407.769 858.012 408.091 859 408.091Z" fill="black"/>
<path d="M714.075 417.278C712.762 417.278 711.592 417.053 710.565 416.602C709.544 416.152 708.732 415.525 708.129 414.723C707.532 413.914 707.207 412.976 707.154 411.909H709.66C709.713 412.565 709.938 413.132 710.336 413.609C710.734 414.08 711.254 414.445 711.897 414.703C712.54 414.962 713.253 415.091 714.035 415.091C714.91 415.091 715.685 414.938 716.362 414.634C717.038 414.329 717.568 413.904 717.952 413.361C718.337 412.817 718.529 412.188 718.529 411.472C718.529 410.723 718.344 410.063 717.972 409.493C717.601 408.916 717.058 408.465 716.342 408.141C715.626 407.816 714.751 407.653 713.717 407.653H712.086V405.466H713.717C714.525 405.466 715.235 405.32 715.844 405.028C716.461 404.737 716.942 404.326 717.286 403.795C717.638 403.265 717.813 402.642 717.813 401.926C717.813 401.237 717.661 400.637 717.356 400.126C717.051 399.616 716.62 399.218 716.063 398.933C715.513 398.648 714.863 398.506 714.114 398.506C713.412 398.506 712.749 398.635 712.126 398.893C711.509 399.145 711.005 399.513 710.614 399.997C710.223 400.474 710.011 401.051 709.978 401.727H707.592C707.631 400.66 707.953 399.725 708.556 398.923C709.159 398.115 709.948 397.485 710.923 397.034C711.904 396.583 712.981 396.358 714.154 396.358C715.414 396.358 716.494 396.613 717.396 397.124C718.297 397.627 718.99 398.294 719.474 399.122C719.958 399.951 720.2 400.846 720.2 401.807C720.2 402.954 719.898 403.931 719.295 404.74C718.698 405.549 717.886 406.109 716.859 406.42V406.58C718.145 406.792 719.149 407.339 719.871 408.22C720.594 409.095 720.955 410.179 720.955 411.472C720.955 412.579 720.654 413.573 720.05 414.455C719.454 415.33 718.638 416.019 717.604 416.523C716.57 417.027 715.394 417.278 714.075 417.278Z" fill="black"/>
<mask id="path-37-inside-3_732_1078" fill="white">
<path d="M40.0156 513.675H934.25V584.723H40.0156V513.675Z"/>
</mask>
<path d="M40.0156 513.675H934.25V584.723H40.0156V513.675Z" fill="#96DBFF" fill-opacity="0.43"/>
<path d="M934.25 582.723H40.0156V586.723H934.25V582.723Z" fill="#3686FF" mask="url(#path-37-inside-3_732_1078)"/>
<path d="M861.759 538.636V559H859.293V541.222H859.174L854.202 544.523V542.017L859.293 538.636H861.759Z" fill="black"/>
<path d="M710.131 559V557.21L716.853 549.852C717.642 548.991 718.291 548.241 718.802 547.605C719.312 546.962 719.69 546.359 719.935 545.795C720.187 545.225 720.313 544.629 720.313 544.006C720.313 543.29 720.141 542.67 719.796 542.146C719.458 541.623 718.994 541.218 718.404 540.933C717.814 540.648 717.151 540.506 716.415 540.506C715.633 540.506 714.951 540.668 714.367 540.993C713.79 541.311 713.343 541.759 713.025 542.335C712.713 542.912 712.558 543.588 712.558 544.364H710.211C710.211 543.17 710.486 542.123 711.036 541.222C711.586 540.32 712.335 539.617 713.283 539.114C714.238 538.61 715.308 538.358 716.495 538.358C717.688 538.358 718.746 538.61 719.667 539.114C720.588 539.617 721.311 540.297 721.835 541.152C722.358 542.007 722.62 542.958 722.62 544.006C722.62 544.755 722.484 545.487 722.212 546.203C721.947 546.912 721.483 547.705 720.82 548.58C720.164 549.448 719.253 550.509 718.086 551.761L713.512 556.653V556.812H722.978V559H710.131Z" fill="black"/>
<path d="M576.759 538.636V559H574.293V541.222H574.174L569.202 544.523V542.017L574.293 538.636H576.759Z" fill="black"/>
<mask id="path-42-inside-4_732_1078" fill="white">
<path d="M40.0156 655.772H934.25V726.821H40.0156V655.772Z"/>
</mask>
<path d="M40.0156 655.772H934.25V726.821H40.0156V655.772Z" fill="#96DBFF" fill-opacity="0.43"/>
<path d="M934.25 724.821H40.0156V728.821H934.25V724.821Z" fill="#3686FF" mask="url(#path-42-inside-4_732_1078)"/>
<mask id="path-44-inside-5_732_1078" fill="white">
<path d="M40.0156 442.626H934.25V513.675H40.0156V442.626Z"/>
</mask>
<path d="M40.0156 442.626H934.25V513.675H40.0156V442.626Z" fill="white"/>
<path d="M934.25 511.675H40.0156V515.675H934.25V511.675Z" fill="#3686FF" mask="url(#path-44-inside-5_732_1078)"/>
<mask id="path-46-inside-6_732_1078" fill="white">
<path d="M40.0156 584.723H934.25V655.772H40.0156V584.723Z"/>
</mask>
<path d="M40.0156 584.723H934.25V655.772H40.0156V584.723Z" fill="white"/>
<path d="M934.25 653.772H40.0156V657.772H934.25V653.772Z" fill="#3686FF" mask="url(#path-46-inside-6_732_1078)"/>
<path d="M576.759 609.636V630H574.293V612.222H574.174L569.202 615.523V613.017L574.293 609.636H576.759Z" fill="black"/>
<path d="M576.759 680.636V701H574.293V683.222H574.174L569.202 686.523V684.017L574.293 680.636H576.759Z" fill="black"/>
<line x1="214.963" y1="300.528" x2="214.963" y2="726.821" stroke="#3686FF" stroke-width="2"/>
<line x1="504.875" y1="300.528" x2="504.875" y2="726.821" stroke="#3686FF" stroke-width="2"/>
<line x1="645.338" y1="300.528" x2="645.338" y2="726.821" stroke="#3686FF" stroke-width="2"/>
<line x1="787.436" y1="300.528" x2="787.436" y2="726.821" stroke="#3686FF" stroke-width="2"/>
<path d="M129.759 325.636V346H127.293V328.222H127.174L122.202 331.523V329.017L127.293 325.636H129.759Z" fill="black"/>
<path d="M333.688 327.492H356.256V340.68H354.072V329.564H335.788V340.82H333.688V327.492ZM334.808 337.012H355.332V339.056H334.808V337.012ZM343.824 322.48H346.008V348.212H343.824V322.48ZM365.776 328.108H380.14V329.984H365.776V328.108ZM366.56 333.96H379.468V335.808H366.56V333.96ZM365.356 340.54H380.756V342.332H365.356V340.54ZM371.852 328.696H373.812V341.492H371.852V328.696ZM375.576 337.04L376.92 336.284C377.984 337.208 379.216 338.496 379.776 339.364L378.348 340.232C377.788 339.364 376.584 337.992 375.576 337.04ZM361.38 323.768H384.592V348.268H382.352V325.7H363.508V348.268H361.38V323.768ZM362.528 344.908H383.388V346.84H362.528V344.908Z" fill="black"/>
<path d="M573.954 346.278C572.787 346.278 571.737 346.046 570.802 345.582C569.867 345.118 569.118 344.482 568.555 343.673C567.991 342.865 567.683 341.943 567.63 340.909H570.017C570.109 341.83 570.527 342.593 571.269 343.196C572.018 343.793 572.913 344.091 573.954 344.091C574.789 344.091 575.532 343.895 576.181 343.504C576.838 343.113 577.351 342.576 577.722 341.893C578.1 341.204 578.289 340.425 578.289 339.557C578.289 338.669 578.094 337.876 577.703 337.18C577.318 336.478 576.788 335.924 576.112 335.52C575.436 335.116 574.663 334.91 573.795 334.903C573.172 334.897 572.532 334.993 571.876 335.192C571.22 335.384 570.679 335.633 570.255 335.938L567.948 335.659L569.181 325.636H579.761V327.824H571.249L570.534 333.83H570.653C571.07 333.498 571.594 333.223 572.224 333.004C572.854 332.786 573.51 332.676 574.193 332.676C575.439 332.676 576.549 332.974 577.524 333.571C578.505 334.161 579.274 334.97 579.83 335.997C580.394 337.025 580.676 338.198 580.676 339.517C580.676 340.816 580.384 341.976 579.801 342.997C579.224 344.011 578.428 344.813 577.414 345.403C576.4 345.987 575.247 346.278 573.954 346.278Z" fill="black"/>
<path d="M708.631 346V344.21L715.353 336.852C716.142 335.991 716.791 335.241 717.302 334.605C717.812 333.962 718.19 333.359 718.435 332.795C718.687 332.225 718.813 331.629 718.813 331.006C718.813 330.29 718.641 329.67 718.296 329.146C717.958 328.623 717.494 328.218 716.904 327.933C716.314 327.648 715.651 327.506 714.915 327.506C714.133 327.506 713.451 327.668 712.867 327.993C712.29 328.311 711.843 328.759 711.525 329.335C711.213 329.912 711.058 330.588 711.058 331.364H708.711C708.711 330.17 708.986 329.123 709.536 328.222C710.086 327.32 710.835 326.617 711.783 326.114C712.738 325.61 713.808 325.358 714.995 325.358C716.188 325.358 717.246 325.61 718.167 326.114C719.088 326.617 719.811 327.297 720.335 328.152C720.858 329.007 721.12 329.958 721.12 331.006C721.12 331.755 720.984 332.487 720.712 333.203C720.447 333.912 719.983 334.705 719.32 335.58C718.664 336.448 717.753 337.509 716.586 338.761L712.012 343.653V343.812H721.478V346H708.631Z" fill="black"/>
<path d="M858.075 346.278C856.762 346.278 855.592 346.053 854.565 345.602C853.544 345.152 852.732 344.525 852.129 343.723C851.532 342.914 851.207 341.976 851.154 340.909H853.66C853.713 341.565 853.938 342.132 854.336 342.609C854.734 343.08 855.254 343.445 855.897 343.703C856.54 343.962 857.253 344.091 858.035 344.091C858.91 344.091 859.685 343.938 860.362 343.634C861.038 343.329 861.568 342.904 861.952 342.361C862.337 341.817 862.529 341.188 862.529 340.472C862.529 339.723 862.344 339.063 861.972 338.493C861.601 337.916 861.058 337.465 860.342 337.141C859.626 336.816 858.751 336.653 857.717 336.653H856.086V334.466H857.717C858.525 334.466 859.235 334.32 859.844 334.028C860.461 333.737 860.942 333.326 861.286 332.795C861.638 332.265 861.813 331.642 861.813 330.926C861.813 330.237 861.661 329.637 861.356 329.126C861.051 328.616 860.62 328.218 860.063 327.933C859.513 327.648 858.863 327.506 858.114 327.506C857.412 327.506 856.749 327.635 856.126 327.893C855.509 328.145 855.005 328.513 854.614 328.997C854.223 329.474 854.011 330.051 853.978 330.727H851.592C851.631 329.66 851.953 328.725 852.556 327.923C853.159 327.115 853.948 326.485 854.923 326.034C855.904 325.583 856.981 325.358 858.154 325.358C859.414 325.358 860.494 325.613 861.396 326.124C862.297 326.627 862.99 327.294 863.474 328.122C863.958 328.951 864.2 329.846 864.2 330.807C864.2 331.954 863.898 332.931 863.295 333.74C862.698 334.549 861.886 335.109 860.859 335.42V335.58C862.145 335.792 863.149 336.339 863.871 337.22C864.594 338.095 864.955 339.179 864.955 340.472C864.955 341.579 864.654 342.573 864.05 343.455C863.454 344.33 862.638 345.019 861.604 345.523C860.57 346.027 859.394 346.278 858.075 346.278Z" fill="black"/>
<path d="M344.048 397.288H357.32V399.248H344.048V397.288ZM344.608 402.384H356.256V404.372H344.608V402.384ZM355.976 407.536H357.88C357.88 407.536 357.852 408.124 357.824 408.404C357.488 413.36 357.152 415.32 356.564 416.02C356.172 416.468 355.752 416.636 355.108 416.692C354.604 416.748 353.68 416.748 352.7 416.692C352.672 416.16 352.476 415.376 352.224 414.9C353.12 414.984 353.876 415.012 354.268 415.012C354.576 415.012 354.8 414.956 354.996 414.732C355.416 414.256 355.724 412.548 355.976 407.844V407.536ZM343.936 407.536H356.648V409.524H343.936V407.536ZM349.172 393.48H351.272V419.212H349.172V393.48ZM336.88 393.452H338.952V401.348H336.88V393.452ZM336.88 408.74H338.952V419.38H336.88V408.74ZM335.004 405.996V408.096H340.828V405.996H335.004ZM335.004 402.356V404.4H340.828V402.356H335.004ZM333.128 400.676H342.76V409.776H333.128V400.676ZM332.372 396.42H343.348V398.324H332.372V396.42ZM332.092 412.212H343.544V414.116H332.092V412.212ZM365.776 399.108H380.14V400.984H365.776V399.108ZM366.56 404.96H379.468V406.808H366.56V404.96ZM365.356 411.54H380.756V413.332H365.356V411.54ZM371.852 399.696H373.812V412.492H371.852V399.696ZM375.576 408.04L376.92 407.284C377.984 408.208 379.216 409.496 379.776 410.364L378.348 411.232C377.788 410.364 376.584 408.992 375.576 408.04ZM361.38 394.768H384.592V419.268H382.352V396.7H363.508V419.268H361.38V394.768ZM362.528 415.908H383.388V417.84H362.528V415.908Z" fill="black"/>
<path d="M333.716 468.4H356.256V470.304H333.716V468.4ZM335.116 472.572H355.024V474.392H335.116V472.572ZM332.596 476.772H357.376V478.676H332.596V476.772ZM332.4 481.252H357.656V483.128H332.4V481.252ZM343.852 469.464H346.008V478.144H343.852V469.464ZM337.3 465.208L339.12 464.452C340.156 465.488 341.136 466.944 341.584 467.98L339.624 468.876C339.26 467.812 338.308 466.272 337.3 465.208ZM350.46 464.452L352.616 465.124C351.72 466.412 350.656 467.756 349.844 468.68L347.996 468.036C348.836 467.084 349.872 465.516 350.46 464.452ZM343.74 478.312H345.952C345.196 484.864 343.152 488.616 333.1 490.24C332.932 489.708 332.428 488.84 332.036 488.392C341.5 487.02 343.124 483.912 343.74 478.312ZM346.568 481.812C348.164 485.844 351.944 487.776 358.076 488.364C357.6 488.812 357.04 489.708 356.788 490.296C350.32 489.456 346.512 487.104 344.636 482.204L346.568 481.812ZM365.776 470.108H380.14V471.984H365.776V470.108ZM366.56 475.96H379.468V477.808H366.56V475.96ZM365.356 482.54H380.756V484.332H365.356V482.54ZM371.852 470.696H373.812V483.492H371.852V470.696ZM375.576 479.04L376.92 478.284C377.984 479.208 379.216 480.496 379.776 481.364L378.348 482.232C377.788 481.364 376.584 479.992 375.576 479.04ZM361.38 465.768H384.592V490.268H382.352V467.7H363.508V490.268H361.38V465.768ZM362.528 486.908H383.388V488.84H362.528V486.908Z" fill="black"/>
<path d="M324.196 551.804H337.916V549.9H324.196V551.804ZM324.196 548.5H337.916V546.652H324.196V548.5ZM340.016 545.196V553.232H322.18V545.196H340.016ZM337.692 539.288C337.076 540.464 336.46 541.556 335.928 542.396L334.052 541.892C334.556 541.024 335.2 539.708 335.536 538.812L337.692 539.288ZM326.408 538.84C326.996 539.792 327.556 541.052 327.752 541.864L325.764 542.396C325.568 541.5 325.064 540.24 324.504 539.288L326.408 538.84ZM332.008 535.48V538.532H329.88V535.48H332.008ZM343.096 542.088V543.796H319.016V542.088H343.096ZM341.64 537.356V539.064H320.276V537.356H341.64ZM323.888 555.304C323.104 557.32 321.872 559.392 319.8 560.624L318.176 559.504C320.108 558.412 321.424 556.508 322.152 554.632L323.888 555.304ZM338.868 554.408C340.772 555.808 342.928 557.852 343.88 559.364L342.172 560.428C341.248 558.944 339.176 556.816 337.272 555.36L338.868 554.408ZM329.46 553.204C331.028 554.016 333.044 555.248 334.08 556.144L332.848 557.404C331.84 556.508 329.88 555.192 328.284 554.324L329.46 553.204ZM327.36 558.468C327.36 559.112 327.612 559.224 329.068 559.224C329.74 559.224 333.128 559.224 334.024 559.224C335.228 559.224 335.396 558.888 335.536 556.424C335.984 556.704 336.824 556.984 337.356 557.124C337.132 560.26 336.488 561.016 334.22 561.016C333.604 561.016 329.516 561.016 328.928 561.016C326.044 561.016 325.316 560.484 325.316 558.468V554.856H327.36V558.468ZM346.736 543.544H371.348V545.672H346.736V543.544ZM360.372 544.384C362.192 551.16 366 556.816 371.824 559.224C371.292 559.7 370.592 560.596 370.228 561.184C364.18 558.328 360.372 552.42 358.272 544.888L360.372 544.384ZM357.908 535.508H360.176C360.064 542.844 360.008 555.612 347.772 561.212C347.436 560.652 346.764 559.896 346.176 559.476C358.076 554.296 357.852 542.228 357.908 535.508ZM374.372 543.936H387.7V545.896H374.372V543.936ZM389.576 538.812H391.62V554.296H389.576V538.812ZM380.252 537.86H382.324V561.212H380.252V537.86ZM396.464 536.012H398.536V558.44C398.536 559.896 398.172 560.54 397.276 560.876C396.352 561.24 394.784 561.296 392.208 561.268C392.096 560.68 391.76 559.756 391.424 559.14C393.44 559.196 395.176 559.196 395.708 559.168C396.24 559.168 396.464 559 396.464 558.468V536.012ZM385.824 535.648L387.392 537.272C384.144 538.56 379.076 539.484 374.82 540.044C374.736 539.54 374.428 538.812 374.176 538.364C378.32 537.776 383.192 536.824 385.824 535.648ZM380.168 544.832L381.68 545.448C380.252 549.704 377.508 554.716 374.904 557.376C374.652 556.76 374.12 555.92 373.756 555.388C376.22 553.036 378.936 548.584 380.168 544.832ZM382.044 547.716C383.108 548.472 386.72 551.608 387.616 552.392L386.384 554.156C385.236 552.868 382.184 549.928 380.896 548.836L382.044 547.716Z" fill="black"/>
<path d="M332.568 622.244H357.432V624.204H332.568V622.244ZM335.48 615.664H354.688V623.028H352.56V617.54H337.496V623.028H335.48V615.664ZM343.768 612.444H345.952V620.228C345.952 624.988 344.412 629.664 333.324 632.324C333.072 631.848 332.512 631.008 332.064 630.56C342.732 628.18 343.768 624.148 343.768 620.2V612.444ZM346.288 622.944C348.08 627.2 352.084 629.58 358.104 630.392C357.628 630.868 357.068 631.736 356.76 632.324C350.516 631.204 346.484 628.46 344.412 623.42L346.288 622.944ZM332.904 609.084H356.956V610.988H332.904V609.084ZM338.84 606.508H340.912V613.928H338.84V606.508ZM348.92 606.508H350.992V613.928H348.92V606.508ZM365.776 612.108H380.14V613.984H365.776V612.108ZM366.56 617.96H379.468V619.808H366.56V617.96ZM365.356 624.54H380.756V626.332H365.356V624.54ZM371.852 612.696H373.812V625.492H371.852V612.696ZM375.576 621.04L376.92 620.284C377.984 621.208 379.216 622.496 379.776 623.364L378.348 624.232C377.788 623.364 376.584 621.992 375.576 621.04ZM361.38 607.768H384.592V632.268H382.352V609.7H363.508V632.268H361.38V607.768ZM362.528 628.908H383.388V630.84H362.528V628.908Z" fill="black"/>
<path d="M311.344 679.384H320.612V681.204H311.344V679.384ZM311.736 677.424L314.088 677.816C312.352 681.372 309.608 685.264 305.548 688.26C305.212 687.756 304.484 687.028 303.98 686.72C307.816 684.06 310.42 680.42 311.736 677.424ZM308.74 684.172H329.32V686.076H308.74V684.172ZM313.752 688.764H324.196V690.612H313.752V688.764ZM312.688 688.764H314.76V699.572C314.76 700.804 315.18 701.084 317.392 701.084C318.484 701.084 323.944 701.084 325.316 701.084C327.304 701.084 327.64 700.44 327.836 696.884C328.34 697.248 329.208 697.584 329.796 697.696C329.432 701.868 328.704 703.016 325.4 703.016C324.56 703.016 318.176 703.016 317.364 703.016C313.808 703.016 312.688 702.344 312.688 699.572V688.764ZM323.552 688.764H325.596C325.596 688.764 325.568 689.324 325.54 689.604C325.288 694.028 325.008 695.792 324.364 696.464C323.916 696.968 323.412 697.136 322.628 697.192C321.956 697.248 320.584 697.248 319.212 697.164C319.156 696.604 318.96 695.82 318.624 695.316C319.968 695.428 321.256 695.456 321.704 695.456C322.18 695.456 322.432 695.428 322.656 695.204C323.048 694.756 323.3 693.188 323.552 689.072V688.764ZM307.704 684.172H309.776V689.632C309.776 693.72 309.104 699.516 305.52 703.38C305.184 702.96 304.344 702.232 303.896 701.98C307.284 698.34 307.704 693.328 307.704 689.604V684.172ZM319.856 679.384H320.36L320.724 679.272L322.264 680.252C321.34 682.1 319.912 684.34 318.736 685.796C318.288 685.46 317.588 685.04 317.084 684.76C318.148 683.444 319.324 681.232 319.856 679.804V679.384ZM348.78 677.48H350.768V696.996H348.78V677.48ZM339.96 689.044L355.052 682.688L355.836 684.48L340.772 690.892L339.96 689.044ZM342.984 680.112H345V698.844C345 700.384 345.336 700.72 347.212 700.72C348.136 700.72 352.84 700.72 353.96 700.72C355.612 700.72 355.892 699.964 356.088 696.744C356.592 697.08 357.404 697.416 357.992 697.528C357.656 701.392 356.984 702.624 354.044 702.624C353.288 702.624 347.856 702.624 347.156 702.624C343.936 702.624 342.984 701.868 342.984 698.816V680.112ZM354.688 682.968H354.436L354.94 682.548L355.304 682.24L356.788 682.8L356.704 683.192C356.704 688.456 356.62 692.656 356.424 693.748C356.256 694.868 355.724 695.4 354.912 695.596C354.156 695.792 353.036 695.792 352.28 695.792C352.196 695.232 352.028 694.448 351.776 693.972C352.42 694 353.344 694 353.652 694C354.072 694 354.352 693.888 354.492 693.244C354.66 692.516 354.688 688.54 354.688 682.968ZM332.148 684.228H341.052V686.216H332.148V684.228ZM335.76 677.816H337.748V695.988H335.76V677.816ZM331.896 696.716C334.164 695.876 337.608 694.42 340.94 692.992L341.388 694.868C338.392 696.296 335.228 697.724 332.736 698.788L331.896 696.716ZM382.548 689.968H384.704C384.704 689.968 384.704 690.668 384.648 690.976C383.976 698.34 383.36 701.224 382.268 702.316C381.624 702.96 381.008 703.128 379.972 703.212C379.048 703.268 377.368 703.24 375.548 703.156C375.52 702.54 375.268 701.672 374.876 701.112C376.724 701.28 378.488 701.308 379.188 701.308C379.804 701.308 380.168 701.252 380.476 701C381.344 700.216 381.988 697.332 382.548 690.332V689.968ZM362.724 679.188H379.356V681.232H362.724V679.188ZM365.328 683.276L367.4 683.416C367.204 686.216 366.812 689.8 366.476 691.956H364.404C364.768 689.716 365.132 686.02 365.328 683.276ZM365.104 689.968H383.248V691.956H365.104V689.968ZM360.596 695.4H378.88V697.388H360.596V695.4ZM378.824 679.188H379.02L379.384 679.076L380.952 679.244C380.7 682.576 380.14 687.532 379.636 691.256L377.536 691.088C378.068 687.392 378.6 682.044 378.824 679.44V679.188ZM404.444 677.816H406.544V683.836H404.444V677.816ZM398.284 682.94H413.488V684.9H398.284V682.94ZM400.076 686.804L401.924 686.44C403.044 690.416 403.968 695.428 404.108 698.368L402.064 698.9C401.952 695.904 401.14 690.78 400.076 686.804ZM408.868 686.216L411.08 686.608C410.324 691.312 409.148 697.332 408.084 701L406.208 700.608C407.216 696.912 408.364 690.64 408.868 686.216ZM396.828 700.076H413.964V702.064H396.828V700.076ZM387.868 692.32C390.388 691.704 394.168 690.64 397.78 689.604L398.032 691.536C394.7 692.516 391.172 693.58 388.484 694.336L387.868 692.32ZM388.316 683.136H397.5V685.124H388.316V683.136ZM392.292 677.508H394.336V700.804C394.336 702.008 394.028 702.568 393.328 702.876C392.572 703.212 391.424 703.268 389.492 703.268C389.408 702.764 389.1 701.896 388.848 701.336C390.164 701.364 391.368 701.364 391.732 701.364C392.124 701.364 392.292 701.224 392.292 700.804V677.508Z" fill="black"/>
<path d="M576.759 467.636V488H574.293V470.222H574.174L569.202 473.523V471.017L574.293 467.636H576.759Z" fill="black"/>
<path d="M120.631 417V415.21L127.353 407.852C128.142 406.991 128.791 406.241 129.302 405.605C129.812 404.962 130.19 404.359 130.435 403.795C130.687 403.225 130.813 402.629 130.813 402.006C130.813 401.29 130.641 400.67 130.296 400.146C129.958 399.623 129.494 399.218 128.904 398.933C128.314 398.648 127.651 398.506 126.915 398.506C126.133 398.506 125.451 398.668 124.867 398.993C124.29 399.311 123.843 399.759 123.525 400.335C123.213 400.912 123.058 401.588 123.058 402.364H120.711C120.711 401.17 120.986 400.123 121.536 399.222C122.086 398.32 122.835 397.617 123.783 397.114C124.738 396.61 125.808 396.358 126.995 396.358C128.188 396.358 129.246 396.61 130.167 397.114C131.088 397.617 131.811 398.297 132.335 399.152C132.858 400.007 133.12 400.958 133.12 402.006C133.12 402.755 132.984 403.487 132.712 404.203C132.447 404.912 131.983 405.705 131.32 406.58C130.664 407.448 129.753 408.509 128.586 409.761L124.012 414.653V414.812H133.478V417H120.631Z" fill="black"/>
<path d="M127.075 488.278C125.762 488.278 124.592 488.053 123.565 487.602C122.544 487.152 121.732 486.525 121.129 485.723C120.532 484.914 120.207 483.976 120.154 482.909H122.66C122.713 483.565 122.938 484.132 123.336 484.609C123.734 485.08 124.254 485.445 124.897 485.703C125.54 485.962 126.253 486.091 127.035 486.091C127.91 486.091 128.685 485.938 129.362 485.634C130.038 485.329 130.568 484.904 130.952 484.361C131.337 483.817 131.529 483.188 131.529 482.472C131.529 481.723 131.344 481.063 130.972 480.493C130.601 479.916 130.058 479.465 129.342 479.141C128.626 478.816 127.751 478.653 126.717 478.653H125.086V476.466H126.717C127.525 476.466 128.235 476.32 128.844 476.028C129.461 475.737 129.942 475.326 130.286 474.795C130.638 474.265 130.813 473.642 130.813 472.926C130.813 472.237 130.661 471.637 130.356 471.126C130.051 470.616 129.62 470.218 129.063 469.933C128.513 469.648 127.863 469.506 127.114 469.506C126.412 469.506 125.749 469.635 125.126 469.893C124.509 470.145 124.005 470.513 123.614 470.997C123.223 471.474 123.011 472.051 122.978 472.727H120.592C120.631 471.66 120.953 470.725 121.556 469.923C122.159 469.115 122.948 468.485 123.923 468.034C124.904 467.583 125.981 467.358 127.154 467.358C128.414 467.358 129.494 467.613 130.396 468.124C131.297 468.627 131.99 469.294 132.474 470.122C132.958 470.951 133.2 471.846 133.2 472.807C133.2 473.954 132.898 474.931 132.295 475.74C131.698 476.549 130.886 477.109 129.859 477.42V477.58C131.145 477.792 132.149 478.339 132.871 479.22C133.594 480.095 133.955 481.179 133.955 482.472C133.955 483.579 133.654 484.573 133.05 485.455C132.454 486.33 131.638 487.019 130.604 487.523C129.57 488.027 128.394 488.278 127.075 488.278Z" fill="black"/>
<path d="M119.648 554.824V552.795L128.597 538.636H130.069V541.778H129.074L122.313 552.477V552.636H134.364V554.824H119.648ZM129.233 559V554.207V553.263V538.636H131.58V559H129.233Z" fill="black"/>
<path d="M126.954 630.278C125.787 630.278 124.737 630.046 123.802 629.582C122.867 629.118 122.118 628.482 121.555 627.673C120.991 626.865 120.683 625.943 120.63 624.909H123.017C123.109 625.83 123.527 626.593 124.269 627.196C125.018 627.793 125.913 628.091 126.954 628.091C127.789 628.091 128.532 627.895 129.181 627.504C129.838 627.113 130.351 626.576 130.722 625.893C131.1 625.204 131.289 624.425 131.289 623.557C131.289 622.669 131.094 621.876 130.703 621.18C130.318 620.478 129.788 619.924 129.112 619.52C128.436 619.116 127.663 618.91 126.795 618.903C126.172 618.897 125.532 618.993 124.876 619.192C124.22 619.384 123.679 619.633 123.255 619.938L120.948 619.659L122.181 609.636H132.761V611.824H124.249L123.534 617.83H123.653C124.07 617.498 124.594 617.223 125.224 617.004C125.854 616.786 126.51 616.676 127.193 616.676C128.439 616.676 129.549 616.974 130.524 617.571C131.505 618.161 132.274 618.97 132.83 619.997C133.394 621.025 133.676 622.198 133.676 623.517C133.676 624.816 133.384 625.976 132.801 626.997C132.224 628.011 131.428 628.813 130.414 629.403C129.4 629.987 128.247 630.278 126.954 630.278Z" fill="black"/>
<path d="M126.954 701.278C125.787 701.278 124.737 701.046 123.802 700.582C122.867 700.118 122.118 699.482 121.555 698.673C120.991 697.865 120.683 696.943 120.63 695.909H123.017C123.109 696.83 123.527 697.593 124.269 698.196C125.018 698.793 125.913 699.091 126.954 699.091C127.789 699.091 128.532 698.895 129.181 698.504C129.838 698.113 130.351 697.576 130.722 696.893C131.1 696.204 131.289 695.425 131.289 694.557C131.289 693.669 131.094 692.876 130.703 692.18C130.318 691.478 129.788 690.924 129.112 690.52C128.436 690.116 127.663 689.91 126.795 689.903C126.172 689.897 125.532 689.993 124.876 690.192C124.22 690.384 123.679 690.633 123.255 690.938L120.948 690.659L122.181 680.636H132.761V682.824H124.249L123.534 688.83H123.653C124.07 688.498 124.594 688.223 125.224 688.004C125.854 687.786 126.51 687.676 127.193 687.676C128.439 687.676 129.549 687.974 130.524 688.571C131.505 689.161 132.274 689.97 132.83 690.997C133.394 692.025 133.676 693.198 133.676 694.517C133.676 695.816 133.384 696.976 132.801 697.997C132.224 699.011 131.428 699.813 130.414 700.403C129.4 700.987 128.247 701.278 126.954 701.278Z" fill="black"/>
<path d="M574.075 417.278C572.762 417.278 571.592 417.053 570.565 416.602C569.544 416.152 568.732 415.525 568.129 414.723C567.532 413.914 567.207 412.976 567.154 411.909H569.66C569.713 412.565 569.938 413.132 570.336 413.609C570.734 414.08 571.254 414.445 571.897 414.703C572.54 414.962 573.253 415.091 574.035 415.091C574.91 415.091 575.685 414.938 576.362 414.634C577.038 414.329 577.568 413.904 577.952 413.361C578.337 412.817 578.529 412.188 578.529 411.472C578.529 410.723 578.344 410.063 577.972 409.493C577.601 408.916 577.058 408.465 576.342 408.141C575.626 407.816 574.751 407.653 573.717 407.653H572.086V405.466H573.717C574.525 405.466 575.235 405.32 575.844 405.028C576.461 404.737 576.942 404.326 577.286 403.795C577.638 403.265 577.813 402.642 577.813 401.926C577.813 401.237 577.661 400.637 577.356 400.126C577.051 399.616 576.62 399.218 576.063 398.933C575.513 398.648 574.863 398.506 574.114 398.506C573.412 398.506 572.749 398.635 572.126 398.893C571.509 399.145 571.005 399.513 570.614 399.997C570.223 400.474 570.011 401.051 569.978 401.727H567.592C567.631 400.66 567.953 399.725 568.556 398.923C569.159 398.115 569.948 397.485 570.923 397.034C571.904 396.583 572.981 396.358 574.154 396.358C575.414 396.358 576.494 396.613 577.396 397.124C578.297 397.627 578.99 398.294 579.474 399.122C579.958 399.951 580.2 400.846 580.2 401.807C580.2 402.954 579.898 403.931 579.295 404.74C578.698 405.549 577.886 406.109 576.859 406.42V406.58C578.145 406.792 579.149 407.339 579.871 408.22C580.594 409.095 580.955 410.179 580.955 411.472C580.955 412.579 580.654 413.573 580.05 414.455C579.454 415.33 578.638 416.019 577.604 416.523C576.57 417.027 575.394 417.278 574.075 417.278Z" fill="black"/>
<path d="M716.075 488.278C714.762 488.278 713.592 488.053 712.565 487.602C711.544 487.152 710.732 486.525 710.129 485.723C709.532 484.914 709.207 483.976 709.154 482.909H711.66C711.713 483.565 711.938 484.132 712.336 484.609C712.734 485.08 713.254 485.445 713.897 485.703C714.54 485.962 715.253 486.091 716.035 486.091C716.91 486.091 717.685 485.938 718.362 485.634C719.038 485.329 719.568 484.904 719.952 484.361C720.337 483.817 720.529 483.188 720.529 482.472C720.529 481.723 720.344 481.063 719.972 480.493C719.601 479.916 719.058 479.465 718.342 479.141C717.626 478.816 716.751 478.653 715.717 478.653H714.086V476.466H715.717C716.525 476.466 717.235 476.32 717.844 476.028C718.461 475.737 718.942 475.326 719.286 474.795C719.638 474.265 719.813 473.642 719.813 472.926C719.813 472.237 719.661 471.637 719.356 471.126C719.051 470.616 718.62 470.218 718.063 469.933C717.513 469.648 716.863 469.506 716.114 469.506C715.412 469.506 714.749 469.635 714.126 469.893C713.509 470.145 713.005 470.513 712.614 470.997C712.223 471.474 712.011 472.051 711.978 472.727H709.592C709.631 471.66 709.953 470.725 710.556 469.923C711.159 469.115 711.948 468.485 712.923 468.034C713.904 467.583 714.981 467.358 716.154 467.358C717.414 467.358 718.494 467.613 719.396 468.124C720.297 468.627 720.99 469.294 721.474 470.122C721.958 470.951 722.2 471.846 722.2 472.807C722.2 473.954 721.898 474.931 721.295 475.74C720.698 476.549 719.886 477.109 718.859 477.42V477.58C720.145 477.792 721.149 478.339 721.871 479.22C722.594 480.095 722.955 481.179 722.955 482.472C722.955 483.579 722.654 484.573 722.05 485.455C721.454 486.33 720.638 487.019 719.604 487.523C718.57 488.027 717.394 488.278 716.075 488.278Z" fill="black"/>
<path d="M720.759 609.636V630H718.293V612.222H718.174L713.202 615.523V613.017L718.293 609.636H720.759Z" fill="black"/>
<path d="M718 701.278C716.502 701.278 715.226 700.871 714.172 700.055C713.118 699.233 712.313 698.044 711.756 696.486C711.199 694.921 710.92 693.032 710.92 690.818C710.92 688.617 711.199 686.738 711.756 685.18C712.319 683.616 713.128 682.423 714.182 681.601C715.242 680.772 716.515 680.358 718 680.358C719.485 680.358 720.754 680.772 721.808 681.601C722.869 682.423 723.678 683.616 724.234 685.18C724.798 686.738 725.08 688.617 725.08 690.818C725.08 693.032 724.801 694.921 724.244 696.486C723.688 698.044 722.882 699.233 721.828 700.055C720.774 700.871 719.498 701.278 718 701.278ZM718 699.091C719.485 699.091 720.638 698.375 721.46 696.943C722.282 695.511 722.693 693.47 722.693 690.818C722.693 689.055 722.504 687.554 722.126 686.314C721.755 685.074 721.218 684.13 720.516 683.48C719.82 682.83 718.981 682.506 718 682.506C716.528 682.506 715.378 683.232 714.55 684.683C713.721 686.128 713.307 688.173 713.307 690.818C713.307 692.581 713.492 694.08 713.864 695.312C714.235 696.545 714.768 697.483 715.464 698.126C716.167 698.769 717.012 699.091 718 699.091Z" fill="black"/>
<path d="M860.759 467.636V488H858.293V470.222H858.174L853.202 473.523V471.017L858.293 467.636H860.759Z" fill="black"/>
<path d="M859 630.278C857.502 630.278 856.226 629.871 855.172 629.055C854.118 628.233 853.313 627.044 852.756 625.486C852.199 623.921 851.92 622.032 851.92 619.818C851.92 617.617 852.199 615.738 852.756 614.18C853.319 612.616 854.128 611.423 855.182 610.601C856.242 609.772 857.515 609.358 859 609.358C860.485 609.358 861.754 609.772 862.808 610.601C863.869 611.423 864.678 612.616 865.234 614.18C865.798 615.738 866.08 617.617 866.08 619.818C866.08 622.032 865.801 623.921 865.244 625.486C864.688 627.044 863.882 628.233 862.828 629.055C861.774 629.871 860.498 630.278 859 630.278ZM859 628.091C860.485 628.091 861.638 627.375 862.46 625.943C863.282 624.511 863.693 622.47 863.693 619.818C863.693 618.055 863.504 616.554 863.126 615.314C862.755 614.074 862.218 613.13 861.516 612.48C860.82 611.83 859.981 611.506 859 611.506C857.528 611.506 856.378 612.232 855.55 613.683C854.721 615.128 854.307 617.173 854.307 619.818C854.307 621.581 854.492 623.08 854.864 624.312C855.235 625.545 855.768 626.483 856.464 627.126C857.167 627.769 858.012 628.091 859 628.091Z" fill="black"/>
<path d="M861.759 680.636V701H859.293V683.222H859.174L854.202 686.523V684.017L859.293 680.636H861.759Z" fill="black"/>
</g>
<path d="M41.0156 301.528H933.25V676.821C933.25 703.883 911.312 725.821 884.25 725.821H90.0156C62.9537 725.821 41.0156 703.883 41.0156 676.821V301.528Z" stroke="#3686FF" stroke-width="2"/>
<path d="M40.0156 263.963C40.0156 236.349 62.4014 213.963 90.0156 213.963H884.25C911.865 213.963 934.25 236.349 934.25 263.963V300.528H40.0156V263.963Z" fill="#3686FF"/>
<path d="M110.692 268.144H125.028V271.632H110.692V268.144ZM109.092 245.968H120.42V249.36H109.092V245.968ZM109.924 242.64L114.244 243.504C111.524 248.176 107.684 252.464 101.924 255.92C101.38 254.96 100.1 253.552 99.236 252.88C104.516 250.096 108.068 246.192 109.924 242.64ZM119.204 245.968H119.94L120.58 245.776L123.236 247.184C119.492 257.136 110.948 263.664 101.412 266.864C100.932 265.808 99.972 264.24 99.172 263.44C108.004 260.88 116.26 254.672 119.204 246.608V245.968ZM104.9 253.008L107.748 250.512C109.956 252.08 112.868 254.352 114.276 256.016L111.172 258.8C109.956 257.136 107.108 254.672 104.9 253.008ZM123.236 258.384H127.236V272.912H123.236V258.384ZM112.324 258.384H125.156V261.872H112.324V272.848H108.484V261.232L111.396 258.384H112.324ZM144.1 242.96L148.1 243.664C146.852 249.36 144.676 254.704 142.052 258.096C141.252 257.488 139.428 256.464 138.404 256.016C141.156 253.04 143.108 248.048 144.1 242.96ZM150.02 251.952H152.004V255.472C152.004 258.96 153.924 265.936 161.828 269.392C161.092 270.32 159.94 271.92 159.332 272.88C153.604 270.256 150.596 264.592 149.988 261.712C149.22 264.592 145.956 270.064 139.46 272.88C139.012 271.984 137.796 270.352 137.124 269.648C145.796 266.192 147.94 259.12 147.94 255.472V251.952H150.02ZM131.364 265.072C133.156 263.344 136.036 260.4 138.692 257.488L140.868 260.784C138.66 263.376 136.036 266.192 133.828 268.368L131.364 265.072ZM132.292 247.632L135.012 244.816C136.932 246.064 139.524 247.984 140.772 249.36L137.86 252.528C136.74 251.12 134.244 249.04 132.292 247.632ZM145.476 248.368H158.596V252.176H143.588L145.476 248.368ZM157.316 248.368H157.892L158.628 248.144L161.476 249.808C160.548 253.04 159.012 256.368 157.764 258.64C156.964 258.224 155.428 257.424 154.5 257.072C155.524 255.12 156.836 251.728 157.316 249.2V248.368Z" fill="white"/>
<path d="M573.838 246.48C571.182 250.224 566.286 254.416 561.038 257.2C560.558 256.304 559.47 254.896 558.638 254.096C564.142 251.408 569.294 246.608 571.662 242.736H575.662C579.118 247.6 584.27 251.632 589.358 253.712C588.43 254.672 587.534 255.984 586.83 257.168C581.934 254.576 576.59 250.256 573.838 246.48ZM565.806 252.432H581.934V255.792H565.806V252.432ZM561.998 258.96H585.71V262.256H561.998V258.96ZM560.366 268.688H587.566V271.984H560.366V268.688ZM571.726 253.776H575.822V270.32H571.726V253.776ZM563.982 263.472L567.086 262.192C568.302 263.824 569.582 266.032 570.062 267.536L566.734 268.976C566.318 267.504 565.134 265.168 563.982 263.472ZM580.27 262.224L583.918 263.6C582.606 265.552 581.198 267.632 580.078 268.976L577.198 267.792C578.222 266.288 579.566 263.952 580.27 262.224Z" fill="white"/>
<path d="M716.702 244.112H729.086V258.832H716.702V255.536H725.598V247.408H716.702V244.112ZM716.67 249.904H727.038V253.008H716.67V249.904ZM722.91 256.912C724.094 262.576 726.654 267.312 731.166 269.456C730.366 270.192 729.278 271.728 728.734 272.752C723.87 269.936 721.374 264.464 719.998 257.488L722.91 256.912ZM728.318 259.184L730.686 261.904C728.99 263.28 726.942 264.816 725.374 265.744L723.486 263.376C724.926 262.384 727.102 260.56 728.318 259.184ZM714.974 272.976L714.654 269.648L716.19 268.432L723.07 266.928C723.038 268.016 723.102 269.584 723.23 270.416C716.958 272.016 715.742 272.464 714.974 272.976ZM714.974 272.976C714.718 272.112 713.886 270.608 713.342 269.968C714.014 269.552 714.814 268.656 714.814 267.184V244.112H718.59V269.488C718.59 269.488 714.974 271.6 714.974 272.976ZM705.438 242.896L708.83 243.92C707.486 247.664 705.214 251.536 702.654 253.968C702.366 253.136 701.438 251.12 700.862 250.224C702.782 248.432 704.478 245.744 705.438 242.896ZM705.566 245.936H713.022V249.584H704.83L705.566 245.936ZM703.806 251.92H712.798V255.344H703.806V251.92ZM701.886 258.48H713.47V261.904H701.886V258.48ZM705.726 272.88L705.15 269.616L706.302 268.4L713.15 265.328C713.214 266.32 713.438 267.856 713.662 268.656C707.518 271.664 706.398 272.272 705.726 272.88ZM705.726 272.88C705.534 272.016 704.798 270.48 704.254 269.744C704.926 269.392 705.79 268.624 705.79 267.28V252.88H709.438V269.776C709.438 269.776 705.726 271.632 705.726 272.88Z" fill="white"/>
<path d="M854.854 244.048H868.422V247.504H858.022V272.88H854.854V244.048ZM867.814 244.048H871.014V268.88C871.014 270.608 870.726 271.632 869.702 272.24C868.646 272.784 867.11 272.88 864.902 272.88C864.838 271.952 864.358 270.32 863.91 269.392C865.286 269.488 866.758 269.456 867.238 269.456C867.654 269.456 867.814 269.296 867.814 268.848V244.048ZM859.302 249.872H866.534V253.008H859.302V249.872ZM859.558 255.408H861.83V267.024H859.558V255.408ZM860.998 255.408H866.31V265.36H860.998V262.448H863.942V258.352H860.998V255.408ZM846.15 242.896L849.51 243.92C848.198 247.664 845.958 251.536 843.43 253.968C843.174 253.136 842.246 251.12 841.638 250.192C843.558 248.432 845.222 245.744 846.15 242.896ZM845.99 245.744H854.054V249.264H845.35L845.99 245.744ZM846.342 272.88L845.638 269.52L846.63 268.304L853.286 264.496C853.414 265.52 853.83 267.056 854.118 267.824C848.07 271.504 846.95 272.208 846.342 272.88ZM844.262 251.92H853.734V255.344H844.262V251.92ZM842.406 258.48H853.862V261.904H842.406V258.48ZM846.342 272.88C846.054 272.112 845.222 270.736 844.646 270.16C845.35 269.68 846.374 268.592 846.374 267.024V252.592H849.926V269.2C849.926 269.2 846.342 271.6 846.342 272.88Z" fill="white"/>
<path d="M296.202 249.328H311.978V252.688H296.202V249.328ZM297.034 255.728H311.306V258.96H297.034V255.728ZM295.85 262.768H312.522V265.904H295.85V262.768ZM302.282 250.384H305.834V264.432H302.282V250.384ZM306.858 259.984L309.29 258.704C310.25 259.632 311.402 260.976 311.946 261.84L309.386 263.28C308.874 262.384 307.786 260.976 306.858 259.984ZM290.698 244.08H317.738V272.848H313.61V247.6H294.602V272.848H290.698V244.08ZM292.81 267.728H315.498V271.248H292.81V267.728ZM334.25 242.864H338.186V247.44H334.25V242.864ZM322.698 245.36H349.93V252.592H346.026V248.848H326.442V252.592H322.698V245.36ZM327.562 250.896H344.842V254.16H327.562V250.896ZM330.698 256.592L333.642 254.864C341.194 260.112 341.13 269.136 337.706 271.6C336.49 272.656 335.466 272.944 333.77 272.944C332.97 272.976 332.01 272.944 331.05 272.88C330.986 271.824 330.634 270.288 329.962 269.2C331.146 269.328 332.202 269.36 333.034 269.36C333.834 269.36 334.442 269.264 334.986 268.688C336.81 267.28 336.81 260.944 330.698 256.592ZM335.754 251.728L338.922 253.04C335.53 256.496 329.706 258.96 324.362 260.368C324.01 259.632 323.018 258.096 322.41 257.392C327.498 256.368 332.97 254.384 335.754 251.728ZM333.258 258.096L335.722 259.824C333.066 261.872 328.362 264.24 324.778 265.488C324.362 264.656 323.562 263.344 322.858 262.576C326.346 261.744 330.986 259.824 333.258 258.096ZM335.85 261.136L338.474 263.088C335.05 266.352 328.81 269.744 323.722 271.44C323.274 270.48 322.442 269.104 321.706 268.272C326.762 267.024 332.874 264.016 335.85 261.136ZM340.714 252.272C342.25 258.992 345.546 264.72 351.21 267.248C350.346 268.016 349.13 269.552 348.554 270.608C342.506 267.376 339.306 260.976 337.482 252.912L340.714 252.272ZM346.954 254.352L349.962 256.944C347.754 258.608 344.97 260.4 342.89 261.456L340.426 259.152C342.442 258 345.29 255.952 346.954 254.352ZM364.334 245.636L356.834 273.5H352.663L360.163 245.636H364.334ZM384.478 242.832H388.094V265.424H384.478V242.832ZM375.006 255.696L391.582 248.656L392.99 251.92L376.446 259.088L375.006 255.696ZM378.174 245.936H381.822V266.672C381.822 268.56 382.11 268.816 384.094 268.816C385.054 268.816 389.31 268.816 390.302 268.816C392.062 268.816 392.382 268.112 392.638 264.816C393.47 265.392 394.974 266 395.998 266.192C395.518 270.736 394.366 272.24 390.622 272.24C389.566 272.24 384.766 272.24 383.774 272.24C379.39 272.24 378.174 271.088 378.174 266.64V245.936ZM390.846 249.072H390.622L391.294 248.592L391.966 248.112L394.654 249.072L394.494 249.712C394.494 255.824 394.43 259.696 394.302 261.008C394.174 262.48 393.63 263.248 392.638 263.664C391.71 264.112 390.334 264.112 389.31 264.112C389.182 263.152 388.894 261.712 388.478 260.912C389.022 260.944 389.758 260.944 390.046 260.944C390.43 260.944 390.622 260.848 390.718 260.272C390.846 259.632 390.846 256.144 390.846 249.072ZM365.822 250.256H376.382V253.872H365.822V250.256ZM369.534 243.28H373.118V264.496H369.534V243.28ZM365.374 264.528C368.03 263.568 372.19 261.84 376.094 260.176L376.958 263.568C373.566 265.296 369.886 267.024 366.91 268.368L365.374 264.528ZM418.558 248.656L422.366 249.936C418.782 257.008 413.182 263.184 407.294 267.024C406.654 266.224 405.15 264.72 404.286 264.016C410.238 260.688 415.486 255.024 418.558 248.656ZM405.47 253.104L408.158 250.64C413.662 254.064 420.51 259.248 423.71 263.216L420.67 266.128C417.726 262.224 411.102 256.72 405.47 253.104ZM399.294 244.528H426.686V248.208H403.134V272.912H399.294V244.528ZM401.662 267.696H427.486V271.376H401.662V267.696Z" fill="white"/>
<line x1="214.963" y1="213.963" x2="214.963" y2="300.528" stroke="white" stroke-width="2"/>
<line x1="504.875" y1="213.963" x2="504.875" y2="300.528" stroke="white" stroke-width="2"/>
<line x1="645.338" y1="213.963" x2="645.338" y2="300.528" stroke="white" stroke-width="2"/>
<line x1="787.436" y1="213.963" x2="787.436" y2="300.528" stroke="white" stroke-width="2"/>
<defs>
<linearGradient id="paint0_linear_732_1078" x1="0" y1="183.43" x2="971" y2="183.43" gradientUnits="userSpaceOnUse">
<stop stop-color="#FF6A00" stop-opacity="0"/>
<stop offset="0.51" stop-color="#FF6A00"/>
<stop offset="1" stop-color="#FF6A00" stop-opacity="0"/>
</linearGradient>
<clipPath id="clip0_732_1078">
<path d="M40.0156 300.528H934.25V676.821C934.25 704.435 911.865 726.821 884.25 726.821H90.0156C62.4014 726.821 40.0156 704.435 40.0156 676.821V300.528Z" fill="white"/>
</clipPath>
</defs>
</svg>
