<svg width="395" height="195" viewBox="0 0 395 195" fill="none" xmlns="http://www.w3.org/2000/svg">
<g filter="url(#filter0_d_759_1177)">
<rect x="25" y="70" width="335" height="90" rx="45" fill="white"/>
</g>
<path d="M95.36 98.12H109.84V102.72H95.36V98.12ZM106.64 98.12H111.4V127.6C111.4 130.28 110.84 131.56 109.16 132.36C107.48 133.12 104.92 133.2 101.28 133.2C101.08 131.88 100.32 129.68 99.64 128.44C102 128.56 104.8 128.56 105.6 128.52C106.36 128.52 106.64 128.28 106.64 127.56V98.12ZM93.76 122.04C97.2 120.52 102.64 117.72 107.68 115.04L108.88 119C104.4 121.64 99.44 124.4 95.56 126.44L93.76 122.04ZM113.28 98.12H127.32V102.72H113.28V98.12ZM125 98.12H129.92V127.6C129.92 130.32 129.28 131.68 127.56 132.44C125.8 133.24 123.08 133.32 119.24 133.32C119.04 131.96 118.24 129.72 117.6 128.44C120.04 128.6 123.04 128.56 123.92 128.52C124.72 128.52 125 128.24 125 127.48V98.12ZM113.32 107.68L117.08 105.36C119.08 107.44 121.4 110.16 122.64 111.88L118.72 114.68C117.6 112.84 115.2 109.84 113.32 107.68ZM95.36 107.88L99.2 105.64C101.12 107.76 103.32 110.52 104.48 112.32L100.52 114.96C99.44 113.12 97.16 110.04 95.36 107.88ZM112.2 121.2C115.68 119.64 121.32 116.76 126.48 114.08L127.72 118C123.28 120.68 118.4 123.48 114.6 125.6L112.2 121.2ZM148.04 103.04H153.04V125.68C153.04 127.96 153.4 128.28 156.08 128.28C157.32 128.28 162.72 128.28 164.08 128.28C166.44 128.28 166.84 127.4 167.2 123C168.36 123.84 170.44 124.64 171.88 124.96C171.16 131 169.64 132.96 164.48 132.96C163.08 132.96 156.96 132.96 155.68 132.96C149.68 132.96 148.04 131.36 148.04 125.68V103.04ZM162.72 96.04L166.68 99.96C158.36 103.04 146.92 105.12 136.76 106.36C136.56 105.16 135.88 103.2 135.28 102.12C145.24 100.88 156.16 98.68 162.72 96.04ZM136.32 110.68L167.48 106.52L168.16 111L136.96 115.28L136.32 110.68ZM134.96 119.8L169.96 115.44L170.6 119.92L135.6 124.44L134.96 119.8ZM174.52 99.08H188V103.52H174.52V99.08ZM187.56 102.76H211.88V107.16H187.56V102.76ZM174.84 110.24H187.56V114.68H174.84V110.24ZM173.76 124.2C177.32 123.32 182.8 121.76 187.96 120.28L188.6 124.32C183.92 125.92 178.92 127.52 175 128.72L173.76 124.2ZM197.04 96H201.68V128.16C201.68 130.52 201.2 131.8 199.8 132.6C198.4 133.4 196.36 133.56 193.36 133.56C193.2 132.28 192.4 130.2 191.72 128.96C193.68 129.04 195.56 129 196.2 129C196.8 129 197.04 128.8 197.04 128.16V96ZM184.92 125.12C187.48 123.84 191.4 121.48 195.12 119.24L196.56 123.2C193.56 125.36 190.16 127.64 187.36 129.4L184.92 125.12ZM187.92 110.6L191.64 108.96C193.16 111.08 194.92 114 195.56 115.96L191.64 117.8C191.04 115.88 189.44 112.84 187.92 110.6ZM207.56 108.52L211.76 110.72C209.96 113.2 207.96 115.88 206.36 117.64L202.96 115.72C204.48 113.84 206.44 110.8 207.56 108.52ZM203.16 98.68L205.76 96.2C207.64 97.32 210 99.12 211.12 100.4L208.36 103.16C207.28 101.84 205 99.96 203.16 98.68ZM179 100.92H183.64V124.2L179 124.92V100.92ZM201.52 107.64C203.08 116.84 205.8 122.28 212.56 126.88C211.44 127.76 210.16 129.28 209.6 130.56C202.16 124.92 199.32 118.56 197.56 108.36L201.52 107.64ZM220 97.6H251.04V102.08H220V97.6ZM216.84 97.6H221.76V111.84C221.76 118.28 221.28 127.68 218.2 133.6C217.28 132.8 215.08 131.44 213.88 130.96C216.64 125.56 216.84 117.72 216.84 111.84V97.6ZM223.32 109.68H246.92V114.2H223.32V109.68ZM244.88 109.68H249.72C249.72 109.68 249.68 111.12 249.6 111.72C249.04 124.12 248.44 129 246.96 130.72C245.92 132.04 244.84 132.44 243.24 132.64C241.84 132.8 239.52 132.8 237.16 132.72C237.08 131.28 236.44 129.24 235.56 127.92C237.84 128.12 240.12 128.16 241.12 128.16C241.88 128.16 242.32 128.04 242.8 127.56C243.88 126.56 244.4 121.84 244.88 110.48V109.68ZM232.36 103.96H237.4C236.96 115.96 236.12 127.08 224.72 133.36C224.12 132.2 222.72 130.64 221.6 129.8C231.96 124.4 232.04 114.6 232.36 103.96ZM270.56 96.24H275.52V114.08C275.52 122.76 272.72 130.32 257.12 133.72C256.56 132.64 255.24 130.52 254.2 129.44C268.96 126.84 270.56 121.12 270.56 114.04V96.24ZM262.04 106.44V112.04H283.88V106.44H262.04ZM257.36 101.8H288.84V116.64H257.36V101.8ZM263.4 117.08C268.64 126.64 277.4 128.04 292.2 128.24C291.28 129.4 290.28 131.56 290 133.24C274.64 132.52 264.68 130.16 258.96 118.68L263.4 117.08Z" fill="#004793"/>
<path d="M184.812 8.09099L162.129 56.9311C164.869 56.5859 168.364 57.8157 171.449 60.2104L198.24 22.7659C202.21 18.9256 202.313 12.6777 198.473 8.70801C194.633 4.73833 188.385 4.63477 184.812 8.09099ZM185.938 81.5432L235.503 60.4909C239.473 56.6506 239.577 50.4027 235.736 46.433C231.896 42.4633 225.648 42.3597 221.678 46.2L182.97 72.1195C185.261 75.2823 186.374 78.8162 185.938 81.5432ZM200.928 25.5447L174.15 62.2082L180.294 68.5597L217.825 43.0113C222.589 38.403 222.718 30.5931 217.726 25.4325C213.899 20.6818 206.089 20.5524 200.928 25.5447ZM181.213 83.8085C183.992 81.1203 181.369 74.4366 175.224 68.0851C169.08 61.7336 162.487 58.8901 159.708 61.5782C153.754 67.3386 153.585 77.4915 159.346 83.4461C165.106 89.4006 175.259 89.5689 181.213 83.8085Z" fill="#004793"/>
<defs>
<filter id="filter0_d_759_1177" x="0" y="45" width="395" height="150" filterUnits="userSpaceOnUse" color-interpolation-filters="sRGB">
<feFlood flood-opacity="0" result="BackgroundImageFix"/>
<feColorMatrix in="SourceAlpha" type="matrix" values="0 0 0 0 0 0 0 0 0 0 0 0 0 0 0 0 0 0 127 0" result="hardAlpha"/>
<feOffset dx="5" dy="5"/>
<feGaussianBlur stdDeviation="15"/>
<feComposite in2="hardAlpha" operator="out"/>
<feColorMatrix type="matrix" values="0 0 0 0 0 0 0 0 0 0 0 0 0 0 0 0 0 0 0.25 0"/>
<feBlend mode="normal" in2="BackgroundImageFix" result="effect1_dropShadow_759_1177"/>
<feBlend mode="normal" in="SourceGraphic" in2="effect1_dropShadow_759_1177" result="shape"/>
</filter>
</defs>
</svg>
